M48
;DRILL file {KiCad (5.0.0-3-g5ebb6b6)} date Tuesday, January 01, 2019 at 03:13:05 PM
;FORMAT={-:-/ absolute / inch / decimal}
FMAT,2
INCH,TZ
T1C0.0157
T2C0.0315
T3C0.0394
T4C0.0433
%
G90
G05
M72
T1
X3.9469Y-5.3642
X3.9665Y-4.3504
X3.9961Y-2.7362
X3.9961Y-3.7598
X3.9961Y-4.7835
X4.0013Y-3.175
X4.0354Y-5.4823
X4.0364Y-3.6516
X4.0364Y-4.8248
X4.0468Y-4.4672
X4.0551Y-5.876
X4.0609Y-3.192
X4.0643Y-4.8802
X4.065Y-2.5
X4.065Y-3.4055
X4.065Y-3.8189
X4.065Y-5.2756
X4.065Y-5.6791
X4.0748Y-2.815
X4.0748Y-4.2815
X4.0756Y-3.8682
X4.0846Y-4.9409
X4.0846Y-5.4035
X4.0945Y-2.7264
X4.0945Y-3.4843
X4.124Y-3.1693
X4.1929Y-2.628
X4.1929Y-2.9724
X4.1929Y-3.6516
X4.1929Y-3.9961
X4.1929Y-4.6752
X4.1929Y-5.0197
X4.1929Y-6.0433
X4.1983Y-5.7042
X4.2815Y-2.7854
X4.2815Y-3.8091
X4.2815Y-4.8327
X4.3012Y-2.5197
X4.3209Y-3.622
X4.3307Y-2.6083
X4.3307Y-6.1122
X4.3366Y-4.6457
X4.3602Y-5.6791
X4.3701Y-2.4606
X4.4036Y-2.8022
X4.4036Y-3.815
X4.4124Y-4.8386
X4.4488Y-3.0217
X4.4488Y-3.2776
X4.4488Y-3.5531
X4.4488Y-4.0453
X4.4488Y-4.2224
X4.4488Y-4.3701
X4.4488Y-4.5768
X4.4488Y-5.1642
X4.4488Y-5.4134
X4.4488Y-5.5642
X4.4488Y-5.8366
X4.4788Y-4.8529
X4.4803Y-5.8947
X4.482Y-3.8261
X4.4834Y-2.8109
X4.4882Y-5.0394
X4.5669Y-5.635
X4.5768Y-5.0295
X4.5866Y-6.122
X4.6063Y-3.248
X4.6092Y-5.8839
X4.6161Y-2.7165
X4.6161Y-2.8248
X4.6161Y-5.7579
X4.626Y-3.8287
X4.626Y-4.8425
X4.6949Y-5.5512
X4.6949Y-5.6398
X4.7047Y-2.9724
X4.7047Y-3.9961
X4.7047Y-5.0197
X4.7047Y-6.0433
X4.7146Y-2.5394
X4.7343Y-5.3937
X4.7736Y-4.2224
X4.7736Y-4.3701
X4.7835Y-4.7343
X4.7928Y-2.7244
X4.7933Y-5.6496
X4.813Y-3.7008
X4.813Y-4.7628
X4.821Y-3.7484
X4.8228Y-2.8356
X4.827Y-5.8014
X4.8327Y-3.8878
X4.8327Y-5.7185
X4.8425Y-4.872
X4.8514Y-2.6924
X4.8524Y-3.8189
X4.8524Y-4.5374
X4.8622Y-4.3307
X4.8683Y-4.8103
X4.8819Y-5.2362
X4.9409Y-4.7933
X4.9425Y-3.7619
T2
X4.0059Y-4.5276
X4.0059Y-4.6276
X4.0059Y-4.7276
X4.0059Y-4.9705
X4.0059Y-5.0705
X4.0059Y-5.1705
X4.8917Y-3.9469
X4.8917Y-4.0469
X4.8917Y-4.1469
X4.8917Y-5.9941
X4.8917Y-6.0941
X4.8917Y-6.1941
X4.0059Y-5.548
X4.0059Y-5.648
X4.0059Y-5.748
X4.0059Y-2.9232
X4.0059Y-3.0232
X4.0059Y-3.1232
X4.0059Y-3.9469
X4.0059Y-4.0469
X4.0059Y-4.1469
X4.0059Y-5.9941
X4.0059Y-6.0941
X4.0059Y-6.1941
X4.0059Y-2.4803
X4.0059Y-2.5803
X4.0059Y-2.6803
X4.8917Y-2.9232
X4.8917Y-3.0232
X4.8917Y-3.1232
X4.0059Y-3.5039
X4.0059Y-3.6039
X4.0059Y-3.7039
X4.8917Y-4.9705
X4.8917Y-5.0705
X4.8917Y-5.1705
T3
X4.9508Y-2.4213
X4.4488Y-6.2303
T4
X4.2224Y-3.3169
X4.2224Y-3.435
X4.2224Y-3.7697
X4.2224Y-3.878
X4.2224Y-4.2126
X4.2224Y-4.3406
X4.2224Y-4.4587
X4.2224Y-4.7933
X4.6752Y-2.8543
X4.6752Y-3.189
X4.2224Y-4.9016
X4.2224Y-5.2362
X4.6752Y-2.2933
X4.6752Y-2.4114
X4.6752Y-2.7461
X4.2224Y-5.3642
X4.2224Y-5.4823
X4.2224Y-5.8169
X4.2224Y-5.9252
X4.2224Y-6.2598
X4.2224Y-6.378
X4.6752Y-3.3169
X4.6752Y-3.435
X4.6752Y-3.7697
X4.6752Y-3.878
X4.6752Y-4.2126
X4.6752Y-4.3406
X4.6752Y-4.4587
X4.6752Y-4.7933
X4.6752Y-4.9016
X4.6752Y-5.2362
X4.2224Y-2.2933
X4.2224Y-2.4114
X4.2224Y-2.7461
X4.2224Y-2.8543
X4.2224Y-3.189
X4.6752Y-5.3642
X4.6752Y-5.4823
X4.6752Y-5.8169
X4.6752Y-5.9252
X4.6752Y-6.2598
X4.6752Y-6.378
T0
M30
