G04 #@! TF.GenerationSoftware,KiCad,Pcbnew,(5.0.0-3-g5ebb6b6)*
G04 #@! TF.CreationDate,2019-01-01T15:12:14-08:00*
G04 #@! TF.ProjectId,BuffMult,427566664D756C742E6B696361645F70,rev?*
G04 #@! TF.SameCoordinates,Original*
G04 #@! TF.FileFunction,Legend,Bot*
G04 #@! TF.FilePolarity,Positive*
%FSLAX46Y46*%
G04 Gerber Fmt 4.6, Leading zero omitted, Abs format (unit mm)*
G04 Created by KiCad (PCBNEW (5.0.0-3-g5ebb6b6)) date Tuesday, January 01, 2019 at 03:12:14 PM*
%MOMM*%
%LPD*%
G01*
G04 APERTURE LIST*
%ADD10C,0.120000*%
%ADD11C,0.127000*%
G04 APERTURE END LIST*
D10*
G04 #@! TO.C,JP4*
X99350000Y-70000000D02*
X99350000Y-72000000D01*
X102150000Y-70000000D02*
X99350000Y-70000000D01*
X102150000Y-72000000D02*
X102150000Y-70000000D01*
X99350000Y-72000000D02*
X102150000Y-72000000D01*
G04 #@! TO.C,R8*
X125508578Y-140540000D02*
X124991422Y-140540000D01*
X125508578Y-141960000D02*
X124991422Y-141960000D01*
G04 #@! TO.C,D1*
X114000000Y-133850000D02*
X112000000Y-133850000D01*
X112000000Y-133850000D02*
X112000000Y-129950000D01*
X114000000Y-133850000D02*
X114000000Y-129950000D01*
G04 #@! TO.C,R32*
X125290000Y-151991422D02*
X125290000Y-152508578D01*
X126710000Y-151991422D02*
X126710000Y-152508578D01*
G04 #@! TO.C,R40*
X125290000Y-156991422D02*
X125290000Y-157508578D01*
X126710000Y-156991422D02*
X126710000Y-157508578D01*
G04 #@! TO.C,JP11*
X123850000Y-150250000D02*
X126650000Y-150250000D01*
X126650000Y-150250000D02*
X126650000Y-148250000D01*
X126650000Y-148250000D02*
X123850000Y-148250000D01*
X123850000Y-148250000D02*
X123850000Y-150250000D01*
G04 #@! TO.C,C1*
X124991422Y-68960000D02*
X125508578Y-68960000D01*
X124991422Y-67540000D02*
X125508578Y-67540000D01*
G04 #@! TO.C,C2*
X125508578Y-93540000D02*
X124991422Y-93540000D01*
X125508578Y-94960000D02*
X124991422Y-94960000D01*
G04 #@! TO.C,C3*
X125508578Y-119540000D02*
X124991422Y-119540000D01*
X125508578Y-120960000D02*
X124991422Y-120960000D01*
G04 #@! TO.C,D2*
X114000000Y-143000000D02*
X114000000Y-139100000D01*
X112000000Y-143000000D02*
X112000000Y-139100000D01*
X114000000Y-143000000D02*
X112000000Y-143000000D01*
G04 #@! TO.C,R1*
X125508578Y-64790000D02*
X124991422Y-64790000D01*
X125508578Y-66210000D02*
X124991422Y-66210000D01*
G04 #@! TO.C,R2*
X125508578Y-90790000D02*
X124991422Y-90790000D01*
X125508578Y-92210000D02*
X124991422Y-92210000D01*
G04 #@! TO.C,R3*
X125508578Y-116790000D02*
X124991422Y-116790000D01*
X125508578Y-118210000D02*
X124991422Y-118210000D01*
G04 #@! TO.C,R5*
X112290000Y-63758578D02*
X112290000Y-63241422D01*
X113710000Y-63758578D02*
X113710000Y-63241422D01*
G04 #@! TO.C,R6*
X125508578Y-89460000D02*
X124991422Y-89460000D01*
X125508578Y-88040000D02*
X124991422Y-88040000D01*
G04 #@! TO.C,R7*
X125508578Y-115460000D02*
X124991422Y-115460000D01*
X125508578Y-114040000D02*
X124991422Y-114040000D01*
G04 #@! TO.C,R13*
X100710000Y-62741422D02*
X100710000Y-63258578D01*
X99290000Y-62741422D02*
X99290000Y-63258578D01*
G04 #@! TO.C,R14*
X99290000Y-88741422D02*
X99290000Y-89258578D01*
X100710000Y-88741422D02*
X100710000Y-89258578D01*
G04 #@! TO.C,R15*
X99290000Y-114741422D02*
X99290000Y-115258578D01*
X100710000Y-114741422D02*
X100710000Y-115258578D01*
G04 #@! TO.C,R21*
X100710000Y-67741422D02*
X100710000Y-68258578D01*
X99290000Y-67741422D02*
X99290000Y-68258578D01*
G04 #@! TO.C,R22*
X100710000Y-93741422D02*
X100710000Y-94258578D01*
X99290000Y-93741422D02*
X99290000Y-94258578D01*
G04 #@! TO.C,R23*
X100710000Y-119741422D02*
X100710000Y-120258578D01*
X99290000Y-119741422D02*
X99290000Y-120258578D01*
G04 #@! TO.C,R29*
X126710000Y-73991422D02*
X126710000Y-74508578D01*
X125290000Y-73991422D02*
X125290000Y-74508578D01*
G04 #@! TO.C,R30*
X126710000Y-99991422D02*
X126710000Y-100508578D01*
X125290000Y-99991422D02*
X125290000Y-100508578D01*
G04 #@! TO.C,R31*
X126710000Y-125991422D02*
X126710000Y-126508578D01*
X125290000Y-125991422D02*
X125290000Y-126508578D01*
G04 #@! TO.C,R37*
X125290000Y-78991422D02*
X125290000Y-79508578D01*
X126710000Y-78991422D02*
X126710000Y-79508578D01*
G04 #@! TO.C,R38*
X125290000Y-104991422D02*
X125290000Y-105508578D01*
X126710000Y-104991422D02*
X126710000Y-105508578D01*
G04 #@! TO.C,R39*
X125290000Y-130991422D02*
X125290000Y-131508578D01*
X126710000Y-130991422D02*
X126710000Y-131508578D01*
G04 #@! TO.C,R45*
X99290000Y-73991422D02*
X99290000Y-74508578D01*
X100710000Y-73991422D02*
X100710000Y-74508578D01*
G04 #@! TO.C,R46*
X99290000Y-99991422D02*
X99290000Y-100508578D01*
X100710000Y-99991422D02*
X100710000Y-100508578D01*
G04 #@! TO.C,R47*
X99290000Y-125991422D02*
X99290000Y-126508578D01*
X100710000Y-125991422D02*
X100710000Y-126508578D01*
G04 #@! TO.C,R53*
X100710000Y-78991422D02*
X100710000Y-79508578D01*
X99290000Y-78991422D02*
X99290000Y-79508578D01*
G04 #@! TO.C,R54*
X100710000Y-104991422D02*
X100710000Y-105508578D01*
X99290000Y-104991422D02*
X99290000Y-105508578D01*
G04 #@! TO.C,R55*
X100710000Y-130991422D02*
X100710000Y-131508578D01*
X99290000Y-130991422D02*
X99290000Y-131508578D01*
D11*
G04 #@! TO.C,U1*
X114250000Y-70750000D02*
X117250000Y-70750000D01*
X117250000Y-70750000D02*
X120250000Y-70750000D01*
X120250000Y-70750000D02*
X123250000Y-70750000D01*
X114250000Y-70750000D02*
X114250000Y-60250000D01*
X114250000Y-60250000D02*
X118950000Y-60250000D01*
X118950000Y-60250000D02*
X123250000Y-60250000D01*
X123250000Y-60250000D02*
X123250000Y-70750000D01*
X121912280Y-64750000D02*
G75*
G03X121912280Y-64750000I-3162280J0D01*
G01*
X117250000Y-70750000D02*
X117250000Y-68750000D01*
X117250000Y-68750000D02*
X120250000Y-68750000D01*
X120250000Y-68750000D02*
X120250000Y-70750000D01*
X121440720Y-64750000D02*
G75*
G03X121440720Y-64750000I-2690720J0D01*
G01*
X118550000Y-60150000D02*
X118550000Y-58050000D01*
X118550000Y-58050000D02*
X118950000Y-58050000D01*
X118950000Y-58050000D02*
X118950000Y-60250000D01*
D10*
G04 #@! TO.C,C18*
X112290000Y-73803922D02*
X112290000Y-74321078D01*
X113710000Y-73803922D02*
X113710000Y-74321078D01*
G04 #@! TO.C,C23*
X113710000Y-68303922D02*
X113710000Y-68821078D01*
X112290000Y-68303922D02*
X112290000Y-68821078D01*
G04 #@! TO.C,C4*
X125508578Y-145540000D02*
X124991422Y-145540000D01*
X125508578Y-146960000D02*
X124991422Y-146960000D01*
G04 #@! TO.C,R4*
X125508578Y-144460000D02*
X124991422Y-144460000D01*
X125508578Y-143040000D02*
X124991422Y-143040000D01*
G04 #@! TO.C,R16*
X99290000Y-146196078D02*
X99290000Y-145678922D01*
X100710000Y-146196078D02*
X100710000Y-145678922D01*
G04 #@! TO.C,R24*
X99290000Y-141258578D02*
X99290000Y-140741422D01*
X100710000Y-141258578D02*
X100710000Y-140741422D01*
G04 #@! TO.C,R48*
X100710000Y-151991422D02*
X100710000Y-152508578D01*
X99290000Y-151991422D02*
X99290000Y-152508578D01*
G04 #@! TO.C,R56*
X100710000Y-156991422D02*
X100710000Y-157508578D01*
X99290000Y-156991422D02*
X99290000Y-157508578D01*
G04 #@! TO.C,JP1*
X123625000Y-139000000D02*
X126425000Y-139000000D01*
X126425000Y-139000000D02*
X126425000Y-137000000D01*
X126425000Y-137000000D02*
X123625000Y-137000000D01*
X123625000Y-137000000D02*
X123625000Y-139000000D01*
G04 #@! TO.C,JP2*
X123850000Y-86500000D02*
X126650000Y-86500000D01*
X126650000Y-86500000D02*
X126650000Y-84500000D01*
X126650000Y-84500000D02*
X123850000Y-84500000D01*
X123850000Y-84500000D02*
X123850000Y-86500000D01*
G04 #@! TO.C,JP3*
X123850000Y-110750000D02*
X123850000Y-112750000D01*
X126650000Y-110750000D02*
X123850000Y-110750000D01*
X126650000Y-112750000D02*
X126650000Y-110750000D01*
X123850000Y-112750000D02*
X126650000Y-112750000D01*
G04 #@! TO.C,JP6*
X99350000Y-113000000D02*
X102150000Y-113000000D01*
X102150000Y-113000000D02*
X102150000Y-111000000D01*
X102150000Y-111000000D02*
X99350000Y-111000000D01*
X99350000Y-111000000D02*
X99350000Y-113000000D01*
G04 #@! TO.C,JP7*
X99350000Y-137000000D02*
X99350000Y-139000000D01*
X102150000Y-137000000D02*
X99350000Y-137000000D01*
X102150000Y-139000000D02*
X102150000Y-137000000D01*
X99350000Y-139000000D02*
X102150000Y-139000000D01*
G04 #@! TO.C,JP8*
X123850000Y-72000000D02*
X126650000Y-72000000D01*
X126650000Y-72000000D02*
X126650000Y-70000000D01*
X126650000Y-70000000D02*
X123850000Y-70000000D01*
X123850000Y-70000000D02*
X123850000Y-72000000D01*
G04 #@! TO.C,JP9*
X123850000Y-98000000D02*
X126650000Y-98000000D01*
X126650000Y-98000000D02*
X126650000Y-96000000D01*
X126650000Y-96000000D02*
X123850000Y-96000000D01*
X123850000Y-96000000D02*
X123850000Y-98000000D01*
G04 #@! TO.C,JP10*
X123850000Y-122250000D02*
X123850000Y-124250000D01*
X126650000Y-122250000D02*
X123850000Y-122250000D01*
X126650000Y-124250000D02*
X126650000Y-122250000D01*
X123850000Y-124250000D02*
X126650000Y-124250000D01*
G04 #@! TO.C,JP12*
X99350000Y-81250000D02*
X99350000Y-83250000D01*
X102150000Y-81250000D02*
X99350000Y-81250000D01*
X102150000Y-83250000D02*
X102150000Y-81250000D01*
X99350000Y-83250000D02*
X102150000Y-83250000D01*
G04 #@! TO.C,JP13*
X99375000Y-96250000D02*
X99375000Y-98250000D01*
X102175000Y-96250000D02*
X99375000Y-96250000D01*
X102175000Y-98250000D02*
X102175000Y-96250000D01*
X99375000Y-98250000D02*
X102175000Y-98250000D01*
G04 #@! TO.C,JP14*
X99350000Y-124250000D02*
X102150000Y-124250000D01*
X102150000Y-124250000D02*
X102150000Y-122250000D01*
X102150000Y-122250000D02*
X99350000Y-122250000D01*
X99350000Y-122250000D02*
X99350000Y-124250000D01*
G04 #@! TO.C,JP15*
X99350000Y-148250000D02*
X99350000Y-150250000D01*
X102150000Y-148250000D02*
X99350000Y-148250000D01*
X102150000Y-150250000D02*
X102150000Y-148250000D01*
X99350000Y-150250000D02*
X102150000Y-150250000D01*
D11*
G04 #@! TO.C,U9*
X102750000Y-70750000D02*
X105750000Y-70750000D01*
X105750000Y-70750000D02*
X108750000Y-70750000D01*
X108750000Y-70750000D02*
X111750000Y-70750000D01*
X102750000Y-70750000D02*
X102750000Y-60250000D01*
X102750000Y-60250000D02*
X107450000Y-60250000D01*
X107450000Y-60250000D02*
X111750000Y-60250000D01*
X111750000Y-60250000D02*
X111750000Y-70750000D01*
X110412280Y-64750000D02*
G75*
G03X110412280Y-64750000I-3162280J0D01*
G01*
X105750000Y-70750000D02*
X105750000Y-68750000D01*
X105750000Y-68750000D02*
X108750000Y-68750000D01*
X108750000Y-68750000D02*
X108750000Y-70750000D01*
X109940720Y-64750000D02*
G75*
G03X109940720Y-64750000I-2690720J0D01*
G01*
X107050000Y-60150000D02*
X107050000Y-58050000D01*
X107050000Y-58050000D02*
X107450000Y-58050000D01*
X107450000Y-58050000D02*
X107450000Y-60250000D01*
G04 #@! TO.C,U13*
X123250000Y-71500000D02*
X120250000Y-71500000D01*
X120250000Y-71500000D02*
X117250000Y-71500000D01*
X117250000Y-71500000D02*
X114250000Y-71500000D01*
X123250000Y-71500000D02*
X123250000Y-82000000D01*
X123250000Y-82000000D02*
X118550000Y-82000000D01*
X118550000Y-82000000D02*
X114250000Y-82000000D01*
X114250000Y-82000000D02*
X114250000Y-71500000D01*
X121912280Y-77500000D02*
G75*
G03X121912280Y-77500000I-3162280J0D01*
G01*
X120250000Y-71500000D02*
X120250000Y-73500000D01*
X120250000Y-73500000D02*
X117250000Y-73500000D01*
X117250000Y-73500000D02*
X117250000Y-71500000D01*
X121440720Y-77500000D02*
G75*
G03X121440720Y-77500000I-2690720J0D01*
G01*
G04 #@! TO.C,U17*
X109940720Y-77500000D02*
G75*
G03X109940720Y-77500000I-2690720J0D01*
G01*
X105750000Y-73500000D02*
X105750000Y-71500000D01*
X108750000Y-73500000D02*
X105750000Y-73500000D01*
X108750000Y-71500000D02*
X108750000Y-73500000D01*
X110412280Y-77500000D02*
G75*
G03X110412280Y-77500000I-3162280J0D01*
G01*
X102750000Y-82000000D02*
X102750000Y-71500000D01*
X107050000Y-82000000D02*
X102750000Y-82000000D01*
X111750000Y-82000000D02*
X107050000Y-82000000D01*
X111750000Y-71500000D02*
X111750000Y-82000000D01*
X105750000Y-71500000D02*
X102750000Y-71500000D01*
X108750000Y-71500000D02*
X105750000Y-71500000D01*
X111750000Y-71500000D02*
X108750000Y-71500000D01*
G04 #@! TO.C,U3*
X114250000Y-96750000D02*
X117250000Y-96750000D01*
X117250000Y-96750000D02*
X120250000Y-96750000D01*
X120250000Y-96750000D02*
X123250000Y-96750000D01*
X114250000Y-96750000D02*
X114250000Y-86250000D01*
X114250000Y-86250000D02*
X118950000Y-86250000D01*
X118950000Y-86250000D02*
X123250000Y-86250000D01*
X123250000Y-86250000D02*
X123250000Y-96750000D01*
X121912280Y-90750000D02*
G75*
G03X121912280Y-90750000I-3162280J0D01*
G01*
X117250000Y-96750000D02*
X117250000Y-94750000D01*
X117250000Y-94750000D02*
X120250000Y-94750000D01*
X120250000Y-94750000D02*
X120250000Y-96750000D01*
X121440720Y-90750000D02*
G75*
G03X121440720Y-90750000I-2690720J0D01*
G01*
X118550000Y-86150000D02*
X118550000Y-84050000D01*
X118550000Y-84050000D02*
X118950000Y-84050000D01*
X118950000Y-84050000D02*
X118950000Y-86250000D01*
G04 #@! TO.C,U10*
X107450000Y-84050000D02*
X107450000Y-86250000D01*
X107050000Y-84050000D02*
X107450000Y-84050000D01*
X107050000Y-86150000D02*
X107050000Y-84050000D01*
X109940720Y-90750000D02*
G75*
G03X109940720Y-90750000I-2690720J0D01*
G01*
X108750000Y-94750000D02*
X108750000Y-96750000D01*
X105750000Y-94750000D02*
X108750000Y-94750000D01*
X105750000Y-96750000D02*
X105750000Y-94750000D01*
X110412280Y-90750000D02*
G75*
G03X110412280Y-90750000I-3162280J0D01*
G01*
X111750000Y-86250000D02*
X111750000Y-96750000D01*
X107450000Y-86250000D02*
X111750000Y-86250000D01*
X102750000Y-86250000D02*
X107450000Y-86250000D01*
X102750000Y-96750000D02*
X102750000Y-86250000D01*
X108750000Y-96750000D02*
X111750000Y-96750000D01*
X105750000Y-96750000D02*
X108750000Y-96750000D01*
X102750000Y-96750000D02*
X105750000Y-96750000D01*
G04 #@! TO.C,U14*
X121440720Y-103500000D02*
G75*
G03X121440720Y-103500000I-2690720J0D01*
G01*
X117250000Y-99500000D02*
X117250000Y-97500000D01*
X120250000Y-99500000D02*
X117250000Y-99500000D01*
X120250000Y-97500000D02*
X120250000Y-99500000D01*
X121912280Y-103500000D02*
G75*
G03X121912280Y-103500000I-3162280J0D01*
G01*
X114250000Y-108000000D02*
X114250000Y-97500000D01*
X118550000Y-108000000D02*
X114250000Y-108000000D01*
X123250000Y-108000000D02*
X118550000Y-108000000D01*
X123250000Y-97500000D02*
X123250000Y-108000000D01*
X117250000Y-97500000D02*
X114250000Y-97500000D01*
X120250000Y-97500000D02*
X117250000Y-97500000D01*
X123250000Y-97500000D02*
X120250000Y-97500000D01*
G04 #@! TO.C,U18*
X111750000Y-97500000D02*
X108750000Y-97500000D01*
X108750000Y-97500000D02*
X105750000Y-97500000D01*
X105750000Y-97500000D02*
X102750000Y-97500000D01*
X111750000Y-97500000D02*
X111750000Y-108000000D01*
X111750000Y-108000000D02*
X107050000Y-108000000D01*
X107050000Y-108000000D02*
X102750000Y-108000000D01*
X102750000Y-108000000D02*
X102750000Y-97500000D01*
X110412280Y-103500000D02*
G75*
G03X110412280Y-103500000I-3162280J0D01*
G01*
X108750000Y-97500000D02*
X108750000Y-99500000D01*
X108750000Y-99500000D02*
X105750000Y-99500000D01*
X105750000Y-99500000D02*
X105750000Y-97500000D01*
X109940720Y-103500000D02*
G75*
G03X109940720Y-103500000I-2690720J0D01*
G01*
G04 #@! TO.C,U5*
X118950000Y-110050000D02*
X118950000Y-112250000D01*
X118550000Y-110050000D02*
X118950000Y-110050000D01*
X118550000Y-112150000D02*
X118550000Y-110050000D01*
X121440720Y-116750000D02*
G75*
G03X121440720Y-116750000I-2690720J0D01*
G01*
X120250000Y-120750000D02*
X120250000Y-122750000D01*
X117250000Y-120750000D02*
X120250000Y-120750000D01*
X117250000Y-122750000D02*
X117250000Y-120750000D01*
X121912280Y-116750000D02*
G75*
G03X121912280Y-116750000I-3162280J0D01*
G01*
X123250000Y-112250000D02*
X123250000Y-122750000D01*
X118950000Y-112250000D02*
X123250000Y-112250000D01*
X114250000Y-112250000D02*
X118950000Y-112250000D01*
X114250000Y-122750000D02*
X114250000Y-112250000D01*
X120250000Y-122750000D02*
X123250000Y-122750000D01*
X117250000Y-122750000D02*
X120250000Y-122750000D01*
X114250000Y-122750000D02*
X117250000Y-122750000D01*
G04 #@! TO.C,U11*
X102750000Y-122750000D02*
X105750000Y-122750000D01*
X105750000Y-122750000D02*
X108750000Y-122750000D01*
X108750000Y-122750000D02*
X111750000Y-122750000D01*
X102750000Y-122750000D02*
X102750000Y-112250000D01*
X102750000Y-112250000D02*
X107450000Y-112250000D01*
X107450000Y-112250000D02*
X111750000Y-112250000D01*
X111750000Y-112250000D02*
X111750000Y-122750000D01*
X110412280Y-116750000D02*
G75*
G03X110412280Y-116750000I-3162280J0D01*
G01*
X105750000Y-122750000D02*
X105750000Y-120750000D01*
X105750000Y-120750000D02*
X108750000Y-120750000D01*
X108750000Y-120750000D02*
X108750000Y-122750000D01*
X109940720Y-116750000D02*
G75*
G03X109940720Y-116750000I-2690720J0D01*
G01*
X107050000Y-112150000D02*
X107050000Y-110050000D01*
X107050000Y-110050000D02*
X107450000Y-110050000D01*
X107450000Y-110050000D02*
X107450000Y-112250000D01*
G04 #@! TO.C,U15*
X121440720Y-129500000D02*
G75*
G03X121440720Y-129500000I-2690720J0D01*
G01*
X117250000Y-125500000D02*
X117250000Y-123500000D01*
X120250000Y-125500000D02*
X117250000Y-125500000D01*
X120250000Y-123500000D02*
X120250000Y-125500000D01*
X121912280Y-129500000D02*
G75*
G03X121912280Y-129500000I-3162280J0D01*
G01*
X114250000Y-134000000D02*
X114250000Y-123500000D01*
X118550000Y-134000000D02*
X114250000Y-134000000D01*
X123250000Y-134000000D02*
X118550000Y-134000000D01*
X123250000Y-123500000D02*
X123250000Y-134000000D01*
X117250000Y-123500000D02*
X114250000Y-123500000D01*
X120250000Y-123500000D02*
X117250000Y-123500000D01*
X123250000Y-123500000D02*
X120250000Y-123500000D01*
G04 #@! TO.C,U19*
X111750000Y-123500000D02*
X108750000Y-123500000D01*
X108750000Y-123500000D02*
X105750000Y-123500000D01*
X105750000Y-123500000D02*
X102750000Y-123500000D01*
X111750000Y-123500000D02*
X111750000Y-134000000D01*
X111750000Y-134000000D02*
X107050000Y-134000000D01*
X107050000Y-134000000D02*
X102750000Y-134000000D01*
X102750000Y-134000000D02*
X102750000Y-123500000D01*
X110412280Y-129500000D02*
G75*
G03X110412280Y-129500000I-3162280J0D01*
G01*
X108750000Y-123500000D02*
X108750000Y-125500000D01*
X108750000Y-125500000D02*
X105750000Y-125500000D01*
X105750000Y-125500000D02*
X105750000Y-123500000D01*
X109940720Y-129500000D02*
G75*
G03X109940720Y-129500000I-2690720J0D01*
G01*
G04 #@! TO.C,U7*
X118950000Y-136050000D02*
X118950000Y-138250000D01*
X118550000Y-136050000D02*
X118950000Y-136050000D01*
X118550000Y-138150000D02*
X118550000Y-136050000D01*
X121440720Y-142750000D02*
G75*
G03X121440720Y-142750000I-2690720J0D01*
G01*
X120250000Y-146750000D02*
X120250000Y-148750000D01*
X117250000Y-146750000D02*
X120250000Y-146750000D01*
X117250000Y-148750000D02*
X117250000Y-146750000D01*
X121912280Y-142750000D02*
G75*
G03X121912280Y-142750000I-3162280J0D01*
G01*
X123250000Y-138250000D02*
X123250000Y-148750000D01*
X118950000Y-138250000D02*
X123250000Y-138250000D01*
X114250000Y-138250000D02*
X118950000Y-138250000D01*
X114250000Y-148750000D02*
X114250000Y-138250000D01*
X120250000Y-148750000D02*
X123250000Y-148750000D01*
X117250000Y-148750000D02*
X120250000Y-148750000D01*
X114250000Y-148750000D02*
X117250000Y-148750000D01*
G04 #@! TO.C,U12*
X107450000Y-136050000D02*
X107450000Y-138250000D01*
X107050000Y-136050000D02*
X107450000Y-136050000D01*
X107050000Y-138150000D02*
X107050000Y-136050000D01*
X109940720Y-142750000D02*
G75*
G03X109940720Y-142750000I-2690720J0D01*
G01*
X108750000Y-146750000D02*
X108750000Y-148750000D01*
X105750000Y-146750000D02*
X108750000Y-146750000D01*
X105750000Y-148750000D02*
X105750000Y-146750000D01*
X110412280Y-142750000D02*
G75*
G03X110412280Y-142750000I-3162280J0D01*
G01*
X111750000Y-138250000D02*
X111750000Y-148750000D01*
X107450000Y-138250000D02*
X111750000Y-138250000D01*
X102750000Y-138250000D02*
X107450000Y-138250000D01*
X102750000Y-148750000D02*
X102750000Y-138250000D01*
X108750000Y-148750000D02*
X111750000Y-148750000D01*
X105750000Y-148750000D02*
X108750000Y-148750000D01*
X102750000Y-148750000D02*
X105750000Y-148750000D01*
G04 #@! TO.C,U16*
X123250000Y-149500000D02*
X120250000Y-149500000D01*
X120250000Y-149500000D02*
X117250000Y-149500000D01*
X117250000Y-149500000D02*
X114250000Y-149500000D01*
X123250000Y-149500000D02*
X123250000Y-160000000D01*
X123250000Y-160000000D02*
X118550000Y-160000000D01*
X118550000Y-160000000D02*
X114250000Y-160000000D01*
X114250000Y-160000000D02*
X114250000Y-149500000D01*
X121912280Y-155500000D02*
G75*
G03X121912280Y-155500000I-3162280J0D01*
G01*
X120250000Y-149500000D02*
X120250000Y-151500000D01*
X120250000Y-151500000D02*
X117250000Y-151500000D01*
X117250000Y-151500000D02*
X117250000Y-149500000D01*
X121440720Y-155500000D02*
G75*
G03X121440720Y-155500000I-2690720J0D01*
G01*
X118950000Y-160100000D02*
X118950000Y-162200000D01*
X118950000Y-162200000D02*
X118550000Y-162200000D01*
X118550000Y-162200000D02*
X118550000Y-160000000D01*
G04 #@! TO.C,U20*
X107050000Y-162200000D02*
X107050000Y-160000000D01*
X107450000Y-162200000D02*
X107050000Y-162200000D01*
X107450000Y-160100000D02*
X107450000Y-162200000D01*
X109940720Y-155500000D02*
G75*
G03X109940720Y-155500000I-2690720J0D01*
G01*
X105750000Y-151500000D02*
X105750000Y-149500000D01*
X108750000Y-151500000D02*
X105750000Y-151500000D01*
X108750000Y-149500000D02*
X108750000Y-151500000D01*
X110412280Y-155500000D02*
G75*
G03X110412280Y-155500000I-3162280J0D01*
G01*
X102750000Y-160000000D02*
X102750000Y-149500000D01*
X107050000Y-160000000D02*
X102750000Y-160000000D01*
X111750000Y-160000000D02*
X107050000Y-160000000D01*
X111750000Y-149500000D02*
X111750000Y-160000000D01*
X105750000Y-149500000D02*
X102750000Y-149500000D01*
X108750000Y-149500000D02*
X105750000Y-149500000D01*
X111750000Y-149500000D02*
X108750000Y-149500000D01*
D10*
G04 #@! TO.C,C21*
X112290000Y-146071078D02*
X112290000Y-145553922D01*
X113710000Y-146071078D02*
X113710000Y-145553922D01*
G04 #@! TO.C,C26*
X113710000Y-152508578D02*
X113710000Y-151991422D01*
X112290000Y-152508578D02*
X112290000Y-151991422D01*
G04 #@! TO.C,C19*
X113710000Y-94508578D02*
X113710000Y-93991422D01*
X112290000Y-94508578D02*
X112290000Y-93991422D01*
G04 #@! TO.C,C20*
X113710000Y-120508578D02*
X113710000Y-119991422D01*
X112290000Y-120508578D02*
X112290000Y-119991422D01*
G04 #@! TO.C,C24*
X112290000Y-100008578D02*
X112290000Y-99491422D01*
X113710000Y-100008578D02*
X113710000Y-99491422D01*
G04 #@! TO.C,C25*
X112290000Y-125758578D02*
X112290000Y-125241422D01*
X113710000Y-125758578D02*
X113710000Y-125241422D01*
G04 #@! TO.C,JP5*
X99350000Y-84750000D02*
X99350000Y-86750000D01*
X102150000Y-84750000D02*
X99350000Y-84750000D01*
X102150000Y-86750000D02*
X102150000Y-84750000D01*
X99350000Y-86750000D02*
X102150000Y-86750000D01*
G04 #@! TO.C,JP4*
X102166666Y-69226190D02*
X102166666Y-69583333D01*
X102190476Y-69654761D01*
X102238095Y-69702380D01*
X102309523Y-69726190D01*
X102357142Y-69726190D01*
X101928571Y-69726190D02*
X101928571Y-69226190D01*
X101738095Y-69226190D01*
X101690476Y-69250000D01*
X101666666Y-69273809D01*
X101642857Y-69321428D01*
X101642857Y-69392857D01*
X101666666Y-69440476D01*
X101690476Y-69464285D01*
X101738095Y-69488095D01*
X101928571Y-69488095D01*
X101214285Y-69392857D02*
X101214285Y-69726190D01*
X101333333Y-69202380D02*
X101452380Y-69559523D01*
X101142857Y-69559523D01*
G04 #@! TO.C,R8*
X125333333Y-140226190D02*
X125500000Y-139988095D01*
X125619047Y-140226190D02*
X125619047Y-139726190D01*
X125428571Y-139726190D01*
X125380952Y-139750000D01*
X125357142Y-139773809D01*
X125333333Y-139821428D01*
X125333333Y-139892857D01*
X125357142Y-139940476D01*
X125380952Y-139964285D01*
X125428571Y-139988095D01*
X125619047Y-139988095D01*
X125047619Y-139940476D02*
X125095238Y-139916666D01*
X125119047Y-139892857D01*
X125142857Y-139845238D01*
X125142857Y-139821428D01*
X125119047Y-139773809D01*
X125095238Y-139750000D01*
X125047619Y-139726190D01*
X124952380Y-139726190D01*
X124904761Y-139750000D01*
X124880952Y-139773809D01*
X124857142Y-139821428D01*
X124857142Y-139845238D01*
X124880952Y-139892857D01*
X124904761Y-139916666D01*
X124952380Y-139940476D01*
X125047619Y-139940476D01*
X125095238Y-139964285D01*
X125119047Y-139988095D01*
X125142857Y-140035714D01*
X125142857Y-140130952D01*
X125119047Y-140178571D01*
X125095238Y-140202380D01*
X125047619Y-140226190D01*
X124952380Y-140226190D01*
X124904761Y-140202380D01*
X124880952Y-140178571D01*
X124857142Y-140130952D01*
X124857142Y-140035714D01*
X124880952Y-139988095D01*
X124904761Y-139964285D01*
X124952380Y-139940476D01*
G04 #@! TO.C,D1*
X113369047Y-129226190D02*
X113369047Y-128726190D01*
X113250000Y-128726190D01*
X113178571Y-128750000D01*
X113130952Y-128797619D01*
X113107142Y-128845238D01*
X113083333Y-128940476D01*
X113083333Y-129011904D01*
X113107142Y-129107142D01*
X113130952Y-129154761D01*
X113178571Y-129202380D01*
X113250000Y-129226190D01*
X113369047Y-129226190D01*
X112607142Y-129226190D02*
X112892857Y-129226190D01*
X112750000Y-129226190D02*
X112750000Y-128726190D01*
X112797619Y-128797619D01*
X112845238Y-128845238D01*
X112892857Y-128869047D01*
G04 #@! TO.C,R32*
X124976190Y-151928571D02*
X124738095Y-151761904D01*
X124976190Y-151642857D02*
X124476190Y-151642857D01*
X124476190Y-151833333D01*
X124500000Y-151880952D01*
X124523809Y-151904761D01*
X124571428Y-151928571D01*
X124642857Y-151928571D01*
X124690476Y-151904761D01*
X124714285Y-151880952D01*
X124738095Y-151833333D01*
X124738095Y-151642857D01*
X124476190Y-152095238D02*
X124476190Y-152404761D01*
X124666666Y-152238095D01*
X124666666Y-152309523D01*
X124690476Y-152357142D01*
X124714285Y-152380952D01*
X124761904Y-152404761D01*
X124880952Y-152404761D01*
X124928571Y-152380952D01*
X124952380Y-152357142D01*
X124976190Y-152309523D01*
X124976190Y-152166666D01*
X124952380Y-152119047D01*
X124928571Y-152095238D01*
X124523809Y-152595238D02*
X124500000Y-152619047D01*
X124476190Y-152666666D01*
X124476190Y-152785714D01*
X124500000Y-152833333D01*
X124523809Y-152857142D01*
X124571428Y-152880952D01*
X124619047Y-152880952D01*
X124690476Y-152857142D01*
X124976190Y-152571428D01*
X124976190Y-152880952D01*
G04 #@! TO.C,R40*
X126321428Y-155726190D02*
X126488095Y-155488095D01*
X126607142Y-155726190D02*
X126607142Y-155226190D01*
X126416666Y-155226190D01*
X126369047Y-155250000D01*
X126345238Y-155273809D01*
X126321428Y-155321428D01*
X126321428Y-155392857D01*
X126345238Y-155440476D01*
X126369047Y-155464285D01*
X126416666Y-155488095D01*
X126607142Y-155488095D01*
X125892857Y-155392857D02*
X125892857Y-155726190D01*
X126011904Y-155202380D02*
X126130952Y-155559523D01*
X125821428Y-155559523D01*
X125535714Y-155226190D02*
X125488095Y-155226190D01*
X125440476Y-155250000D01*
X125416666Y-155273809D01*
X125392857Y-155321428D01*
X125369047Y-155416666D01*
X125369047Y-155535714D01*
X125392857Y-155630952D01*
X125416666Y-155678571D01*
X125440476Y-155702380D01*
X125488095Y-155726190D01*
X125535714Y-155726190D01*
X125583333Y-155702380D01*
X125607142Y-155678571D01*
X125630952Y-155630952D01*
X125654761Y-155535714D01*
X125654761Y-155416666D01*
X125630952Y-155321428D01*
X125607142Y-155273809D01*
X125583333Y-155250000D01*
X125535714Y-155226190D01*
G04 #@! TO.C,JP11*
X125904761Y-147476190D02*
X125904761Y-147833333D01*
X125928571Y-147904761D01*
X125976190Y-147952380D01*
X126047619Y-147976190D01*
X126095238Y-147976190D01*
X125666666Y-147976190D02*
X125666666Y-147476190D01*
X125476190Y-147476190D01*
X125428571Y-147500000D01*
X125404761Y-147523809D01*
X125380952Y-147571428D01*
X125380952Y-147642857D01*
X125404761Y-147690476D01*
X125428571Y-147714285D01*
X125476190Y-147738095D01*
X125666666Y-147738095D01*
X124904761Y-147976190D02*
X125190476Y-147976190D01*
X125047619Y-147976190D02*
X125047619Y-147476190D01*
X125095238Y-147547619D01*
X125142857Y-147595238D01*
X125190476Y-147619047D01*
X124428571Y-147976190D02*
X124714285Y-147976190D01*
X124571428Y-147976190D02*
X124571428Y-147476190D01*
X124619047Y-147547619D01*
X124666666Y-147595238D01*
X124714285Y-147619047D01*
G04 #@! TO.C,C1*
X125333333Y-67178571D02*
X125357142Y-67202380D01*
X125428571Y-67226190D01*
X125476190Y-67226190D01*
X125547619Y-67202380D01*
X125595238Y-67154761D01*
X125619047Y-67107142D01*
X125642857Y-67011904D01*
X125642857Y-66940476D01*
X125619047Y-66845238D01*
X125595238Y-66797619D01*
X125547619Y-66750000D01*
X125476190Y-66726190D01*
X125428571Y-66726190D01*
X125357142Y-66750000D01*
X125333333Y-66773809D01*
X124857142Y-67226190D02*
X125142857Y-67226190D01*
X125000000Y-67226190D02*
X125000000Y-66726190D01*
X125047619Y-66797619D01*
X125095238Y-66845238D01*
X125142857Y-66869047D01*
G04 #@! TO.C,C2*
X125333333Y-92778571D02*
X125357142Y-92802380D01*
X125428571Y-92826190D01*
X125476190Y-92826190D01*
X125547619Y-92802380D01*
X125595238Y-92754761D01*
X125619047Y-92707142D01*
X125642857Y-92611904D01*
X125642857Y-92540476D01*
X125619047Y-92445238D01*
X125595238Y-92397619D01*
X125547619Y-92350000D01*
X125476190Y-92326190D01*
X125428571Y-92326190D01*
X125357142Y-92350000D01*
X125333333Y-92373809D01*
X125142857Y-92373809D02*
X125119047Y-92350000D01*
X125071428Y-92326190D01*
X124952380Y-92326190D01*
X124904761Y-92350000D01*
X124880952Y-92373809D01*
X124857142Y-92421428D01*
X124857142Y-92469047D01*
X124880952Y-92540476D01*
X125166666Y-92826190D01*
X124857142Y-92826190D01*
G04 #@! TO.C,C3*
X125333333Y-119178571D02*
X125357142Y-119202380D01*
X125428571Y-119226190D01*
X125476190Y-119226190D01*
X125547619Y-119202380D01*
X125595238Y-119154761D01*
X125619047Y-119107142D01*
X125642857Y-119011904D01*
X125642857Y-118940476D01*
X125619047Y-118845238D01*
X125595238Y-118797619D01*
X125547619Y-118750000D01*
X125476190Y-118726190D01*
X125428571Y-118726190D01*
X125357142Y-118750000D01*
X125333333Y-118773809D01*
X125166666Y-118726190D02*
X124857142Y-118726190D01*
X125023809Y-118916666D01*
X124952380Y-118916666D01*
X124904761Y-118940476D01*
X124880952Y-118964285D01*
X124857142Y-119011904D01*
X124857142Y-119130952D01*
X124880952Y-119178571D01*
X124904761Y-119202380D01*
X124952380Y-119226190D01*
X125095238Y-119226190D01*
X125142857Y-119202380D01*
X125166666Y-119178571D01*
G04 #@! TO.C,D2*
X113369047Y-138476190D02*
X113369047Y-137976190D01*
X113250000Y-137976190D01*
X113178571Y-138000000D01*
X113130952Y-138047619D01*
X113107142Y-138095238D01*
X113083333Y-138190476D01*
X113083333Y-138261904D01*
X113107142Y-138357142D01*
X113130952Y-138404761D01*
X113178571Y-138452380D01*
X113250000Y-138476190D01*
X113369047Y-138476190D01*
X112892857Y-138023809D02*
X112869047Y-138000000D01*
X112821428Y-137976190D01*
X112702380Y-137976190D01*
X112654761Y-138000000D01*
X112630952Y-138023809D01*
X112607142Y-138071428D01*
X112607142Y-138119047D01*
X112630952Y-138190476D01*
X112916666Y-138476190D01*
X112607142Y-138476190D01*
G04 #@! TO.C,R1*
X125333333Y-64476190D02*
X125500000Y-64238095D01*
X125619047Y-64476190D02*
X125619047Y-63976190D01*
X125428571Y-63976190D01*
X125380952Y-64000000D01*
X125357142Y-64023809D01*
X125333333Y-64071428D01*
X125333333Y-64142857D01*
X125357142Y-64190476D01*
X125380952Y-64214285D01*
X125428571Y-64238095D01*
X125619047Y-64238095D01*
X124857142Y-64476190D02*
X125142857Y-64476190D01*
X125000000Y-64476190D02*
X125000000Y-63976190D01*
X125047619Y-64047619D01*
X125095238Y-64095238D01*
X125142857Y-64119047D01*
G04 #@! TO.C,R2*
X125333333Y-90076190D02*
X125500000Y-89838095D01*
X125619047Y-90076190D02*
X125619047Y-89576190D01*
X125428571Y-89576190D01*
X125380952Y-89600000D01*
X125357142Y-89623809D01*
X125333333Y-89671428D01*
X125333333Y-89742857D01*
X125357142Y-89790476D01*
X125380952Y-89814285D01*
X125428571Y-89838095D01*
X125619047Y-89838095D01*
X125142857Y-89623809D02*
X125119047Y-89600000D01*
X125071428Y-89576190D01*
X124952380Y-89576190D01*
X124904761Y-89600000D01*
X124880952Y-89623809D01*
X124857142Y-89671428D01*
X124857142Y-89719047D01*
X124880952Y-89790476D01*
X125166666Y-90076190D01*
X124857142Y-90076190D01*
G04 #@! TO.C,R3*
X125333333Y-116476190D02*
X125500000Y-116238095D01*
X125619047Y-116476190D02*
X125619047Y-115976190D01*
X125428571Y-115976190D01*
X125380952Y-116000000D01*
X125357142Y-116023809D01*
X125333333Y-116071428D01*
X125333333Y-116142857D01*
X125357142Y-116190476D01*
X125380952Y-116214285D01*
X125428571Y-116238095D01*
X125619047Y-116238095D01*
X125166666Y-115976190D02*
X124857142Y-115976190D01*
X125023809Y-116166666D01*
X124952380Y-116166666D01*
X124904761Y-116190476D01*
X124880952Y-116214285D01*
X124857142Y-116261904D01*
X124857142Y-116380952D01*
X124880952Y-116428571D01*
X124904761Y-116452380D01*
X124952380Y-116476190D01*
X125095238Y-116476190D01*
X125142857Y-116452380D01*
X125166666Y-116428571D01*
G04 #@! TO.C,R5*
X113083333Y-61726190D02*
X113250000Y-61488095D01*
X113369047Y-61726190D02*
X113369047Y-61226190D01*
X113178571Y-61226190D01*
X113130952Y-61250000D01*
X113107142Y-61273809D01*
X113083333Y-61321428D01*
X113083333Y-61392857D01*
X113107142Y-61440476D01*
X113130952Y-61464285D01*
X113178571Y-61488095D01*
X113369047Y-61488095D01*
X112630952Y-61226190D02*
X112869047Y-61226190D01*
X112892857Y-61464285D01*
X112869047Y-61440476D01*
X112821428Y-61416666D01*
X112702380Y-61416666D01*
X112654761Y-61440476D01*
X112630952Y-61464285D01*
X112607142Y-61511904D01*
X112607142Y-61630952D01*
X112630952Y-61678571D01*
X112654761Y-61702380D01*
X112702380Y-61726190D01*
X112821428Y-61726190D01*
X112869047Y-61702380D01*
X112892857Y-61678571D01*
G04 #@! TO.C,R6*
X125333333Y-87326190D02*
X125500000Y-87088095D01*
X125619047Y-87326190D02*
X125619047Y-86826190D01*
X125428571Y-86826190D01*
X125380952Y-86850000D01*
X125357142Y-86873809D01*
X125333333Y-86921428D01*
X125333333Y-86992857D01*
X125357142Y-87040476D01*
X125380952Y-87064285D01*
X125428571Y-87088095D01*
X125619047Y-87088095D01*
X124904761Y-86826190D02*
X125000000Y-86826190D01*
X125047619Y-86850000D01*
X125071428Y-86873809D01*
X125119047Y-86945238D01*
X125142857Y-87040476D01*
X125142857Y-87230952D01*
X125119047Y-87278571D01*
X125095238Y-87302380D01*
X125047619Y-87326190D01*
X124952380Y-87326190D01*
X124904761Y-87302380D01*
X124880952Y-87278571D01*
X124857142Y-87230952D01*
X124857142Y-87111904D01*
X124880952Y-87064285D01*
X124904761Y-87040476D01*
X124952380Y-87016666D01*
X125047619Y-87016666D01*
X125095238Y-87040476D01*
X125119047Y-87064285D01*
X125142857Y-87111904D01*
G04 #@! TO.C,R7*
X125333333Y-113726190D02*
X125500000Y-113488095D01*
X125619047Y-113726190D02*
X125619047Y-113226190D01*
X125428571Y-113226190D01*
X125380952Y-113250000D01*
X125357142Y-113273809D01*
X125333333Y-113321428D01*
X125333333Y-113392857D01*
X125357142Y-113440476D01*
X125380952Y-113464285D01*
X125428571Y-113488095D01*
X125619047Y-113488095D01*
X125166666Y-113226190D02*
X124833333Y-113226190D01*
X125047619Y-113726190D01*
G04 #@! TO.C,R13*
X100321428Y-61476190D02*
X100488095Y-61238095D01*
X100607142Y-61476190D02*
X100607142Y-60976190D01*
X100416666Y-60976190D01*
X100369047Y-61000000D01*
X100345238Y-61023809D01*
X100321428Y-61071428D01*
X100321428Y-61142857D01*
X100345238Y-61190476D01*
X100369047Y-61214285D01*
X100416666Y-61238095D01*
X100607142Y-61238095D01*
X99845238Y-61476190D02*
X100130952Y-61476190D01*
X99988095Y-61476190D02*
X99988095Y-60976190D01*
X100035714Y-61047619D01*
X100083333Y-61095238D01*
X100130952Y-61119047D01*
X99678571Y-60976190D02*
X99369047Y-60976190D01*
X99535714Y-61166666D01*
X99464285Y-61166666D01*
X99416666Y-61190476D01*
X99392857Y-61214285D01*
X99369047Y-61261904D01*
X99369047Y-61380952D01*
X99392857Y-61428571D01*
X99416666Y-61452380D01*
X99464285Y-61476190D01*
X99607142Y-61476190D01*
X99654761Y-61452380D01*
X99678571Y-61428571D01*
G04 #@! TO.C,R14*
X100321428Y-87476190D02*
X100488095Y-87238095D01*
X100607142Y-87476190D02*
X100607142Y-86976190D01*
X100416666Y-86976190D01*
X100369047Y-87000000D01*
X100345238Y-87023809D01*
X100321428Y-87071428D01*
X100321428Y-87142857D01*
X100345238Y-87190476D01*
X100369047Y-87214285D01*
X100416666Y-87238095D01*
X100607142Y-87238095D01*
X99845238Y-87476190D02*
X100130952Y-87476190D01*
X99988095Y-87476190D02*
X99988095Y-86976190D01*
X100035714Y-87047619D01*
X100083333Y-87095238D01*
X100130952Y-87119047D01*
X99416666Y-87142857D02*
X99416666Y-87476190D01*
X99535714Y-86952380D02*
X99654761Y-87309523D01*
X99345238Y-87309523D01*
G04 #@! TO.C,R15*
X101476190Y-114428571D02*
X101238095Y-114261904D01*
X101476190Y-114142857D02*
X100976190Y-114142857D01*
X100976190Y-114333333D01*
X101000000Y-114380952D01*
X101023809Y-114404761D01*
X101071428Y-114428571D01*
X101142857Y-114428571D01*
X101190476Y-114404761D01*
X101214285Y-114380952D01*
X101238095Y-114333333D01*
X101238095Y-114142857D01*
X101476190Y-114904761D02*
X101476190Y-114619047D01*
X101476190Y-114761904D02*
X100976190Y-114761904D01*
X101047619Y-114714285D01*
X101095238Y-114666666D01*
X101119047Y-114619047D01*
X100976190Y-115357142D02*
X100976190Y-115119047D01*
X101214285Y-115095238D01*
X101190476Y-115119047D01*
X101166666Y-115166666D01*
X101166666Y-115285714D01*
X101190476Y-115333333D01*
X101214285Y-115357142D01*
X101261904Y-115380952D01*
X101380952Y-115380952D01*
X101428571Y-115357142D01*
X101452380Y-115333333D01*
X101476190Y-115285714D01*
X101476190Y-115166666D01*
X101452380Y-115119047D01*
X101428571Y-115095238D01*
G04 #@! TO.C,R21*
X100321428Y-66476190D02*
X100488095Y-66238095D01*
X100607142Y-66476190D02*
X100607142Y-65976190D01*
X100416666Y-65976190D01*
X100369047Y-66000000D01*
X100345238Y-66023809D01*
X100321428Y-66071428D01*
X100321428Y-66142857D01*
X100345238Y-66190476D01*
X100369047Y-66214285D01*
X100416666Y-66238095D01*
X100607142Y-66238095D01*
X100130952Y-66023809D02*
X100107142Y-66000000D01*
X100059523Y-65976190D01*
X99940476Y-65976190D01*
X99892857Y-66000000D01*
X99869047Y-66023809D01*
X99845238Y-66071428D01*
X99845238Y-66119047D01*
X99869047Y-66190476D01*
X100154761Y-66476190D01*
X99845238Y-66476190D01*
X99369047Y-66476190D02*
X99654761Y-66476190D01*
X99511904Y-66476190D02*
X99511904Y-65976190D01*
X99559523Y-66047619D01*
X99607142Y-66095238D01*
X99654761Y-66119047D01*
G04 #@! TO.C,R22*
X100321428Y-92476190D02*
X100488095Y-92238095D01*
X100607142Y-92476190D02*
X100607142Y-91976190D01*
X100416666Y-91976190D01*
X100369047Y-92000000D01*
X100345238Y-92023809D01*
X100321428Y-92071428D01*
X100321428Y-92142857D01*
X100345238Y-92190476D01*
X100369047Y-92214285D01*
X100416666Y-92238095D01*
X100607142Y-92238095D01*
X100130952Y-92023809D02*
X100107142Y-92000000D01*
X100059523Y-91976190D01*
X99940476Y-91976190D01*
X99892857Y-92000000D01*
X99869047Y-92023809D01*
X99845238Y-92071428D01*
X99845238Y-92119047D01*
X99869047Y-92190476D01*
X100154761Y-92476190D01*
X99845238Y-92476190D01*
X99654761Y-92023809D02*
X99630952Y-92000000D01*
X99583333Y-91976190D01*
X99464285Y-91976190D01*
X99416666Y-92000000D01*
X99392857Y-92023809D01*
X99369047Y-92071428D01*
X99369047Y-92119047D01*
X99392857Y-92190476D01*
X99678571Y-92476190D01*
X99369047Y-92476190D01*
G04 #@! TO.C,R23*
X100321428Y-118476190D02*
X100488095Y-118238095D01*
X100607142Y-118476190D02*
X100607142Y-117976190D01*
X100416666Y-117976190D01*
X100369047Y-118000000D01*
X100345238Y-118023809D01*
X100321428Y-118071428D01*
X100321428Y-118142857D01*
X100345238Y-118190476D01*
X100369047Y-118214285D01*
X100416666Y-118238095D01*
X100607142Y-118238095D01*
X100130952Y-118023809D02*
X100107142Y-118000000D01*
X100059523Y-117976190D01*
X99940476Y-117976190D01*
X99892857Y-118000000D01*
X99869047Y-118023809D01*
X99845238Y-118071428D01*
X99845238Y-118119047D01*
X99869047Y-118190476D01*
X100154761Y-118476190D01*
X99845238Y-118476190D01*
X99678571Y-117976190D02*
X99369047Y-117976190D01*
X99535714Y-118166666D01*
X99464285Y-118166666D01*
X99416666Y-118190476D01*
X99392857Y-118214285D01*
X99369047Y-118261904D01*
X99369047Y-118380952D01*
X99392857Y-118428571D01*
X99416666Y-118452380D01*
X99464285Y-118476190D01*
X99607142Y-118476190D01*
X99654761Y-118452380D01*
X99678571Y-118428571D01*
G04 #@! TO.C,R29*
X126321428Y-72726190D02*
X126488095Y-72488095D01*
X126607142Y-72726190D02*
X126607142Y-72226190D01*
X126416666Y-72226190D01*
X126369047Y-72250000D01*
X126345238Y-72273809D01*
X126321428Y-72321428D01*
X126321428Y-72392857D01*
X126345238Y-72440476D01*
X126369047Y-72464285D01*
X126416666Y-72488095D01*
X126607142Y-72488095D01*
X126130952Y-72273809D02*
X126107142Y-72250000D01*
X126059523Y-72226190D01*
X125940476Y-72226190D01*
X125892857Y-72250000D01*
X125869047Y-72273809D01*
X125845238Y-72321428D01*
X125845238Y-72369047D01*
X125869047Y-72440476D01*
X126154761Y-72726190D01*
X125845238Y-72726190D01*
X125607142Y-72726190D02*
X125511904Y-72726190D01*
X125464285Y-72702380D01*
X125440476Y-72678571D01*
X125392857Y-72607142D01*
X125369047Y-72511904D01*
X125369047Y-72321428D01*
X125392857Y-72273809D01*
X125416666Y-72250000D01*
X125464285Y-72226190D01*
X125559523Y-72226190D01*
X125607142Y-72250000D01*
X125630952Y-72273809D01*
X125654761Y-72321428D01*
X125654761Y-72440476D01*
X125630952Y-72488095D01*
X125607142Y-72511904D01*
X125559523Y-72535714D01*
X125464285Y-72535714D01*
X125416666Y-72511904D01*
X125392857Y-72488095D01*
X125369047Y-72440476D01*
G04 #@! TO.C,R30*
X124976190Y-99928571D02*
X124738095Y-99761904D01*
X124976190Y-99642857D02*
X124476190Y-99642857D01*
X124476190Y-99833333D01*
X124500000Y-99880952D01*
X124523809Y-99904761D01*
X124571428Y-99928571D01*
X124642857Y-99928571D01*
X124690476Y-99904761D01*
X124714285Y-99880952D01*
X124738095Y-99833333D01*
X124738095Y-99642857D01*
X124476190Y-100095238D02*
X124476190Y-100404761D01*
X124666666Y-100238095D01*
X124666666Y-100309523D01*
X124690476Y-100357142D01*
X124714285Y-100380952D01*
X124761904Y-100404761D01*
X124880952Y-100404761D01*
X124928571Y-100380952D01*
X124952380Y-100357142D01*
X124976190Y-100309523D01*
X124976190Y-100166666D01*
X124952380Y-100119047D01*
X124928571Y-100095238D01*
X124476190Y-100714285D02*
X124476190Y-100761904D01*
X124500000Y-100809523D01*
X124523809Y-100833333D01*
X124571428Y-100857142D01*
X124666666Y-100880952D01*
X124785714Y-100880952D01*
X124880952Y-100857142D01*
X124928571Y-100833333D01*
X124952380Y-100809523D01*
X124976190Y-100761904D01*
X124976190Y-100714285D01*
X124952380Y-100666666D01*
X124928571Y-100642857D01*
X124880952Y-100619047D01*
X124785714Y-100595238D01*
X124666666Y-100595238D01*
X124571428Y-100619047D01*
X124523809Y-100642857D01*
X124500000Y-100666666D01*
X124476190Y-100714285D01*
G04 #@! TO.C,R31*
X124976190Y-125928571D02*
X124738095Y-125761904D01*
X124976190Y-125642857D02*
X124476190Y-125642857D01*
X124476190Y-125833333D01*
X124500000Y-125880952D01*
X124523809Y-125904761D01*
X124571428Y-125928571D01*
X124642857Y-125928571D01*
X124690476Y-125904761D01*
X124714285Y-125880952D01*
X124738095Y-125833333D01*
X124738095Y-125642857D01*
X124476190Y-126095238D02*
X124476190Y-126404761D01*
X124666666Y-126238095D01*
X124666666Y-126309523D01*
X124690476Y-126357142D01*
X124714285Y-126380952D01*
X124761904Y-126404761D01*
X124880952Y-126404761D01*
X124928571Y-126380952D01*
X124952380Y-126357142D01*
X124976190Y-126309523D01*
X124976190Y-126166666D01*
X124952380Y-126119047D01*
X124928571Y-126095238D01*
X124976190Y-126880952D02*
X124976190Y-126595238D01*
X124976190Y-126738095D02*
X124476190Y-126738095D01*
X124547619Y-126690476D01*
X124595238Y-126642857D01*
X124619047Y-126595238D01*
G04 #@! TO.C,R37*
X126321428Y-77726190D02*
X126488095Y-77488095D01*
X126607142Y-77726190D02*
X126607142Y-77226190D01*
X126416666Y-77226190D01*
X126369047Y-77250000D01*
X126345238Y-77273809D01*
X126321428Y-77321428D01*
X126321428Y-77392857D01*
X126345238Y-77440476D01*
X126369047Y-77464285D01*
X126416666Y-77488095D01*
X126607142Y-77488095D01*
X126154761Y-77226190D02*
X125845238Y-77226190D01*
X126011904Y-77416666D01*
X125940476Y-77416666D01*
X125892857Y-77440476D01*
X125869047Y-77464285D01*
X125845238Y-77511904D01*
X125845238Y-77630952D01*
X125869047Y-77678571D01*
X125892857Y-77702380D01*
X125940476Y-77726190D01*
X126083333Y-77726190D01*
X126130952Y-77702380D01*
X126154761Y-77678571D01*
X125678571Y-77226190D02*
X125345238Y-77226190D01*
X125559523Y-77726190D01*
G04 #@! TO.C,R38*
X126321428Y-103476190D02*
X126488095Y-103238095D01*
X126607142Y-103476190D02*
X126607142Y-102976190D01*
X126416666Y-102976190D01*
X126369047Y-103000000D01*
X126345238Y-103023809D01*
X126321428Y-103071428D01*
X126321428Y-103142857D01*
X126345238Y-103190476D01*
X126369047Y-103214285D01*
X126416666Y-103238095D01*
X126607142Y-103238095D01*
X126154761Y-102976190D02*
X125845238Y-102976190D01*
X126011904Y-103166666D01*
X125940476Y-103166666D01*
X125892857Y-103190476D01*
X125869047Y-103214285D01*
X125845238Y-103261904D01*
X125845238Y-103380952D01*
X125869047Y-103428571D01*
X125892857Y-103452380D01*
X125940476Y-103476190D01*
X126083333Y-103476190D01*
X126130952Y-103452380D01*
X126154761Y-103428571D01*
X125559523Y-103190476D02*
X125607142Y-103166666D01*
X125630952Y-103142857D01*
X125654761Y-103095238D01*
X125654761Y-103071428D01*
X125630952Y-103023809D01*
X125607142Y-103000000D01*
X125559523Y-102976190D01*
X125464285Y-102976190D01*
X125416666Y-103000000D01*
X125392857Y-103023809D01*
X125369047Y-103071428D01*
X125369047Y-103095238D01*
X125392857Y-103142857D01*
X125416666Y-103166666D01*
X125464285Y-103190476D01*
X125559523Y-103190476D01*
X125607142Y-103214285D01*
X125630952Y-103238095D01*
X125654761Y-103285714D01*
X125654761Y-103380952D01*
X125630952Y-103428571D01*
X125607142Y-103452380D01*
X125559523Y-103476190D01*
X125464285Y-103476190D01*
X125416666Y-103452380D01*
X125392857Y-103428571D01*
X125369047Y-103380952D01*
X125369047Y-103285714D01*
X125392857Y-103238095D01*
X125416666Y-103214285D01*
X125464285Y-103190476D01*
G04 #@! TO.C,R39*
X126321428Y-129726190D02*
X126488095Y-129488095D01*
X126607142Y-129726190D02*
X126607142Y-129226190D01*
X126416666Y-129226190D01*
X126369047Y-129250000D01*
X126345238Y-129273809D01*
X126321428Y-129321428D01*
X126321428Y-129392857D01*
X126345238Y-129440476D01*
X126369047Y-129464285D01*
X126416666Y-129488095D01*
X126607142Y-129488095D01*
X126154761Y-129226190D02*
X125845238Y-129226190D01*
X126011904Y-129416666D01*
X125940476Y-129416666D01*
X125892857Y-129440476D01*
X125869047Y-129464285D01*
X125845238Y-129511904D01*
X125845238Y-129630952D01*
X125869047Y-129678571D01*
X125892857Y-129702380D01*
X125940476Y-129726190D01*
X126083333Y-129726190D01*
X126130952Y-129702380D01*
X126154761Y-129678571D01*
X125607142Y-129726190D02*
X125511904Y-129726190D01*
X125464285Y-129702380D01*
X125440476Y-129678571D01*
X125392857Y-129607142D01*
X125369047Y-129511904D01*
X125369047Y-129321428D01*
X125392857Y-129273809D01*
X125416666Y-129250000D01*
X125464285Y-129226190D01*
X125559523Y-129226190D01*
X125607142Y-129250000D01*
X125630952Y-129273809D01*
X125654761Y-129321428D01*
X125654761Y-129440476D01*
X125630952Y-129488095D01*
X125607142Y-129511904D01*
X125559523Y-129535714D01*
X125464285Y-129535714D01*
X125416666Y-129511904D01*
X125392857Y-129488095D01*
X125369047Y-129440476D01*
G04 #@! TO.C,R45*
X100321428Y-72726190D02*
X100488095Y-72488095D01*
X100607142Y-72726190D02*
X100607142Y-72226190D01*
X100416666Y-72226190D01*
X100369047Y-72250000D01*
X100345238Y-72273809D01*
X100321428Y-72321428D01*
X100321428Y-72392857D01*
X100345238Y-72440476D01*
X100369047Y-72464285D01*
X100416666Y-72488095D01*
X100607142Y-72488095D01*
X99892857Y-72392857D02*
X99892857Y-72726190D01*
X100011904Y-72202380D02*
X100130952Y-72559523D01*
X99821428Y-72559523D01*
X99392857Y-72226190D02*
X99630952Y-72226190D01*
X99654761Y-72464285D01*
X99630952Y-72440476D01*
X99583333Y-72416666D01*
X99464285Y-72416666D01*
X99416666Y-72440476D01*
X99392857Y-72464285D01*
X99369047Y-72511904D01*
X99369047Y-72630952D01*
X99392857Y-72678571D01*
X99416666Y-72702380D01*
X99464285Y-72726190D01*
X99583333Y-72726190D01*
X99630952Y-72702380D01*
X99654761Y-72678571D01*
G04 #@! TO.C,R46*
X101476190Y-99928571D02*
X101238095Y-99761904D01*
X101476190Y-99642857D02*
X100976190Y-99642857D01*
X100976190Y-99833333D01*
X101000000Y-99880952D01*
X101023809Y-99904761D01*
X101071428Y-99928571D01*
X101142857Y-99928571D01*
X101190476Y-99904761D01*
X101214285Y-99880952D01*
X101238095Y-99833333D01*
X101238095Y-99642857D01*
X101142857Y-100357142D02*
X101476190Y-100357142D01*
X100952380Y-100238095D02*
X101309523Y-100119047D01*
X101309523Y-100428571D01*
X100976190Y-100833333D02*
X100976190Y-100738095D01*
X101000000Y-100690476D01*
X101023809Y-100666666D01*
X101095238Y-100619047D01*
X101190476Y-100595238D01*
X101380952Y-100595238D01*
X101428571Y-100619047D01*
X101452380Y-100642857D01*
X101476190Y-100690476D01*
X101476190Y-100785714D01*
X101452380Y-100833333D01*
X101428571Y-100857142D01*
X101380952Y-100880952D01*
X101261904Y-100880952D01*
X101214285Y-100857142D01*
X101190476Y-100833333D01*
X101166666Y-100785714D01*
X101166666Y-100690476D01*
X101190476Y-100642857D01*
X101214285Y-100619047D01*
X101261904Y-100595238D01*
G04 #@! TO.C,R47*
X101476190Y-126178571D02*
X101238095Y-126011904D01*
X101476190Y-125892857D02*
X100976190Y-125892857D01*
X100976190Y-126083333D01*
X101000000Y-126130952D01*
X101023809Y-126154761D01*
X101071428Y-126178571D01*
X101142857Y-126178571D01*
X101190476Y-126154761D01*
X101214285Y-126130952D01*
X101238095Y-126083333D01*
X101238095Y-125892857D01*
X101142857Y-126607142D02*
X101476190Y-126607142D01*
X100952380Y-126488095D02*
X101309523Y-126369047D01*
X101309523Y-126678571D01*
X100976190Y-126821428D02*
X100976190Y-127154761D01*
X101476190Y-126940476D01*
G04 #@! TO.C,R53*
X100321428Y-77726190D02*
X100488095Y-77488095D01*
X100607142Y-77726190D02*
X100607142Y-77226190D01*
X100416666Y-77226190D01*
X100369047Y-77250000D01*
X100345238Y-77273809D01*
X100321428Y-77321428D01*
X100321428Y-77392857D01*
X100345238Y-77440476D01*
X100369047Y-77464285D01*
X100416666Y-77488095D01*
X100607142Y-77488095D01*
X99869047Y-77226190D02*
X100107142Y-77226190D01*
X100130952Y-77464285D01*
X100107142Y-77440476D01*
X100059523Y-77416666D01*
X99940476Y-77416666D01*
X99892857Y-77440476D01*
X99869047Y-77464285D01*
X99845238Y-77511904D01*
X99845238Y-77630952D01*
X99869047Y-77678571D01*
X99892857Y-77702380D01*
X99940476Y-77726190D01*
X100059523Y-77726190D01*
X100107142Y-77702380D01*
X100130952Y-77678571D01*
X99678571Y-77226190D02*
X99369047Y-77226190D01*
X99535714Y-77416666D01*
X99464285Y-77416666D01*
X99416666Y-77440476D01*
X99392857Y-77464285D01*
X99369047Y-77511904D01*
X99369047Y-77630952D01*
X99392857Y-77678571D01*
X99416666Y-77702380D01*
X99464285Y-77726190D01*
X99607142Y-77726190D01*
X99654761Y-77702380D01*
X99678571Y-77678571D01*
G04 #@! TO.C,R54*
X100321428Y-103476190D02*
X100488095Y-103238095D01*
X100607142Y-103476190D02*
X100607142Y-102976190D01*
X100416666Y-102976190D01*
X100369047Y-103000000D01*
X100345238Y-103023809D01*
X100321428Y-103071428D01*
X100321428Y-103142857D01*
X100345238Y-103190476D01*
X100369047Y-103214285D01*
X100416666Y-103238095D01*
X100607142Y-103238095D01*
X99869047Y-102976190D02*
X100107142Y-102976190D01*
X100130952Y-103214285D01*
X100107142Y-103190476D01*
X100059523Y-103166666D01*
X99940476Y-103166666D01*
X99892857Y-103190476D01*
X99869047Y-103214285D01*
X99845238Y-103261904D01*
X99845238Y-103380952D01*
X99869047Y-103428571D01*
X99892857Y-103452380D01*
X99940476Y-103476190D01*
X100059523Y-103476190D01*
X100107142Y-103452380D01*
X100130952Y-103428571D01*
X99416666Y-103142857D02*
X99416666Y-103476190D01*
X99535714Y-102952380D02*
X99654761Y-103309523D01*
X99345238Y-103309523D01*
G04 #@! TO.C,R55*
X100321428Y-129726190D02*
X100488095Y-129488095D01*
X100607142Y-129726190D02*
X100607142Y-129226190D01*
X100416666Y-129226190D01*
X100369047Y-129250000D01*
X100345238Y-129273809D01*
X100321428Y-129321428D01*
X100321428Y-129392857D01*
X100345238Y-129440476D01*
X100369047Y-129464285D01*
X100416666Y-129488095D01*
X100607142Y-129488095D01*
X99869047Y-129226190D02*
X100107142Y-129226190D01*
X100130952Y-129464285D01*
X100107142Y-129440476D01*
X100059523Y-129416666D01*
X99940476Y-129416666D01*
X99892857Y-129440476D01*
X99869047Y-129464285D01*
X99845238Y-129511904D01*
X99845238Y-129630952D01*
X99869047Y-129678571D01*
X99892857Y-129702380D01*
X99940476Y-129726190D01*
X100059523Y-129726190D01*
X100107142Y-129702380D01*
X100130952Y-129678571D01*
X99392857Y-129226190D02*
X99630952Y-129226190D01*
X99654761Y-129464285D01*
X99630952Y-129440476D01*
X99583333Y-129416666D01*
X99464285Y-129416666D01*
X99416666Y-129440476D01*
X99392857Y-129464285D01*
X99369047Y-129511904D01*
X99369047Y-129630952D01*
X99392857Y-129678571D01*
X99416666Y-129702380D01*
X99464285Y-129726190D01*
X99583333Y-129726190D01*
X99630952Y-129702380D01*
X99654761Y-129678571D01*
G04 #@! TO.C,U1*
X124023809Y-61130952D02*
X123619047Y-61130952D01*
X123571428Y-61107142D01*
X123547619Y-61083333D01*
X123523809Y-61035714D01*
X123523809Y-60940476D01*
X123547619Y-60892857D01*
X123571428Y-60869047D01*
X123619047Y-60845238D01*
X124023809Y-60845238D01*
X123523809Y-60345238D02*
X123523809Y-60630952D01*
X123523809Y-60488095D02*
X124023809Y-60488095D01*
X123952380Y-60535714D01*
X123904761Y-60583333D01*
X123880952Y-60630952D01*
X120630952Y-64976190D02*
X120630952Y-64476190D01*
X120440476Y-64476190D01*
X120392857Y-64500000D01*
X120369047Y-64523809D01*
X120345238Y-64571428D01*
X120345238Y-64642857D01*
X120369047Y-64690476D01*
X120392857Y-64714285D01*
X120440476Y-64738095D01*
X120630952Y-64738095D01*
X119988095Y-64476190D02*
X119988095Y-64833333D01*
X120011904Y-64904761D01*
X120059523Y-64952380D01*
X120130952Y-64976190D01*
X120178571Y-64976190D01*
X119750000Y-64785714D02*
X119369047Y-64785714D01*
X119178571Y-64476190D02*
X118869047Y-64476190D01*
X119035714Y-64666666D01*
X118964285Y-64666666D01*
X118916666Y-64690476D01*
X118892857Y-64714285D01*
X118869047Y-64761904D01*
X118869047Y-64880952D01*
X118892857Y-64928571D01*
X118916666Y-64952380D01*
X118964285Y-64976190D01*
X119107142Y-64976190D01*
X119154761Y-64952380D01*
X119178571Y-64928571D01*
X118559523Y-64476190D02*
X118511904Y-64476190D01*
X118464285Y-64500000D01*
X118440476Y-64523809D01*
X118416666Y-64571428D01*
X118392857Y-64666666D01*
X118392857Y-64785714D01*
X118416666Y-64880952D01*
X118440476Y-64928571D01*
X118464285Y-64952380D01*
X118511904Y-64976190D01*
X118559523Y-64976190D01*
X118607142Y-64952380D01*
X118630952Y-64928571D01*
X118654761Y-64880952D01*
X118678571Y-64785714D01*
X118678571Y-64666666D01*
X118654761Y-64571428D01*
X118630952Y-64523809D01*
X118607142Y-64500000D01*
X118559523Y-64476190D01*
X117916666Y-64976190D02*
X118202380Y-64976190D01*
X118059523Y-64976190D02*
X118059523Y-64476190D01*
X118107142Y-64547619D01*
X118154761Y-64595238D01*
X118202380Y-64619047D01*
X117535714Y-64714285D02*
X117464285Y-64738095D01*
X117440476Y-64761904D01*
X117416666Y-64809523D01*
X117416666Y-64880952D01*
X117440476Y-64928571D01*
X117464285Y-64952380D01*
X117511904Y-64976190D01*
X117702380Y-64976190D01*
X117702380Y-64476190D01*
X117535714Y-64476190D01*
X117488095Y-64500000D01*
X117464285Y-64523809D01*
X117440476Y-64571428D01*
X117440476Y-64619047D01*
X117464285Y-64666666D01*
X117488095Y-64690476D01*
X117535714Y-64714285D01*
X117702380Y-64714285D01*
X117202380Y-64976190D02*
X117202380Y-64476190D01*
X117035714Y-64833333D01*
X116869047Y-64476190D01*
X116869047Y-64976190D01*
G04 #@! TO.C,C18*
X113321428Y-72178571D02*
X113345238Y-72202380D01*
X113416666Y-72226190D01*
X113464285Y-72226190D01*
X113535714Y-72202380D01*
X113583333Y-72154761D01*
X113607142Y-72107142D01*
X113630952Y-72011904D01*
X113630952Y-71940476D01*
X113607142Y-71845238D01*
X113583333Y-71797619D01*
X113535714Y-71750000D01*
X113464285Y-71726190D01*
X113416666Y-71726190D01*
X113345238Y-71750000D01*
X113321428Y-71773809D01*
X112845238Y-72226190D02*
X113130952Y-72226190D01*
X112988095Y-72226190D02*
X112988095Y-71726190D01*
X113035714Y-71797619D01*
X113083333Y-71845238D01*
X113130952Y-71869047D01*
X112559523Y-71940476D02*
X112607142Y-71916666D01*
X112630952Y-71892857D01*
X112654761Y-71845238D01*
X112654761Y-71821428D01*
X112630952Y-71773809D01*
X112607142Y-71750000D01*
X112559523Y-71726190D01*
X112464285Y-71726190D01*
X112416666Y-71750000D01*
X112392857Y-71773809D01*
X112369047Y-71821428D01*
X112369047Y-71845238D01*
X112392857Y-71892857D01*
X112416666Y-71916666D01*
X112464285Y-71940476D01*
X112559523Y-71940476D01*
X112607142Y-71964285D01*
X112630952Y-71988095D01*
X112654761Y-72035714D01*
X112654761Y-72130952D01*
X112630952Y-72178571D01*
X112607142Y-72202380D01*
X112559523Y-72226190D01*
X112464285Y-72226190D01*
X112416666Y-72202380D01*
X112392857Y-72178571D01*
X112369047Y-72130952D01*
X112369047Y-72035714D01*
X112392857Y-71988095D01*
X112416666Y-71964285D01*
X112464285Y-71940476D01*
G04 #@! TO.C,C23*
X113321428Y-66678571D02*
X113345238Y-66702380D01*
X113416666Y-66726190D01*
X113464285Y-66726190D01*
X113535714Y-66702380D01*
X113583333Y-66654761D01*
X113607142Y-66607142D01*
X113630952Y-66511904D01*
X113630952Y-66440476D01*
X113607142Y-66345238D01*
X113583333Y-66297619D01*
X113535714Y-66250000D01*
X113464285Y-66226190D01*
X113416666Y-66226190D01*
X113345238Y-66250000D01*
X113321428Y-66273809D01*
X113130952Y-66273809D02*
X113107142Y-66250000D01*
X113059523Y-66226190D01*
X112940476Y-66226190D01*
X112892857Y-66250000D01*
X112869047Y-66273809D01*
X112845238Y-66321428D01*
X112845238Y-66369047D01*
X112869047Y-66440476D01*
X113154761Y-66726190D01*
X112845238Y-66726190D01*
X112678571Y-66226190D02*
X112369047Y-66226190D01*
X112535714Y-66416666D01*
X112464285Y-66416666D01*
X112416666Y-66440476D01*
X112392857Y-66464285D01*
X112369047Y-66511904D01*
X112369047Y-66630952D01*
X112392857Y-66678571D01*
X112416666Y-66702380D01*
X112464285Y-66726190D01*
X112607142Y-66726190D01*
X112654761Y-66702380D01*
X112678571Y-66678571D01*
G04 #@! TO.C,C4*
X125333333Y-145178571D02*
X125357142Y-145202380D01*
X125428571Y-145226190D01*
X125476190Y-145226190D01*
X125547619Y-145202380D01*
X125595238Y-145154761D01*
X125619047Y-145107142D01*
X125642857Y-145011904D01*
X125642857Y-144940476D01*
X125619047Y-144845238D01*
X125595238Y-144797619D01*
X125547619Y-144750000D01*
X125476190Y-144726190D01*
X125428571Y-144726190D01*
X125357142Y-144750000D01*
X125333333Y-144773809D01*
X124904761Y-144892857D02*
X124904761Y-145226190D01*
X125023809Y-144702380D02*
X125142857Y-145059523D01*
X124833333Y-145059523D01*
G04 #@! TO.C,R4*
X125333333Y-142726190D02*
X125500000Y-142488095D01*
X125619047Y-142726190D02*
X125619047Y-142226190D01*
X125428571Y-142226190D01*
X125380952Y-142250000D01*
X125357142Y-142273809D01*
X125333333Y-142321428D01*
X125333333Y-142392857D01*
X125357142Y-142440476D01*
X125380952Y-142464285D01*
X125428571Y-142488095D01*
X125619047Y-142488095D01*
X124904761Y-142392857D02*
X124904761Y-142726190D01*
X125023809Y-142202380D02*
X125142857Y-142559523D01*
X124833333Y-142559523D01*
G04 #@! TO.C,R16*
X100321428Y-144226190D02*
X100488095Y-143988095D01*
X100607142Y-144226190D02*
X100607142Y-143726190D01*
X100416666Y-143726190D01*
X100369047Y-143750000D01*
X100345238Y-143773809D01*
X100321428Y-143821428D01*
X100321428Y-143892857D01*
X100345238Y-143940476D01*
X100369047Y-143964285D01*
X100416666Y-143988095D01*
X100607142Y-143988095D01*
X99845238Y-144226190D02*
X100130952Y-144226190D01*
X99988095Y-144226190D02*
X99988095Y-143726190D01*
X100035714Y-143797619D01*
X100083333Y-143845238D01*
X100130952Y-143869047D01*
X99416666Y-143726190D02*
X99511904Y-143726190D01*
X99559523Y-143750000D01*
X99583333Y-143773809D01*
X99630952Y-143845238D01*
X99654761Y-143940476D01*
X99654761Y-144130952D01*
X99630952Y-144178571D01*
X99607142Y-144202380D01*
X99559523Y-144226190D01*
X99464285Y-144226190D01*
X99416666Y-144202380D01*
X99392857Y-144178571D01*
X99369047Y-144130952D01*
X99369047Y-144011904D01*
X99392857Y-143964285D01*
X99416666Y-143940476D01*
X99464285Y-143916666D01*
X99559523Y-143916666D01*
X99607142Y-143940476D01*
X99630952Y-143964285D01*
X99654761Y-144011904D01*
G04 #@! TO.C,R24*
X101476190Y-140678571D02*
X101238095Y-140511904D01*
X101476190Y-140392857D02*
X100976190Y-140392857D01*
X100976190Y-140583333D01*
X101000000Y-140630952D01*
X101023809Y-140654761D01*
X101071428Y-140678571D01*
X101142857Y-140678571D01*
X101190476Y-140654761D01*
X101214285Y-140630952D01*
X101238095Y-140583333D01*
X101238095Y-140392857D01*
X101023809Y-140869047D02*
X101000000Y-140892857D01*
X100976190Y-140940476D01*
X100976190Y-141059523D01*
X101000000Y-141107142D01*
X101023809Y-141130952D01*
X101071428Y-141154761D01*
X101119047Y-141154761D01*
X101190476Y-141130952D01*
X101476190Y-140845238D01*
X101476190Y-141154761D01*
X101142857Y-141583333D02*
X101476190Y-141583333D01*
X100952380Y-141464285D02*
X101309523Y-141345238D01*
X101309523Y-141654761D01*
G04 #@! TO.C,R48*
X101476190Y-151928571D02*
X101238095Y-151761904D01*
X101476190Y-151642857D02*
X100976190Y-151642857D01*
X100976190Y-151833333D01*
X101000000Y-151880952D01*
X101023809Y-151904761D01*
X101071428Y-151928571D01*
X101142857Y-151928571D01*
X101190476Y-151904761D01*
X101214285Y-151880952D01*
X101238095Y-151833333D01*
X101238095Y-151642857D01*
X101142857Y-152357142D02*
X101476190Y-152357142D01*
X100952380Y-152238095D02*
X101309523Y-152119047D01*
X101309523Y-152428571D01*
X101190476Y-152690476D02*
X101166666Y-152642857D01*
X101142857Y-152619047D01*
X101095238Y-152595238D01*
X101071428Y-152595238D01*
X101023809Y-152619047D01*
X101000000Y-152642857D01*
X100976190Y-152690476D01*
X100976190Y-152785714D01*
X101000000Y-152833333D01*
X101023809Y-152857142D01*
X101071428Y-152880952D01*
X101095238Y-152880952D01*
X101142857Y-152857142D01*
X101166666Y-152833333D01*
X101190476Y-152785714D01*
X101190476Y-152690476D01*
X101214285Y-152642857D01*
X101238095Y-152619047D01*
X101285714Y-152595238D01*
X101380952Y-152595238D01*
X101428571Y-152619047D01*
X101452380Y-152642857D01*
X101476190Y-152690476D01*
X101476190Y-152785714D01*
X101452380Y-152833333D01*
X101428571Y-152857142D01*
X101380952Y-152880952D01*
X101285714Y-152880952D01*
X101238095Y-152857142D01*
X101214285Y-152833333D01*
X101190476Y-152785714D01*
G04 #@! TO.C,R56*
X100321428Y-155476190D02*
X100488095Y-155238095D01*
X100607142Y-155476190D02*
X100607142Y-154976190D01*
X100416666Y-154976190D01*
X100369047Y-155000000D01*
X100345238Y-155023809D01*
X100321428Y-155071428D01*
X100321428Y-155142857D01*
X100345238Y-155190476D01*
X100369047Y-155214285D01*
X100416666Y-155238095D01*
X100607142Y-155238095D01*
X99869047Y-154976190D02*
X100107142Y-154976190D01*
X100130952Y-155214285D01*
X100107142Y-155190476D01*
X100059523Y-155166666D01*
X99940476Y-155166666D01*
X99892857Y-155190476D01*
X99869047Y-155214285D01*
X99845238Y-155261904D01*
X99845238Y-155380952D01*
X99869047Y-155428571D01*
X99892857Y-155452380D01*
X99940476Y-155476190D01*
X100059523Y-155476190D01*
X100107142Y-155452380D01*
X100130952Y-155428571D01*
X99416666Y-154976190D02*
X99511904Y-154976190D01*
X99559523Y-155000000D01*
X99583333Y-155023809D01*
X99630952Y-155095238D01*
X99654761Y-155190476D01*
X99654761Y-155380952D01*
X99630952Y-155428571D01*
X99607142Y-155452380D01*
X99559523Y-155476190D01*
X99464285Y-155476190D01*
X99416666Y-155452380D01*
X99392857Y-155428571D01*
X99369047Y-155380952D01*
X99369047Y-155261904D01*
X99392857Y-155214285D01*
X99416666Y-155190476D01*
X99464285Y-155166666D01*
X99559523Y-155166666D01*
X99607142Y-155190476D01*
X99630952Y-155214285D01*
X99654761Y-155261904D01*
G04 #@! TO.C,JP1*
X125441666Y-136226190D02*
X125441666Y-136583333D01*
X125465476Y-136654761D01*
X125513095Y-136702380D01*
X125584523Y-136726190D01*
X125632142Y-136726190D01*
X125203571Y-136726190D02*
X125203571Y-136226190D01*
X125013095Y-136226190D01*
X124965476Y-136250000D01*
X124941666Y-136273809D01*
X124917857Y-136321428D01*
X124917857Y-136392857D01*
X124941666Y-136440476D01*
X124965476Y-136464285D01*
X125013095Y-136488095D01*
X125203571Y-136488095D01*
X124441666Y-136726190D02*
X124727380Y-136726190D01*
X124584523Y-136726190D02*
X124584523Y-136226190D01*
X124632142Y-136297619D01*
X124679761Y-136345238D01*
X124727380Y-136369047D01*
G04 #@! TO.C,JP2*
X125666666Y-83726190D02*
X125666666Y-84083333D01*
X125690476Y-84154761D01*
X125738095Y-84202380D01*
X125809523Y-84226190D01*
X125857142Y-84226190D01*
X125428571Y-84226190D02*
X125428571Y-83726190D01*
X125238095Y-83726190D01*
X125190476Y-83750000D01*
X125166666Y-83773809D01*
X125142857Y-83821428D01*
X125142857Y-83892857D01*
X125166666Y-83940476D01*
X125190476Y-83964285D01*
X125238095Y-83988095D01*
X125428571Y-83988095D01*
X124952380Y-83773809D02*
X124928571Y-83750000D01*
X124880952Y-83726190D01*
X124761904Y-83726190D01*
X124714285Y-83750000D01*
X124690476Y-83773809D01*
X124666666Y-83821428D01*
X124666666Y-83869047D01*
X124690476Y-83940476D01*
X124976190Y-84226190D01*
X124666666Y-84226190D01*
G04 #@! TO.C,JP3*
X125666666Y-109976190D02*
X125666666Y-110333333D01*
X125690476Y-110404761D01*
X125738095Y-110452380D01*
X125809523Y-110476190D01*
X125857142Y-110476190D01*
X125428571Y-110476190D02*
X125428571Y-109976190D01*
X125238095Y-109976190D01*
X125190476Y-110000000D01*
X125166666Y-110023809D01*
X125142857Y-110071428D01*
X125142857Y-110142857D01*
X125166666Y-110190476D01*
X125190476Y-110214285D01*
X125238095Y-110238095D01*
X125428571Y-110238095D01*
X124976190Y-109976190D02*
X124666666Y-109976190D01*
X124833333Y-110166666D01*
X124761904Y-110166666D01*
X124714285Y-110190476D01*
X124690476Y-110214285D01*
X124666666Y-110261904D01*
X124666666Y-110380952D01*
X124690476Y-110428571D01*
X124714285Y-110452380D01*
X124761904Y-110476190D01*
X124904761Y-110476190D01*
X124952380Y-110452380D01*
X124976190Y-110428571D01*
G04 #@! TO.C,JP6*
X101166666Y-110226190D02*
X101166666Y-110583333D01*
X101190476Y-110654761D01*
X101238095Y-110702380D01*
X101309523Y-110726190D01*
X101357142Y-110726190D01*
X100928571Y-110726190D02*
X100928571Y-110226190D01*
X100738095Y-110226190D01*
X100690476Y-110250000D01*
X100666666Y-110273809D01*
X100642857Y-110321428D01*
X100642857Y-110392857D01*
X100666666Y-110440476D01*
X100690476Y-110464285D01*
X100738095Y-110488095D01*
X100928571Y-110488095D01*
X100214285Y-110226190D02*
X100309523Y-110226190D01*
X100357142Y-110250000D01*
X100380952Y-110273809D01*
X100428571Y-110345238D01*
X100452380Y-110440476D01*
X100452380Y-110630952D01*
X100428571Y-110678571D01*
X100404761Y-110702380D01*
X100357142Y-110726190D01*
X100261904Y-110726190D01*
X100214285Y-110702380D01*
X100190476Y-110678571D01*
X100166666Y-110630952D01*
X100166666Y-110511904D01*
X100190476Y-110464285D01*
X100214285Y-110440476D01*
X100261904Y-110416666D01*
X100357142Y-110416666D01*
X100404761Y-110440476D01*
X100428571Y-110464285D01*
X100452380Y-110511904D01*
G04 #@! TO.C,JP7*
X101166666Y-136226190D02*
X101166666Y-136583333D01*
X101190476Y-136654761D01*
X101238095Y-136702380D01*
X101309523Y-136726190D01*
X101357142Y-136726190D01*
X100928571Y-136726190D02*
X100928571Y-136226190D01*
X100738095Y-136226190D01*
X100690476Y-136250000D01*
X100666666Y-136273809D01*
X100642857Y-136321428D01*
X100642857Y-136392857D01*
X100666666Y-136440476D01*
X100690476Y-136464285D01*
X100738095Y-136488095D01*
X100928571Y-136488095D01*
X100476190Y-136226190D02*
X100142857Y-136226190D01*
X100357142Y-136726190D01*
G04 #@! TO.C,JP8*
X125666666Y-69226190D02*
X125666666Y-69583333D01*
X125690476Y-69654761D01*
X125738095Y-69702380D01*
X125809523Y-69726190D01*
X125857142Y-69726190D01*
X125428571Y-69726190D02*
X125428571Y-69226190D01*
X125238095Y-69226190D01*
X125190476Y-69250000D01*
X125166666Y-69273809D01*
X125142857Y-69321428D01*
X125142857Y-69392857D01*
X125166666Y-69440476D01*
X125190476Y-69464285D01*
X125238095Y-69488095D01*
X125428571Y-69488095D01*
X124857142Y-69440476D02*
X124904761Y-69416666D01*
X124928571Y-69392857D01*
X124952380Y-69345238D01*
X124952380Y-69321428D01*
X124928571Y-69273809D01*
X124904761Y-69250000D01*
X124857142Y-69226190D01*
X124761904Y-69226190D01*
X124714285Y-69250000D01*
X124690476Y-69273809D01*
X124666666Y-69321428D01*
X124666666Y-69345238D01*
X124690476Y-69392857D01*
X124714285Y-69416666D01*
X124761904Y-69440476D01*
X124857142Y-69440476D01*
X124904761Y-69464285D01*
X124928571Y-69488095D01*
X124952380Y-69535714D01*
X124952380Y-69630952D01*
X124928571Y-69678571D01*
X124904761Y-69702380D01*
X124857142Y-69726190D01*
X124761904Y-69726190D01*
X124714285Y-69702380D01*
X124690476Y-69678571D01*
X124666666Y-69630952D01*
X124666666Y-69535714D01*
X124690476Y-69488095D01*
X124714285Y-69464285D01*
X124761904Y-69440476D01*
G04 #@! TO.C,JP9*
X125666666Y-95226190D02*
X125666666Y-95583333D01*
X125690476Y-95654761D01*
X125738095Y-95702380D01*
X125809523Y-95726190D01*
X125857142Y-95726190D01*
X125428571Y-95726190D02*
X125428571Y-95226190D01*
X125238095Y-95226190D01*
X125190476Y-95250000D01*
X125166666Y-95273809D01*
X125142857Y-95321428D01*
X125142857Y-95392857D01*
X125166666Y-95440476D01*
X125190476Y-95464285D01*
X125238095Y-95488095D01*
X125428571Y-95488095D01*
X124904761Y-95726190D02*
X124809523Y-95726190D01*
X124761904Y-95702380D01*
X124738095Y-95678571D01*
X124690476Y-95607142D01*
X124666666Y-95511904D01*
X124666666Y-95321428D01*
X124690476Y-95273809D01*
X124714285Y-95250000D01*
X124761904Y-95226190D01*
X124857142Y-95226190D01*
X124904761Y-95250000D01*
X124928571Y-95273809D01*
X124952380Y-95321428D01*
X124952380Y-95440476D01*
X124928571Y-95488095D01*
X124904761Y-95511904D01*
X124857142Y-95535714D01*
X124761904Y-95535714D01*
X124714285Y-95511904D01*
X124690476Y-95488095D01*
X124666666Y-95440476D01*
G04 #@! TO.C,JP10*
X125904761Y-121476190D02*
X125904761Y-121833333D01*
X125928571Y-121904761D01*
X125976190Y-121952380D01*
X126047619Y-121976190D01*
X126095238Y-121976190D01*
X125666666Y-121976190D02*
X125666666Y-121476190D01*
X125476190Y-121476190D01*
X125428571Y-121500000D01*
X125404761Y-121523809D01*
X125380952Y-121571428D01*
X125380952Y-121642857D01*
X125404761Y-121690476D01*
X125428571Y-121714285D01*
X125476190Y-121738095D01*
X125666666Y-121738095D01*
X124904761Y-121976190D02*
X125190476Y-121976190D01*
X125047619Y-121976190D02*
X125047619Y-121476190D01*
X125095238Y-121547619D01*
X125142857Y-121595238D01*
X125190476Y-121619047D01*
X124595238Y-121476190D02*
X124547619Y-121476190D01*
X124500000Y-121500000D01*
X124476190Y-121523809D01*
X124452380Y-121571428D01*
X124428571Y-121666666D01*
X124428571Y-121785714D01*
X124452380Y-121880952D01*
X124476190Y-121928571D01*
X124500000Y-121952380D01*
X124547619Y-121976190D01*
X124595238Y-121976190D01*
X124642857Y-121952380D01*
X124666666Y-121928571D01*
X124690476Y-121880952D01*
X124714285Y-121785714D01*
X124714285Y-121666666D01*
X124690476Y-121571428D01*
X124666666Y-121523809D01*
X124642857Y-121500000D01*
X124595238Y-121476190D01*
G04 #@! TO.C,JP12*
X102404761Y-80476190D02*
X102404761Y-80833333D01*
X102428571Y-80904761D01*
X102476190Y-80952380D01*
X102547619Y-80976190D01*
X102595238Y-80976190D01*
X102166666Y-80976190D02*
X102166666Y-80476190D01*
X101976190Y-80476190D01*
X101928571Y-80500000D01*
X101904761Y-80523809D01*
X101880952Y-80571428D01*
X101880952Y-80642857D01*
X101904761Y-80690476D01*
X101928571Y-80714285D01*
X101976190Y-80738095D01*
X102166666Y-80738095D01*
X101404761Y-80976190D02*
X101690476Y-80976190D01*
X101547619Y-80976190D02*
X101547619Y-80476190D01*
X101595238Y-80547619D01*
X101642857Y-80595238D01*
X101690476Y-80619047D01*
X101214285Y-80523809D02*
X101190476Y-80500000D01*
X101142857Y-80476190D01*
X101023809Y-80476190D01*
X100976190Y-80500000D01*
X100952380Y-80523809D01*
X100928571Y-80571428D01*
X100928571Y-80619047D01*
X100952380Y-80690476D01*
X101238095Y-80976190D01*
X100928571Y-80976190D01*
G04 #@! TO.C,JP13*
X102404761Y-95476190D02*
X102404761Y-95833333D01*
X102428571Y-95904761D01*
X102476190Y-95952380D01*
X102547619Y-95976190D01*
X102595238Y-95976190D01*
X102166666Y-95976190D02*
X102166666Y-95476190D01*
X101976190Y-95476190D01*
X101928571Y-95500000D01*
X101904761Y-95523809D01*
X101880952Y-95571428D01*
X101880952Y-95642857D01*
X101904761Y-95690476D01*
X101928571Y-95714285D01*
X101976190Y-95738095D01*
X102166666Y-95738095D01*
X101404761Y-95976190D02*
X101690476Y-95976190D01*
X101547619Y-95976190D02*
X101547619Y-95476190D01*
X101595238Y-95547619D01*
X101642857Y-95595238D01*
X101690476Y-95619047D01*
X101238095Y-95476190D02*
X100928571Y-95476190D01*
X101095238Y-95666666D01*
X101023809Y-95666666D01*
X100976190Y-95690476D01*
X100952380Y-95714285D01*
X100928571Y-95761904D01*
X100928571Y-95880952D01*
X100952380Y-95928571D01*
X100976190Y-95952380D01*
X101023809Y-95976190D01*
X101166666Y-95976190D01*
X101214285Y-95952380D01*
X101238095Y-95928571D01*
G04 #@! TO.C,JP14*
X102404761Y-121476190D02*
X102404761Y-121833333D01*
X102428571Y-121904761D01*
X102476190Y-121952380D01*
X102547619Y-121976190D01*
X102595238Y-121976190D01*
X102166666Y-121976190D02*
X102166666Y-121476190D01*
X101976190Y-121476190D01*
X101928571Y-121500000D01*
X101904761Y-121523809D01*
X101880952Y-121571428D01*
X101880952Y-121642857D01*
X101904761Y-121690476D01*
X101928571Y-121714285D01*
X101976190Y-121738095D01*
X102166666Y-121738095D01*
X101404761Y-121976190D02*
X101690476Y-121976190D01*
X101547619Y-121976190D02*
X101547619Y-121476190D01*
X101595238Y-121547619D01*
X101642857Y-121595238D01*
X101690476Y-121619047D01*
X100976190Y-121642857D02*
X100976190Y-121976190D01*
X101095238Y-121452380D02*
X101214285Y-121809523D01*
X100904761Y-121809523D01*
G04 #@! TO.C,JP15*
X102404761Y-147476190D02*
X102404761Y-147833333D01*
X102428571Y-147904761D01*
X102476190Y-147952380D01*
X102547619Y-147976190D01*
X102595238Y-147976190D01*
X102166666Y-147976190D02*
X102166666Y-147476190D01*
X101976190Y-147476190D01*
X101928571Y-147500000D01*
X101904761Y-147523809D01*
X101880952Y-147571428D01*
X101880952Y-147642857D01*
X101904761Y-147690476D01*
X101928571Y-147714285D01*
X101976190Y-147738095D01*
X102166666Y-147738095D01*
X101404761Y-147976190D02*
X101690476Y-147976190D01*
X101547619Y-147976190D02*
X101547619Y-147476190D01*
X101595238Y-147547619D01*
X101642857Y-147595238D01*
X101690476Y-147619047D01*
X100952380Y-147476190D02*
X101190476Y-147476190D01*
X101214285Y-147714285D01*
X101190476Y-147690476D01*
X101142857Y-147666666D01*
X101023809Y-147666666D01*
X100976190Y-147690476D01*
X100952380Y-147714285D01*
X100928571Y-147761904D01*
X100928571Y-147880952D01*
X100952380Y-147928571D01*
X100976190Y-147952380D01*
X101023809Y-147976190D01*
X101142857Y-147976190D01*
X101190476Y-147952380D01*
X101214285Y-147928571D01*
G04 #@! TO.C,U9*
X102273809Y-61130952D02*
X101869047Y-61130952D01*
X101821428Y-61107142D01*
X101797619Y-61083333D01*
X101773809Y-61035714D01*
X101773809Y-60940476D01*
X101797619Y-60892857D01*
X101821428Y-60869047D01*
X101869047Y-60845238D01*
X102273809Y-60845238D01*
X101773809Y-60583333D02*
X101773809Y-60488095D01*
X101797619Y-60440476D01*
X101821428Y-60416666D01*
X101892857Y-60369047D01*
X101988095Y-60345238D01*
X102178571Y-60345238D01*
X102226190Y-60369047D01*
X102250000Y-60392857D01*
X102273809Y-60440476D01*
X102273809Y-60535714D01*
X102250000Y-60583333D01*
X102226190Y-60607142D01*
X102178571Y-60630952D01*
X102059523Y-60630952D01*
X102011904Y-60607142D01*
X101988095Y-60583333D01*
X101964285Y-60535714D01*
X101964285Y-60440476D01*
X101988095Y-60392857D01*
X102011904Y-60369047D01*
X102059523Y-60345238D01*
X109130952Y-64976190D02*
X109130952Y-64476190D01*
X108940476Y-64476190D01*
X108892857Y-64500000D01*
X108869047Y-64523809D01*
X108845238Y-64571428D01*
X108845238Y-64642857D01*
X108869047Y-64690476D01*
X108892857Y-64714285D01*
X108940476Y-64738095D01*
X109130952Y-64738095D01*
X108488095Y-64476190D02*
X108488095Y-64833333D01*
X108511904Y-64904761D01*
X108559523Y-64952380D01*
X108630952Y-64976190D01*
X108678571Y-64976190D01*
X108250000Y-64785714D02*
X107869047Y-64785714D01*
X107678571Y-64476190D02*
X107369047Y-64476190D01*
X107535714Y-64666666D01*
X107464285Y-64666666D01*
X107416666Y-64690476D01*
X107392857Y-64714285D01*
X107369047Y-64761904D01*
X107369047Y-64880952D01*
X107392857Y-64928571D01*
X107416666Y-64952380D01*
X107464285Y-64976190D01*
X107607142Y-64976190D01*
X107654761Y-64952380D01*
X107678571Y-64928571D01*
X107059523Y-64476190D02*
X107011904Y-64476190D01*
X106964285Y-64500000D01*
X106940476Y-64523809D01*
X106916666Y-64571428D01*
X106892857Y-64666666D01*
X106892857Y-64785714D01*
X106916666Y-64880952D01*
X106940476Y-64928571D01*
X106964285Y-64952380D01*
X107011904Y-64976190D01*
X107059523Y-64976190D01*
X107107142Y-64952380D01*
X107130952Y-64928571D01*
X107154761Y-64880952D01*
X107178571Y-64785714D01*
X107178571Y-64666666D01*
X107154761Y-64571428D01*
X107130952Y-64523809D01*
X107107142Y-64500000D01*
X107059523Y-64476190D01*
X106416666Y-64976190D02*
X106702380Y-64976190D01*
X106559523Y-64976190D02*
X106559523Y-64476190D01*
X106607142Y-64547619D01*
X106654761Y-64595238D01*
X106702380Y-64619047D01*
X106035714Y-64714285D02*
X105964285Y-64738095D01*
X105940476Y-64761904D01*
X105916666Y-64809523D01*
X105916666Y-64880952D01*
X105940476Y-64928571D01*
X105964285Y-64952380D01*
X106011904Y-64976190D01*
X106202380Y-64976190D01*
X106202380Y-64476190D01*
X106035714Y-64476190D01*
X105988095Y-64500000D01*
X105964285Y-64523809D01*
X105940476Y-64571428D01*
X105940476Y-64619047D01*
X105964285Y-64666666D01*
X105988095Y-64690476D01*
X106035714Y-64714285D01*
X106202380Y-64714285D01*
X105702380Y-64976190D02*
X105702380Y-64476190D01*
X105535714Y-64833333D01*
X105369047Y-64476190D01*
X105369047Y-64976190D01*
G04 #@! TO.C,U13*
X119619047Y-82226190D02*
X119619047Y-82630952D01*
X119595238Y-82678571D01*
X119571428Y-82702380D01*
X119523809Y-82726190D01*
X119428571Y-82726190D01*
X119380952Y-82702380D01*
X119357142Y-82678571D01*
X119333333Y-82630952D01*
X119333333Y-82226190D01*
X118833333Y-82726190D02*
X119119047Y-82726190D01*
X118976190Y-82726190D02*
X118976190Y-82226190D01*
X119023809Y-82297619D01*
X119071428Y-82345238D01*
X119119047Y-82369047D01*
X118666666Y-82226190D02*
X118357142Y-82226190D01*
X118523809Y-82416666D01*
X118452380Y-82416666D01*
X118404761Y-82440476D01*
X118380952Y-82464285D01*
X118357142Y-82511904D01*
X118357142Y-82630952D01*
X118380952Y-82678571D01*
X118404761Y-82702380D01*
X118452380Y-82726190D01*
X118595238Y-82726190D01*
X118642857Y-82702380D01*
X118666666Y-82678571D01*
X120630952Y-77726190D02*
X120630952Y-77226190D01*
X120440476Y-77226190D01*
X120392857Y-77250000D01*
X120369047Y-77273809D01*
X120345238Y-77321428D01*
X120345238Y-77392857D01*
X120369047Y-77440476D01*
X120392857Y-77464285D01*
X120440476Y-77488095D01*
X120630952Y-77488095D01*
X119988095Y-77226190D02*
X119988095Y-77583333D01*
X120011904Y-77654761D01*
X120059523Y-77702380D01*
X120130952Y-77726190D01*
X120178571Y-77726190D01*
X119750000Y-77535714D02*
X119369047Y-77535714D01*
X119178571Y-77226190D02*
X118869047Y-77226190D01*
X119035714Y-77416666D01*
X118964285Y-77416666D01*
X118916666Y-77440476D01*
X118892857Y-77464285D01*
X118869047Y-77511904D01*
X118869047Y-77630952D01*
X118892857Y-77678571D01*
X118916666Y-77702380D01*
X118964285Y-77726190D01*
X119107142Y-77726190D01*
X119154761Y-77702380D01*
X119178571Y-77678571D01*
X118559523Y-77226190D02*
X118511904Y-77226190D01*
X118464285Y-77250000D01*
X118440476Y-77273809D01*
X118416666Y-77321428D01*
X118392857Y-77416666D01*
X118392857Y-77535714D01*
X118416666Y-77630952D01*
X118440476Y-77678571D01*
X118464285Y-77702380D01*
X118511904Y-77726190D01*
X118559523Y-77726190D01*
X118607142Y-77702380D01*
X118630952Y-77678571D01*
X118654761Y-77630952D01*
X118678571Y-77535714D01*
X118678571Y-77416666D01*
X118654761Y-77321428D01*
X118630952Y-77273809D01*
X118607142Y-77250000D01*
X118559523Y-77226190D01*
X117916666Y-77726190D02*
X118202380Y-77726190D01*
X118059523Y-77726190D02*
X118059523Y-77226190D01*
X118107142Y-77297619D01*
X118154761Y-77345238D01*
X118202380Y-77369047D01*
X117535714Y-77464285D02*
X117464285Y-77488095D01*
X117440476Y-77511904D01*
X117416666Y-77559523D01*
X117416666Y-77630952D01*
X117440476Y-77678571D01*
X117464285Y-77702380D01*
X117511904Y-77726190D01*
X117702380Y-77726190D01*
X117702380Y-77226190D01*
X117535714Y-77226190D01*
X117488095Y-77250000D01*
X117464285Y-77273809D01*
X117440476Y-77321428D01*
X117440476Y-77369047D01*
X117464285Y-77416666D01*
X117488095Y-77440476D01*
X117535714Y-77464285D01*
X117702380Y-77464285D01*
X117202380Y-77726190D02*
X117202380Y-77226190D01*
X117035714Y-77583333D01*
X116869047Y-77226190D01*
X116869047Y-77726190D01*
G04 #@! TO.C,U17*
X107869047Y-82226190D02*
X107869047Y-82630952D01*
X107845238Y-82678571D01*
X107821428Y-82702380D01*
X107773809Y-82726190D01*
X107678571Y-82726190D01*
X107630952Y-82702380D01*
X107607142Y-82678571D01*
X107583333Y-82630952D01*
X107583333Y-82226190D01*
X107083333Y-82726190D02*
X107369047Y-82726190D01*
X107226190Y-82726190D02*
X107226190Y-82226190D01*
X107273809Y-82297619D01*
X107321428Y-82345238D01*
X107369047Y-82369047D01*
X106916666Y-82226190D02*
X106583333Y-82226190D01*
X106797619Y-82726190D01*
X109130952Y-77726190D02*
X109130952Y-77226190D01*
X108940476Y-77226190D01*
X108892857Y-77250000D01*
X108869047Y-77273809D01*
X108845238Y-77321428D01*
X108845238Y-77392857D01*
X108869047Y-77440476D01*
X108892857Y-77464285D01*
X108940476Y-77488095D01*
X109130952Y-77488095D01*
X108488095Y-77226190D02*
X108488095Y-77583333D01*
X108511904Y-77654761D01*
X108559523Y-77702380D01*
X108630952Y-77726190D01*
X108678571Y-77726190D01*
X108250000Y-77535714D02*
X107869047Y-77535714D01*
X107678571Y-77226190D02*
X107369047Y-77226190D01*
X107535714Y-77416666D01*
X107464285Y-77416666D01*
X107416666Y-77440476D01*
X107392857Y-77464285D01*
X107369047Y-77511904D01*
X107369047Y-77630952D01*
X107392857Y-77678571D01*
X107416666Y-77702380D01*
X107464285Y-77726190D01*
X107607142Y-77726190D01*
X107654761Y-77702380D01*
X107678571Y-77678571D01*
X107059523Y-77226190D02*
X107011904Y-77226190D01*
X106964285Y-77250000D01*
X106940476Y-77273809D01*
X106916666Y-77321428D01*
X106892857Y-77416666D01*
X106892857Y-77535714D01*
X106916666Y-77630952D01*
X106940476Y-77678571D01*
X106964285Y-77702380D01*
X107011904Y-77726190D01*
X107059523Y-77726190D01*
X107107142Y-77702380D01*
X107130952Y-77678571D01*
X107154761Y-77630952D01*
X107178571Y-77535714D01*
X107178571Y-77416666D01*
X107154761Y-77321428D01*
X107130952Y-77273809D01*
X107107142Y-77250000D01*
X107059523Y-77226190D01*
X106416666Y-77726190D02*
X106702380Y-77726190D01*
X106559523Y-77726190D02*
X106559523Y-77226190D01*
X106607142Y-77297619D01*
X106654761Y-77345238D01*
X106702380Y-77369047D01*
X106035714Y-77464285D02*
X105964285Y-77488095D01*
X105940476Y-77511904D01*
X105916666Y-77559523D01*
X105916666Y-77630952D01*
X105940476Y-77678571D01*
X105964285Y-77702380D01*
X106011904Y-77726190D01*
X106202380Y-77726190D01*
X106202380Y-77226190D01*
X106035714Y-77226190D01*
X105988095Y-77250000D01*
X105964285Y-77273809D01*
X105940476Y-77321428D01*
X105940476Y-77369047D01*
X105964285Y-77416666D01*
X105988095Y-77440476D01*
X106035714Y-77464285D01*
X106202380Y-77464285D01*
X105702380Y-77726190D02*
X105702380Y-77226190D01*
X105535714Y-77583333D01*
X105369047Y-77226190D01*
X105369047Y-77726190D01*
G04 #@! TO.C,U3*
X118130952Y-85476190D02*
X118130952Y-85880952D01*
X118107142Y-85928571D01*
X118083333Y-85952380D01*
X118035714Y-85976190D01*
X117940476Y-85976190D01*
X117892857Y-85952380D01*
X117869047Y-85928571D01*
X117845238Y-85880952D01*
X117845238Y-85476190D01*
X117654761Y-85476190D02*
X117345238Y-85476190D01*
X117511904Y-85666666D01*
X117440476Y-85666666D01*
X117392857Y-85690476D01*
X117369047Y-85714285D01*
X117345238Y-85761904D01*
X117345238Y-85880952D01*
X117369047Y-85928571D01*
X117392857Y-85952380D01*
X117440476Y-85976190D01*
X117583333Y-85976190D01*
X117630952Y-85952380D01*
X117654761Y-85928571D01*
X120630952Y-90976190D02*
X120630952Y-90476190D01*
X120440476Y-90476190D01*
X120392857Y-90500000D01*
X120369047Y-90523809D01*
X120345238Y-90571428D01*
X120345238Y-90642857D01*
X120369047Y-90690476D01*
X120392857Y-90714285D01*
X120440476Y-90738095D01*
X120630952Y-90738095D01*
X119988095Y-90476190D02*
X119988095Y-90833333D01*
X120011904Y-90904761D01*
X120059523Y-90952380D01*
X120130952Y-90976190D01*
X120178571Y-90976190D01*
X119750000Y-90785714D02*
X119369047Y-90785714D01*
X119178571Y-90476190D02*
X118869047Y-90476190D01*
X119035714Y-90666666D01*
X118964285Y-90666666D01*
X118916666Y-90690476D01*
X118892857Y-90714285D01*
X118869047Y-90761904D01*
X118869047Y-90880952D01*
X118892857Y-90928571D01*
X118916666Y-90952380D01*
X118964285Y-90976190D01*
X119107142Y-90976190D01*
X119154761Y-90952380D01*
X119178571Y-90928571D01*
X118559523Y-90476190D02*
X118511904Y-90476190D01*
X118464285Y-90500000D01*
X118440476Y-90523809D01*
X118416666Y-90571428D01*
X118392857Y-90666666D01*
X118392857Y-90785714D01*
X118416666Y-90880952D01*
X118440476Y-90928571D01*
X118464285Y-90952380D01*
X118511904Y-90976190D01*
X118559523Y-90976190D01*
X118607142Y-90952380D01*
X118630952Y-90928571D01*
X118654761Y-90880952D01*
X118678571Y-90785714D01*
X118678571Y-90666666D01*
X118654761Y-90571428D01*
X118630952Y-90523809D01*
X118607142Y-90500000D01*
X118559523Y-90476190D01*
X117916666Y-90976190D02*
X118202380Y-90976190D01*
X118059523Y-90976190D02*
X118059523Y-90476190D01*
X118107142Y-90547619D01*
X118154761Y-90595238D01*
X118202380Y-90619047D01*
X117535714Y-90714285D02*
X117464285Y-90738095D01*
X117440476Y-90761904D01*
X117416666Y-90809523D01*
X117416666Y-90880952D01*
X117440476Y-90928571D01*
X117464285Y-90952380D01*
X117511904Y-90976190D01*
X117702380Y-90976190D01*
X117702380Y-90476190D01*
X117535714Y-90476190D01*
X117488095Y-90500000D01*
X117464285Y-90523809D01*
X117440476Y-90571428D01*
X117440476Y-90619047D01*
X117464285Y-90666666D01*
X117488095Y-90690476D01*
X117535714Y-90714285D01*
X117702380Y-90714285D01*
X117202380Y-90976190D02*
X117202380Y-90476190D01*
X117035714Y-90833333D01*
X116869047Y-90476190D01*
X116869047Y-90976190D01*
G04 #@! TO.C,U10*
X109119047Y-85476190D02*
X109119047Y-85880952D01*
X109095238Y-85928571D01*
X109071428Y-85952380D01*
X109023809Y-85976190D01*
X108928571Y-85976190D01*
X108880952Y-85952380D01*
X108857142Y-85928571D01*
X108833333Y-85880952D01*
X108833333Y-85476190D01*
X108333333Y-85976190D02*
X108619047Y-85976190D01*
X108476190Y-85976190D02*
X108476190Y-85476190D01*
X108523809Y-85547619D01*
X108571428Y-85595238D01*
X108619047Y-85619047D01*
X108023809Y-85476190D02*
X107976190Y-85476190D01*
X107928571Y-85500000D01*
X107904761Y-85523809D01*
X107880952Y-85571428D01*
X107857142Y-85666666D01*
X107857142Y-85785714D01*
X107880952Y-85880952D01*
X107904761Y-85928571D01*
X107928571Y-85952380D01*
X107976190Y-85976190D01*
X108023809Y-85976190D01*
X108071428Y-85952380D01*
X108095238Y-85928571D01*
X108119047Y-85880952D01*
X108142857Y-85785714D01*
X108142857Y-85666666D01*
X108119047Y-85571428D01*
X108095238Y-85523809D01*
X108071428Y-85500000D01*
X108023809Y-85476190D01*
X109130952Y-90976190D02*
X109130952Y-90476190D01*
X108940476Y-90476190D01*
X108892857Y-90500000D01*
X108869047Y-90523809D01*
X108845238Y-90571428D01*
X108845238Y-90642857D01*
X108869047Y-90690476D01*
X108892857Y-90714285D01*
X108940476Y-90738095D01*
X109130952Y-90738095D01*
X108488095Y-90476190D02*
X108488095Y-90833333D01*
X108511904Y-90904761D01*
X108559523Y-90952380D01*
X108630952Y-90976190D01*
X108678571Y-90976190D01*
X108250000Y-90785714D02*
X107869047Y-90785714D01*
X107678571Y-90476190D02*
X107369047Y-90476190D01*
X107535714Y-90666666D01*
X107464285Y-90666666D01*
X107416666Y-90690476D01*
X107392857Y-90714285D01*
X107369047Y-90761904D01*
X107369047Y-90880952D01*
X107392857Y-90928571D01*
X107416666Y-90952380D01*
X107464285Y-90976190D01*
X107607142Y-90976190D01*
X107654761Y-90952380D01*
X107678571Y-90928571D01*
X107059523Y-90476190D02*
X107011904Y-90476190D01*
X106964285Y-90500000D01*
X106940476Y-90523809D01*
X106916666Y-90571428D01*
X106892857Y-90666666D01*
X106892857Y-90785714D01*
X106916666Y-90880952D01*
X106940476Y-90928571D01*
X106964285Y-90952380D01*
X107011904Y-90976190D01*
X107059523Y-90976190D01*
X107107142Y-90952380D01*
X107130952Y-90928571D01*
X107154761Y-90880952D01*
X107178571Y-90785714D01*
X107178571Y-90666666D01*
X107154761Y-90571428D01*
X107130952Y-90523809D01*
X107107142Y-90500000D01*
X107059523Y-90476190D01*
X106416666Y-90976190D02*
X106702380Y-90976190D01*
X106559523Y-90976190D02*
X106559523Y-90476190D01*
X106607142Y-90547619D01*
X106654761Y-90595238D01*
X106702380Y-90619047D01*
X106035714Y-90714285D02*
X105964285Y-90738095D01*
X105940476Y-90761904D01*
X105916666Y-90809523D01*
X105916666Y-90880952D01*
X105940476Y-90928571D01*
X105964285Y-90952380D01*
X106011904Y-90976190D01*
X106202380Y-90976190D01*
X106202380Y-90476190D01*
X106035714Y-90476190D01*
X105988095Y-90500000D01*
X105964285Y-90523809D01*
X105940476Y-90571428D01*
X105940476Y-90619047D01*
X105964285Y-90666666D01*
X105988095Y-90690476D01*
X106035714Y-90714285D01*
X106202380Y-90714285D01*
X105702380Y-90976190D02*
X105702380Y-90476190D01*
X105535714Y-90833333D01*
X105369047Y-90476190D01*
X105369047Y-90976190D01*
G04 #@! TO.C,U14*
X119369047Y-108226190D02*
X119369047Y-108630952D01*
X119345238Y-108678571D01*
X119321428Y-108702380D01*
X119273809Y-108726190D01*
X119178571Y-108726190D01*
X119130952Y-108702380D01*
X119107142Y-108678571D01*
X119083333Y-108630952D01*
X119083333Y-108226190D01*
X118583333Y-108726190D02*
X118869047Y-108726190D01*
X118726190Y-108726190D02*
X118726190Y-108226190D01*
X118773809Y-108297619D01*
X118821428Y-108345238D01*
X118869047Y-108369047D01*
X118154761Y-108392857D02*
X118154761Y-108726190D01*
X118273809Y-108202380D02*
X118392857Y-108559523D01*
X118083333Y-108559523D01*
X120630952Y-103726190D02*
X120630952Y-103226190D01*
X120440476Y-103226190D01*
X120392857Y-103250000D01*
X120369047Y-103273809D01*
X120345238Y-103321428D01*
X120345238Y-103392857D01*
X120369047Y-103440476D01*
X120392857Y-103464285D01*
X120440476Y-103488095D01*
X120630952Y-103488095D01*
X119988095Y-103226190D02*
X119988095Y-103583333D01*
X120011904Y-103654761D01*
X120059523Y-103702380D01*
X120130952Y-103726190D01*
X120178571Y-103726190D01*
X119750000Y-103535714D02*
X119369047Y-103535714D01*
X119178571Y-103226190D02*
X118869047Y-103226190D01*
X119035714Y-103416666D01*
X118964285Y-103416666D01*
X118916666Y-103440476D01*
X118892857Y-103464285D01*
X118869047Y-103511904D01*
X118869047Y-103630952D01*
X118892857Y-103678571D01*
X118916666Y-103702380D01*
X118964285Y-103726190D01*
X119107142Y-103726190D01*
X119154761Y-103702380D01*
X119178571Y-103678571D01*
X118559523Y-103226190D02*
X118511904Y-103226190D01*
X118464285Y-103250000D01*
X118440476Y-103273809D01*
X118416666Y-103321428D01*
X118392857Y-103416666D01*
X118392857Y-103535714D01*
X118416666Y-103630952D01*
X118440476Y-103678571D01*
X118464285Y-103702380D01*
X118511904Y-103726190D01*
X118559523Y-103726190D01*
X118607142Y-103702380D01*
X118630952Y-103678571D01*
X118654761Y-103630952D01*
X118678571Y-103535714D01*
X118678571Y-103416666D01*
X118654761Y-103321428D01*
X118630952Y-103273809D01*
X118607142Y-103250000D01*
X118559523Y-103226190D01*
X117916666Y-103726190D02*
X118202380Y-103726190D01*
X118059523Y-103726190D02*
X118059523Y-103226190D01*
X118107142Y-103297619D01*
X118154761Y-103345238D01*
X118202380Y-103369047D01*
X117535714Y-103464285D02*
X117464285Y-103488095D01*
X117440476Y-103511904D01*
X117416666Y-103559523D01*
X117416666Y-103630952D01*
X117440476Y-103678571D01*
X117464285Y-103702380D01*
X117511904Y-103726190D01*
X117702380Y-103726190D01*
X117702380Y-103226190D01*
X117535714Y-103226190D01*
X117488095Y-103250000D01*
X117464285Y-103273809D01*
X117440476Y-103321428D01*
X117440476Y-103369047D01*
X117464285Y-103416666D01*
X117488095Y-103440476D01*
X117535714Y-103464285D01*
X117702380Y-103464285D01*
X117202380Y-103726190D02*
X117202380Y-103226190D01*
X117035714Y-103583333D01*
X116869047Y-103226190D01*
X116869047Y-103726190D01*
G04 #@! TO.C,U18*
X107869047Y-108226190D02*
X107869047Y-108630952D01*
X107845238Y-108678571D01*
X107821428Y-108702380D01*
X107773809Y-108726190D01*
X107678571Y-108726190D01*
X107630952Y-108702380D01*
X107607142Y-108678571D01*
X107583333Y-108630952D01*
X107583333Y-108226190D01*
X107083333Y-108726190D02*
X107369047Y-108726190D01*
X107226190Y-108726190D02*
X107226190Y-108226190D01*
X107273809Y-108297619D01*
X107321428Y-108345238D01*
X107369047Y-108369047D01*
X106797619Y-108440476D02*
X106845238Y-108416666D01*
X106869047Y-108392857D01*
X106892857Y-108345238D01*
X106892857Y-108321428D01*
X106869047Y-108273809D01*
X106845238Y-108250000D01*
X106797619Y-108226190D01*
X106702380Y-108226190D01*
X106654761Y-108250000D01*
X106630952Y-108273809D01*
X106607142Y-108321428D01*
X106607142Y-108345238D01*
X106630952Y-108392857D01*
X106654761Y-108416666D01*
X106702380Y-108440476D01*
X106797619Y-108440476D01*
X106845238Y-108464285D01*
X106869047Y-108488095D01*
X106892857Y-108535714D01*
X106892857Y-108630952D01*
X106869047Y-108678571D01*
X106845238Y-108702380D01*
X106797619Y-108726190D01*
X106702380Y-108726190D01*
X106654761Y-108702380D01*
X106630952Y-108678571D01*
X106607142Y-108630952D01*
X106607142Y-108535714D01*
X106630952Y-108488095D01*
X106654761Y-108464285D01*
X106702380Y-108440476D01*
X109130952Y-103726190D02*
X109130952Y-103226190D01*
X108940476Y-103226190D01*
X108892857Y-103250000D01*
X108869047Y-103273809D01*
X108845238Y-103321428D01*
X108845238Y-103392857D01*
X108869047Y-103440476D01*
X108892857Y-103464285D01*
X108940476Y-103488095D01*
X109130952Y-103488095D01*
X108488095Y-103226190D02*
X108488095Y-103583333D01*
X108511904Y-103654761D01*
X108559523Y-103702380D01*
X108630952Y-103726190D01*
X108678571Y-103726190D01*
X108250000Y-103535714D02*
X107869047Y-103535714D01*
X107678571Y-103226190D02*
X107369047Y-103226190D01*
X107535714Y-103416666D01*
X107464285Y-103416666D01*
X107416666Y-103440476D01*
X107392857Y-103464285D01*
X107369047Y-103511904D01*
X107369047Y-103630952D01*
X107392857Y-103678571D01*
X107416666Y-103702380D01*
X107464285Y-103726190D01*
X107607142Y-103726190D01*
X107654761Y-103702380D01*
X107678571Y-103678571D01*
X107059523Y-103226190D02*
X107011904Y-103226190D01*
X106964285Y-103250000D01*
X106940476Y-103273809D01*
X106916666Y-103321428D01*
X106892857Y-103416666D01*
X106892857Y-103535714D01*
X106916666Y-103630952D01*
X106940476Y-103678571D01*
X106964285Y-103702380D01*
X107011904Y-103726190D01*
X107059523Y-103726190D01*
X107107142Y-103702380D01*
X107130952Y-103678571D01*
X107154761Y-103630952D01*
X107178571Y-103535714D01*
X107178571Y-103416666D01*
X107154761Y-103321428D01*
X107130952Y-103273809D01*
X107107142Y-103250000D01*
X107059523Y-103226190D01*
X106416666Y-103726190D02*
X106702380Y-103726190D01*
X106559523Y-103726190D02*
X106559523Y-103226190D01*
X106607142Y-103297619D01*
X106654761Y-103345238D01*
X106702380Y-103369047D01*
X106035714Y-103464285D02*
X105964285Y-103488095D01*
X105940476Y-103511904D01*
X105916666Y-103559523D01*
X105916666Y-103630952D01*
X105940476Y-103678571D01*
X105964285Y-103702380D01*
X106011904Y-103726190D01*
X106202380Y-103726190D01*
X106202380Y-103226190D01*
X106035714Y-103226190D01*
X105988095Y-103250000D01*
X105964285Y-103273809D01*
X105940476Y-103321428D01*
X105940476Y-103369047D01*
X105964285Y-103416666D01*
X105988095Y-103440476D01*
X106035714Y-103464285D01*
X106202380Y-103464285D01*
X105702380Y-103726190D02*
X105702380Y-103226190D01*
X105535714Y-103583333D01*
X105369047Y-103226190D01*
X105369047Y-103726190D01*
G04 #@! TO.C,U5*
X118380952Y-111476190D02*
X118380952Y-111880952D01*
X118357142Y-111928571D01*
X118333333Y-111952380D01*
X118285714Y-111976190D01*
X118190476Y-111976190D01*
X118142857Y-111952380D01*
X118119047Y-111928571D01*
X118095238Y-111880952D01*
X118095238Y-111476190D01*
X117619047Y-111476190D02*
X117857142Y-111476190D01*
X117880952Y-111714285D01*
X117857142Y-111690476D01*
X117809523Y-111666666D01*
X117690476Y-111666666D01*
X117642857Y-111690476D01*
X117619047Y-111714285D01*
X117595238Y-111761904D01*
X117595238Y-111880952D01*
X117619047Y-111928571D01*
X117642857Y-111952380D01*
X117690476Y-111976190D01*
X117809523Y-111976190D01*
X117857142Y-111952380D01*
X117880952Y-111928571D01*
X120630952Y-116976190D02*
X120630952Y-116476190D01*
X120440476Y-116476190D01*
X120392857Y-116500000D01*
X120369047Y-116523809D01*
X120345238Y-116571428D01*
X120345238Y-116642857D01*
X120369047Y-116690476D01*
X120392857Y-116714285D01*
X120440476Y-116738095D01*
X120630952Y-116738095D01*
X119988095Y-116476190D02*
X119988095Y-116833333D01*
X120011904Y-116904761D01*
X120059523Y-116952380D01*
X120130952Y-116976190D01*
X120178571Y-116976190D01*
X119750000Y-116785714D02*
X119369047Y-116785714D01*
X119178571Y-116476190D02*
X118869047Y-116476190D01*
X119035714Y-116666666D01*
X118964285Y-116666666D01*
X118916666Y-116690476D01*
X118892857Y-116714285D01*
X118869047Y-116761904D01*
X118869047Y-116880952D01*
X118892857Y-116928571D01*
X118916666Y-116952380D01*
X118964285Y-116976190D01*
X119107142Y-116976190D01*
X119154761Y-116952380D01*
X119178571Y-116928571D01*
X118559523Y-116476190D02*
X118511904Y-116476190D01*
X118464285Y-116500000D01*
X118440476Y-116523809D01*
X118416666Y-116571428D01*
X118392857Y-116666666D01*
X118392857Y-116785714D01*
X118416666Y-116880952D01*
X118440476Y-116928571D01*
X118464285Y-116952380D01*
X118511904Y-116976190D01*
X118559523Y-116976190D01*
X118607142Y-116952380D01*
X118630952Y-116928571D01*
X118654761Y-116880952D01*
X118678571Y-116785714D01*
X118678571Y-116666666D01*
X118654761Y-116571428D01*
X118630952Y-116523809D01*
X118607142Y-116500000D01*
X118559523Y-116476190D01*
X117916666Y-116976190D02*
X118202380Y-116976190D01*
X118059523Y-116976190D02*
X118059523Y-116476190D01*
X118107142Y-116547619D01*
X118154761Y-116595238D01*
X118202380Y-116619047D01*
X117535714Y-116714285D02*
X117464285Y-116738095D01*
X117440476Y-116761904D01*
X117416666Y-116809523D01*
X117416666Y-116880952D01*
X117440476Y-116928571D01*
X117464285Y-116952380D01*
X117511904Y-116976190D01*
X117702380Y-116976190D01*
X117702380Y-116476190D01*
X117535714Y-116476190D01*
X117488095Y-116500000D01*
X117464285Y-116523809D01*
X117440476Y-116571428D01*
X117440476Y-116619047D01*
X117464285Y-116666666D01*
X117488095Y-116690476D01*
X117535714Y-116714285D01*
X117702380Y-116714285D01*
X117202380Y-116976190D02*
X117202380Y-116476190D01*
X117035714Y-116833333D01*
X116869047Y-116476190D01*
X116869047Y-116976190D01*
G04 #@! TO.C,U11*
X109119047Y-111476190D02*
X109119047Y-111880952D01*
X109095238Y-111928571D01*
X109071428Y-111952380D01*
X109023809Y-111976190D01*
X108928571Y-111976190D01*
X108880952Y-111952380D01*
X108857142Y-111928571D01*
X108833333Y-111880952D01*
X108833333Y-111476190D01*
X108333333Y-111976190D02*
X108619047Y-111976190D01*
X108476190Y-111976190D02*
X108476190Y-111476190D01*
X108523809Y-111547619D01*
X108571428Y-111595238D01*
X108619047Y-111619047D01*
X107857142Y-111976190D02*
X108142857Y-111976190D01*
X108000000Y-111976190D02*
X108000000Y-111476190D01*
X108047619Y-111547619D01*
X108095238Y-111595238D01*
X108142857Y-111619047D01*
X109130952Y-116976190D02*
X109130952Y-116476190D01*
X108940476Y-116476190D01*
X108892857Y-116500000D01*
X108869047Y-116523809D01*
X108845238Y-116571428D01*
X108845238Y-116642857D01*
X108869047Y-116690476D01*
X108892857Y-116714285D01*
X108940476Y-116738095D01*
X109130952Y-116738095D01*
X108488095Y-116476190D02*
X108488095Y-116833333D01*
X108511904Y-116904761D01*
X108559523Y-116952380D01*
X108630952Y-116976190D01*
X108678571Y-116976190D01*
X108250000Y-116785714D02*
X107869047Y-116785714D01*
X107678571Y-116476190D02*
X107369047Y-116476190D01*
X107535714Y-116666666D01*
X107464285Y-116666666D01*
X107416666Y-116690476D01*
X107392857Y-116714285D01*
X107369047Y-116761904D01*
X107369047Y-116880952D01*
X107392857Y-116928571D01*
X107416666Y-116952380D01*
X107464285Y-116976190D01*
X107607142Y-116976190D01*
X107654761Y-116952380D01*
X107678571Y-116928571D01*
X107059523Y-116476190D02*
X107011904Y-116476190D01*
X106964285Y-116500000D01*
X106940476Y-116523809D01*
X106916666Y-116571428D01*
X106892857Y-116666666D01*
X106892857Y-116785714D01*
X106916666Y-116880952D01*
X106940476Y-116928571D01*
X106964285Y-116952380D01*
X107011904Y-116976190D01*
X107059523Y-116976190D01*
X107107142Y-116952380D01*
X107130952Y-116928571D01*
X107154761Y-116880952D01*
X107178571Y-116785714D01*
X107178571Y-116666666D01*
X107154761Y-116571428D01*
X107130952Y-116523809D01*
X107107142Y-116500000D01*
X107059523Y-116476190D01*
X106416666Y-116976190D02*
X106702380Y-116976190D01*
X106559523Y-116976190D02*
X106559523Y-116476190D01*
X106607142Y-116547619D01*
X106654761Y-116595238D01*
X106702380Y-116619047D01*
X106035714Y-116714285D02*
X105964285Y-116738095D01*
X105940476Y-116761904D01*
X105916666Y-116809523D01*
X105916666Y-116880952D01*
X105940476Y-116928571D01*
X105964285Y-116952380D01*
X106011904Y-116976190D01*
X106202380Y-116976190D01*
X106202380Y-116476190D01*
X106035714Y-116476190D01*
X105988095Y-116500000D01*
X105964285Y-116523809D01*
X105940476Y-116571428D01*
X105940476Y-116619047D01*
X105964285Y-116666666D01*
X105988095Y-116690476D01*
X106035714Y-116714285D01*
X106202380Y-116714285D01*
X105702380Y-116976190D02*
X105702380Y-116476190D01*
X105535714Y-116833333D01*
X105369047Y-116476190D01*
X105369047Y-116976190D01*
G04 #@! TO.C,U15*
X119369047Y-134226190D02*
X119369047Y-134630952D01*
X119345238Y-134678571D01*
X119321428Y-134702380D01*
X119273809Y-134726190D01*
X119178571Y-134726190D01*
X119130952Y-134702380D01*
X119107142Y-134678571D01*
X119083333Y-134630952D01*
X119083333Y-134226190D01*
X118583333Y-134726190D02*
X118869047Y-134726190D01*
X118726190Y-134726190D02*
X118726190Y-134226190D01*
X118773809Y-134297619D01*
X118821428Y-134345238D01*
X118869047Y-134369047D01*
X118130952Y-134226190D02*
X118369047Y-134226190D01*
X118392857Y-134464285D01*
X118369047Y-134440476D01*
X118321428Y-134416666D01*
X118202380Y-134416666D01*
X118154761Y-134440476D01*
X118130952Y-134464285D01*
X118107142Y-134511904D01*
X118107142Y-134630952D01*
X118130952Y-134678571D01*
X118154761Y-134702380D01*
X118202380Y-134726190D01*
X118321428Y-134726190D01*
X118369047Y-134702380D01*
X118392857Y-134678571D01*
X120630952Y-129726190D02*
X120630952Y-129226190D01*
X120440476Y-129226190D01*
X120392857Y-129250000D01*
X120369047Y-129273809D01*
X120345238Y-129321428D01*
X120345238Y-129392857D01*
X120369047Y-129440476D01*
X120392857Y-129464285D01*
X120440476Y-129488095D01*
X120630952Y-129488095D01*
X119988095Y-129226190D02*
X119988095Y-129583333D01*
X120011904Y-129654761D01*
X120059523Y-129702380D01*
X120130952Y-129726190D01*
X120178571Y-129726190D01*
X119750000Y-129535714D02*
X119369047Y-129535714D01*
X119178571Y-129226190D02*
X118869047Y-129226190D01*
X119035714Y-129416666D01*
X118964285Y-129416666D01*
X118916666Y-129440476D01*
X118892857Y-129464285D01*
X118869047Y-129511904D01*
X118869047Y-129630952D01*
X118892857Y-129678571D01*
X118916666Y-129702380D01*
X118964285Y-129726190D01*
X119107142Y-129726190D01*
X119154761Y-129702380D01*
X119178571Y-129678571D01*
X118559523Y-129226190D02*
X118511904Y-129226190D01*
X118464285Y-129250000D01*
X118440476Y-129273809D01*
X118416666Y-129321428D01*
X118392857Y-129416666D01*
X118392857Y-129535714D01*
X118416666Y-129630952D01*
X118440476Y-129678571D01*
X118464285Y-129702380D01*
X118511904Y-129726190D01*
X118559523Y-129726190D01*
X118607142Y-129702380D01*
X118630952Y-129678571D01*
X118654761Y-129630952D01*
X118678571Y-129535714D01*
X118678571Y-129416666D01*
X118654761Y-129321428D01*
X118630952Y-129273809D01*
X118607142Y-129250000D01*
X118559523Y-129226190D01*
X117916666Y-129726190D02*
X118202380Y-129726190D01*
X118059523Y-129726190D02*
X118059523Y-129226190D01*
X118107142Y-129297619D01*
X118154761Y-129345238D01*
X118202380Y-129369047D01*
X117535714Y-129464285D02*
X117464285Y-129488095D01*
X117440476Y-129511904D01*
X117416666Y-129559523D01*
X117416666Y-129630952D01*
X117440476Y-129678571D01*
X117464285Y-129702380D01*
X117511904Y-129726190D01*
X117702380Y-129726190D01*
X117702380Y-129226190D01*
X117535714Y-129226190D01*
X117488095Y-129250000D01*
X117464285Y-129273809D01*
X117440476Y-129321428D01*
X117440476Y-129369047D01*
X117464285Y-129416666D01*
X117488095Y-129440476D01*
X117535714Y-129464285D01*
X117702380Y-129464285D01*
X117202380Y-129726190D02*
X117202380Y-129226190D01*
X117035714Y-129583333D01*
X116869047Y-129226190D01*
X116869047Y-129726190D01*
G04 #@! TO.C,U19*
X107869047Y-134226190D02*
X107869047Y-134630952D01*
X107845238Y-134678571D01*
X107821428Y-134702380D01*
X107773809Y-134726190D01*
X107678571Y-134726190D01*
X107630952Y-134702380D01*
X107607142Y-134678571D01*
X107583333Y-134630952D01*
X107583333Y-134226190D01*
X107083333Y-134726190D02*
X107369047Y-134726190D01*
X107226190Y-134726190D02*
X107226190Y-134226190D01*
X107273809Y-134297619D01*
X107321428Y-134345238D01*
X107369047Y-134369047D01*
X106845238Y-134726190D02*
X106750000Y-134726190D01*
X106702380Y-134702380D01*
X106678571Y-134678571D01*
X106630952Y-134607142D01*
X106607142Y-134511904D01*
X106607142Y-134321428D01*
X106630952Y-134273809D01*
X106654761Y-134250000D01*
X106702380Y-134226190D01*
X106797619Y-134226190D01*
X106845238Y-134250000D01*
X106869047Y-134273809D01*
X106892857Y-134321428D01*
X106892857Y-134440476D01*
X106869047Y-134488095D01*
X106845238Y-134511904D01*
X106797619Y-134535714D01*
X106702380Y-134535714D01*
X106654761Y-134511904D01*
X106630952Y-134488095D01*
X106607142Y-134440476D01*
X109130952Y-129726190D02*
X109130952Y-129226190D01*
X108940476Y-129226190D01*
X108892857Y-129250000D01*
X108869047Y-129273809D01*
X108845238Y-129321428D01*
X108845238Y-129392857D01*
X108869047Y-129440476D01*
X108892857Y-129464285D01*
X108940476Y-129488095D01*
X109130952Y-129488095D01*
X108488095Y-129226190D02*
X108488095Y-129583333D01*
X108511904Y-129654761D01*
X108559523Y-129702380D01*
X108630952Y-129726190D01*
X108678571Y-129726190D01*
X108250000Y-129535714D02*
X107869047Y-129535714D01*
X107678571Y-129226190D02*
X107369047Y-129226190D01*
X107535714Y-129416666D01*
X107464285Y-129416666D01*
X107416666Y-129440476D01*
X107392857Y-129464285D01*
X107369047Y-129511904D01*
X107369047Y-129630952D01*
X107392857Y-129678571D01*
X107416666Y-129702380D01*
X107464285Y-129726190D01*
X107607142Y-129726190D01*
X107654761Y-129702380D01*
X107678571Y-129678571D01*
X107059523Y-129226190D02*
X107011904Y-129226190D01*
X106964285Y-129250000D01*
X106940476Y-129273809D01*
X106916666Y-129321428D01*
X106892857Y-129416666D01*
X106892857Y-129535714D01*
X106916666Y-129630952D01*
X106940476Y-129678571D01*
X106964285Y-129702380D01*
X107011904Y-129726190D01*
X107059523Y-129726190D01*
X107107142Y-129702380D01*
X107130952Y-129678571D01*
X107154761Y-129630952D01*
X107178571Y-129535714D01*
X107178571Y-129416666D01*
X107154761Y-129321428D01*
X107130952Y-129273809D01*
X107107142Y-129250000D01*
X107059523Y-129226190D01*
X106416666Y-129726190D02*
X106702380Y-129726190D01*
X106559523Y-129726190D02*
X106559523Y-129226190D01*
X106607142Y-129297619D01*
X106654761Y-129345238D01*
X106702380Y-129369047D01*
X106035714Y-129464285D02*
X105964285Y-129488095D01*
X105940476Y-129511904D01*
X105916666Y-129559523D01*
X105916666Y-129630952D01*
X105940476Y-129678571D01*
X105964285Y-129702380D01*
X106011904Y-129726190D01*
X106202380Y-129726190D01*
X106202380Y-129226190D01*
X106035714Y-129226190D01*
X105988095Y-129250000D01*
X105964285Y-129273809D01*
X105940476Y-129321428D01*
X105940476Y-129369047D01*
X105964285Y-129416666D01*
X105988095Y-129440476D01*
X106035714Y-129464285D01*
X106202380Y-129464285D01*
X105702380Y-129726190D02*
X105702380Y-129226190D01*
X105535714Y-129583333D01*
X105369047Y-129226190D01*
X105369047Y-129726190D01*
G04 #@! TO.C,U7*
X120130952Y-137476190D02*
X120130952Y-137880952D01*
X120107142Y-137928571D01*
X120083333Y-137952380D01*
X120035714Y-137976190D01*
X119940476Y-137976190D01*
X119892857Y-137952380D01*
X119869047Y-137928571D01*
X119845238Y-137880952D01*
X119845238Y-137476190D01*
X119654761Y-137476190D02*
X119321428Y-137476190D01*
X119535714Y-137976190D01*
X120630952Y-142976190D02*
X120630952Y-142476190D01*
X120440476Y-142476190D01*
X120392857Y-142500000D01*
X120369047Y-142523809D01*
X120345238Y-142571428D01*
X120345238Y-142642857D01*
X120369047Y-142690476D01*
X120392857Y-142714285D01*
X120440476Y-142738095D01*
X120630952Y-142738095D01*
X119988095Y-142476190D02*
X119988095Y-142833333D01*
X120011904Y-142904761D01*
X120059523Y-142952380D01*
X120130952Y-142976190D01*
X120178571Y-142976190D01*
X119750000Y-142785714D02*
X119369047Y-142785714D01*
X119178571Y-142476190D02*
X118869047Y-142476190D01*
X119035714Y-142666666D01*
X118964285Y-142666666D01*
X118916666Y-142690476D01*
X118892857Y-142714285D01*
X118869047Y-142761904D01*
X118869047Y-142880952D01*
X118892857Y-142928571D01*
X118916666Y-142952380D01*
X118964285Y-142976190D01*
X119107142Y-142976190D01*
X119154761Y-142952380D01*
X119178571Y-142928571D01*
X118559523Y-142476190D02*
X118511904Y-142476190D01*
X118464285Y-142500000D01*
X118440476Y-142523809D01*
X118416666Y-142571428D01*
X118392857Y-142666666D01*
X118392857Y-142785714D01*
X118416666Y-142880952D01*
X118440476Y-142928571D01*
X118464285Y-142952380D01*
X118511904Y-142976190D01*
X118559523Y-142976190D01*
X118607142Y-142952380D01*
X118630952Y-142928571D01*
X118654761Y-142880952D01*
X118678571Y-142785714D01*
X118678571Y-142666666D01*
X118654761Y-142571428D01*
X118630952Y-142523809D01*
X118607142Y-142500000D01*
X118559523Y-142476190D01*
X117916666Y-142976190D02*
X118202380Y-142976190D01*
X118059523Y-142976190D02*
X118059523Y-142476190D01*
X118107142Y-142547619D01*
X118154761Y-142595238D01*
X118202380Y-142619047D01*
X117535714Y-142714285D02*
X117464285Y-142738095D01*
X117440476Y-142761904D01*
X117416666Y-142809523D01*
X117416666Y-142880952D01*
X117440476Y-142928571D01*
X117464285Y-142952380D01*
X117511904Y-142976190D01*
X117702380Y-142976190D01*
X117702380Y-142476190D01*
X117535714Y-142476190D01*
X117488095Y-142500000D01*
X117464285Y-142523809D01*
X117440476Y-142571428D01*
X117440476Y-142619047D01*
X117464285Y-142666666D01*
X117488095Y-142690476D01*
X117535714Y-142714285D01*
X117702380Y-142714285D01*
X117202380Y-142976190D02*
X117202380Y-142476190D01*
X117035714Y-142833333D01*
X116869047Y-142476190D01*
X116869047Y-142976190D01*
G04 #@! TO.C,U12*
X109119047Y-137476190D02*
X109119047Y-137880952D01*
X109095238Y-137928571D01*
X109071428Y-137952380D01*
X109023809Y-137976190D01*
X108928571Y-137976190D01*
X108880952Y-137952380D01*
X108857142Y-137928571D01*
X108833333Y-137880952D01*
X108833333Y-137476190D01*
X108333333Y-137976190D02*
X108619047Y-137976190D01*
X108476190Y-137976190D02*
X108476190Y-137476190D01*
X108523809Y-137547619D01*
X108571428Y-137595238D01*
X108619047Y-137619047D01*
X108142857Y-137523809D02*
X108119047Y-137500000D01*
X108071428Y-137476190D01*
X107952380Y-137476190D01*
X107904761Y-137500000D01*
X107880952Y-137523809D01*
X107857142Y-137571428D01*
X107857142Y-137619047D01*
X107880952Y-137690476D01*
X108166666Y-137976190D01*
X107857142Y-137976190D01*
X109130952Y-142976190D02*
X109130952Y-142476190D01*
X108940476Y-142476190D01*
X108892857Y-142500000D01*
X108869047Y-142523809D01*
X108845238Y-142571428D01*
X108845238Y-142642857D01*
X108869047Y-142690476D01*
X108892857Y-142714285D01*
X108940476Y-142738095D01*
X109130952Y-142738095D01*
X108488095Y-142476190D02*
X108488095Y-142833333D01*
X108511904Y-142904761D01*
X108559523Y-142952380D01*
X108630952Y-142976190D01*
X108678571Y-142976190D01*
X108250000Y-142785714D02*
X107869047Y-142785714D01*
X107678571Y-142476190D02*
X107369047Y-142476190D01*
X107535714Y-142666666D01*
X107464285Y-142666666D01*
X107416666Y-142690476D01*
X107392857Y-142714285D01*
X107369047Y-142761904D01*
X107369047Y-142880952D01*
X107392857Y-142928571D01*
X107416666Y-142952380D01*
X107464285Y-142976190D01*
X107607142Y-142976190D01*
X107654761Y-142952380D01*
X107678571Y-142928571D01*
X107059523Y-142476190D02*
X107011904Y-142476190D01*
X106964285Y-142500000D01*
X106940476Y-142523809D01*
X106916666Y-142571428D01*
X106892857Y-142666666D01*
X106892857Y-142785714D01*
X106916666Y-142880952D01*
X106940476Y-142928571D01*
X106964285Y-142952380D01*
X107011904Y-142976190D01*
X107059523Y-142976190D01*
X107107142Y-142952380D01*
X107130952Y-142928571D01*
X107154761Y-142880952D01*
X107178571Y-142785714D01*
X107178571Y-142666666D01*
X107154761Y-142571428D01*
X107130952Y-142523809D01*
X107107142Y-142500000D01*
X107059523Y-142476190D01*
X106416666Y-142976190D02*
X106702380Y-142976190D01*
X106559523Y-142976190D02*
X106559523Y-142476190D01*
X106607142Y-142547619D01*
X106654761Y-142595238D01*
X106702380Y-142619047D01*
X106035714Y-142714285D02*
X105964285Y-142738095D01*
X105940476Y-142761904D01*
X105916666Y-142809523D01*
X105916666Y-142880952D01*
X105940476Y-142928571D01*
X105964285Y-142952380D01*
X106011904Y-142976190D01*
X106202380Y-142976190D01*
X106202380Y-142476190D01*
X106035714Y-142476190D01*
X105988095Y-142500000D01*
X105964285Y-142523809D01*
X105940476Y-142571428D01*
X105940476Y-142619047D01*
X105964285Y-142666666D01*
X105988095Y-142690476D01*
X106035714Y-142714285D01*
X106202380Y-142714285D01*
X105702380Y-142976190D02*
X105702380Y-142476190D01*
X105535714Y-142833333D01*
X105369047Y-142476190D01*
X105369047Y-142976190D01*
G04 #@! TO.C,U16*
X123476190Y-158130952D02*
X123880952Y-158130952D01*
X123928571Y-158154761D01*
X123952380Y-158178571D01*
X123976190Y-158226190D01*
X123976190Y-158321428D01*
X123952380Y-158369047D01*
X123928571Y-158392857D01*
X123880952Y-158416666D01*
X123476190Y-158416666D01*
X123976190Y-158916666D02*
X123976190Y-158630952D01*
X123976190Y-158773809D02*
X123476190Y-158773809D01*
X123547619Y-158726190D01*
X123595238Y-158678571D01*
X123619047Y-158630952D01*
X123476190Y-159345238D02*
X123476190Y-159250000D01*
X123500000Y-159202380D01*
X123523809Y-159178571D01*
X123595238Y-159130952D01*
X123690476Y-159107142D01*
X123880952Y-159107142D01*
X123928571Y-159130952D01*
X123952380Y-159154761D01*
X123976190Y-159202380D01*
X123976190Y-159297619D01*
X123952380Y-159345238D01*
X123928571Y-159369047D01*
X123880952Y-159392857D01*
X123761904Y-159392857D01*
X123714285Y-159369047D01*
X123690476Y-159345238D01*
X123666666Y-159297619D01*
X123666666Y-159202380D01*
X123690476Y-159154761D01*
X123714285Y-159130952D01*
X123761904Y-159107142D01*
X120630952Y-155726190D02*
X120630952Y-155226190D01*
X120440476Y-155226190D01*
X120392857Y-155250000D01*
X120369047Y-155273809D01*
X120345238Y-155321428D01*
X120345238Y-155392857D01*
X120369047Y-155440476D01*
X120392857Y-155464285D01*
X120440476Y-155488095D01*
X120630952Y-155488095D01*
X119988095Y-155226190D02*
X119988095Y-155583333D01*
X120011904Y-155654761D01*
X120059523Y-155702380D01*
X120130952Y-155726190D01*
X120178571Y-155726190D01*
X119750000Y-155535714D02*
X119369047Y-155535714D01*
X119178571Y-155226190D02*
X118869047Y-155226190D01*
X119035714Y-155416666D01*
X118964285Y-155416666D01*
X118916666Y-155440476D01*
X118892857Y-155464285D01*
X118869047Y-155511904D01*
X118869047Y-155630952D01*
X118892857Y-155678571D01*
X118916666Y-155702380D01*
X118964285Y-155726190D01*
X119107142Y-155726190D01*
X119154761Y-155702380D01*
X119178571Y-155678571D01*
X118559523Y-155226190D02*
X118511904Y-155226190D01*
X118464285Y-155250000D01*
X118440476Y-155273809D01*
X118416666Y-155321428D01*
X118392857Y-155416666D01*
X118392857Y-155535714D01*
X118416666Y-155630952D01*
X118440476Y-155678571D01*
X118464285Y-155702380D01*
X118511904Y-155726190D01*
X118559523Y-155726190D01*
X118607142Y-155702380D01*
X118630952Y-155678571D01*
X118654761Y-155630952D01*
X118678571Y-155535714D01*
X118678571Y-155416666D01*
X118654761Y-155321428D01*
X118630952Y-155273809D01*
X118607142Y-155250000D01*
X118559523Y-155226190D01*
X117916666Y-155726190D02*
X118202380Y-155726190D01*
X118059523Y-155726190D02*
X118059523Y-155226190D01*
X118107142Y-155297619D01*
X118154761Y-155345238D01*
X118202380Y-155369047D01*
X117535714Y-155464285D02*
X117464285Y-155488095D01*
X117440476Y-155511904D01*
X117416666Y-155559523D01*
X117416666Y-155630952D01*
X117440476Y-155678571D01*
X117464285Y-155702380D01*
X117511904Y-155726190D01*
X117702380Y-155726190D01*
X117702380Y-155226190D01*
X117535714Y-155226190D01*
X117488095Y-155250000D01*
X117464285Y-155273809D01*
X117440476Y-155321428D01*
X117440476Y-155369047D01*
X117464285Y-155416666D01*
X117488095Y-155440476D01*
X117535714Y-155464285D01*
X117702380Y-155464285D01*
X117202380Y-155726190D02*
X117202380Y-155226190D01*
X117035714Y-155583333D01*
X116869047Y-155226190D01*
X116869047Y-155726190D01*
G04 #@! TO.C,U20*
X101976190Y-157630952D02*
X102380952Y-157630952D01*
X102428571Y-157654761D01*
X102452380Y-157678571D01*
X102476190Y-157726190D01*
X102476190Y-157821428D01*
X102452380Y-157869047D01*
X102428571Y-157892857D01*
X102380952Y-157916666D01*
X101976190Y-157916666D01*
X102023809Y-158130952D02*
X102000000Y-158154761D01*
X101976190Y-158202380D01*
X101976190Y-158321428D01*
X102000000Y-158369047D01*
X102023809Y-158392857D01*
X102071428Y-158416666D01*
X102119047Y-158416666D01*
X102190476Y-158392857D01*
X102476190Y-158107142D01*
X102476190Y-158416666D01*
X101976190Y-158726190D02*
X101976190Y-158773809D01*
X102000000Y-158821428D01*
X102023809Y-158845238D01*
X102071428Y-158869047D01*
X102166666Y-158892857D01*
X102285714Y-158892857D01*
X102380952Y-158869047D01*
X102428571Y-158845238D01*
X102452380Y-158821428D01*
X102476190Y-158773809D01*
X102476190Y-158726190D01*
X102452380Y-158678571D01*
X102428571Y-158654761D01*
X102380952Y-158630952D01*
X102285714Y-158607142D01*
X102166666Y-158607142D01*
X102071428Y-158630952D01*
X102023809Y-158654761D01*
X102000000Y-158678571D01*
X101976190Y-158726190D01*
X109130952Y-155726190D02*
X109130952Y-155226190D01*
X108940476Y-155226190D01*
X108892857Y-155250000D01*
X108869047Y-155273809D01*
X108845238Y-155321428D01*
X108845238Y-155392857D01*
X108869047Y-155440476D01*
X108892857Y-155464285D01*
X108940476Y-155488095D01*
X109130952Y-155488095D01*
X108488095Y-155226190D02*
X108488095Y-155583333D01*
X108511904Y-155654761D01*
X108559523Y-155702380D01*
X108630952Y-155726190D01*
X108678571Y-155726190D01*
X108250000Y-155535714D02*
X107869047Y-155535714D01*
X107678571Y-155226190D02*
X107369047Y-155226190D01*
X107535714Y-155416666D01*
X107464285Y-155416666D01*
X107416666Y-155440476D01*
X107392857Y-155464285D01*
X107369047Y-155511904D01*
X107369047Y-155630952D01*
X107392857Y-155678571D01*
X107416666Y-155702380D01*
X107464285Y-155726190D01*
X107607142Y-155726190D01*
X107654761Y-155702380D01*
X107678571Y-155678571D01*
X107059523Y-155226190D02*
X107011904Y-155226190D01*
X106964285Y-155250000D01*
X106940476Y-155273809D01*
X106916666Y-155321428D01*
X106892857Y-155416666D01*
X106892857Y-155535714D01*
X106916666Y-155630952D01*
X106940476Y-155678571D01*
X106964285Y-155702380D01*
X107011904Y-155726190D01*
X107059523Y-155726190D01*
X107107142Y-155702380D01*
X107130952Y-155678571D01*
X107154761Y-155630952D01*
X107178571Y-155535714D01*
X107178571Y-155416666D01*
X107154761Y-155321428D01*
X107130952Y-155273809D01*
X107107142Y-155250000D01*
X107059523Y-155226190D01*
X106416666Y-155726190D02*
X106702380Y-155726190D01*
X106559523Y-155726190D02*
X106559523Y-155226190D01*
X106607142Y-155297619D01*
X106654761Y-155345238D01*
X106702380Y-155369047D01*
X106035714Y-155464285D02*
X105964285Y-155488095D01*
X105940476Y-155511904D01*
X105916666Y-155559523D01*
X105916666Y-155630952D01*
X105940476Y-155678571D01*
X105964285Y-155702380D01*
X106011904Y-155726190D01*
X106202380Y-155726190D01*
X106202380Y-155226190D01*
X106035714Y-155226190D01*
X105988095Y-155250000D01*
X105964285Y-155273809D01*
X105940476Y-155321428D01*
X105940476Y-155369047D01*
X105964285Y-155416666D01*
X105988095Y-155440476D01*
X106035714Y-155464285D01*
X106202380Y-155464285D01*
X105702380Y-155726190D02*
X105702380Y-155226190D01*
X105535714Y-155583333D01*
X105369047Y-155226190D01*
X105369047Y-155726190D01*
G04 #@! TO.C,C21*
X113321428Y-144178571D02*
X113345238Y-144202380D01*
X113416666Y-144226190D01*
X113464285Y-144226190D01*
X113535714Y-144202380D01*
X113583333Y-144154761D01*
X113607142Y-144107142D01*
X113630952Y-144011904D01*
X113630952Y-143940476D01*
X113607142Y-143845238D01*
X113583333Y-143797619D01*
X113535714Y-143750000D01*
X113464285Y-143726190D01*
X113416666Y-143726190D01*
X113345238Y-143750000D01*
X113321428Y-143773809D01*
X113130952Y-143773809D02*
X113107142Y-143750000D01*
X113059523Y-143726190D01*
X112940476Y-143726190D01*
X112892857Y-143750000D01*
X112869047Y-143773809D01*
X112845238Y-143821428D01*
X112845238Y-143869047D01*
X112869047Y-143940476D01*
X113154761Y-144226190D01*
X112845238Y-144226190D01*
X112369047Y-144226190D02*
X112654761Y-144226190D01*
X112511904Y-144226190D02*
X112511904Y-143726190D01*
X112559523Y-143797619D01*
X112607142Y-143845238D01*
X112654761Y-143869047D01*
G04 #@! TO.C,C26*
X113321428Y-150678571D02*
X113345238Y-150702380D01*
X113416666Y-150726190D01*
X113464285Y-150726190D01*
X113535714Y-150702380D01*
X113583333Y-150654761D01*
X113607142Y-150607142D01*
X113630952Y-150511904D01*
X113630952Y-150440476D01*
X113607142Y-150345238D01*
X113583333Y-150297619D01*
X113535714Y-150250000D01*
X113464285Y-150226190D01*
X113416666Y-150226190D01*
X113345238Y-150250000D01*
X113321428Y-150273809D01*
X113130952Y-150273809D02*
X113107142Y-150250000D01*
X113059523Y-150226190D01*
X112940476Y-150226190D01*
X112892857Y-150250000D01*
X112869047Y-150273809D01*
X112845238Y-150321428D01*
X112845238Y-150369047D01*
X112869047Y-150440476D01*
X113154761Y-150726190D01*
X112845238Y-150726190D01*
X112416666Y-150226190D02*
X112511904Y-150226190D01*
X112559523Y-150250000D01*
X112583333Y-150273809D01*
X112630952Y-150345238D01*
X112654761Y-150440476D01*
X112654761Y-150630952D01*
X112630952Y-150678571D01*
X112607142Y-150702380D01*
X112559523Y-150726190D01*
X112464285Y-150726190D01*
X112416666Y-150702380D01*
X112392857Y-150678571D01*
X112369047Y-150630952D01*
X112369047Y-150511904D01*
X112392857Y-150464285D01*
X112416666Y-150440476D01*
X112464285Y-150416666D01*
X112559523Y-150416666D01*
X112607142Y-150440476D01*
X112630952Y-150464285D01*
X112654761Y-150511904D01*
G04 #@! TO.C,C19*
X113321428Y-92428571D02*
X113345238Y-92452380D01*
X113416666Y-92476190D01*
X113464285Y-92476190D01*
X113535714Y-92452380D01*
X113583333Y-92404761D01*
X113607142Y-92357142D01*
X113630952Y-92261904D01*
X113630952Y-92190476D01*
X113607142Y-92095238D01*
X113583333Y-92047619D01*
X113535714Y-92000000D01*
X113464285Y-91976190D01*
X113416666Y-91976190D01*
X113345238Y-92000000D01*
X113321428Y-92023809D01*
X112845238Y-92476190D02*
X113130952Y-92476190D01*
X112988095Y-92476190D02*
X112988095Y-91976190D01*
X113035714Y-92047619D01*
X113083333Y-92095238D01*
X113130952Y-92119047D01*
X112607142Y-92476190D02*
X112511904Y-92476190D01*
X112464285Y-92452380D01*
X112440476Y-92428571D01*
X112392857Y-92357142D01*
X112369047Y-92261904D01*
X112369047Y-92071428D01*
X112392857Y-92023809D01*
X112416666Y-92000000D01*
X112464285Y-91976190D01*
X112559523Y-91976190D01*
X112607142Y-92000000D01*
X112630952Y-92023809D01*
X112654761Y-92071428D01*
X112654761Y-92190476D01*
X112630952Y-92238095D01*
X112607142Y-92261904D01*
X112559523Y-92285714D01*
X112464285Y-92285714D01*
X112416666Y-92261904D01*
X112392857Y-92238095D01*
X112369047Y-92190476D01*
G04 #@! TO.C,C20*
X113321428Y-118428571D02*
X113345238Y-118452380D01*
X113416666Y-118476190D01*
X113464285Y-118476190D01*
X113535714Y-118452380D01*
X113583333Y-118404761D01*
X113607142Y-118357142D01*
X113630952Y-118261904D01*
X113630952Y-118190476D01*
X113607142Y-118095238D01*
X113583333Y-118047619D01*
X113535714Y-118000000D01*
X113464285Y-117976190D01*
X113416666Y-117976190D01*
X113345238Y-118000000D01*
X113321428Y-118023809D01*
X113130952Y-118023809D02*
X113107142Y-118000000D01*
X113059523Y-117976190D01*
X112940476Y-117976190D01*
X112892857Y-118000000D01*
X112869047Y-118023809D01*
X112845238Y-118071428D01*
X112845238Y-118119047D01*
X112869047Y-118190476D01*
X113154761Y-118476190D01*
X112845238Y-118476190D01*
X112535714Y-117976190D02*
X112488095Y-117976190D01*
X112440476Y-118000000D01*
X112416666Y-118023809D01*
X112392857Y-118071428D01*
X112369047Y-118166666D01*
X112369047Y-118285714D01*
X112392857Y-118380952D01*
X112416666Y-118428571D01*
X112440476Y-118452380D01*
X112488095Y-118476190D01*
X112535714Y-118476190D01*
X112583333Y-118452380D01*
X112607142Y-118428571D01*
X112630952Y-118380952D01*
X112654761Y-118285714D01*
X112654761Y-118166666D01*
X112630952Y-118071428D01*
X112607142Y-118023809D01*
X112583333Y-118000000D01*
X112535714Y-117976190D01*
G04 #@! TO.C,C24*
X113321428Y-97928571D02*
X113345238Y-97952380D01*
X113416666Y-97976190D01*
X113464285Y-97976190D01*
X113535714Y-97952380D01*
X113583333Y-97904761D01*
X113607142Y-97857142D01*
X113630952Y-97761904D01*
X113630952Y-97690476D01*
X113607142Y-97595238D01*
X113583333Y-97547619D01*
X113535714Y-97500000D01*
X113464285Y-97476190D01*
X113416666Y-97476190D01*
X113345238Y-97500000D01*
X113321428Y-97523809D01*
X113130952Y-97523809D02*
X113107142Y-97500000D01*
X113059523Y-97476190D01*
X112940476Y-97476190D01*
X112892857Y-97500000D01*
X112869047Y-97523809D01*
X112845238Y-97571428D01*
X112845238Y-97619047D01*
X112869047Y-97690476D01*
X113154761Y-97976190D01*
X112845238Y-97976190D01*
X112416666Y-97642857D02*
X112416666Y-97976190D01*
X112535714Y-97452380D02*
X112654761Y-97809523D01*
X112345238Y-97809523D01*
G04 #@! TO.C,C25*
X113321428Y-123678571D02*
X113345238Y-123702380D01*
X113416666Y-123726190D01*
X113464285Y-123726190D01*
X113535714Y-123702380D01*
X113583333Y-123654761D01*
X113607142Y-123607142D01*
X113630952Y-123511904D01*
X113630952Y-123440476D01*
X113607142Y-123345238D01*
X113583333Y-123297619D01*
X113535714Y-123250000D01*
X113464285Y-123226190D01*
X113416666Y-123226190D01*
X113345238Y-123250000D01*
X113321428Y-123273809D01*
X113130952Y-123273809D02*
X113107142Y-123250000D01*
X113059523Y-123226190D01*
X112940476Y-123226190D01*
X112892857Y-123250000D01*
X112869047Y-123273809D01*
X112845238Y-123321428D01*
X112845238Y-123369047D01*
X112869047Y-123440476D01*
X113154761Y-123726190D01*
X112845238Y-123726190D01*
X112392857Y-123226190D02*
X112630952Y-123226190D01*
X112654761Y-123464285D01*
X112630952Y-123440476D01*
X112583333Y-123416666D01*
X112464285Y-123416666D01*
X112416666Y-123440476D01*
X112392857Y-123464285D01*
X112369047Y-123511904D01*
X112369047Y-123630952D01*
X112392857Y-123678571D01*
X112416666Y-123702380D01*
X112464285Y-123726190D01*
X112583333Y-123726190D01*
X112630952Y-123702380D01*
X112654761Y-123678571D01*
G04 #@! TO.C,JP5*
X101166666Y-83976190D02*
X101166666Y-84333333D01*
X101190476Y-84404761D01*
X101238095Y-84452380D01*
X101309523Y-84476190D01*
X101357142Y-84476190D01*
X100928571Y-84476190D02*
X100928571Y-83976190D01*
X100738095Y-83976190D01*
X100690476Y-84000000D01*
X100666666Y-84023809D01*
X100642857Y-84071428D01*
X100642857Y-84142857D01*
X100666666Y-84190476D01*
X100690476Y-84214285D01*
X100738095Y-84238095D01*
X100928571Y-84238095D01*
X100190476Y-83976190D02*
X100428571Y-83976190D01*
X100452380Y-84214285D01*
X100428571Y-84190476D01*
X100380952Y-84166666D01*
X100261904Y-84166666D01*
X100214285Y-84190476D01*
X100190476Y-84214285D01*
X100166666Y-84261904D01*
X100166666Y-84380952D01*
X100190476Y-84428571D01*
X100214285Y-84452380D01*
X100261904Y-84476190D01*
X100380952Y-84476190D01*
X100428571Y-84452380D01*
X100452380Y-84428571D01*
G04 #@! TD*
M02*
