G04 #@! TF.GenerationSoftware,KiCad,Pcbnew,(5.0.0-3-g5ebb6b6)*
G04 #@! TF.CreationDate,2019-01-01T15:12:14-08:00*
G04 #@! TF.ProjectId,BuffMult,427566664D756C742E6B696361645F70,rev?*
G04 #@! TF.SameCoordinates,Original*
G04 #@! TF.FileFunction,Soldermask,Bot*
G04 #@! TF.FilePolarity,Negative*
%FSLAX46Y46*%
G04 Gerber Fmt 4.6, Leading zero omitted, Abs format (unit mm)*
G04 Created by KiCad (PCBNEW (5.0.0-3-g5ebb6b6)) date Tuesday, January 01, 2019 at 03:12:14 PM*
%MOMM*%
%LPD*%
G01*
G04 APERTURE LIST*
%ADD10C,0.300000*%
%ADD11C,0.100000*%
%ADD12C,1.375000*%
%ADD13R,1.600000X1.300000*%
%ADD14C,1.840000*%
%ADD15C,2.050000*%
%ADD16R,2.100000X2.100000*%
G04 APERTURE END LIST*
D10*
G04 #@! TO.C,JP4*
X101475000Y-71000000D03*
D11*
G36*
X102014018Y-70053843D02*
X102051537Y-70065224D01*
X102086114Y-70083706D01*
X102116421Y-70108579D01*
X102141294Y-70138886D01*
X102159776Y-70173463D01*
X102171157Y-70210982D01*
X102175000Y-70250000D01*
X102175000Y-71750000D01*
X102171157Y-71789018D01*
X102159776Y-71826537D01*
X102141294Y-71861114D01*
X102116421Y-71891421D01*
X102086114Y-71916294D01*
X102051537Y-71934776D01*
X102014018Y-71946157D01*
X101975000Y-71950000D01*
X100825000Y-71950000D01*
X100785982Y-71946157D01*
X100748463Y-71934776D01*
X100713886Y-71916294D01*
X100683579Y-71891421D01*
X100658706Y-71861114D01*
X100640224Y-71826537D01*
X100628843Y-71789018D01*
X100625000Y-71750000D01*
X100628843Y-71710982D01*
X100640224Y-71673463D01*
X100658590Y-71639060D01*
X101084630Y-71000000D01*
X100658590Y-70360940D01*
X100640144Y-70326343D01*
X100628802Y-70288813D01*
X100625000Y-70249791D01*
X100628884Y-70210777D01*
X100640304Y-70173270D01*
X100658822Y-70138712D01*
X100683727Y-70108431D01*
X100714060Y-70083590D01*
X100748657Y-70065144D01*
X100786187Y-70053802D01*
X100825000Y-70050000D01*
X101975000Y-70050000D01*
X102014018Y-70053843D01*
X102014018Y-70053843D01*
G37*
D10*
X100025000Y-71000000D03*
D11*
G36*
X100564018Y-70053843D02*
X100601537Y-70065224D01*
X100636114Y-70083706D01*
X100666421Y-70108579D01*
X100691410Y-70139060D01*
X101191410Y-70889060D01*
X101209856Y-70923657D01*
X101221198Y-70961187D01*
X101225000Y-71000209D01*
X101221116Y-71039223D01*
X101209696Y-71076730D01*
X101191410Y-71110940D01*
X100691410Y-71860940D01*
X100666569Y-71891273D01*
X100636288Y-71916178D01*
X100601730Y-71934696D01*
X100564223Y-71946116D01*
X100525000Y-71950000D01*
X99525000Y-71950000D01*
X99485982Y-71946157D01*
X99448463Y-71934776D01*
X99413886Y-71916294D01*
X99383579Y-71891421D01*
X99358706Y-71861114D01*
X99340224Y-71826537D01*
X99328843Y-71789018D01*
X99325000Y-71750000D01*
X99325000Y-70250000D01*
X99328843Y-70210982D01*
X99340224Y-70173463D01*
X99358706Y-70138886D01*
X99383579Y-70108579D01*
X99413886Y-70083706D01*
X99448463Y-70065224D01*
X99485982Y-70053843D01*
X99525000Y-70050000D01*
X100525000Y-70050000D01*
X100564018Y-70053843D01*
X100564018Y-70053843D01*
G37*
G04 #@! TD*
G04 #@! TO.C,R8*
G36*
X126564943Y-140351655D02*
X126598312Y-140356605D01*
X126631035Y-140364802D01*
X126662797Y-140376166D01*
X126693293Y-140390590D01*
X126722227Y-140407932D01*
X126749323Y-140428028D01*
X126774318Y-140450682D01*
X126796972Y-140475677D01*
X126817068Y-140502773D01*
X126834410Y-140531707D01*
X126848834Y-140562203D01*
X126860198Y-140593965D01*
X126868395Y-140626688D01*
X126873345Y-140660057D01*
X126875000Y-140693750D01*
X126875000Y-141806250D01*
X126873345Y-141839943D01*
X126868395Y-141873312D01*
X126860198Y-141906035D01*
X126848834Y-141937797D01*
X126834410Y-141968293D01*
X126817068Y-141997227D01*
X126796972Y-142024323D01*
X126774318Y-142049318D01*
X126749323Y-142071972D01*
X126722227Y-142092068D01*
X126693293Y-142109410D01*
X126662797Y-142123834D01*
X126631035Y-142135198D01*
X126598312Y-142143395D01*
X126564943Y-142148345D01*
X126531250Y-142150000D01*
X125843750Y-142150000D01*
X125810057Y-142148345D01*
X125776688Y-142143395D01*
X125743965Y-142135198D01*
X125712203Y-142123834D01*
X125681707Y-142109410D01*
X125652773Y-142092068D01*
X125625677Y-142071972D01*
X125600682Y-142049318D01*
X125578028Y-142024323D01*
X125557932Y-141997227D01*
X125540590Y-141968293D01*
X125526166Y-141937797D01*
X125514802Y-141906035D01*
X125506605Y-141873312D01*
X125501655Y-141839943D01*
X125500000Y-141806250D01*
X125500000Y-140693750D01*
X125501655Y-140660057D01*
X125506605Y-140626688D01*
X125514802Y-140593965D01*
X125526166Y-140562203D01*
X125540590Y-140531707D01*
X125557932Y-140502773D01*
X125578028Y-140475677D01*
X125600682Y-140450682D01*
X125625677Y-140428028D01*
X125652773Y-140407932D01*
X125681707Y-140390590D01*
X125712203Y-140376166D01*
X125743965Y-140364802D01*
X125776688Y-140356605D01*
X125810057Y-140351655D01*
X125843750Y-140350000D01*
X126531250Y-140350000D01*
X126564943Y-140351655D01*
X126564943Y-140351655D01*
G37*
D12*
X126187500Y-141250000D03*
D11*
G36*
X124689943Y-140351655D02*
X124723312Y-140356605D01*
X124756035Y-140364802D01*
X124787797Y-140376166D01*
X124818293Y-140390590D01*
X124847227Y-140407932D01*
X124874323Y-140428028D01*
X124899318Y-140450682D01*
X124921972Y-140475677D01*
X124942068Y-140502773D01*
X124959410Y-140531707D01*
X124973834Y-140562203D01*
X124985198Y-140593965D01*
X124993395Y-140626688D01*
X124998345Y-140660057D01*
X125000000Y-140693750D01*
X125000000Y-141806250D01*
X124998345Y-141839943D01*
X124993395Y-141873312D01*
X124985198Y-141906035D01*
X124973834Y-141937797D01*
X124959410Y-141968293D01*
X124942068Y-141997227D01*
X124921972Y-142024323D01*
X124899318Y-142049318D01*
X124874323Y-142071972D01*
X124847227Y-142092068D01*
X124818293Y-142109410D01*
X124787797Y-142123834D01*
X124756035Y-142135198D01*
X124723312Y-142143395D01*
X124689943Y-142148345D01*
X124656250Y-142150000D01*
X123968750Y-142150000D01*
X123935057Y-142148345D01*
X123901688Y-142143395D01*
X123868965Y-142135198D01*
X123837203Y-142123834D01*
X123806707Y-142109410D01*
X123777773Y-142092068D01*
X123750677Y-142071972D01*
X123725682Y-142049318D01*
X123703028Y-142024323D01*
X123682932Y-141997227D01*
X123665590Y-141968293D01*
X123651166Y-141937797D01*
X123639802Y-141906035D01*
X123631605Y-141873312D01*
X123626655Y-141839943D01*
X123625000Y-141806250D01*
X123625000Y-140693750D01*
X123626655Y-140660057D01*
X123631605Y-140626688D01*
X123639802Y-140593965D01*
X123651166Y-140562203D01*
X123665590Y-140531707D01*
X123682932Y-140502773D01*
X123703028Y-140475677D01*
X123725682Y-140450682D01*
X123750677Y-140428028D01*
X123777773Y-140407932D01*
X123806707Y-140390590D01*
X123837203Y-140376166D01*
X123868965Y-140364802D01*
X123901688Y-140356605D01*
X123935057Y-140351655D01*
X123968750Y-140350000D01*
X124656250Y-140350000D01*
X124689943Y-140351655D01*
X124689943Y-140351655D01*
G37*
D12*
X124312500Y-141250000D03*
G04 #@! TD*
D13*
G04 #@! TO.C,D1*
X113000000Y-133250000D03*
X113000000Y-129950000D03*
G04 #@! TD*
D11*
G04 #@! TO.C,R32*
G36*
X126589943Y-150626655D02*
X126623312Y-150631605D01*
X126656035Y-150639802D01*
X126687797Y-150651166D01*
X126718293Y-150665590D01*
X126747227Y-150682932D01*
X126774323Y-150703028D01*
X126799318Y-150725682D01*
X126821972Y-150750677D01*
X126842068Y-150777773D01*
X126859410Y-150806707D01*
X126873834Y-150837203D01*
X126885198Y-150868965D01*
X126893395Y-150901688D01*
X126898345Y-150935057D01*
X126900000Y-150968750D01*
X126900000Y-151656250D01*
X126898345Y-151689943D01*
X126893395Y-151723312D01*
X126885198Y-151756035D01*
X126873834Y-151787797D01*
X126859410Y-151818293D01*
X126842068Y-151847227D01*
X126821972Y-151874323D01*
X126799318Y-151899318D01*
X126774323Y-151921972D01*
X126747227Y-151942068D01*
X126718293Y-151959410D01*
X126687797Y-151973834D01*
X126656035Y-151985198D01*
X126623312Y-151993395D01*
X126589943Y-151998345D01*
X126556250Y-152000000D01*
X125443750Y-152000000D01*
X125410057Y-151998345D01*
X125376688Y-151993395D01*
X125343965Y-151985198D01*
X125312203Y-151973834D01*
X125281707Y-151959410D01*
X125252773Y-151942068D01*
X125225677Y-151921972D01*
X125200682Y-151899318D01*
X125178028Y-151874323D01*
X125157932Y-151847227D01*
X125140590Y-151818293D01*
X125126166Y-151787797D01*
X125114802Y-151756035D01*
X125106605Y-151723312D01*
X125101655Y-151689943D01*
X125100000Y-151656250D01*
X125100000Y-150968750D01*
X125101655Y-150935057D01*
X125106605Y-150901688D01*
X125114802Y-150868965D01*
X125126166Y-150837203D01*
X125140590Y-150806707D01*
X125157932Y-150777773D01*
X125178028Y-150750677D01*
X125200682Y-150725682D01*
X125225677Y-150703028D01*
X125252773Y-150682932D01*
X125281707Y-150665590D01*
X125312203Y-150651166D01*
X125343965Y-150639802D01*
X125376688Y-150631605D01*
X125410057Y-150626655D01*
X125443750Y-150625000D01*
X126556250Y-150625000D01*
X126589943Y-150626655D01*
X126589943Y-150626655D01*
G37*
D12*
X126000000Y-151312500D03*
D11*
G36*
X126589943Y-152501655D02*
X126623312Y-152506605D01*
X126656035Y-152514802D01*
X126687797Y-152526166D01*
X126718293Y-152540590D01*
X126747227Y-152557932D01*
X126774323Y-152578028D01*
X126799318Y-152600682D01*
X126821972Y-152625677D01*
X126842068Y-152652773D01*
X126859410Y-152681707D01*
X126873834Y-152712203D01*
X126885198Y-152743965D01*
X126893395Y-152776688D01*
X126898345Y-152810057D01*
X126900000Y-152843750D01*
X126900000Y-153531250D01*
X126898345Y-153564943D01*
X126893395Y-153598312D01*
X126885198Y-153631035D01*
X126873834Y-153662797D01*
X126859410Y-153693293D01*
X126842068Y-153722227D01*
X126821972Y-153749323D01*
X126799318Y-153774318D01*
X126774323Y-153796972D01*
X126747227Y-153817068D01*
X126718293Y-153834410D01*
X126687797Y-153848834D01*
X126656035Y-153860198D01*
X126623312Y-153868395D01*
X126589943Y-153873345D01*
X126556250Y-153875000D01*
X125443750Y-153875000D01*
X125410057Y-153873345D01*
X125376688Y-153868395D01*
X125343965Y-153860198D01*
X125312203Y-153848834D01*
X125281707Y-153834410D01*
X125252773Y-153817068D01*
X125225677Y-153796972D01*
X125200682Y-153774318D01*
X125178028Y-153749323D01*
X125157932Y-153722227D01*
X125140590Y-153693293D01*
X125126166Y-153662797D01*
X125114802Y-153631035D01*
X125106605Y-153598312D01*
X125101655Y-153564943D01*
X125100000Y-153531250D01*
X125100000Y-152843750D01*
X125101655Y-152810057D01*
X125106605Y-152776688D01*
X125114802Y-152743965D01*
X125126166Y-152712203D01*
X125140590Y-152681707D01*
X125157932Y-152652773D01*
X125178028Y-152625677D01*
X125200682Y-152600682D01*
X125225677Y-152578028D01*
X125252773Y-152557932D01*
X125281707Y-152540590D01*
X125312203Y-152526166D01*
X125343965Y-152514802D01*
X125376688Y-152506605D01*
X125410057Y-152501655D01*
X125443750Y-152500000D01*
X126556250Y-152500000D01*
X126589943Y-152501655D01*
X126589943Y-152501655D01*
G37*
D12*
X126000000Y-153187500D03*
G04 #@! TD*
D11*
G04 #@! TO.C,R40*
G36*
X126589943Y-155626655D02*
X126623312Y-155631605D01*
X126656035Y-155639802D01*
X126687797Y-155651166D01*
X126718293Y-155665590D01*
X126747227Y-155682932D01*
X126774323Y-155703028D01*
X126799318Y-155725682D01*
X126821972Y-155750677D01*
X126842068Y-155777773D01*
X126859410Y-155806707D01*
X126873834Y-155837203D01*
X126885198Y-155868965D01*
X126893395Y-155901688D01*
X126898345Y-155935057D01*
X126900000Y-155968750D01*
X126900000Y-156656250D01*
X126898345Y-156689943D01*
X126893395Y-156723312D01*
X126885198Y-156756035D01*
X126873834Y-156787797D01*
X126859410Y-156818293D01*
X126842068Y-156847227D01*
X126821972Y-156874323D01*
X126799318Y-156899318D01*
X126774323Y-156921972D01*
X126747227Y-156942068D01*
X126718293Y-156959410D01*
X126687797Y-156973834D01*
X126656035Y-156985198D01*
X126623312Y-156993395D01*
X126589943Y-156998345D01*
X126556250Y-157000000D01*
X125443750Y-157000000D01*
X125410057Y-156998345D01*
X125376688Y-156993395D01*
X125343965Y-156985198D01*
X125312203Y-156973834D01*
X125281707Y-156959410D01*
X125252773Y-156942068D01*
X125225677Y-156921972D01*
X125200682Y-156899318D01*
X125178028Y-156874323D01*
X125157932Y-156847227D01*
X125140590Y-156818293D01*
X125126166Y-156787797D01*
X125114802Y-156756035D01*
X125106605Y-156723312D01*
X125101655Y-156689943D01*
X125100000Y-156656250D01*
X125100000Y-155968750D01*
X125101655Y-155935057D01*
X125106605Y-155901688D01*
X125114802Y-155868965D01*
X125126166Y-155837203D01*
X125140590Y-155806707D01*
X125157932Y-155777773D01*
X125178028Y-155750677D01*
X125200682Y-155725682D01*
X125225677Y-155703028D01*
X125252773Y-155682932D01*
X125281707Y-155665590D01*
X125312203Y-155651166D01*
X125343965Y-155639802D01*
X125376688Y-155631605D01*
X125410057Y-155626655D01*
X125443750Y-155625000D01*
X126556250Y-155625000D01*
X126589943Y-155626655D01*
X126589943Y-155626655D01*
G37*
D12*
X126000000Y-156312500D03*
D11*
G36*
X126589943Y-157501655D02*
X126623312Y-157506605D01*
X126656035Y-157514802D01*
X126687797Y-157526166D01*
X126718293Y-157540590D01*
X126747227Y-157557932D01*
X126774323Y-157578028D01*
X126799318Y-157600682D01*
X126821972Y-157625677D01*
X126842068Y-157652773D01*
X126859410Y-157681707D01*
X126873834Y-157712203D01*
X126885198Y-157743965D01*
X126893395Y-157776688D01*
X126898345Y-157810057D01*
X126900000Y-157843750D01*
X126900000Y-158531250D01*
X126898345Y-158564943D01*
X126893395Y-158598312D01*
X126885198Y-158631035D01*
X126873834Y-158662797D01*
X126859410Y-158693293D01*
X126842068Y-158722227D01*
X126821972Y-158749323D01*
X126799318Y-158774318D01*
X126774323Y-158796972D01*
X126747227Y-158817068D01*
X126718293Y-158834410D01*
X126687797Y-158848834D01*
X126656035Y-158860198D01*
X126623312Y-158868395D01*
X126589943Y-158873345D01*
X126556250Y-158875000D01*
X125443750Y-158875000D01*
X125410057Y-158873345D01*
X125376688Y-158868395D01*
X125343965Y-158860198D01*
X125312203Y-158848834D01*
X125281707Y-158834410D01*
X125252773Y-158817068D01*
X125225677Y-158796972D01*
X125200682Y-158774318D01*
X125178028Y-158749323D01*
X125157932Y-158722227D01*
X125140590Y-158693293D01*
X125126166Y-158662797D01*
X125114802Y-158631035D01*
X125106605Y-158598312D01*
X125101655Y-158564943D01*
X125100000Y-158531250D01*
X125100000Y-157843750D01*
X125101655Y-157810057D01*
X125106605Y-157776688D01*
X125114802Y-157743965D01*
X125126166Y-157712203D01*
X125140590Y-157681707D01*
X125157932Y-157652773D01*
X125178028Y-157625677D01*
X125200682Y-157600682D01*
X125225677Y-157578028D01*
X125252773Y-157557932D01*
X125281707Y-157540590D01*
X125312203Y-157526166D01*
X125343965Y-157514802D01*
X125376688Y-157506605D01*
X125410057Y-157501655D01*
X125443750Y-157500000D01*
X126556250Y-157500000D01*
X126589943Y-157501655D01*
X126589943Y-157501655D01*
G37*
D12*
X126000000Y-158187500D03*
G04 #@! TD*
D14*
G04 #@! TO.C,RV8*
X124250000Y-157330000D03*
X124250000Y-154790000D03*
X124250000Y-152250000D03*
G04 #@! TD*
D10*
G04 #@! TO.C,JP11*
X124525000Y-149250000D03*
D11*
G36*
X125064018Y-148303843D02*
X125101537Y-148315224D01*
X125136114Y-148333706D01*
X125166421Y-148358579D01*
X125191410Y-148389060D01*
X125691410Y-149139060D01*
X125709856Y-149173657D01*
X125721198Y-149211187D01*
X125725000Y-149250209D01*
X125721116Y-149289223D01*
X125709696Y-149326730D01*
X125691410Y-149360940D01*
X125191410Y-150110940D01*
X125166569Y-150141273D01*
X125136288Y-150166178D01*
X125101730Y-150184696D01*
X125064223Y-150196116D01*
X125025000Y-150200000D01*
X124025000Y-150200000D01*
X123985982Y-150196157D01*
X123948463Y-150184776D01*
X123913886Y-150166294D01*
X123883579Y-150141421D01*
X123858706Y-150111114D01*
X123840224Y-150076537D01*
X123828843Y-150039018D01*
X123825000Y-150000000D01*
X123825000Y-148500000D01*
X123828843Y-148460982D01*
X123840224Y-148423463D01*
X123858706Y-148388886D01*
X123883579Y-148358579D01*
X123913886Y-148333706D01*
X123948463Y-148315224D01*
X123985982Y-148303843D01*
X124025000Y-148300000D01*
X125025000Y-148300000D01*
X125064018Y-148303843D01*
X125064018Y-148303843D01*
G37*
D10*
X125975000Y-149250000D03*
D11*
G36*
X126514018Y-148303843D02*
X126551537Y-148315224D01*
X126586114Y-148333706D01*
X126616421Y-148358579D01*
X126641294Y-148388886D01*
X126659776Y-148423463D01*
X126671157Y-148460982D01*
X126675000Y-148500000D01*
X126675000Y-150000000D01*
X126671157Y-150039018D01*
X126659776Y-150076537D01*
X126641294Y-150111114D01*
X126616421Y-150141421D01*
X126586114Y-150166294D01*
X126551537Y-150184776D01*
X126514018Y-150196157D01*
X126475000Y-150200000D01*
X125325000Y-150200000D01*
X125285982Y-150196157D01*
X125248463Y-150184776D01*
X125213886Y-150166294D01*
X125183579Y-150141421D01*
X125158706Y-150111114D01*
X125140224Y-150076537D01*
X125128843Y-150039018D01*
X125125000Y-150000000D01*
X125128843Y-149960982D01*
X125140224Y-149923463D01*
X125158590Y-149889060D01*
X125584630Y-149250000D01*
X125158590Y-148610940D01*
X125140144Y-148576343D01*
X125128802Y-148538813D01*
X125125000Y-148499791D01*
X125128884Y-148460777D01*
X125140304Y-148423270D01*
X125158822Y-148388712D01*
X125183727Y-148358431D01*
X125214060Y-148333590D01*
X125248657Y-148315144D01*
X125286187Y-148303802D01*
X125325000Y-148300000D01*
X126475000Y-148300000D01*
X126514018Y-148303843D01*
X126514018Y-148303843D01*
G37*
G04 #@! TD*
D14*
G04 #@! TO.C,RV12*
X101750000Y-152250000D03*
X101750000Y-154790000D03*
X101750000Y-157330000D03*
G04 #@! TD*
D11*
G04 #@! TO.C,C1*
G36*
X124689943Y-67351655D02*
X124723312Y-67356605D01*
X124756035Y-67364802D01*
X124787797Y-67376166D01*
X124818293Y-67390590D01*
X124847227Y-67407932D01*
X124874323Y-67428028D01*
X124899318Y-67450682D01*
X124921972Y-67475677D01*
X124942068Y-67502773D01*
X124959410Y-67531707D01*
X124973834Y-67562203D01*
X124985198Y-67593965D01*
X124993395Y-67626688D01*
X124998345Y-67660057D01*
X125000000Y-67693750D01*
X125000000Y-68806250D01*
X124998345Y-68839943D01*
X124993395Y-68873312D01*
X124985198Y-68906035D01*
X124973834Y-68937797D01*
X124959410Y-68968293D01*
X124942068Y-68997227D01*
X124921972Y-69024323D01*
X124899318Y-69049318D01*
X124874323Y-69071972D01*
X124847227Y-69092068D01*
X124818293Y-69109410D01*
X124787797Y-69123834D01*
X124756035Y-69135198D01*
X124723312Y-69143395D01*
X124689943Y-69148345D01*
X124656250Y-69150000D01*
X123968750Y-69150000D01*
X123935057Y-69148345D01*
X123901688Y-69143395D01*
X123868965Y-69135198D01*
X123837203Y-69123834D01*
X123806707Y-69109410D01*
X123777773Y-69092068D01*
X123750677Y-69071972D01*
X123725682Y-69049318D01*
X123703028Y-69024323D01*
X123682932Y-68997227D01*
X123665590Y-68968293D01*
X123651166Y-68937797D01*
X123639802Y-68906035D01*
X123631605Y-68873312D01*
X123626655Y-68839943D01*
X123625000Y-68806250D01*
X123625000Y-67693750D01*
X123626655Y-67660057D01*
X123631605Y-67626688D01*
X123639802Y-67593965D01*
X123651166Y-67562203D01*
X123665590Y-67531707D01*
X123682932Y-67502773D01*
X123703028Y-67475677D01*
X123725682Y-67450682D01*
X123750677Y-67428028D01*
X123777773Y-67407932D01*
X123806707Y-67390590D01*
X123837203Y-67376166D01*
X123868965Y-67364802D01*
X123901688Y-67356605D01*
X123935057Y-67351655D01*
X123968750Y-67350000D01*
X124656250Y-67350000D01*
X124689943Y-67351655D01*
X124689943Y-67351655D01*
G37*
D12*
X124312500Y-68250000D03*
D11*
G36*
X126564943Y-67351655D02*
X126598312Y-67356605D01*
X126631035Y-67364802D01*
X126662797Y-67376166D01*
X126693293Y-67390590D01*
X126722227Y-67407932D01*
X126749323Y-67428028D01*
X126774318Y-67450682D01*
X126796972Y-67475677D01*
X126817068Y-67502773D01*
X126834410Y-67531707D01*
X126848834Y-67562203D01*
X126860198Y-67593965D01*
X126868395Y-67626688D01*
X126873345Y-67660057D01*
X126875000Y-67693750D01*
X126875000Y-68806250D01*
X126873345Y-68839943D01*
X126868395Y-68873312D01*
X126860198Y-68906035D01*
X126848834Y-68937797D01*
X126834410Y-68968293D01*
X126817068Y-68997227D01*
X126796972Y-69024323D01*
X126774318Y-69049318D01*
X126749323Y-69071972D01*
X126722227Y-69092068D01*
X126693293Y-69109410D01*
X126662797Y-69123834D01*
X126631035Y-69135198D01*
X126598312Y-69143395D01*
X126564943Y-69148345D01*
X126531250Y-69150000D01*
X125843750Y-69150000D01*
X125810057Y-69148345D01*
X125776688Y-69143395D01*
X125743965Y-69135198D01*
X125712203Y-69123834D01*
X125681707Y-69109410D01*
X125652773Y-69092068D01*
X125625677Y-69071972D01*
X125600682Y-69049318D01*
X125578028Y-69024323D01*
X125557932Y-68997227D01*
X125540590Y-68968293D01*
X125526166Y-68937797D01*
X125514802Y-68906035D01*
X125506605Y-68873312D01*
X125501655Y-68839943D01*
X125500000Y-68806250D01*
X125500000Y-67693750D01*
X125501655Y-67660057D01*
X125506605Y-67626688D01*
X125514802Y-67593965D01*
X125526166Y-67562203D01*
X125540590Y-67531707D01*
X125557932Y-67502773D01*
X125578028Y-67475677D01*
X125600682Y-67450682D01*
X125625677Y-67428028D01*
X125652773Y-67407932D01*
X125681707Y-67390590D01*
X125712203Y-67376166D01*
X125743965Y-67364802D01*
X125776688Y-67356605D01*
X125810057Y-67351655D01*
X125843750Y-67350000D01*
X126531250Y-67350000D01*
X126564943Y-67351655D01*
X126564943Y-67351655D01*
G37*
D12*
X126187500Y-68250000D03*
G04 #@! TD*
D11*
G04 #@! TO.C,C2*
G36*
X126564943Y-93351655D02*
X126598312Y-93356605D01*
X126631035Y-93364802D01*
X126662797Y-93376166D01*
X126693293Y-93390590D01*
X126722227Y-93407932D01*
X126749323Y-93428028D01*
X126774318Y-93450682D01*
X126796972Y-93475677D01*
X126817068Y-93502773D01*
X126834410Y-93531707D01*
X126848834Y-93562203D01*
X126860198Y-93593965D01*
X126868395Y-93626688D01*
X126873345Y-93660057D01*
X126875000Y-93693750D01*
X126875000Y-94806250D01*
X126873345Y-94839943D01*
X126868395Y-94873312D01*
X126860198Y-94906035D01*
X126848834Y-94937797D01*
X126834410Y-94968293D01*
X126817068Y-94997227D01*
X126796972Y-95024323D01*
X126774318Y-95049318D01*
X126749323Y-95071972D01*
X126722227Y-95092068D01*
X126693293Y-95109410D01*
X126662797Y-95123834D01*
X126631035Y-95135198D01*
X126598312Y-95143395D01*
X126564943Y-95148345D01*
X126531250Y-95150000D01*
X125843750Y-95150000D01*
X125810057Y-95148345D01*
X125776688Y-95143395D01*
X125743965Y-95135198D01*
X125712203Y-95123834D01*
X125681707Y-95109410D01*
X125652773Y-95092068D01*
X125625677Y-95071972D01*
X125600682Y-95049318D01*
X125578028Y-95024323D01*
X125557932Y-94997227D01*
X125540590Y-94968293D01*
X125526166Y-94937797D01*
X125514802Y-94906035D01*
X125506605Y-94873312D01*
X125501655Y-94839943D01*
X125500000Y-94806250D01*
X125500000Y-93693750D01*
X125501655Y-93660057D01*
X125506605Y-93626688D01*
X125514802Y-93593965D01*
X125526166Y-93562203D01*
X125540590Y-93531707D01*
X125557932Y-93502773D01*
X125578028Y-93475677D01*
X125600682Y-93450682D01*
X125625677Y-93428028D01*
X125652773Y-93407932D01*
X125681707Y-93390590D01*
X125712203Y-93376166D01*
X125743965Y-93364802D01*
X125776688Y-93356605D01*
X125810057Y-93351655D01*
X125843750Y-93350000D01*
X126531250Y-93350000D01*
X126564943Y-93351655D01*
X126564943Y-93351655D01*
G37*
D12*
X126187500Y-94250000D03*
D11*
G36*
X124689943Y-93351655D02*
X124723312Y-93356605D01*
X124756035Y-93364802D01*
X124787797Y-93376166D01*
X124818293Y-93390590D01*
X124847227Y-93407932D01*
X124874323Y-93428028D01*
X124899318Y-93450682D01*
X124921972Y-93475677D01*
X124942068Y-93502773D01*
X124959410Y-93531707D01*
X124973834Y-93562203D01*
X124985198Y-93593965D01*
X124993395Y-93626688D01*
X124998345Y-93660057D01*
X125000000Y-93693750D01*
X125000000Y-94806250D01*
X124998345Y-94839943D01*
X124993395Y-94873312D01*
X124985198Y-94906035D01*
X124973834Y-94937797D01*
X124959410Y-94968293D01*
X124942068Y-94997227D01*
X124921972Y-95024323D01*
X124899318Y-95049318D01*
X124874323Y-95071972D01*
X124847227Y-95092068D01*
X124818293Y-95109410D01*
X124787797Y-95123834D01*
X124756035Y-95135198D01*
X124723312Y-95143395D01*
X124689943Y-95148345D01*
X124656250Y-95150000D01*
X123968750Y-95150000D01*
X123935057Y-95148345D01*
X123901688Y-95143395D01*
X123868965Y-95135198D01*
X123837203Y-95123834D01*
X123806707Y-95109410D01*
X123777773Y-95092068D01*
X123750677Y-95071972D01*
X123725682Y-95049318D01*
X123703028Y-95024323D01*
X123682932Y-94997227D01*
X123665590Y-94968293D01*
X123651166Y-94937797D01*
X123639802Y-94906035D01*
X123631605Y-94873312D01*
X123626655Y-94839943D01*
X123625000Y-94806250D01*
X123625000Y-93693750D01*
X123626655Y-93660057D01*
X123631605Y-93626688D01*
X123639802Y-93593965D01*
X123651166Y-93562203D01*
X123665590Y-93531707D01*
X123682932Y-93502773D01*
X123703028Y-93475677D01*
X123725682Y-93450682D01*
X123750677Y-93428028D01*
X123777773Y-93407932D01*
X123806707Y-93390590D01*
X123837203Y-93376166D01*
X123868965Y-93364802D01*
X123901688Y-93356605D01*
X123935057Y-93351655D01*
X123968750Y-93350000D01*
X124656250Y-93350000D01*
X124689943Y-93351655D01*
X124689943Y-93351655D01*
G37*
D12*
X124312500Y-94250000D03*
G04 #@! TD*
D11*
G04 #@! TO.C,C3*
G36*
X126564943Y-119351655D02*
X126598312Y-119356605D01*
X126631035Y-119364802D01*
X126662797Y-119376166D01*
X126693293Y-119390590D01*
X126722227Y-119407932D01*
X126749323Y-119428028D01*
X126774318Y-119450682D01*
X126796972Y-119475677D01*
X126817068Y-119502773D01*
X126834410Y-119531707D01*
X126848834Y-119562203D01*
X126860198Y-119593965D01*
X126868395Y-119626688D01*
X126873345Y-119660057D01*
X126875000Y-119693750D01*
X126875000Y-120806250D01*
X126873345Y-120839943D01*
X126868395Y-120873312D01*
X126860198Y-120906035D01*
X126848834Y-120937797D01*
X126834410Y-120968293D01*
X126817068Y-120997227D01*
X126796972Y-121024323D01*
X126774318Y-121049318D01*
X126749323Y-121071972D01*
X126722227Y-121092068D01*
X126693293Y-121109410D01*
X126662797Y-121123834D01*
X126631035Y-121135198D01*
X126598312Y-121143395D01*
X126564943Y-121148345D01*
X126531250Y-121150000D01*
X125843750Y-121150000D01*
X125810057Y-121148345D01*
X125776688Y-121143395D01*
X125743965Y-121135198D01*
X125712203Y-121123834D01*
X125681707Y-121109410D01*
X125652773Y-121092068D01*
X125625677Y-121071972D01*
X125600682Y-121049318D01*
X125578028Y-121024323D01*
X125557932Y-120997227D01*
X125540590Y-120968293D01*
X125526166Y-120937797D01*
X125514802Y-120906035D01*
X125506605Y-120873312D01*
X125501655Y-120839943D01*
X125500000Y-120806250D01*
X125500000Y-119693750D01*
X125501655Y-119660057D01*
X125506605Y-119626688D01*
X125514802Y-119593965D01*
X125526166Y-119562203D01*
X125540590Y-119531707D01*
X125557932Y-119502773D01*
X125578028Y-119475677D01*
X125600682Y-119450682D01*
X125625677Y-119428028D01*
X125652773Y-119407932D01*
X125681707Y-119390590D01*
X125712203Y-119376166D01*
X125743965Y-119364802D01*
X125776688Y-119356605D01*
X125810057Y-119351655D01*
X125843750Y-119350000D01*
X126531250Y-119350000D01*
X126564943Y-119351655D01*
X126564943Y-119351655D01*
G37*
D12*
X126187500Y-120250000D03*
D11*
G36*
X124689943Y-119351655D02*
X124723312Y-119356605D01*
X124756035Y-119364802D01*
X124787797Y-119376166D01*
X124818293Y-119390590D01*
X124847227Y-119407932D01*
X124874323Y-119428028D01*
X124899318Y-119450682D01*
X124921972Y-119475677D01*
X124942068Y-119502773D01*
X124959410Y-119531707D01*
X124973834Y-119562203D01*
X124985198Y-119593965D01*
X124993395Y-119626688D01*
X124998345Y-119660057D01*
X125000000Y-119693750D01*
X125000000Y-120806250D01*
X124998345Y-120839943D01*
X124993395Y-120873312D01*
X124985198Y-120906035D01*
X124973834Y-120937797D01*
X124959410Y-120968293D01*
X124942068Y-120997227D01*
X124921972Y-121024323D01*
X124899318Y-121049318D01*
X124874323Y-121071972D01*
X124847227Y-121092068D01*
X124818293Y-121109410D01*
X124787797Y-121123834D01*
X124756035Y-121135198D01*
X124723312Y-121143395D01*
X124689943Y-121148345D01*
X124656250Y-121150000D01*
X123968750Y-121150000D01*
X123935057Y-121148345D01*
X123901688Y-121143395D01*
X123868965Y-121135198D01*
X123837203Y-121123834D01*
X123806707Y-121109410D01*
X123777773Y-121092068D01*
X123750677Y-121071972D01*
X123725682Y-121049318D01*
X123703028Y-121024323D01*
X123682932Y-120997227D01*
X123665590Y-120968293D01*
X123651166Y-120937797D01*
X123639802Y-120906035D01*
X123631605Y-120873312D01*
X123626655Y-120839943D01*
X123625000Y-120806250D01*
X123625000Y-119693750D01*
X123626655Y-119660057D01*
X123631605Y-119626688D01*
X123639802Y-119593965D01*
X123651166Y-119562203D01*
X123665590Y-119531707D01*
X123682932Y-119502773D01*
X123703028Y-119475677D01*
X123725682Y-119450682D01*
X123750677Y-119428028D01*
X123777773Y-119407932D01*
X123806707Y-119390590D01*
X123837203Y-119376166D01*
X123868965Y-119364802D01*
X123901688Y-119356605D01*
X123935057Y-119351655D01*
X123968750Y-119350000D01*
X124656250Y-119350000D01*
X124689943Y-119351655D01*
X124689943Y-119351655D01*
G37*
D12*
X124312500Y-120250000D03*
G04 #@! TD*
D13*
G04 #@! TO.C,D2*
X113000000Y-139100000D03*
X113000000Y-142400000D03*
G04 #@! TD*
D11*
G04 #@! TO.C,R1*
G36*
X126564943Y-64601655D02*
X126598312Y-64606605D01*
X126631035Y-64614802D01*
X126662797Y-64626166D01*
X126693293Y-64640590D01*
X126722227Y-64657932D01*
X126749323Y-64678028D01*
X126774318Y-64700682D01*
X126796972Y-64725677D01*
X126817068Y-64752773D01*
X126834410Y-64781707D01*
X126848834Y-64812203D01*
X126860198Y-64843965D01*
X126868395Y-64876688D01*
X126873345Y-64910057D01*
X126875000Y-64943750D01*
X126875000Y-66056250D01*
X126873345Y-66089943D01*
X126868395Y-66123312D01*
X126860198Y-66156035D01*
X126848834Y-66187797D01*
X126834410Y-66218293D01*
X126817068Y-66247227D01*
X126796972Y-66274323D01*
X126774318Y-66299318D01*
X126749323Y-66321972D01*
X126722227Y-66342068D01*
X126693293Y-66359410D01*
X126662797Y-66373834D01*
X126631035Y-66385198D01*
X126598312Y-66393395D01*
X126564943Y-66398345D01*
X126531250Y-66400000D01*
X125843750Y-66400000D01*
X125810057Y-66398345D01*
X125776688Y-66393395D01*
X125743965Y-66385198D01*
X125712203Y-66373834D01*
X125681707Y-66359410D01*
X125652773Y-66342068D01*
X125625677Y-66321972D01*
X125600682Y-66299318D01*
X125578028Y-66274323D01*
X125557932Y-66247227D01*
X125540590Y-66218293D01*
X125526166Y-66187797D01*
X125514802Y-66156035D01*
X125506605Y-66123312D01*
X125501655Y-66089943D01*
X125500000Y-66056250D01*
X125500000Y-64943750D01*
X125501655Y-64910057D01*
X125506605Y-64876688D01*
X125514802Y-64843965D01*
X125526166Y-64812203D01*
X125540590Y-64781707D01*
X125557932Y-64752773D01*
X125578028Y-64725677D01*
X125600682Y-64700682D01*
X125625677Y-64678028D01*
X125652773Y-64657932D01*
X125681707Y-64640590D01*
X125712203Y-64626166D01*
X125743965Y-64614802D01*
X125776688Y-64606605D01*
X125810057Y-64601655D01*
X125843750Y-64600000D01*
X126531250Y-64600000D01*
X126564943Y-64601655D01*
X126564943Y-64601655D01*
G37*
D12*
X126187500Y-65500000D03*
D11*
G36*
X124689943Y-64601655D02*
X124723312Y-64606605D01*
X124756035Y-64614802D01*
X124787797Y-64626166D01*
X124818293Y-64640590D01*
X124847227Y-64657932D01*
X124874323Y-64678028D01*
X124899318Y-64700682D01*
X124921972Y-64725677D01*
X124942068Y-64752773D01*
X124959410Y-64781707D01*
X124973834Y-64812203D01*
X124985198Y-64843965D01*
X124993395Y-64876688D01*
X124998345Y-64910057D01*
X125000000Y-64943750D01*
X125000000Y-66056250D01*
X124998345Y-66089943D01*
X124993395Y-66123312D01*
X124985198Y-66156035D01*
X124973834Y-66187797D01*
X124959410Y-66218293D01*
X124942068Y-66247227D01*
X124921972Y-66274323D01*
X124899318Y-66299318D01*
X124874323Y-66321972D01*
X124847227Y-66342068D01*
X124818293Y-66359410D01*
X124787797Y-66373834D01*
X124756035Y-66385198D01*
X124723312Y-66393395D01*
X124689943Y-66398345D01*
X124656250Y-66400000D01*
X123968750Y-66400000D01*
X123935057Y-66398345D01*
X123901688Y-66393395D01*
X123868965Y-66385198D01*
X123837203Y-66373834D01*
X123806707Y-66359410D01*
X123777773Y-66342068D01*
X123750677Y-66321972D01*
X123725682Y-66299318D01*
X123703028Y-66274323D01*
X123682932Y-66247227D01*
X123665590Y-66218293D01*
X123651166Y-66187797D01*
X123639802Y-66156035D01*
X123631605Y-66123312D01*
X123626655Y-66089943D01*
X123625000Y-66056250D01*
X123625000Y-64943750D01*
X123626655Y-64910057D01*
X123631605Y-64876688D01*
X123639802Y-64843965D01*
X123651166Y-64812203D01*
X123665590Y-64781707D01*
X123682932Y-64752773D01*
X123703028Y-64725677D01*
X123725682Y-64700682D01*
X123750677Y-64678028D01*
X123777773Y-64657932D01*
X123806707Y-64640590D01*
X123837203Y-64626166D01*
X123868965Y-64614802D01*
X123901688Y-64606605D01*
X123935057Y-64601655D01*
X123968750Y-64600000D01*
X124656250Y-64600000D01*
X124689943Y-64601655D01*
X124689943Y-64601655D01*
G37*
D12*
X124312500Y-65500000D03*
G04 #@! TD*
D11*
G04 #@! TO.C,R2*
G36*
X126564943Y-90601655D02*
X126598312Y-90606605D01*
X126631035Y-90614802D01*
X126662797Y-90626166D01*
X126693293Y-90640590D01*
X126722227Y-90657932D01*
X126749323Y-90678028D01*
X126774318Y-90700682D01*
X126796972Y-90725677D01*
X126817068Y-90752773D01*
X126834410Y-90781707D01*
X126848834Y-90812203D01*
X126860198Y-90843965D01*
X126868395Y-90876688D01*
X126873345Y-90910057D01*
X126875000Y-90943750D01*
X126875000Y-92056250D01*
X126873345Y-92089943D01*
X126868395Y-92123312D01*
X126860198Y-92156035D01*
X126848834Y-92187797D01*
X126834410Y-92218293D01*
X126817068Y-92247227D01*
X126796972Y-92274323D01*
X126774318Y-92299318D01*
X126749323Y-92321972D01*
X126722227Y-92342068D01*
X126693293Y-92359410D01*
X126662797Y-92373834D01*
X126631035Y-92385198D01*
X126598312Y-92393395D01*
X126564943Y-92398345D01*
X126531250Y-92400000D01*
X125843750Y-92400000D01*
X125810057Y-92398345D01*
X125776688Y-92393395D01*
X125743965Y-92385198D01*
X125712203Y-92373834D01*
X125681707Y-92359410D01*
X125652773Y-92342068D01*
X125625677Y-92321972D01*
X125600682Y-92299318D01*
X125578028Y-92274323D01*
X125557932Y-92247227D01*
X125540590Y-92218293D01*
X125526166Y-92187797D01*
X125514802Y-92156035D01*
X125506605Y-92123312D01*
X125501655Y-92089943D01*
X125500000Y-92056250D01*
X125500000Y-90943750D01*
X125501655Y-90910057D01*
X125506605Y-90876688D01*
X125514802Y-90843965D01*
X125526166Y-90812203D01*
X125540590Y-90781707D01*
X125557932Y-90752773D01*
X125578028Y-90725677D01*
X125600682Y-90700682D01*
X125625677Y-90678028D01*
X125652773Y-90657932D01*
X125681707Y-90640590D01*
X125712203Y-90626166D01*
X125743965Y-90614802D01*
X125776688Y-90606605D01*
X125810057Y-90601655D01*
X125843750Y-90600000D01*
X126531250Y-90600000D01*
X126564943Y-90601655D01*
X126564943Y-90601655D01*
G37*
D12*
X126187500Y-91500000D03*
D11*
G36*
X124689943Y-90601655D02*
X124723312Y-90606605D01*
X124756035Y-90614802D01*
X124787797Y-90626166D01*
X124818293Y-90640590D01*
X124847227Y-90657932D01*
X124874323Y-90678028D01*
X124899318Y-90700682D01*
X124921972Y-90725677D01*
X124942068Y-90752773D01*
X124959410Y-90781707D01*
X124973834Y-90812203D01*
X124985198Y-90843965D01*
X124993395Y-90876688D01*
X124998345Y-90910057D01*
X125000000Y-90943750D01*
X125000000Y-92056250D01*
X124998345Y-92089943D01*
X124993395Y-92123312D01*
X124985198Y-92156035D01*
X124973834Y-92187797D01*
X124959410Y-92218293D01*
X124942068Y-92247227D01*
X124921972Y-92274323D01*
X124899318Y-92299318D01*
X124874323Y-92321972D01*
X124847227Y-92342068D01*
X124818293Y-92359410D01*
X124787797Y-92373834D01*
X124756035Y-92385198D01*
X124723312Y-92393395D01*
X124689943Y-92398345D01*
X124656250Y-92400000D01*
X123968750Y-92400000D01*
X123935057Y-92398345D01*
X123901688Y-92393395D01*
X123868965Y-92385198D01*
X123837203Y-92373834D01*
X123806707Y-92359410D01*
X123777773Y-92342068D01*
X123750677Y-92321972D01*
X123725682Y-92299318D01*
X123703028Y-92274323D01*
X123682932Y-92247227D01*
X123665590Y-92218293D01*
X123651166Y-92187797D01*
X123639802Y-92156035D01*
X123631605Y-92123312D01*
X123626655Y-92089943D01*
X123625000Y-92056250D01*
X123625000Y-90943750D01*
X123626655Y-90910057D01*
X123631605Y-90876688D01*
X123639802Y-90843965D01*
X123651166Y-90812203D01*
X123665590Y-90781707D01*
X123682932Y-90752773D01*
X123703028Y-90725677D01*
X123725682Y-90700682D01*
X123750677Y-90678028D01*
X123777773Y-90657932D01*
X123806707Y-90640590D01*
X123837203Y-90626166D01*
X123868965Y-90614802D01*
X123901688Y-90606605D01*
X123935057Y-90601655D01*
X123968750Y-90600000D01*
X124656250Y-90600000D01*
X124689943Y-90601655D01*
X124689943Y-90601655D01*
G37*
D12*
X124312500Y-91500000D03*
G04 #@! TD*
D11*
G04 #@! TO.C,R3*
G36*
X126564943Y-116601655D02*
X126598312Y-116606605D01*
X126631035Y-116614802D01*
X126662797Y-116626166D01*
X126693293Y-116640590D01*
X126722227Y-116657932D01*
X126749323Y-116678028D01*
X126774318Y-116700682D01*
X126796972Y-116725677D01*
X126817068Y-116752773D01*
X126834410Y-116781707D01*
X126848834Y-116812203D01*
X126860198Y-116843965D01*
X126868395Y-116876688D01*
X126873345Y-116910057D01*
X126875000Y-116943750D01*
X126875000Y-118056250D01*
X126873345Y-118089943D01*
X126868395Y-118123312D01*
X126860198Y-118156035D01*
X126848834Y-118187797D01*
X126834410Y-118218293D01*
X126817068Y-118247227D01*
X126796972Y-118274323D01*
X126774318Y-118299318D01*
X126749323Y-118321972D01*
X126722227Y-118342068D01*
X126693293Y-118359410D01*
X126662797Y-118373834D01*
X126631035Y-118385198D01*
X126598312Y-118393395D01*
X126564943Y-118398345D01*
X126531250Y-118400000D01*
X125843750Y-118400000D01*
X125810057Y-118398345D01*
X125776688Y-118393395D01*
X125743965Y-118385198D01*
X125712203Y-118373834D01*
X125681707Y-118359410D01*
X125652773Y-118342068D01*
X125625677Y-118321972D01*
X125600682Y-118299318D01*
X125578028Y-118274323D01*
X125557932Y-118247227D01*
X125540590Y-118218293D01*
X125526166Y-118187797D01*
X125514802Y-118156035D01*
X125506605Y-118123312D01*
X125501655Y-118089943D01*
X125500000Y-118056250D01*
X125500000Y-116943750D01*
X125501655Y-116910057D01*
X125506605Y-116876688D01*
X125514802Y-116843965D01*
X125526166Y-116812203D01*
X125540590Y-116781707D01*
X125557932Y-116752773D01*
X125578028Y-116725677D01*
X125600682Y-116700682D01*
X125625677Y-116678028D01*
X125652773Y-116657932D01*
X125681707Y-116640590D01*
X125712203Y-116626166D01*
X125743965Y-116614802D01*
X125776688Y-116606605D01*
X125810057Y-116601655D01*
X125843750Y-116600000D01*
X126531250Y-116600000D01*
X126564943Y-116601655D01*
X126564943Y-116601655D01*
G37*
D12*
X126187500Y-117500000D03*
D11*
G36*
X124689943Y-116601655D02*
X124723312Y-116606605D01*
X124756035Y-116614802D01*
X124787797Y-116626166D01*
X124818293Y-116640590D01*
X124847227Y-116657932D01*
X124874323Y-116678028D01*
X124899318Y-116700682D01*
X124921972Y-116725677D01*
X124942068Y-116752773D01*
X124959410Y-116781707D01*
X124973834Y-116812203D01*
X124985198Y-116843965D01*
X124993395Y-116876688D01*
X124998345Y-116910057D01*
X125000000Y-116943750D01*
X125000000Y-118056250D01*
X124998345Y-118089943D01*
X124993395Y-118123312D01*
X124985198Y-118156035D01*
X124973834Y-118187797D01*
X124959410Y-118218293D01*
X124942068Y-118247227D01*
X124921972Y-118274323D01*
X124899318Y-118299318D01*
X124874323Y-118321972D01*
X124847227Y-118342068D01*
X124818293Y-118359410D01*
X124787797Y-118373834D01*
X124756035Y-118385198D01*
X124723312Y-118393395D01*
X124689943Y-118398345D01*
X124656250Y-118400000D01*
X123968750Y-118400000D01*
X123935057Y-118398345D01*
X123901688Y-118393395D01*
X123868965Y-118385198D01*
X123837203Y-118373834D01*
X123806707Y-118359410D01*
X123777773Y-118342068D01*
X123750677Y-118321972D01*
X123725682Y-118299318D01*
X123703028Y-118274323D01*
X123682932Y-118247227D01*
X123665590Y-118218293D01*
X123651166Y-118187797D01*
X123639802Y-118156035D01*
X123631605Y-118123312D01*
X123626655Y-118089943D01*
X123625000Y-118056250D01*
X123625000Y-116943750D01*
X123626655Y-116910057D01*
X123631605Y-116876688D01*
X123639802Y-116843965D01*
X123651166Y-116812203D01*
X123665590Y-116781707D01*
X123682932Y-116752773D01*
X123703028Y-116725677D01*
X123725682Y-116700682D01*
X123750677Y-116678028D01*
X123777773Y-116657932D01*
X123806707Y-116640590D01*
X123837203Y-116626166D01*
X123868965Y-116614802D01*
X123901688Y-116606605D01*
X123935057Y-116601655D01*
X123968750Y-116600000D01*
X124656250Y-116600000D01*
X124689943Y-116601655D01*
X124689943Y-116601655D01*
G37*
D12*
X124312500Y-117500000D03*
G04 #@! TD*
D11*
G04 #@! TO.C,R5*
G36*
X113589943Y-61876655D02*
X113623312Y-61881605D01*
X113656035Y-61889802D01*
X113687797Y-61901166D01*
X113718293Y-61915590D01*
X113747227Y-61932932D01*
X113774323Y-61953028D01*
X113799318Y-61975682D01*
X113821972Y-62000677D01*
X113842068Y-62027773D01*
X113859410Y-62056707D01*
X113873834Y-62087203D01*
X113885198Y-62118965D01*
X113893395Y-62151688D01*
X113898345Y-62185057D01*
X113900000Y-62218750D01*
X113900000Y-62906250D01*
X113898345Y-62939943D01*
X113893395Y-62973312D01*
X113885198Y-63006035D01*
X113873834Y-63037797D01*
X113859410Y-63068293D01*
X113842068Y-63097227D01*
X113821972Y-63124323D01*
X113799318Y-63149318D01*
X113774323Y-63171972D01*
X113747227Y-63192068D01*
X113718293Y-63209410D01*
X113687797Y-63223834D01*
X113656035Y-63235198D01*
X113623312Y-63243395D01*
X113589943Y-63248345D01*
X113556250Y-63250000D01*
X112443750Y-63250000D01*
X112410057Y-63248345D01*
X112376688Y-63243395D01*
X112343965Y-63235198D01*
X112312203Y-63223834D01*
X112281707Y-63209410D01*
X112252773Y-63192068D01*
X112225677Y-63171972D01*
X112200682Y-63149318D01*
X112178028Y-63124323D01*
X112157932Y-63097227D01*
X112140590Y-63068293D01*
X112126166Y-63037797D01*
X112114802Y-63006035D01*
X112106605Y-62973312D01*
X112101655Y-62939943D01*
X112100000Y-62906250D01*
X112100000Y-62218750D01*
X112101655Y-62185057D01*
X112106605Y-62151688D01*
X112114802Y-62118965D01*
X112126166Y-62087203D01*
X112140590Y-62056707D01*
X112157932Y-62027773D01*
X112178028Y-62000677D01*
X112200682Y-61975682D01*
X112225677Y-61953028D01*
X112252773Y-61932932D01*
X112281707Y-61915590D01*
X112312203Y-61901166D01*
X112343965Y-61889802D01*
X112376688Y-61881605D01*
X112410057Y-61876655D01*
X112443750Y-61875000D01*
X113556250Y-61875000D01*
X113589943Y-61876655D01*
X113589943Y-61876655D01*
G37*
D12*
X113000000Y-62562500D03*
D11*
G36*
X113589943Y-63751655D02*
X113623312Y-63756605D01*
X113656035Y-63764802D01*
X113687797Y-63776166D01*
X113718293Y-63790590D01*
X113747227Y-63807932D01*
X113774323Y-63828028D01*
X113799318Y-63850682D01*
X113821972Y-63875677D01*
X113842068Y-63902773D01*
X113859410Y-63931707D01*
X113873834Y-63962203D01*
X113885198Y-63993965D01*
X113893395Y-64026688D01*
X113898345Y-64060057D01*
X113900000Y-64093750D01*
X113900000Y-64781250D01*
X113898345Y-64814943D01*
X113893395Y-64848312D01*
X113885198Y-64881035D01*
X113873834Y-64912797D01*
X113859410Y-64943293D01*
X113842068Y-64972227D01*
X113821972Y-64999323D01*
X113799318Y-65024318D01*
X113774323Y-65046972D01*
X113747227Y-65067068D01*
X113718293Y-65084410D01*
X113687797Y-65098834D01*
X113656035Y-65110198D01*
X113623312Y-65118395D01*
X113589943Y-65123345D01*
X113556250Y-65125000D01*
X112443750Y-65125000D01*
X112410057Y-65123345D01*
X112376688Y-65118395D01*
X112343965Y-65110198D01*
X112312203Y-65098834D01*
X112281707Y-65084410D01*
X112252773Y-65067068D01*
X112225677Y-65046972D01*
X112200682Y-65024318D01*
X112178028Y-64999323D01*
X112157932Y-64972227D01*
X112140590Y-64943293D01*
X112126166Y-64912797D01*
X112114802Y-64881035D01*
X112106605Y-64848312D01*
X112101655Y-64814943D01*
X112100000Y-64781250D01*
X112100000Y-64093750D01*
X112101655Y-64060057D01*
X112106605Y-64026688D01*
X112114802Y-63993965D01*
X112126166Y-63962203D01*
X112140590Y-63931707D01*
X112157932Y-63902773D01*
X112178028Y-63875677D01*
X112200682Y-63850682D01*
X112225677Y-63828028D01*
X112252773Y-63807932D01*
X112281707Y-63790590D01*
X112312203Y-63776166D01*
X112343965Y-63764802D01*
X112376688Y-63756605D01*
X112410057Y-63751655D01*
X112443750Y-63750000D01*
X113556250Y-63750000D01*
X113589943Y-63751655D01*
X113589943Y-63751655D01*
G37*
D12*
X113000000Y-64437500D03*
G04 #@! TD*
D11*
G04 #@! TO.C,R6*
G36*
X124689943Y-87851655D02*
X124723312Y-87856605D01*
X124756035Y-87864802D01*
X124787797Y-87876166D01*
X124818293Y-87890590D01*
X124847227Y-87907932D01*
X124874323Y-87928028D01*
X124899318Y-87950682D01*
X124921972Y-87975677D01*
X124942068Y-88002773D01*
X124959410Y-88031707D01*
X124973834Y-88062203D01*
X124985198Y-88093965D01*
X124993395Y-88126688D01*
X124998345Y-88160057D01*
X125000000Y-88193750D01*
X125000000Y-89306250D01*
X124998345Y-89339943D01*
X124993395Y-89373312D01*
X124985198Y-89406035D01*
X124973834Y-89437797D01*
X124959410Y-89468293D01*
X124942068Y-89497227D01*
X124921972Y-89524323D01*
X124899318Y-89549318D01*
X124874323Y-89571972D01*
X124847227Y-89592068D01*
X124818293Y-89609410D01*
X124787797Y-89623834D01*
X124756035Y-89635198D01*
X124723312Y-89643395D01*
X124689943Y-89648345D01*
X124656250Y-89650000D01*
X123968750Y-89650000D01*
X123935057Y-89648345D01*
X123901688Y-89643395D01*
X123868965Y-89635198D01*
X123837203Y-89623834D01*
X123806707Y-89609410D01*
X123777773Y-89592068D01*
X123750677Y-89571972D01*
X123725682Y-89549318D01*
X123703028Y-89524323D01*
X123682932Y-89497227D01*
X123665590Y-89468293D01*
X123651166Y-89437797D01*
X123639802Y-89406035D01*
X123631605Y-89373312D01*
X123626655Y-89339943D01*
X123625000Y-89306250D01*
X123625000Y-88193750D01*
X123626655Y-88160057D01*
X123631605Y-88126688D01*
X123639802Y-88093965D01*
X123651166Y-88062203D01*
X123665590Y-88031707D01*
X123682932Y-88002773D01*
X123703028Y-87975677D01*
X123725682Y-87950682D01*
X123750677Y-87928028D01*
X123777773Y-87907932D01*
X123806707Y-87890590D01*
X123837203Y-87876166D01*
X123868965Y-87864802D01*
X123901688Y-87856605D01*
X123935057Y-87851655D01*
X123968750Y-87850000D01*
X124656250Y-87850000D01*
X124689943Y-87851655D01*
X124689943Y-87851655D01*
G37*
D12*
X124312500Y-88750000D03*
D11*
G36*
X126564943Y-87851655D02*
X126598312Y-87856605D01*
X126631035Y-87864802D01*
X126662797Y-87876166D01*
X126693293Y-87890590D01*
X126722227Y-87907932D01*
X126749323Y-87928028D01*
X126774318Y-87950682D01*
X126796972Y-87975677D01*
X126817068Y-88002773D01*
X126834410Y-88031707D01*
X126848834Y-88062203D01*
X126860198Y-88093965D01*
X126868395Y-88126688D01*
X126873345Y-88160057D01*
X126875000Y-88193750D01*
X126875000Y-89306250D01*
X126873345Y-89339943D01*
X126868395Y-89373312D01*
X126860198Y-89406035D01*
X126848834Y-89437797D01*
X126834410Y-89468293D01*
X126817068Y-89497227D01*
X126796972Y-89524323D01*
X126774318Y-89549318D01*
X126749323Y-89571972D01*
X126722227Y-89592068D01*
X126693293Y-89609410D01*
X126662797Y-89623834D01*
X126631035Y-89635198D01*
X126598312Y-89643395D01*
X126564943Y-89648345D01*
X126531250Y-89650000D01*
X125843750Y-89650000D01*
X125810057Y-89648345D01*
X125776688Y-89643395D01*
X125743965Y-89635198D01*
X125712203Y-89623834D01*
X125681707Y-89609410D01*
X125652773Y-89592068D01*
X125625677Y-89571972D01*
X125600682Y-89549318D01*
X125578028Y-89524323D01*
X125557932Y-89497227D01*
X125540590Y-89468293D01*
X125526166Y-89437797D01*
X125514802Y-89406035D01*
X125506605Y-89373312D01*
X125501655Y-89339943D01*
X125500000Y-89306250D01*
X125500000Y-88193750D01*
X125501655Y-88160057D01*
X125506605Y-88126688D01*
X125514802Y-88093965D01*
X125526166Y-88062203D01*
X125540590Y-88031707D01*
X125557932Y-88002773D01*
X125578028Y-87975677D01*
X125600682Y-87950682D01*
X125625677Y-87928028D01*
X125652773Y-87907932D01*
X125681707Y-87890590D01*
X125712203Y-87876166D01*
X125743965Y-87864802D01*
X125776688Y-87856605D01*
X125810057Y-87851655D01*
X125843750Y-87850000D01*
X126531250Y-87850000D01*
X126564943Y-87851655D01*
X126564943Y-87851655D01*
G37*
D12*
X126187500Y-88750000D03*
G04 #@! TD*
D11*
G04 #@! TO.C,R7*
G36*
X124689943Y-113851655D02*
X124723312Y-113856605D01*
X124756035Y-113864802D01*
X124787797Y-113876166D01*
X124818293Y-113890590D01*
X124847227Y-113907932D01*
X124874323Y-113928028D01*
X124899318Y-113950682D01*
X124921972Y-113975677D01*
X124942068Y-114002773D01*
X124959410Y-114031707D01*
X124973834Y-114062203D01*
X124985198Y-114093965D01*
X124993395Y-114126688D01*
X124998345Y-114160057D01*
X125000000Y-114193750D01*
X125000000Y-115306250D01*
X124998345Y-115339943D01*
X124993395Y-115373312D01*
X124985198Y-115406035D01*
X124973834Y-115437797D01*
X124959410Y-115468293D01*
X124942068Y-115497227D01*
X124921972Y-115524323D01*
X124899318Y-115549318D01*
X124874323Y-115571972D01*
X124847227Y-115592068D01*
X124818293Y-115609410D01*
X124787797Y-115623834D01*
X124756035Y-115635198D01*
X124723312Y-115643395D01*
X124689943Y-115648345D01*
X124656250Y-115650000D01*
X123968750Y-115650000D01*
X123935057Y-115648345D01*
X123901688Y-115643395D01*
X123868965Y-115635198D01*
X123837203Y-115623834D01*
X123806707Y-115609410D01*
X123777773Y-115592068D01*
X123750677Y-115571972D01*
X123725682Y-115549318D01*
X123703028Y-115524323D01*
X123682932Y-115497227D01*
X123665590Y-115468293D01*
X123651166Y-115437797D01*
X123639802Y-115406035D01*
X123631605Y-115373312D01*
X123626655Y-115339943D01*
X123625000Y-115306250D01*
X123625000Y-114193750D01*
X123626655Y-114160057D01*
X123631605Y-114126688D01*
X123639802Y-114093965D01*
X123651166Y-114062203D01*
X123665590Y-114031707D01*
X123682932Y-114002773D01*
X123703028Y-113975677D01*
X123725682Y-113950682D01*
X123750677Y-113928028D01*
X123777773Y-113907932D01*
X123806707Y-113890590D01*
X123837203Y-113876166D01*
X123868965Y-113864802D01*
X123901688Y-113856605D01*
X123935057Y-113851655D01*
X123968750Y-113850000D01*
X124656250Y-113850000D01*
X124689943Y-113851655D01*
X124689943Y-113851655D01*
G37*
D12*
X124312500Y-114750000D03*
D11*
G36*
X126564943Y-113851655D02*
X126598312Y-113856605D01*
X126631035Y-113864802D01*
X126662797Y-113876166D01*
X126693293Y-113890590D01*
X126722227Y-113907932D01*
X126749323Y-113928028D01*
X126774318Y-113950682D01*
X126796972Y-113975677D01*
X126817068Y-114002773D01*
X126834410Y-114031707D01*
X126848834Y-114062203D01*
X126860198Y-114093965D01*
X126868395Y-114126688D01*
X126873345Y-114160057D01*
X126875000Y-114193750D01*
X126875000Y-115306250D01*
X126873345Y-115339943D01*
X126868395Y-115373312D01*
X126860198Y-115406035D01*
X126848834Y-115437797D01*
X126834410Y-115468293D01*
X126817068Y-115497227D01*
X126796972Y-115524323D01*
X126774318Y-115549318D01*
X126749323Y-115571972D01*
X126722227Y-115592068D01*
X126693293Y-115609410D01*
X126662797Y-115623834D01*
X126631035Y-115635198D01*
X126598312Y-115643395D01*
X126564943Y-115648345D01*
X126531250Y-115650000D01*
X125843750Y-115650000D01*
X125810057Y-115648345D01*
X125776688Y-115643395D01*
X125743965Y-115635198D01*
X125712203Y-115623834D01*
X125681707Y-115609410D01*
X125652773Y-115592068D01*
X125625677Y-115571972D01*
X125600682Y-115549318D01*
X125578028Y-115524323D01*
X125557932Y-115497227D01*
X125540590Y-115468293D01*
X125526166Y-115437797D01*
X125514802Y-115406035D01*
X125506605Y-115373312D01*
X125501655Y-115339943D01*
X125500000Y-115306250D01*
X125500000Y-114193750D01*
X125501655Y-114160057D01*
X125506605Y-114126688D01*
X125514802Y-114093965D01*
X125526166Y-114062203D01*
X125540590Y-114031707D01*
X125557932Y-114002773D01*
X125578028Y-113975677D01*
X125600682Y-113950682D01*
X125625677Y-113928028D01*
X125652773Y-113907932D01*
X125681707Y-113890590D01*
X125712203Y-113876166D01*
X125743965Y-113864802D01*
X125776688Y-113856605D01*
X125810057Y-113851655D01*
X125843750Y-113850000D01*
X126531250Y-113850000D01*
X126564943Y-113851655D01*
X126564943Y-113851655D01*
G37*
D12*
X126187500Y-114750000D03*
G04 #@! TD*
D11*
G04 #@! TO.C,R13*
G36*
X100589943Y-63251655D02*
X100623312Y-63256605D01*
X100656035Y-63264802D01*
X100687797Y-63276166D01*
X100718293Y-63290590D01*
X100747227Y-63307932D01*
X100774323Y-63328028D01*
X100799318Y-63350682D01*
X100821972Y-63375677D01*
X100842068Y-63402773D01*
X100859410Y-63431707D01*
X100873834Y-63462203D01*
X100885198Y-63493965D01*
X100893395Y-63526688D01*
X100898345Y-63560057D01*
X100900000Y-63593750D01*
X100900000Y-64281250D01*
X100898345Y-64314943D01*
X100893395Y-64348312D01*
X100885198Y-64381035D01*
X100873834Y-64412797D01*
X100859410Y-64443293D01*
X100842068Y-64472227D01*
X100821972Y-64499323D01*
X100799318Y-64524318D01*
X100774323Y-64546972D01*
X100747227Y-64567068D01*
X100718293Y-64584410D01*
X100687797Y-64598834D01*
X100656035Y-64610198D01*
X100623312Y-64618395D01*
X100589943Y-64623345D01*
X100556250Y-64625000D01*
X99443750Y-64625000D01*
X99410057Y-64623345D01*
X99376688Y-64618395D01*
X99343965Y-64610198D01*
X99312203Y-64598834D01*
X99281707Y-64584410D01*
X99252773Y-64567068D01*
X99225677Y-64546972D01*
X99200682Y-64524318D01*
X99178028Y-64499323D01*
X99157932Y-64472227D01*
X99140590Y-64443293D01*
X99126166Y-64412797D01*
X99114802Y-64381035D01*
X99106605Y-64348312D01*
X99101655Y-64314943D01*
X99100000Y-64281250D01*
X99100000Y-63593750D01*
X99101655Y-63560057D01*
X99106605Y-63526688D01*
X99114802Y-63493965D01*
X99126166Y-63462203D01*
X99140590Y-63431707D01*
X99157932Y-63402773D01*
X99178028Y-63375677D01*
X99200682Y-63350682D01*
X99225677Y-63328028D01*
X99252773Y-63307932D01*
X99281707Y-63290590D01*
X99312203Y-63276166D01*
X99343965Y-63264802D01*
X99376688Y-63256605D01*
X99410057Y-63251655D01*
X99443750Y-63250000D01*
X100556250Y-63250000D01*
X100589943Y-63251655D01*
X100589943Y-63251655D01*
G37*
D12*
X100000000Y-63937500D03*
D11*
G36*
X100589943Y-61376655D02*
X100623312Y-61381605D01*
X100656035Y-61389802D01*
X100687797Y-61401166D01*
X100718293Y-61415590D01*
X100747227Y-61432932D01*
X100774323Y-61453028D01*
X100799318Y-61475682D01*
X100821972Y-61500677D01*
X100842068Y-61527773D01*
X100859410Y-61556707D01*
X100873834Y-61587203D01*
X100885198Y-61618965D01*
X100893395Y-61651688D01*
X100898345Y-61685057D01*
X100900000Y-61718750D01*
X100900000Y-62406250D01*
X100898345Y-62439943D01*
X100893395Y-62473312D01*
X100885198Y-62506035D01*
X100873834Y-62537797D01*
X100859410Y-62568293D01*
X100842068Y-62597227D01*
X100821972Y-62624323D01*
X100799318Y-62649318D01*
X100774323Y-62671972D01*
X100747227Y-62692068D01*
X100718293Y-62709410D01*
X100687797Y-62723834D01*
X100656035Y-62735198D01*
X100623312Y-62743395D01*
X100589943Y-62748345D01*
X100556250Y-62750000D01*
X99443750Y-62750000D01*
X99410057Y-62748345D01*
X99376688Y-62743395D01*
X99343965Y-62735198D01*
X99312203Y-62723834D01*
X99281707Y-62709410D01*
X99252773Y-62692068D01*
X99225677Y-62671972D01*
X99200682Y-62649318D01*
X99178028Y-62624323D01*
X99157932Y-62597227D01*
X99140590Y-62568293D01*
X99126166Y-62537797D01*
X99114802Y-62506035D01*
X99106605Y-62473312D01*
X99101655Y-62439943D01*
X99100000Y-62406250D01*
X99100000Y-61718750D01*
X99101655Y-61685057D01*
X99106605Y-61651688D01*
X99114802Y-61618965D01*
X99126166Y-61587203D01*
X99140590Y-61556707D01*
X99157932Y-61527773D01*
X99178028Y-61500677D01*
X99200682Y-61475682D01*
X99225677Y-61453028D01*
X99252773Y-61432932D01*
X99281707Y-61415590D01*
X99312203Y-61401166D01*
X99343965Y-61389802D01*
X99376688Y-61381605D01*
X99410057Y-61376655D01*
X99443750Y-61375000D01*
X100556250Y-61375000D01*
X100589943Y-61376655D01*
X100589943Y-61376655D01*
G37*
D12*
X100000000Y-62062500D03*
G04 #@! TD*
D11*
G04 #@! TO.C,R14*
G36*
X100589943Y-87376655D02*
X100623312Y-87381605D01*
X100656035Y-87389802D01*
X100687797Y-87401166D01*
X100718293Y-87415590D01*
X100747227Y-87432932D01*
X100774323Y-87453028D01*
X100799318Y-87475682D01*
X100821972Y-87500677D01*
X100842068Y-87527773D01*
X100859410Y-87556707D01*
X100873834Y-87587203D01*
X100885198Y-87618965D01*
X100893395Y-87651688D01*
X100898345Y-87685057D01*
X100900000Y-87718750D01*
X100900000Y-88406250D01*
X100898345Y-88439943D01*
X100893395Y-88473312D01*
X100885198Y-88506035D01*
X100873834Y-88537797D01*
X100859410Y-88568293D01*
X100842068Y-88597227D01*
X100821972Y-88624323D01*
X100799318Y-88649318D01*
X100774323Y-88671972D01*
X100747227Y-88692068D01*
X100718293Y-88709410D01*
X100687797Y-88723834D01*
X100656035Y-88735198D01*
X100623312Y-88743395D01*
X100589943Y-88748345D01*
X100556250Y-88750000D01*
X99443750Y-88750000D01*
X99410057Y-88748345D01*
X99376688Y-88743395D01*
X99343965Y-88735198D01*
X99312203Y-88723834D01*
X99281707Y-88709410D01*
X99252773Y-88692068D01*
X99225677Y-88671972D01*
X99200682Y-88649318D01*
X99178028Y-88624323D01*
X99157932Y-88597227D01*
X99140590Y-88568293D01*
X99126166Y-88537797D01*
X99114802Y-88506035D01*
X99106605Y-88473312D01*
X99101655Y-88439943D01*
X99100000Y-88406250D01*
X99100000Y-87718750D01*
X99101655Y-87685057D01*
X99106605Y-87651688D01*
X99114802Y-87618965D01*
X99126166Y-87587203D01*
X99140590Y-87556707D01*
X99157932Y-87527773D01*
X99178028Y-87500677D01*
X99200682Y-87475682D01*
X99225677Y-87453028D01*
X99252773Y-87432932D01*
X99281707Y-87415590D01*
X99312203Y-87401166D01*
X99343965Y-87389802D01*
X99376688Y-87381605D01*
X99410057Y-87376655D01*
X99443750Y-87375000D01*
X100556250Y-87375000D01*
X100589943Y-87376655D01*
X100589943Y-87376655D01*
G37*
D12*
X100000000Y-88062500D03*
D11*
G36*
X100589943Y-89251655D02*
X100623312Y-89256605D01*
X100656035Y-89264802D01*
X100687797Y-89276166D01*
X100718293Y-89290590D01*
X100747227Y-89307932D01*
X100774323Y-89328028D01*
X100799318Y-89350682D01*
X100821972Y-89375677D01*
X100842068Y-89402773D01*
X100859410Y-89431707D01*
X100873834Y-89462203D01*
X100885198Y-89493965D01*
X100893395Y-89526688D01*
X100898345Y-89560057D01*
X100900000Y-89593750D01*
X100900000Y-90281250D01*
X100898345Y-90314943D01*
X100893395Y-90348312D01*
X100885198Y-90381035D01*
X100873834Y-90412797D01*
X100859410Y-90443293D01*
X100842068Y-90472227D01*
X100821972Y-90499323D01*
X100799318Y-90524318D01*
X100774323Y-90546972D01*
X100747227Y-90567068D01*
X100718293Y-90584410D01*
X100687797Y-90598834D01*
X100656035Y-90610198D01*
X100623312Y-90618395D01*
X100589943Y-90623345D01*
X100556250Y-90625000D01*
X99443750Y-90625000D01*
X99410057Y-90623345D01*
X99376688Y-90618395D01*
X99343965Y-90610198D01*
X99312203Y-90598834D01*
X99281707Y-90584410D01*
X99252773Y-90567068D01*
X99225677Y-90546972D01*
X99200682Y-90524318D01*
X99178028Y-90499323D01*
X99157932Y-90472227D01*
X99140590Y-90443293D01*
X99126166Y-90412797D01*
X99114802Y-90381035D01*
X99106605Y-90348312D01*
X99101655Y-90314943D01*
X99100000Y-90281250D01*
X99100000Y-89593750D01*
X99101655Y-89560057D01*
X99106605Y-89526688D01*
X99114802Y-89493965D01*
X99126166Y-89462203D01*
X99140590Y-89431707D01*
X99157932Y-89402773D01*
X99178028Y-89375677D01*
X99200682Y-89350682D01*
X99225677Y-89328028D01*
X99252773Y-89307932D01*
X99281707Y-89290590D01*
X99312203Y-89276166D01*
X99343965Y-89264802D01*
X99376688Y-89256605D01*
X99410057Y-89251655D01*
X99443750Y-89250000D01*
X100556250Y-89250000D01*
X100589943Y-89251655D01*
X100589943Y-89251655D01*
G37*
D12*
X100000000Y-89937500D03*
G04 #@! TD*
D11*
G04 #@! TO.C,R15*
G36*
X100589943Y-113376655D02*
X100623312Y-113381605D01*
X100656035Y-113389802D01*
X100687797Y-113401166D01*
X100718293Y-113415590D01*
X100747227Y-113432932D01*
X100774323Y-113453028D01*
X100799318Y-113475682D01*
X100821972Y-113500677D01*
X100842068Y-113527773D01*
X100859410Y-113556707D01*
X100873834Y-113587203D01*
X100885198Y-113618965D01*
X100893395Y-113651688D01*
X100898345Y-113685057D01*
X100900000Y-113718750D01*
X100900000Y-114406250D01*
X100898345Y-114439943D01*
X100893395Y-114473312D01*
X100885198Y-114506035D01*
X100873834Y-114537797D01*
X100859410Y-114568293D01*
X100842068Y-114597227D01*
X100821972Y-114624323D01*
X100799318Y-114649318D01*
X100774323Y-114671972D01*
X100747227Y-114692068D01*
X100718293Y-114709410D01*
X100687797Y-114723834D01*
X100656035Y-114735198D01*
X100623312Y-114743395D01*
X100589943Y-114748345D01*
X100556250Y-114750000D01*
X99443750Y-114750000D01*
X99410057Y-114748345D01*
X99376688Y-114743395D01*
X99343965Y-114735198D01*
X99312203Y-114723834D01*
X99281707Y-114709410D01*
X99252773Y-114692068D01*
X99225677Y-114671972D01*
X99200682Y-114649318D01*
X99178028Y-114624323D01*
X99157932Y-114597227D01*
X99140590Y-114568293D01*
X99126166Y-114537797D01*
X99114802Y-114506035D01*
X99106605Y-114473312D01*
X99101655Y-114439943D01*
X99100000Y-114406250D01*
X99100000Y-113718750D01*
X99101655Y-113685057D01*
X99106605Y-113651688D01*
X99114802Y-113618965D01*
X99126166Y-113587203D01*
X99140590Y-113556707D01*
X99157932Y-113527773D01*
X99178028Y-113500677D01*
X99200682Y-113475682D01*
X99225677Y-113453028D01*
X99252773Y-113432932D01*
X99281707Y-113415590D01*
X99312203Y-113401166D01*
X99343965Y-113389802D01*
X99376688Y-113381605D01*
X99410057Y-113376655D01*
X99443750Y-113375000D01*
X100556250Y-113375000D01*
X100589943Y-113376655D01*
X100589943Y-113376655D01*
G37*
D12*
X100000000Y-114062500D03*
D11*
G36*
X100589943Y-115251655D02*
X100623312Y-115256605D01*
X100656035Y-115264802D01*
X100687797Y-115276166D01*
X100718293Y-115290590D01*
X100747227Y-115307932D01*
X100774323Y-115328028D01*
X100799318Y-115350682D01*
X100821972Y-115375677D01*
X100842068Y-115402773D01*
X100859410Y-115431707D01*
X100873834Y-115462203D01*
X100885198Y-115493965D01*
X100893395Y-115526688D01*
X100898345Y-115560057D01*
X100900000Y-115593750D01*
X100900000Y-116281250D01*
X100898345Y-116314943D01*
X100893395Y-116348312D01*
X100885198Y-116381035D01*
X100873834Y-116412797D01*
X100859410Y-116443293D01*
X100842068Y-116472227D01*
X100821972Y-116499323D01*
X100799318Y-116524318D01*
X100774323Y-116546972D01*
X100747227Y-116567068D01*
X100718293Y-116584410D01*
X100687797Y-116598834D01*
X100656035Y-116610198D01*
X100623312Y-116618395D01*
X100589943Y-116623345D01*
X100556250Y-116625000D01*
X99443750Y-116625000D01*
X99410057Y-116623345D01*
X99376688Y-116618395D01*
X99343965Y-116610198D01*
X99312203Y-116598834D01*
X99281707Y-116584410D01*
X99252773Y-116567068D01*
X99225677Y-116546972D01*
X99200682Y-116524318D01*
X99178028Y-116499323D01*
X99157932Y-116472227D01*
X99140590Y-116443293D01*
X99126166Y-116412797D01*
X99114802Y-116381035D01*
X99106605Y-116348312D01*
X99101655Y-116314943D01*
X99100000Y-116281250D01*
X99100000Y-115593750D01*
X99101655Y-115560057D01*
X99106605Y-115526688D01*
X99114802Y-115493965D01*
X99126166Y-115462203D01*
X99140590Y-115431707D01*
X99157932Y-115402773D01*
X99178028Y-115375677D01*
X99200682Y-115350682D01*
X99225677Y-115328028D01*
X99252773Y-115307932D01*
X99281707Y-115290590D01*
X99312203Y-115276166D01*
X99343965Y-115264802D01*
X99376688Y-115256605D01*
X99410057Y-115251655D01*
X99443750Y-115250000D01*
X100556250Y-115250000D01*
X100589943Y-115251655D01*
X100589943Y-115251655D01*
G37*
D12*
X100000000Y-115937500D03*
G04 #@! TD*
D11*
G04 #@! TO.C,R21*
G36*
X100589943Y-68251655D02*
X100623312Y-68256605D01*
X100656035Y-68264802D01*
X100687797Y-68276166D01*
X100718293Y-68290590D01*
X100747227Y-68307932D01*
X100774323Y-68328028D01*
X100799318Y-68350682D01*
X100821972Y-68375677D01*
X100842068Y-68402773D01*
X100859410Y-68431707D01*
X100873834Y-68462203D01*
X100885198Y-68493965D01*
X100893395Y-68526688D01*
X100898345Y-68560057D01*
X100900000Y-68593750D01*
X100900000Y-69281250D01*
X100898345Y-69314943D01*
X100893395Y-69348312D01*
X100885198Y-69381035D01*
X100873834Y-69412797D01*
X100859410Y-69443293D01*
X100842068Y-69472227D01*
X100821972Y-69499323D01*
X100799318Y-69524318D01*
X100774323Y-69546972D01*
X100747227Y-69567068D01*
X100718293Y-69584410D01*
X100687797Y-69598834D01*
X100656035Y-69610198D01*
X100623312Y-69618395D01*
X100589943Y-69623345D01*
X100556250Y-69625000D01*
X99443750Y-69625000D01*
X99410057Y-69623345D01*
X99376688Y-69618395D01*
X99343965Y-69610198D01*
X99312203Y-69598834D01*
X99281707Y-69584410D01*
X99252773Y-69567068D01*
X99225677Y-69546972D01*
X99200682Y-69524318D01*
X99178028Y-69499323D01*
X99157932Y-69472227D01*
X99140590Y-69443293D01*
X99126166Y-69412797D01*
X99114802Y-69381035D01*
X99106605Y-69348312D01*
X99101655Y-69314943D01*
X99100000Y-69281250D01*
X99100000Y-68593750D01*
X99101655Y-68560057D01*
X99106605Y-68526688D01*
X99114802Y-68493965D01*
X99126166Y-68462203D01*
X99140590Y-68431707D01*
X99157932Y-68402773D01*
X99178028Y-68375677D01*
X99200682Y-68350682D01*
X99225677Y-68328028D01*
X99252773Y-68307932D01*
X99281707Y-68290590D01*
X99312203Y-68276166D01*
X99343965Y-68264802D01*
X99376688Y-68256605D01*
X99410057Y-68251655D01*
X99443750Y-68250000D01*
X100556250Y-68250000D01*
X100589943Y-68251655D01*
X100589943Y-68251655D01*
G37*
D12*
X100000000Y-68937500D03*
D11*
G36*
X100589943Y-66376655D02*
X100623312Y-66381605D01*
X100656035Y-66389802D01*
X100687797Y-66401166D01*
X100718293Y-66415590D01*
X100747227Y-66432932D01*
X100774323Y-66453028D01*
X100799318Y-66475682D01*
X100821972Y-66500677D01*
X100842068Y-66527773D01*
X100859410Y-66556707D01*
X100873834Y-66587203D01*
X100885198Y-66618965D01*
X100893395Y-66651688D01*
X100898345Y-66685057D01*
X100900000Y-66718750D01*
X100900000Y-67406250D01*
X100898345Y-67439943D01*
X100893395Y-67473312D01*
X100885198Y-67506035D01*
X100873834Y-67537797D01*
X100859410Y-67568293D01*
X100842068Y-67597227D01*
X100821972Y-67624323D01*
X100799318Y-67649318D01*
X100774323Y-67671972D01*
X100747227Y-67692068D01*
X100718293Y-67709410D01*
X100687797Y-67723834D01*
X100656035Y-67735198D01*
X100623312Y-67743395D01*
X100589943Y-67748345D01*
X100556250Y-67750000D01*
X99443750Y-67750000D01*
X99410057Y-67748345D01*
X99376688Y-67743395D01*
X99343965Y-67735198D01*
X99312203Y-67723834D01*
X99281707Y-67709410D01*
X99252773Y-67692068D01*
X99225677Y-67671972D01*
X99200682Y-67649318D01*
X99178028Y-67624323D01*
X99157932Y-67597227D01*
X99140590Y-67568293D01*
X99126166Y-67537797D01*
X99114802Y-67506035D01*
X99106605Y-67473312D01*
X99101655Y-67439943D01*
X99100000Y-67406250D01*
X99100000Y-66718750D01*
X99101655Y-66685057D01*
X99106605Y-66651688D01*
X99114802Y-66618965D01*
X99126166Y-66587203D01*
X99140590Y-66556707D01*
X99157932Y-66527773D01*
X99178028Y-66500677D01*
X99200682Y-66475682D01*
X99225677Y-66453028D01*
X99252773Y-66432932D01*
X99281707Y-66415590D01*
X99312203Y-66401166D01*
X99343965Y-66389802D01*
X99376688Y-66381605D01*
X99410057Y-66376655D01*
X99443750Y-66375000D01*
X100556250Y-66375000D01*
X100589943Y-66376655D01*
X100589943Y-66376655D01*
G37*
D12*
X100000000Y-67062500D03*
G04 #@! TD*
D11*
G04 #@! TO.C,R22*
G36*
X100589943Y-94251655D02*
X100623312Y-94256605D01*
X100656035Y-94264802D01*
X100687797Y-94276166D01*
X100718293Y-94290590D01*
X100747227Y-94307932D01*
X100774323Y-94328028D01*
X100799318Y-94350682D01*
X100821972Y-94375677D01*
X100842068Y-94402773D01*
X100859410Y-94431707D01*
X100873834Y-94462203D01*
X100885198Y-94493965D01*
X100893395Y-94526688D01*
X100898345Y-94560057D01*
X100900000Y-94593750D01*
X100900000Y-95281250D01*
X100898345Y-95314943D01*
X100893395Y-95348312D01*
X100885198Y-95381035D01*
X100873834Y-95412797D01*
X100859410Y-95443293D01*
X100842068Y-95472227D01*
X100821972Y-95499323D01*
X100799318Y-95524318D01*
X100774323Y-95546972D01*
X100747227Y-95567068D01*
X100718293Y-95584410D01*
X100687797Y-95598834D01*
X100656035Y-95610198D01*
X100623312Y-95618395D01*
X100589943Y-95623345D01*
X100556250Y-95625000D01*
X99443750Y-95625000D01*
X99410057Y-95623345D01*
X99376688Y-95618395D01*
X99343965Y-95610198D01*
X99312203Y-95598834D01*
X99281707Y-95584410D01*
X99252773Y-95567068D01*
X99225677Y-95546972D01*
X99200682Y-95524318D01*
X99178028Y-95499323D01*
X99157932Y-95472227D01*
X99140590Y-95443293D01*
X99126166Y-95412797D01*
X99114802Y-95381035D01*
X99106605Y-95348312D01*
X99101655Y-95314943D01*
X99100000Y-95281250D01*
X99100000Y-94593750D01*
X99101655Y-94560057D01*
X99106605Y-94526688D01*
X99114802Y-94493965D01*
X99126166Y-94462203D01*
X99140590Y-94431707D01*
X99157932Y-94402773D01*
X99178028Y-94375677D01*
X99200682Y-94350682D01*
X99225677Y-94328028D01*
X99252773Y-94307932D01*
X99281707Y-94290590D01*
X99312203Y-94276166D01*
X99343965Y-94264802D01*
X99376688Y-94256605D01*
X99410057Y-94251655D01*
X99443750Y-94250000D01*
X100556250Y-94250000D01*
X100589943Y-94251655D01*
X100589943Y-94251655D01*
G37*
D12*
X100000000Y-94937500D03*
D11*
G36*
X100589943Y-92376655D02*
X100623312Y-92381605D01*
X100656035Y-92389802D01*
X100687797Y-92401166D01*
X100718293Y-92415590D01*
X100747227Y-92432932D01*
X100774323Y-92453028D01*
X100799318Y-92475682D01*
X100821972Y-92500677D01*
X100842068Y-92527773D01*
X100859410Y-92556707D01*
X100873834Y-92587203D01*
X100885198Y-92618965D01*
X100893395Y-92651688D01*
X100898345Y-92685057D01*
X100900000Y-92718750D01*
X100900000Y-93406250D01*
X100898345Y-93439943D01*
X100893395Y-93473312D01*
X100885198Y-93506035D01*
X100873834Y-93537797D01*
X100859410Y-93568293D01*
X100842068Y-93597227D01*
X100821972Y-93624323D01*
X100799318Y-93649318D01*
X100774323Y-93671972D01*
X100747227Y-93692068D01*
X100718293Y-93709410D01*
X100687797Y-93723834D01*
X100656035Y-93735198D01*
X100623312Y-93743395D01*
X100589943Y-93748345D01*
X100556250Y-93750000D01*
X99443750Y-93750000D01*
X99410057Y-93748345D01*
X99376688Y-93743395D01*
X99343965Y-93735198D01*
X99312203Y-93723834D01*
X99281707Y-93709410D01*
X99252773Y-93692068D01*
X99225677Y-93671972D01*
X99200682Y-93649318D01*
X99178028Y-93624323D01*
X99157932Y-93597227D01*
X99140590Y-93568293D01*
X99126166Y-93537797D01*
X99114802Y-93506035D01*
X99106605Y-93473312D01*
X99101655Y-93439943D01*
X99100000Y-93406250D01*
X99100000Y-92718750D01*
X99101655Y-92685057D01*
X99106605Y-92651688D01*
X99114802Y-92618965D01*
X99126166Y-92587203D01*
X99140590Y-92556707D01*
X99157932Y-92527773D01*
X99178028Y-92500677D01*
X99200682Y-92475682D01*
X99225677Y-92453028D01*
X99252773Y-92432932D01*
X99281707Y-92415590D01*
X99312203Y-92401166D01*
X99343965Y-92389802D01*
X99376688Y-92381605D01*
X99410057Y-92376655D01*
X99443750Y-92375000D01*
X100556250Y-92375000D01*
X100589943Y-92376655D01*
X100589943Y-92376655D01*
G37*
D12*
X100000000Y-93062500D03*
G04 #@! TD*
D11*
G04 #@! TO.C,R23*
G36*
X100589943Y-120251655D02*
X100623312Y-120256605D01*
X100656035Y-120264802D01*
X100687797Y-120276166D01*
X100718293Y-120290590D01*
X100747227Y-120307932D01*
X100774323Y-120328028D01*
X100799318Y-120350682D01*
X100821972Y-120375677D01*
X100842068Y-120402773D01*
X100859410Y-120431707D01*
X100873834Y-120462203D01*
X100885198Y-120493965D01*
X100893395Y-120526688D01*
X100898345Y-120560057D01*
X100900000Y-120593750D01*
X100900000Y-121281250D01*
X100898345Y-121314943D01*
X100893395Y-121348312D01*
X100885198Y-121381035D01*
X100873834Y-121412797D01*
X100859410Y-121443293D01*
X100842068Y-121472227D01*
X100821972Y-121499323D01*
X100799318Y-121524318D01*
X100774323Y-121546972D01*
X100747227Y-121567068D01*
X100718293Y-121584410D01*
X100687797Y-121598834D01*
X100656035Y-121610198D01*
X100623312Y-121618395D01*
X100589943Y-121623345D01*
X100556250Y-121625000D01*
X99443750Y-121625000D01*
X99410057Y-121623345D01*
X99376688Y-121618395D01*
X99343965Y-121610198D01*
X99312203Y-121598834D01*
X99281707Y-121584410D01*
X99252773Y-121567068D01*
X99225677Y-121546972D01*
X99200682Y-121524318D01*
X99178028Y-121499323D01*
X99157932Y-121472227D01*
X99140590Y-121443293D01*
X99126166Y-121412797D01*
X99114802Y-121381035D01*
X99106605Y-121348312D01*
X99101655Y-121314943D01*
X99100000Y-121281250D01*
X99100000Y-120593750D01*
X99101655Y-120560057D01*
X99106605Y-120526688D01*
X99114802Y-120493965D01*
X99126166Y-120462203D01*
X99140590Y-120431707D01*
X99157932Y-120402773D01*
X99178028Y-120375677D01*
X99200682Y-120350682D01*
X99225677Y-120328028D01*
X99252773Y-120307932D01*
X99281707Y-120290590D01*
X99312203Y-120276166D01*
X99343965Y-120264802D01*
X99376688Y-120256605D01*
X99410057Y-120251655D01*
X99443750Y-120250000D01*
X100556250Y-120250000D01*
X100589943Y-120251655D01*
X100589943Y-120251655D01*
G37*
D12*
X100000000Y-120937500D03*
D11*
G36*
X100589943Y-118376655D02*
X100623312Y-118381605D01*
X100656035Y-118389802D01*
X100687797Y-118401166D01*
X100718293Y-118415590D01*
X100747227Y-118432932D01*
X100774323Y-118453028D01*
X100799318Y-118475682D01*
X100821972Y-118500677D01*
X100842068Y-118527773D01*
X100859410Y-118556707D01*
X100873834Y-118587203D01*
X100885198Y-118618965D01*
X100893395Y-118651688D01*
X100898345Y-118685057D01*
X100900000Y-118718750D01*
X100900000Y-119406250D01*
X100898345Y-119439943D01*
X100893395Y-119473312D01*
X100885198Y-119506035D01*
X100873834Y-119537797D01*
X100859410Y-119568293D01*
X100842068Y-119597227D01*
X100821972Y-119624323D01*
X100799318Y-119649318D01*
X100774323Y-119671972D01*
X100747227Y-119692068D01*
X100718293Y-119709410D01*
X100687797Y-119723834D01*
X100656035Y-119735198D01*
X100623312Y-119743395D01*
X100589943Y-119748345D01*
X100556250Y-119750000D01*
X99443750Y-119750000D01*
X99410057Y-119748345D01*
X99376688Y-119743395D01*
X99343965Y-119735198D01*
X99312203Y-119723834D01*
X99281707Y-119709410D01*
X99252773Y-119692068D01*
X99225677Y-119671972D01*
X99200682Y-119649318D01*
X99178028Y-119624323D01*
X99157932Y-119597227D01*
X99140590Y-119568293D01*
X99126166Y-119537797D01*
X99114802Y-119506035D01*
X99106605Y-119473312D01*
X99101655Y-119439943D01*
X99100000Y-119406250D01*
X99100000Y-118718750D01*
X99101655Y-118685057D01*
X99106605Y-118651688D01*
X99114802Y-118618965D01*
X99126166Y-118587203D01*
X99140590Y-118556707D01*
X99157932Y-118527773D01*
X99178028Y-118500677D01*
X99200682Y-118475682D01*
X99225677Y-118453028D01*
X99252773Y-118432932D01*
X99281707Y-118415590D01*
X99312203Y-118401166D01*
X99343965Y-118389802D01*
X99376688Y-118381605D01*
X99410057Y-118376655D01*
X99443750Y-118375000D01*
X100556250Y-118375000D01*
X100589943Y-118376655D01*
X100589943Y-118376655D01*
G37*
D12*
X100000000Y-119062500D03*
G04 #@! TD*
D11*
G04 #@! TO.C,R29*
G36*
X126589943Y-74501655D02*
X126623312Y-74506605D01*
X126656035Y-74514802D01*
X126687797Y-74526166D01*
X126718293Y-74540590D01*
X126747227Y-74557932D01*
X126774323Y-74578028D01*
X126799318Y-74600682D01*
X126821972Y-74625677D01*
X126842068Y-74652773D01*
X126859410Y-74681707D01*
X126873834Y-74712203D01*
X126885198Y-74743965D01*
X126893395Y-74776688D01*
X126898345Y-74810057D01*
X126900000Y-74843750D01*
X126900000Y-75531250D01*
X126898345Y-75564943D01*
X126893395Y-75598312D01*
X126885198Y-75631035D01*
X126873834Y-75662797D01*
X126859410Y-75693293D01*
X126842068Y-75722227D01*
X126821972Y-75749323D01*
X126799318Y-75774318D01*
X126774323Y-75796972D01*
X126747227Y-75817068D01*
X126718293Y-75834410D01*
X126687797Y-75848834D01*
X126656035Y-75860198D01*
X126623312Y-75868395D01*
X126589943Y-75873345D01*
X126556250Y-75875000D01*
X125443750Y-75875000D01*
X125410057Y-75873345D01*
X125376688Y-75868395D01*
X125343965Y-75860198D01*
X125312203Y-75848834D01*
X125281707Y-75834410D01*
X125252773Y-75817068D01*
X125225677Y-75796972D01*
X125200682Y-75774318D01*
X125178028Y-75749323D01*
X125157932Y-75722227D01*
X125140590Y-75693293D01*
X125126166Y-75662797D01*
X125114802Y-75631035D01*
X125106605Y-75598312D01*
X125101655Y-75564943D01*
X125100000Y-75531250D01*
X125100000Y-74843750D01*
X125101655Y-74810057D01*
X125106605Y-74776688D01*
X125114802Y-74743965D01*
X125126166Y-74712203D01*
X125140590Y-74681707D01*
X125157932Y-74652773D01*
X125178028Y-74625677D01*
X125200682Y-74600682D01*
X125225677Y-74578028D01*
X125252773Y-74557932D01*
X125281707Y-74540590D01*
X125312203Y-74526166D01*
X125343965Y-74514802D01*
X125376688Y-74506605D01*
X125410057Y-74501655D01*
X125443750Y-74500000D01*
X126556250Y-74500000D01*
X126589943Y-74501655D01*
X126589943Y-74501655D01*
G37*
D12*
X126000000Y-75187500D03*
D11*
G36*
X126589943Y-72626655D02*
X126623312Y-72631605D01*
X126656035Y-72639802D01*
X126687797Y-72651166D01*
X126718293Y-72665590D01*
X126747227Y-72682932D01*
X126774323Y-72703028D01*
X126799318Y-72725682D01*
X126821972Y-72750677D01*
X126842068Y-72777773D01*
X126859410Y-72806707D01*
X126873834Y-72837203D01*
X126885198Y-72868965D01*
X126893395Y-72901688D01*
X126898345Y-72935057D01*
X126900000Y-72968750D01*
X126900000Y-73656250D01*
X126898345Y-73689943D01*
X126893395Y-73723312D01*
X126885198Y-73756035D01*
X126873834Y-73787797D01*
X126859410Y-73818293D01*
X126842068Y-73847227D01*
X126821972Y-73874323D01*
X126799318Y-73899318D01*
X126774323Y-73921972D01*
X126747227Y-73942068D01*
X126718293Y-73959410D01*
X126687797Y-73973834D01*
X126656035Y-73985198D01*
X126623312Y-73993395D01*
X126589943Y-73998345D01*
X126556250Y-74000000D01*
X125443750Y-74000000D01*
X125410057Y-73998345D01*
X125376688Y-73993395D01*
X125343965Y-73985198D01*
X125312203Y-73973834D01*
X125281707Y-73959410D01*
X125252773Y-73942068D01*
X125225677Y-73921972D01*
X125200682Y-73899318D01*
X125178028Y-73874323D01*
X125157932Y-73847227D01*
X125140590Y-73818293D01*
X125126166Y-73787797D01*
X125114802Y-73756035D01*
X125106605Y-73723312D01*
X125101655Y-73689943D01*
X125100000Y-73656250D01*
X125100000Y-72968750D01*
X125101655Y-72935057D01*
X125106605Y-72901688D01*
X125114802Y-72868965D01*
X125126166Y-72837203D01*
X125140590Y-72806707D01*
X125157932Y-72777773D01*
X125178028Y-72750677D01*
X125200682Y-72725682D01*
X125225677Y-72703028D01*
X125252773Y-72682932D01*
X125281707Y-72665590D01*
X125312203Y-72651166D01*
X125343965Y-72639802D01*
X125376688Y-72631605D01*
X125410057Y-72626655D01*
X125443750Y-72625000D01*
X126556250Y-72625000D01*
X126589943Y-72626655D01*
X126589943Y-72626655D01*
G37*
D12*
X126000000Y-73312500D03*
G04 #@! TD*
D11*
G04 #@! TO.C,R30*
G36*
X126589943Y-100501655D02*
X126623312Y-100506605D01*
X126656035Y-100514802D01*
X126687797Y-100526166D01*
X126718293Y-100540590D01*
X126747227Y-100557932D01*
X126774323Y-100578028D01*
X126799318Y-100600682D01*
X126821972Y-100625677D01*
X126842068Y-100652773D01*
X126859410Y-100681707D01*
X126873834Y-100712203D01*
X126885198Y-100743965D01*
X126893395Y-100776688D01*
X126898345Y-100810057D01*
X126900000Y-100843750D01*
X126900000Y-101531250D01*
X126898345Y-101564943D01*
X126893395Y-101598312D01*
X126885198Y-101631035D01*
X126873834Y-101662797D01*
X126859410Y-101693293D01*
X126842068Y-101722227D01*
X126821972Y-101749323D01*
X126799318Y-101774318D01*
X126774323Y-101796972D01*
X126747227Y-101817068D01*
X126718293Y-101834410D01*
X126687797Y-101848834D01*
X126656035Y-101860198D01*
X126623312Y-101868395D01*
X126589943Y-101873345D01*
X126556250Y-101875000D01*
X125443750Y-101875000D01*
X125410057Y-101873345D01*
X125376688Y-101868395D01*
X125343965Y-101860198D01*
X125312203Y-101848834D01*
X125281707Y-101834410D01*
X125252773Y-101817068D01*
X125225677Y-101796972D01*
X125200682Y-101774318D01*
X125178028Y-101749323D01*
X125157932Y-101722227D01*
X125140590Y-101693293D01*
X125126166Y-101662797D01*
X125114802Y-101631035D01*
X125106605Y-101598312D01*
X125101655Y-101564943D01*
X125100000Y-101531250D01*
X125100000Y-100843750D01*
X125101655Y-100810057D01*
X125106605Y-100776688D01*
X125114802Y-100743965D01*
X125126166Y-100712203D01*
X125140590Y-100681707D01*
X125157932Y-100652773D01*
X125178028Y-100625677D01*
X125200682Y-100600682D01*
X125225677Y-100578028D01*
X125252773Y-100557932D01*
X125281707Y-100540590D01*
X125312203Y-100526166D01*
X125343965Y-100514802D01*
X125376688Y-100506605D01*
X125410057Y-100501655D01*
X125443750Y-100500000D01*
X126556250Y-100500000D01*
X126589943Y-100501655D01*
X126589943Y-100501655D01*
G37*
D12*
X126000000Y-101187500D03*
D11*
G36*
X126589943Y-98626655D02*
X126623312Y-98631605D01*
X126656035Y-98639802D01*
X126687797Y-98651166D01*
X126718293Y-98665590D01*
X126747227Y-98682932D01*
X126774323Y-98703028D01*
X126799318Y-98725682D01*
X126821972Y-98750677D01*
X126842068Y-98777773D01*
X126859410Y-98806707D01*
X126873834Y-98837203D01*
X126885198Y-98868965D01*
X126893395Y-98901688D01*
X126898345Y-98935057D01*
X126900000Y-98968750D01*
X126900000Y-99656250D01*
X126898345Y-99689943D01*
X126893395Y-99723312D01*
X126885198Y-99756035D01*
X126873834Y-99787797D01*
X126859410Y-99818293D01*
X126842068Y-99847227D01*
X126821972Y-99874323D01*
X126799318Y-99899318D01*
X126774323Y-99921972D01*
X126747227Y-99942068D01*
X126718293Y-99959410D01*
X126687797Y-99973834D01*
X126656035Y-99985198D01*
X126623312Y-99993395D01*
X126589943Y-99998345D01*
X126556250Y-100000000D01*
X125443750Y-100000000D01*
X125410057Y-99998345D01*
X125376688Y-99993395D01*
X125343965Y-99985198D01*
X125312203Y-99973834D01*
X125281707Y-99959410D01*
X125252773Y-99942068D01*
X125225677Y-99921972D01*
X125200682Y-99899318D01*
X125178028Y-99874323D01*
X125157932Y-99847227D01*
X125140590Y-99818293D01*
X125126166Y-99787797D01*
X125114802Y-99756035D01*
X125106605Y-99723312D01*
X125101655Y-99689943D01*
X125100000Y-99656250D01*
X125100000Y-98968750D01*
X125101655Y-98935057D01*
X125106605Y-98901688D01*
X125114802Y-98868965D01*
X125126166Y-98837203D01*
X125140590Y-98806707D01*
X125157932Y-98777773D01*
X125178028Y-98750677D01*
X125200682Y-98725682D01*
X125225677Y-98703028D01*
X125252773Y-98682932D01*
X125281707Y-98665590D01*
X125312203Y-98651166D01*
X125343965Y-98639802D01*
X125376688Y-98631605D01*
X125410057Y-98626655D01*
X125443750Y-98625000D01*
X126556250Y-98625000D01*
X126589943Y-98626655D01*
X126589943Y-98626655D01*
G37*
D12*
X126000000Y-99312500D03*
G04 #@! TD*
D11*
G04 #@! TO.C,R31*
G36*
X126589943Y-126501655D02*
X126623312Y-126506605D01*
X126656035Y-126514802D01*
X126687797Y-126526166D01*
X126718293Y-126540590D01*
X126747227Y-126557932D01*
X126774323Y-126578028D01*
X126799318Y-126600682D01*
X126821972Y-126625677D01*
X126842068Y-126652773D01*
X126859410Y-126681707D01*
X126873834Y-126712203D01*
X126885198Y-126743965D01*
X126893395Y-126776688D01*
X126898345Y-126810057D01*
X126900000Y-126843750D01*
X126900000Y-127531250D01*
X126898345Y-127564943D01*
X126893395Y-127598312D01*
X126885198Y-127631035D01*
X126873834Y-127662797D01*
X126859410Y-127693293D01*
X126842068Y-127722227D01*
X126821972Y-127749323D01*
X126799318Y-127774318D01*
X126774323Y-127796972D01*
X126747227Y-127817068D01*
X126718293Y-127834410D01*
X126687797Y-127848834D01*
X126656035Y-127860198D01*
X126623312Y-127868395D01*
X126589943Y-127873345D01*
X126556250Y-127875000D01*
X125443750Y-127875000D01*
X125410057Y-127873345D01*
X125376688Y-127868395D01*
X125343965Y-127860198D01*
X125312203Y-127848834D01*
X125281707Y-127834410D01*
X125252773Y-127817068D01*
X125225677Y-127796972D01*
X125200682Y-127774318D01*
X125178028Y-127749323D01*
X125157932Y-127722227D01*
X125140590Y-127693293D01*
X125126166Y-127662797D01*
X125114802Y-127631035D01*
X125106605Y-127598312D01*
X125101655Y-127564943D01*
X125100000Y-127531250D01*
X125100000Y-126843750D01*
X125101655Y-126810057D01*
X125106605Y-126776688D01*
X125114802Y-126743965D01*
X125126166Y-126712203D01*
X125140590Y-126681707D01*
X125157932Y-126652773D01*
X125178028Y-126625677D01*
X125200682Y-126600682D01*
X125225677Y-126578028D01*
X125252773Y-126557932D01*
X125281707Y-126540590D01*
X125312203Y-126526166D01*
X125343965Y-126514802D01*
X125376688Y-126506605D01*
X125410057Y-126501655D01*
X125443750Y-126500000D01*
X126556250Y-126500000D01*
X126589943Y-126501655D01*
X126589943Y-126501655D01*
G37*
D12*
X126000000Y-127187500D03*
D11*
G36*
X126589943Y-124626655D02*
X126623312Y-124631605D01*
X126656035Y-124639802D01*
X126687797Y-124651166D01*
X126718293Y-124665590D01*
X126747227Y-124682932D01*
X126774323Y-124703028D01*
X126799318Y-124725682D01*
X126821972Y-124750677D01*
X126842068Y-124777773D01*
X126859410Y-124806707D01*
X126873834Y-124837203D01*
X126885198Y-124868965D01*
X126893395Y-124901688D01*
X126898345Y-124935057D01*
X126900000Y-124968750D01*
X126900000Y-125656250D01*
X126898345Y-125689943D01*
X126893395Y-125723312D01*
X126885198Y-125756035D01*
X126873834Y-125787797D01*
X126859410Y-125818293D01*
X126842068Y-125847227D01*
X126821972Y-125874323D01*
X126799318Y-125899318D01*
X126774323Y-125921972D01*
X126747227Y-125942068D01*
X126718293Y-125959410D01*
X126687797Y-125973834D01*
X126656035Y-125985198D01*
X126623312Y-125993395D01*
X126589943Y-125998345D01*
X126556250Y-126000000D01*
X125443750Y-126000000D01*
X125410057Y-125998345D01*
X125376688Y-125993395D01*
X125343965Y-125985198D01*
X125312203Y-125973834D01*
X125281707Y-125959410D01*
X125252773Y-125942068D01*
X125225677Y-125921972D01*
X125200682Y-125899318D01*
X125178028Y-125874323D01*
X125157932Y-125847227D01*
X125140590Y-125818293D01*
X125126166Y-125787797D01*
X125114802Y-125756035D01*
X125106605Y-125723312D01*
X125101655Y-125689943D01*
X125100000Y-125656250D01*
X125100000Y-124968750D01*
X125101655Y-124935057D01*
X125106605Y-124901688D01*
X125114802Y-124868965D01*
X125126166Y-124837203D01*
X125140590Y-124806707D01*
X125157932Y-124777773D01*
X125178028Y-124750677D01*
X125200682Y-124725682D01*
X125225677Y-124703028D01*
X125252773Y-124682932D01*
X125281707Y-124665590D01*
X125312203Y-124651166D01*
X125343965Y-124639802D01*
X125376688Y-124631605D01*
X125410057Y-124626655D01*
X125443750Y-124625000D01*
X126556250Y-124625000D01*
X126589943Y-124626655D01*
X126589943Y-124626655D01*
G37*
D12*
X126000000Y-125312500D03*
G04 #@! TD*
D11*
G04 #@! TO.C,R37*
G36*
X126589943Y-77626655D02*
X126623312Y-77631605D01*
X126656035Y-77639802D01*
X126687797Y-77651166D01*
X126718293Y-77665590D01*
X126747227Y-77682932D01*
X126774323Y-77703028D01*
X126799318Y-77725682D01*
X126821972Y-77750677D01*
X126842068Y-77777773D01*
X126859410Y-77806707D01*
X126873834Y-77837203D01*
X126885198Y-77868965D01*
X126893395Y-77901688D01*
X126898345Y-77935057D01*
X126900000Y-77968750D01*
X126900000Y-78656250D01*
X126898345Y-78689943D01*
X126893395Y-78723312D01*
X126885198Y-78756035D01*
X126873834Y-78787797D01*
X126859410Y-78818293D01*
X126842068Y-78847227D01*
X126821972Y-78874323D01*
X126799318Y-78899318D01*
X126774323Y-78921972D01*
X126747227Y-78942068D01*
X126718293Y-78959410D01*
X126687797Y-78973834D01*
X126656035Y-78985198D01*
X126623312Y-78993395D01*
X126589943Y-78998345D01*
X126556250Y-79000000D01*
X125443750Y-79000000D01*
X125410057Y-78998345D01*
X125376688Y-78993395D01*
X125343965Y-78985198D01*
X125312203Y-78973834D01*
X125281707Y-78959410D01*
X125252773Y-78942068D01*
X125225677Y-78921972D01*
X125200682Y-78899318D01*
X125178028Y-78874323D01*
X125157932Y-78847227D01*
X125140590Y-78818293D01*
X125126166Y-78787797D01*
X125114802Y-78756035D01*
X125106605Y-78723312D01*
X125101655Y-78689943D01*
X125100000Y-78656250D01*
X125100000Y-77968750D01*
X125101655Y-77935057D01*
X125106605Y-77901688D01*
X125114802Y-77868965D01*
X125126166Y-77837203D01*
X125140590Y-77806707D01*
X125157932Y-77777773D01*
X125178028Y-77750677D01*
X125200682Y-77725682D01*
X125225677Y-77703028D01*
X125252773Y-77682932D01*
X125281707Y-77665590D01*
X125312203Y-77651166D01*
X125343965Y-77639802D01*
X125376688Y-77631605D01*
X125410057Y-77626655D01*
X125443750Y-77625000D01*
X126556250Y-77625000D01*
X126589943Y-77626655D01*
X126589943Y-77626655D01*
G37*
D12*
X126000000Y-78312500D03*
D11*
G36*
X126589943Y-79501655D02*
X126623312Y-79506605D01*
X126656035Y-79514802D01*
X126687797Y-79526166D01*
X126718293Y-79540590D01*
X126747227Y-79557932D01*
X126774323Y-79578028D01*
X126799318Y-79600682D01*
X126821972Y-79625677D01*
X126842068Y-79652773D01*
X126859410Y-79681707D01*
X126873834Y-79712203D01*
X126885198Y-79743965D01*
X126893395Y-79776688D01*
X126898345Y-79810057D01*
X126900000Y-79843750D01*
X126900000Y-80531250D01*
X126898345Y-80564943D01*
X126893395Y-80598312D01*
X126885198Y-80631035D01*
X126873834Y-80662797D01*
X126859410Y-80693293D01*
X126842068Y-80722227D01*
X126821972Y-80749323D01*
X126799318Y-80774318D01*
X126774323Y-80796972D01*
X126747227Y-80817068D01*
X126718293Y-80834410D01*
X126687797Y-80848834D01*
X126656035Y-80860198D01*
X126623312Y-80868395D01*
X126589943Y-80873345D01*
X126556250Y-80875000D01*
X125443750Y-80875000D01*
X125410057Y-80873345D01*
X125376688Y-80868395D01*
X125343965Y-80860198D01*
X125312203Y-80848834D01*
X125281707Y-80834410D01*
X125252773Y-80817068D01*
X125225677Y-80796972D01*
X125200682Y-80774318D01*
X125178028Y-80749323D01*
X125157932Y-80722227D01*
X125140590Y-80693293D01*
X125126166Y-80662797D01*
X125114802Y-80631035D01*
X125106605Y-80598312D01*
X125101655Y-80564943D01*
X125100000Y-80531250D01*
X125100000Y-79843750D01*
X125101655Y-79810057D01*
X125106605Y-79776688D01*
X125114802Y-79743965D01*
X125126166Y-79712203D01*
X125140590Y-79681707D01*
X125157932Y-79652773D01*
X125178028Y-79625677D01*
X125200682Y-79600682D01*
X125225677Y-79578028D01*
X125252773Y-79557932D01*
X125281707Y-79540590D01*
X125312203Y-79526166D01*
X125343965Y-79514802D01*
X125376688Y-79506605D01*
X125410057Y-79501655D01*
X125443750Y-79500000D01*
X126556250Y-79500000D01*
X126589943Y-79501655D01*
X126589943Y-79501655D01*
G37*
D12*
X126000000Y-80187500D03*
G04 #@! TD*
D11*
G04 #@! TO.C,R38*
G36*
X126589943Y-103626655D02*
X126623312Y-103631605D01*
X126656035Y-103639802D01*
X126687797Y-103651166D01*
X126718293Y-103665590D01*
X126747227Y-103682932D01*
X126774323Y-103703028D01*
X126799318Y-103725682D01*
X126821972Y-103750677D01*
X126842068Y-103777773D01*
X126859410Y-103806707D01*
X126873834Y-103837203D01*
X126885198Y-103868965D01*
X126893395Y-103901688D01*
X126898345Y-103935057D01*
X126900000Y-103968750D01*
X126900000Y-104656250D01*
X126898345Y-104689943D01*
X126893395Y-104723312D01*
X126885198Y-104756035D01*
X126873834Y-104787797D01*
X126859410Y-104818293D01*
X126842068Y-104847227D01*
X126821972Y-104874323D01*
X126799318Y-104899318D01*
X126774323Y-104921972D01*
X126747227Y-104942068D01*
X126718293Y-104959410D01*
X126687797Y-104973834D01*
X126656035Y-104985198D01*
X126623312Y-104993395D01*
X126589943Y-104998345D01*
X126556250Y-105000000D01*
X125443750Y-105000000D01*
X125410057Y-104998345D01*
X125376688Y-104993395D01*
X125343965Y-104985198D01*
X125312203Y-104973834D01*
X125281707Y-104959410D01*
X125252773Y-104942068D01*
X125225677Y-104921972D01*
X125200682Y-104899318D01*
X125178028Y-104874323D01*
X125157932Y-104847227D01*
X125140590Y-104818293D01*
X125126166Y-104787797D01*
X125114802Y-104756035D01*
X125106605Y-104723312D01*
X125101655Y-104689943D01*
X125100000Y-104656250D01*
X125100000Y-103968750D01*
X125101655Y-103935057D01*
X125106605Y-103901688D01*
X125114802Y-103868965D01*
X125126166Y-103837203D01*
X125140590Y-103806707D01*
X125157932Y-103777773D01*
X125178028Y-103750677D01*
X125200682Y-103725682D01*
X125225677Y-103703028D01*
X125252773Y-103682932D01*
X125281707Y-103665590D01*
X125312203Y-103651166D01*
X125343965Y-103639802D01*
X125376688Y-103631605D01*
X125410057Y-103626655D01*
X125443750Y-103625000D01*
X126556250Y-103625000D01*
X126589943Y-103626655D01*
X126589943Y-103626655D01*
G37*
D12*
X126000000Y-104312500D03*
D11*
G36*
X126589943Y-105501655D02*
X126623312Y-105506605D01*
X126656035Y-105514802D01*
X126687797Y-105526166D01*
X126718293Y-105540590D01*
X126747227Y-105557932D01*
X126774323Y-105578028D01*
X126799318Y-105600682D01*
X126821972Y-105625677D01*
X126842068Y-105652773D01*
X126859410Y-105681707D01*
X126873834Y-105712203D01*
X126885198Y-105743965D01*
X126893395Y-105776688D01*
X126898345Y-105810057D01*
X126900000Y-105843750D01*
X126900000Y-106531250D01*
X126898345Y-106564943D01*
X126893395Y-106598312D01*
X126885198Y-106631035D01*
X126873834Y-106662797D01*
X126859410Y-106693293D01*
X126842068Y-106722227D01*
X126821972Y-106749323D01*
X126799318Y-106774318D01*
X126774323Y-106796972D01*
X126747227Y-106817068D01*
X126718293Y-106834410D01*
X126687797Y-106848834D01*
X126656035Y-106860198D01*
X126623312Y-106868395D01*
X126589943Y-106873345D01*
X126556250Y-106875000D01*
X125443750Y-106875000D01*
X125410057Y-106873345D01*
X125376688Y-106868395D01*
X125343965Y-106860198D01*
X125312203Y-106848834D01*
X125281707Y-106834410D01*
X125252773Y-106817068D01*
X125225677Y-106796972D01*
X125200682Y-106774318D01*
X125178028Y-106749323D01*
X125157932Y-106722227D01*
X125140590Y-106693293D01*
X125126166Y-106662797D01*
X125114802Y-106631035D01*
X125106605Y-106598312D01*
X125101655Y-106564943D01*
X125100000Y-106531250D01*
X125100000Y-105843750D01*
X125101655Y-105810057D01*
X125106605Y-105776688D01*
X125114802Y-105743965D01*
X125126166Y-105712203D01*
X125140590Y-105681707D01*
X125157932Y-105652773D01*
X125178028Y-105625677D01*
X125200682Y-105600682D01*
X125225677Y-105578028D01*
X125252773Y-105557932D01*
X125281707Y-105540590D01*
X125312203Y-105526166D01*
X125343965Y-105514802D01*
X125376688Y-105506605D01*
X125410057Y-105501655D01*
X125443750Y-105500000D01*
X126556250Y-105500000D01*
X126589943Y-105501655D01*
X126589943Y-105501655D01*
G37*
D12*
X126000000Y-106187500D03*
G04 #@! TD*
D11*
G04 #@! TO.C,R39*
G36*
X126589943Y-129626655D02*
X126623312Y-129631605D01*
X126656035Y-129639802D01*
X126687797Y-129651166D01*
X126718293Y-129665590D01*
X126747227Y-129682932D01*
X126774323Y-129703028D01*
X126799318Y-129725682D01*
X126821972Y-129750677D01*
X126842068Y-129777773D01*
X126859410Y-129806707D01*
X126873834Y-129837203D01*
X126885198Y-129868965D01*
X126893395Y-129901688D01*
X126898345Y-129935057D01*
X126900000Y-129968750D01*
X126900000Y-130656250D01*
X126898345Y-130689943D01*
X126893395Y-130723312D01*
X126885198Y-130756035D01*
X126873834Y-130787797D01*
X126859410Y-130818293D01*
X126842068Y-130847227D01*
X126821972Y-130874323D01*
X126799318Y-130899318D01*
X126774323Y-130921972D01*
X126747227Y-130942068D01*
X126718293Y-130959410D01*
X126687797Y-130973834D01*
X126656035Y-130985198D01*
X126623312Y-130993395D01*
X126589943Y-130998345D01*
X126556250Y-131000000D01*
X125443750Y-131000000D01*
X125410057Y-130998345D01*
X125376688Y-130993395D01*
X125343965Y-130985198D01*
X125312203Y-130973834D01*
X125281707Y-130959410D01*
X125252773Y-130942068D01*
X125225677Y-130921972D01*
X125200682Y-130899318D01*
X125178028Y-130874323D01*
X125157932Y-130847227D01*
X125140590Y-130818293D01*
X125126166Y-130787797D01*
X125114802Y-130756035D01*
X125106605Y-130723312D01*
X125101655Y-130689943D01*
X125100000Y-130656250D01*
X125100000Y-129968750D01*
X125101655Y-129935057D01*
X125106605Y-129901688D01*
X125114802Y-129868965D01*
X125126166Y-129837203D01*
X125140590Y-129806707D01*
X125157932Y-129777773D01*
X125178028Y-129750677D01*
X125200682Y-129725682D01*
X125225677Y-129703028D01*
X125252773Y-129682932D01*
X125281707Y-129665590D01*
X125312203Y-129651166D01*
X125343965Y-129639802D01*
X125376688Y-129631605D01*
X125410057Y-129626655D01*
X125443750Y-129625000D01*
X126556250Y-129625000D01*
X126589943Y-129626655D01*
X126589943Y-129626655D01*
G37*
D12*
X126000000Y-130312500D03*
D11*
G36*
X126589943Y-131501655D02*
X126623312Y-131506605D01*
X126656035Y-131514802D01*
X126687797Y-131526166D01*
X126718293Y-131540590D01*
X126747227Y-131557932D01*
X126774323Y-131578028D01*
X126799318Y-131600682D01*
X126821972Y-131625677D01*
X126842068Y-131652773D01*
X126859410Y-131681707D01*
X126873834Y-131712203D01*
X126885198Y-131743965D01*
X126893395Y-131776688D01*
X126898345Y-131810057D01*
X126900000Y-131843750D01*
X126900000Y-132531250D01*
X126898345Y-132564943D01*
X126893395Y-132598312D01*
X126885198Y-132631035D01*
X126873834Y-132662797D01*
X126859410Y-132693293D01*
X126842068Y-132722227D01*
X126821972Y-132749323D01*
X126799318Y-132774318D01*
X126774323Y-132796972D01*
X126747227Y-132817068D01*
X126718293Y-132834410D01*
X126687797Y-132848834D01*
X126656035Y-132860198D01*
X126623312Y-132868395D01*
X126589943Y-132873345D01*
X126556250Y-132875000D01*
X125443750Y-132875000D01*
X125410057Y-132873345D01*
X125376688Y-132868395D01*
X125343965Y-132860198D01*
X125312203Y-132848834D01*
X125281707Y-132834410D01*
X125252773Y-132817068D01*
X125225677Y-132796972D01*
X125200682Y-132774318D01*
X125178028Y-132749323D01*
X125157932Y-132722227D01*
X125140590Y-132693293D01*
X125126166Y-132662797D01*
X125114802Y-132631035D01*
X125106605Y-132598312D01*
X125101655Y-132564943D01*
X125100000Y-132531250D01*
X125100000Y-131843750D01*
X125101655Y-131810057D01*
X125106605Y-131776688D01*
X125114802Y-131743965D01*
X125126166Y-131712203D01*
X125140590Y-131681707D01*
X125157932Y-131652773D01*
X125178028Y-131625677D01*
X125200682Y-131600682D01*
X125225677Y-131578028D01*
X125252773Y-131557932D01*
X125281707Y-131540590D01*
X125312203Y-131526166D01*
X125343965Y-131514802D01*
X125376688Y-131506605D01*
X125410057Y-131501655D01*
X125443750Y-131500000D01*
X126556250Y-131500000D01*
X126589943Y-131501655D01*
X126589943Y-131501655D01*
G37*
D12*
X126000000Y-132187500D03*
G04 #@! TD*
D11*
G04 #@! TO.C,R45*
G36*
X100589943Y-72626655D02*
X100623312Y-72631605D01*
X100656035Y-72639802D01*
X100687797Y-72651166D01*
X100718293Y-72665590D01*
X100747227Y-72682932D01*
X100774323Y-72703028D01*
X100799318Y-72725682D01*
X100821972Y-72750677D01*
X100842068Y-72777773D01*
X100859410Y-72806707D01*
X100873834Y-72837203D01*
X100885198Y-72868965D01*
X100893395Y-72901688D01*
X100898345Y-72935057D01*
X100900000Y-72968750D01*
X100900000Y-73656250D01*
X100898345Y-73689943D01*
X100893395Y-73723312D01*
X100885198Y-73756035D01*
X100873834Y-73787797D01*
X100859410Y-73818293D01*
X100842068Y-73847227D01*
X100821972Y-73874323D01*
X100799318Y-73899318D01*
X100774323Y-73921972D01*
X100747227Y-73942068D01*
X100718293Y-73959410D01*
X100687797Y-73973834D01*
X100656035Y-73985198D01*
X100623312Y-73993395D01*
X100589943Y-73998345D01*
X100556250Y-74000000D01*
X99443750Y-74000000D01*
X99410057Y-73998345D01*
X99376688Y-73993395D01*
X99343965Y-73985198D01*
X99312203Y-73973834D01*
X99281707Y-73959410D01*
X99252773Y-73942068D01*
X99225677Y-73921972D01*
X99200682Y-73899318D01*
X99178028Y-73874323D01*
X99157932Y-73847227D01*
X99140590Y-73818293D01*
X99126166Y-73787797D01*
X99114802Y-73756035D01*
X99106605Y-73723312D01*
X99101655Y-73689943D01*
X99100000Y-73656250D01*
X99100000Y-72968750D01*
X99101655Y-72935057D01*
X99106605Y-72901688D01*
X99114802Y-72868965D01*
X99126166Y-72837203D01*
X99140590Y-72806707D01*
X99157932Y-72777773D01*
X99178028Y-72750677D01*
X99200682Y-72725682D01*
X99225677Y-72703028D01*
X99252773Y-72682932D01*
X99281707Y-72665590D01*
X99312203Y-72651166D01*
X99343965Y-72639802D01*
X99376688Y-72631605D01*
X99410057Y-72626655D01*
X99443750Y-72625000D01*
X100556250Y-72625000D01*
X100589943Y-72626655D01*
X100589943Y-72626655D01*
G37*
D12*
X100000000Y-73312500D03*
D11*
G36*
X100589943Y-74501655D02*
X100623312Y-74506605D01*
X100656035Y-74514802D01*
X100687797Y-74526166D01*
X100718293Y-74540590D01*
X100747227Y-74557932D01*
X100774323Y-74578028D01*
X100799318Y-74600682D01*
X100821972Y-74625677D01*
X100842068Y-74652773D01*
X100859410Y-74681707D01*
X100873834Y-74712203D01*
X100885198Y-74743965D01*
X100893395Y-74776688D01*
X100898345Y-74810057D01*
X100900000Y-74843750D01*
X100900000Y-75531250D01*
X100898345Y-75564943D01*
X100893395Y-75598312D01*
X100885198Y-75631035D01*
X100873834Y-75662797D01*
X100859410Y-75693293D01*
X100842068Y-75722227D01*
X100821972Y-75749323D01*
X100799318Y-75774318D01*
X100774323Y-75796972D01*
X100747227Y-75817068D01*
X100718293Y-75834410D01*
X100687797Y-75848834D01*
X100656035Y-75860198D01*
X100623312Y-75868395D01*
X100589943Y-75873345D01*
X100556250Y-75875000D01*
X99443750Y-75875000D01*
X99410057Y-75873345D01*
X99376688Y-75868395D01*
X99343965Y-75860198D01*
X99312203Y-75848834D01*
X99281707Y-75834410D01*
X99252773Y-75817068D01*
X99225677Y-75796972D01*
X99200682Y-75774318D01*
X99178028Y-75749323D01*
X99157932Y-75722227D01*
X99140590Y-75693293D01*
X99126166Y-75662797D01*
X99114802Y-75631035D01*
X99106605Y-75598312D01*
X99101655Y-75564943D01*
X99100000Y-75531250D01*
X99100000Y-74843750D01*
X99101655Y-74810057D01*
X99106605Y-74776688D01*
X99114802Y-74743965D01*
X99126166Y-74712203D01*
X99140590Y-74681707D01*
X99157932Y-74652773D01*
X99178028Y-74625677D01*
X99200682Y-74600682D01*
X99225677Y-74578028D01*
X99252773Y-74557932D01*
X99281707Y-74540590D01*
X99312203Y-74526166D01*
X99343965Y-74514802D01*
X99376688Y-74506605D01*
X99410057Y-74501655D01*
X99443750Y-74500000D01*
X100556250Y-74500000D01*
X100589943Y-74501655D01*
X100589943Y-74501655D01*
G37*
D12*
X100000000Y-75187500D03*
G04 #@! TD*
D11*
G04 #@! TO.C,R46*
G36*
X100589943Y-98626655D02*
X100623312Y-98631605D01*
X100656035Y-98639802D01*
X100687797Y-98651166D01*
X100718293Y-98665590D01*
X100747227Y-98682932D01*
X100774323Y-98703028D01*
X100799318Y-98725682D01*
X100821972Y-98750677D01*
X100842068Y-98777773D01*
X100859410Y-98806707D01*
X100873834Y-98837203D01*
X100885198Y-98868965D01*
X100893395Y-98901688D01*
X100898345Y-98935057D01*
X100900000Y-98968750D01*
X100900000Y-99656250D01*
X100898345Y-99689943D01*
X100893395Y-99723312D01*
X100885198Y-99756035D01*
X100873834Y-99787797D01*
X100859410Y-99818293D01*
X100842068Y-99847227D01*
X100821972Y-99874323D01*
X100799318Y-99899318D01*
X100774323Y-99921972D01*
X100747227Y-99942068D01*
X100718293Y-99959410D01*
X100687797Y-99973834D01*
X100656035Y-99985198D01*
X100623312Y-99993395D01*
X100589943Y-99998345D01*
X100556250Y-100000000D01*
X99443750Y-100000000D01*
X99410057Y-99998345D01*
X99376688Y-99993395D01*
X99343965Y-99985198D01*
X99312203Y-99973834D01*
X99281707Y-99959410D01*
X99252773Y-99942068D01*
X99225677Y-99921972D01*
X99200682Y-99899318D01*
X99178028Y-99874323D01*
X99157932Y-99847227D01*
X99140590Y-99818293D01*
X99126166Y-99787797D01*
X99114802Y-99756035D01*
X99106605Y-99723312D01*
X99101655Y-99689943D01*
X99100000Y-99656250D01*
X99100000Y-98968750D01*
X99101655Y-98935057D01*
X99106605Y-98901688D01*
X99114802Y-98868965D01*
X99126166Y-98837203D01*
X99140590Y-98806707D01*
X99157932Y-98777773D01*
X99178028Y-98750677D01*
X99200682Y-98725682D01*
X99225677Y-98703028D01*
X99252773Y-98682932D01*
X99281707Y-98665590D01*
X99312203Y-98651166D01*
X99343965Y-98639802D01*
X99376688Y-98631605D01*
X99410057Y-98626655D01*
X99443750Y-98625000D01*
X100556250Y-98625000D01*
X100589943Y-98626655D01*
X100589943Y-98626655D01*
G37*
D12*
X100000000Y-99312500D03*
D11*
G36*
X100589943Y-100501655D02*
X100623312Y-100506605D01*
X100656035Y-100514802D01*
X100687797Y-100526166D01*
X100718293Y-100540590D01*
X100747227Y-100557932D01*
X100774323Y-100578028D01*
X100799318Y-100600682D01*
X100821972Y-100625677D01*
X100842068Y-100652773D01*
X100859410Y-100681707D01*
X100873834Y-100712203D01*
X100885198Y-100743965D01*
X100893395Y-100776688D01*
X100898345Y-100810057D01*
X100900000Y-100843750D01*
X100900000Y-101531250D01*
X100898345Y-101564943D01*
X100893395Y-101598312D01*
X100885198Y-101631035D01*
X100873834Y-101662797D01*
X100859410Y-101693293D01*
X100842068Y-101722227D01*
X100821972Y-101749323D01*
X100799318Y-101774318D01*
X100774323Y-101796972D01*
X100747227Y-101817068D01*
X100718293Y-101834410D01*
X100687797Y-101848834D01*
X100656035Y-101860198D01*
X100623312Y-101868395D01*
X100589943Y-101873345D01*
X100556250Y-101875000D01*
X99443750Y-101875000D01*
X99410057Y-101873345D01*
X99376688Y-101868395D01*
X99343965Y-101860198D01*
X99312203Y-101848834D01*
X99281707Y-101834410D01*
X99252773Y-101817068D01*
X99225677Y-101796972D01*
X99200682Y-101774318D01*
X99178028Y-101749323D01*
X99157932Y-101722227D01*
X99140590Y-101693293D01*
X99126166Y-101662797D01*
X99114802Y-101631035D01*
X99106605Y-101598312D01*
X99101655Y-101564943D01*
X99100000Y-101531250D01*
X99100000Y-100843750D01*
X99101655Y-100810057D01*
X99106605Y-100776688D01*
X99114802Y-100743965D01*
X99126166Y-100712203D01*
X99140590Y-100681707D01*
X99157932Y-100652773D01*
X99178028Y-100625677D01*
X99200682Y-100600682D01*
X99225677Y-100578028D01*
X99252773Y-100557932D01*
X99281707Y-100540590D01*
X99312203Y-100526166D01*
X99343965Y-100514802D01*
X99376688Y-100506605D01*
X99410057Y-100501655D01*
X99443750Y-100500000D01*
X100556250Y-100500000D01*
X100589943Y-100501655D01*
X100589943Y-100501655D01*
G37*
D12*
X100000000Y-101187500D03*
G04 #@! TD*
D11*
G04 #@! TO.C,R47*
G36*
X100589943Y-124626655D02*
X100623312Y-124631605D01*
X100656035Y-124639802D01*
X100687797Y-124651166D01*
X100718293Y-124665590D01*
X100747227Y-124682932D01*
X100774323Y-124703028D01*
X100799318Y-124725682D01*
X100821972Y-124750677D01*
X100842068Y-124777773D01*
X100859410Y-124806707D01*
X100873834Y-124837203D01*
X100885198Y-124868965D01*
X100893395Y-124901688D01*
X100898345Y-124935057D01*
X100900000Y-124968750D01*
X100900000Y-125656250D01*
X100898345Y-125689943D01*
X100893395Y-125723312D01*
X100885198Y-125756035D01*
X100873834Y-125787797D01*
X100859410Y-125818293D01*
X100842068Y-125847227D01*
X100821972Y-125874323D01*
X100799318Y-125899318D01*
X100774323Y-125921972D01*
X100747227Y-125942068D01*
X100718293Y-125959410D01*
X100687797Y-125973834D01*
X100656035Y-125985198D01*
X100623312Y-125993395D01*
X100589943Y-125998345D01*
X100556250Y-126000000D01*
X99443750Y-126000000D01*
X99410057Y-125998345D01*
X99376688Y-125993395D01*
X99343965Y-125985198D01*
X99312203Y-125973834D01*
X99281707Y-125959410D01*
X99252773Y-125942068D01*
X99225677Y-125921972D01*
X99200682Y-125899318D01*
X99178028Y-125874323D01*
X99157932Y-125847227D01*
X99140590Y-125818293D01*
X99126166Y-125787797D01*
X99114802Y-125756035D01*
X99106605Y-125723312D01*
X99101655Y-125689943D01*
X99100000Y-125656250D01*
X99100000Y-124968750D01*
X99101655Y-124935057D01*
X99106605Y-124901688D01*
X99114802Y-124868965D01*
X99126166Y-124837203D01*
X99140590Y-124806707D01*
X99157932Y-124777773D01*
X99178028Y-124750677D01*
X99200682Y-124725682D01*
X99225677Y-124703028D01*
X99252773Y-124682932D01*
X99281707Y-124665590D01*
X99312203Y-124651166D01*
X99343965Y-124639802D01*
X99376688Y-124631605D01*
X99410057Y-124626655D01*
X99443750Y-124625000D01*
X100556250Y-124625000D01*
X100589943Y-124626655D01*
X100589943Y-124626655D01*
G37*
D12*
X100000000Y-125312500D03*
D11*
G36*
X100589943Y-126501655D02*
X100623312Y-126506605D01*
X100656035Y-126514802D01*
X100687797Y-126526166D01*
X100718293Y-126540590D01*
X100747227Y-126557932D01*
X100774323Y-126578028D01*
X100799318Y-126600682D01*
X100821972Y-126625677D01*
X100842068Y-126652773D01*
X100859410Y-126681707D01*
X100873834Y-126712203D01*
X100885198Y-126743965D01*
X100893395Y-126776688D01*
X100898345Y-126810057D01*
X100900000Y-126843750D01*
X100900000Y-127531250D01*
X100898345Y-127564943D01*
X100893395Y-127598312D01*
X100885198Y-127631035D01*
X100873834Y-127662797D01*
X100859410Y-127693293D01*
X100842068Y-127722227D01*
X100821972Y-127749323D01*
X100799318Y-127774318D01*
X100774323Y-127796972D01*
X100747227Y-127817068D01*
X100718293Y-127834410D01*
X100687797Y-127848834D01*
X100656035Y-127860198D01*
X100623312Y-127868395D01*
X100589943Y-127873345D01*
X100556250Y-127875000D01*
X99443750Y-127875000D01*
X99410057Y-127873345D01*
X99376688Y-127868395D01*
X99343965Y-127860198D01*
X99312203Y-127848834D01*
X99281707Y-127834410D01*
X99252773Y-127817068D01*
X99225677Y-127796972D01*
X99200682Y-127774318D01*
X99178028Y-127749323D01*
X99157932Y-127722227D01*
X99140590Y-127693293D01*
X99126166Y-127662797D01*
X99114802Y-127631035D01*
X99106605Y-127598312D01*
X99101655Y-127564943D01*
X99100000Y-127531250D01*
X99100000Y-126843750D01*
X99101655Y-126810057D01*
X99106605Y-126776688D01*
X99114802Y-126743965D01*
X99126166Y-126712203D01*
X99140590Y-126681707D01*
X99157932Y-126652773D01*
X99178028Y-126625677D01*
X99200682Y-126600682D01*
X99225677Y-126578028D01*
X99252773Y-126557932D01*
X99281707Y-126540590D01*
X99312203Y-126526166D01*
X99343965Y-126514802D01*
X99376688Y-126506605D01*
X99410057Y-126501655D01*
X99443750Y-126500000D01*
X100556250Y-126500000D01*
X100589943Y-126501655D01*
X100589943Y-126501655D01*
G37*
D12*
X100000000Y-127187500D03*
G04 #@! TD*
D11*
G04 #@! TO.C,R53*
G36*
X100589943Y-79501655D02*
X100623312Y-79506605D01*
X100656035Y-79514802D01*
X100687797Y-79526166D01*
X100718293Y-79540590D01*
X100747227Y-79557932D01*
X100774323Y-79578028D01*
X100799318Y-79600682D01*
X100821972Y-79625677D01*
X100842068Y-79652773D01*
X100859410Y-79681707D01*
X100873834Y-79712203D01*
X100885198Y-79743965D01*
X100893395Y-79776688D01*
X100898345Y-79810057D01*
X100900000Y-79843750D01*
X100900000Y-80531250D01*
X100898345Y-80564943D01*
X100893395Y-80598312D01*
X100885198Y-80631035D01*
X100873834Y-80662797D01*
X100859410Y-80693293D01*
X100842068Y-80722227D01*
X100821972Y-80749323D01*
X100799318Y-80774318D01*
X100774323Y-80796972D01*
X100747227Y-80817068D01*
X100718293Y-80834410D01*
X100687797Y-80848834D01*
X100656035Y-80860198D01*
X100623312Y-80868395D01*
X100589943Y-80873345D01*
X100556250Y-80875000D01*
X99443750Y-80875000D01*
X99410057Y-80873345D01*
X99376688Y-80868395D01*
X99343965Y-80860198D01*
X99312203Y-80848834D01*
X99281707Y-80834410D01*
X99252773Y-80817068D01*
X99225677Y-80796972D01*
X99200682Y-80774318D01*
X99178028Y-80749323D01*
X99157932Y-80722227D01*
X99140590Y-80693293D01*
X99126166Y-80662797D01*
X99114802Y-80631035D01*
X99106605Y-80598312D01*
X99101655Y-80564943D01*
X99100000Y-80531250D01*
X99100000Y-79843750D01*
X99101655Y-79810057D01*
X99106605Y-79776688D01*
X99114802Y-79743965D01*
X99126166Y-79712203D01*
X99140590Y-79681707D01*
X99157932Y-79652773D01*
X99178028Y-79625677D01*
X99200682Y-79600682D01*
X99225677Y-79578028D01*
X99252773Y-79557932D01*
X99281707Y-79540590D01*
X99312203Y-79526166D01*
X99343965Y-79514802D01*
X99376688Y-79506605D01*
X99410057Y-79501655D01*
X99443750Y-79500000D01*
X100556250Y-79500000D01*
X100589943Y-79501655D01*
X100589943Y-79501655D01*
G37*
D12*
X100000000Y-80187500D03*
D11*
G36*
X100589943Y-77626655D02*
X100623312Y-77631605D01*
X100656035Y-77639802D01*
X100687797Y-77651166D01*
X100718293Y-77665590D01*
X100747227Y-77682932D01*
X100774323Y-77703028D01*
X100799318Y-77725682D01*
X100821972Y-77750677D01*
X100842068Y-77777773D01*
X100859410Y-77806707D01*
X100873834Y-77837203D01*
X100885198Y-77868965D01*
X100893395Y-77901688D01*
X100898345Y-77935057D01*
X100900000Y-77968750D01*
X100900000Y-78656250D01*
X100898345Y-78689943D01*
X100893395Y-78723312D01*
X100885198Y-78756035D01*
X100873834Y-78787797D01*
X100859410Y-78818293D01*
X100842068Y-78847227D01*
X100821972Y-78874323D01*
X100799318Y-78899318D01*
X100774323Y-78921972D01*
X100747227Y-78942068D01*
X100718293Y-78959410D01*
X100687797Y-78973834D01*
X100656035Y-78985198D01*
X100623312Y-78993395D01*
X100589943Y-78998345D01*
X100556250Y-79000000D01*
X99443750Y-79000000D01*
X99410057Y-78998345D01*
X99376688Y-78993395D01*
X99343965Y-78985198D01*
X99312203Y-78973834D01*
X99281707Y-78959410D01*
X99252773Y-78942068D01*
X99225677Y-78921972D01*
X99200682Y-78899318D01*
X99178028Y-78874323D01*
X99157932Y-78847227D01*
X99140590Y-78818293D01*
X99126166Y-78787797D01*
X99114802Y-78756035D01*
X99106605Y-78723312D01*
X99101655Y-78689943D01*
X99100000Y-78656250D01*
X99100000Y-77968750D01*
X99101655Y-77935057D01*
X99106605Y-77901688D01*
X99114802Y-77868965D01*
X99126166Y-77837203D01*
X99140590Y-77806707D01*
X99157932Y-77777773D01*
X99178028Y-77750677D01*
X99200682Y-77725682D01*
X99225677Y-77703028D01*
X99252773Y-77682932D01*
X99281707Y-77665590D01*
X99312203Y-77651166D01*
X99343965Y-77639802D01*
X99376688Y-77631605D01*
X99410057Y-77626655D01*
X99443750Y-77625000D01*
X100556250Y-77625000D01*
X100589943Y-77626655D01*
X100589943Y-77626655D01*
G37*
D12*
X100000000Y-78312500D03*
G04 #@! TD*
D11*
G04 #@! TO.C,R54*
G36*
X100589943Y-105501655D02*
X100623312Y-105506605D01*
X100656035Y-105514802D01*
X100687797Y-105526166D01*
X100718293Y-105540590D01*
X100747227Y-105557932D01*
X100774323Y-105578028D01*
X100799318Y-105600682D01*
X100821972Y-105625677D01*
X100842068Y-105652773D01*
X100859410Y-105681707D01*
X100873834Y-105712203D01*
X100885198Y-105743965D01*
X100893395Y-105776688D01*
X100898345Y-105810057D01*
X100900000Y-105843750D01*
X100900000Y-106531250D01*
X100898345Y-106564943D01*
X100893395Y-106598312D01*
X100885198Y-106631035D01*
X100873834Y-106662797D01*
X100859410Y-106693293D01*
X100842068Y-106722227D01*
X100821972Y-106749323D01*
X100799318Y-106774318D01*
X100774323Y-106796972D01*
X100747227Y-106817068D01*
X100718293Y-106834410D01*
X100687797Y-106848834D01*
X100656035Y-106860198D01*
X100623312Y-106868395D01*
X100589943Y-106873345D01*
X100556250Y-106875000D01*
X99443750Y-106875000D01*
X99410057Y-106873345D01*
X99376688Y-106868395D01*
X99343965Y-106860198D01*
X99312203Y-106848834D01*
X99281707Y-106834410D01*
X99252773Y-106817068D01*
X99225677Y-106796972D01*
X99200682Y-106774318D01*
X99178028Y-106749323D01*
X99157932Y-106722227D01*
X99140590Y-106693293D01*
X99126166Y-106662797D01*
X99114802Y-106631035D01*
X99106605Y-106598312D01*
X99101655Y-106564943D01*
X99100000Y-106531250D01*
X99100000Y-105843750D01*
X99101655Y-105810057D01*
X99106605Y-105776688D01*
X99114802Y-105743965D01*
X99126166Y-105712203D01*
X99140590Y-105681707D01*
X99157932Y-105652773D01*
X99178028Y-105625677D01*
X99200682Y-105600682D01*
X99225677Y-105578028D01*
X99252773Y-105557932D01*
X99281707Y-105540590D01*
X99312203Y-105526166D01*
X99343965Y-105514802D01*
X99376688Y-105506605D01*
X99410057Y-105501655D01*
X99443750Y-105500000D01*
X100556250Y-105500000D01*
X100589943Y-105501655D01*
X100589943Y-105501655D01*
G37*
D12*
X100000000Y-106187500D03*
D11*
G36*
X100589943Y-103626655D02*
X100623312Y-103631605D01*
X100656035Y-103639802D01*
X100687797Y-103651166D01*
X100718293Y-103665590D01*
X100747227Y-103682932D01*
X100774323Y-103703028D01*
X100799318Y-103725682D01*
X100821972Y-103750677D01*
X100842068Y-103777773D01*
X100859410Y-103806707D01*
X100873834Y-103837203D01*
X100885198Y-103868965D01*
X100893395Y-103901688D01*
X100898345Y-103935057D01*
X100900000Y-103968750D01*
X100900000Y-104656250D01*
X100898345Y-104689943D01*
X100893395Y-104723312D01*
X100885198Y-104756035D01*
X100873834Y-104787797D01*
X100859410Y-104818293D01*
X100842068Y-104847227D01*
X100821972Y-104874323D01*
X100799318Y-104899318D01*
X100774323Y-104921972D01*
X100747227Y-104942068D01*
X100718293Y-104959410D01*
X100687797Y-104973834D01*
X100656035Y-104985198D01*
X100623312Y-104993395D01*
X100589943Y-104998345D01*
X100556250Y-105000000D01*
X99443750Y-105000000D01*
X99410057Y-104998345D01*
X99376688Y-104993395D01*
X99343965Y-104985198D01*
X99312203Y-104973834D01*
X99281707Y-104959410D01*
X99252773Y-104942068D01*
X99225677Y-104921972D01*
X99200682Y-104899318D01*
X99178028Y-104874323D01*
X99157932Y-104847227D01*
X99140590Y-104818293D01*
X99126166Y-104787797D01*
X99114802Y-104756035D01*
X99106605Y-104723312D01*
X99101655Y-104689943D01*
X99100000Y-104656250D01*
X99100000Y-103968750D01*
X99101655Y-103935057D01*
X99106605Y-103901688D01*
X99114802Y-103868965D01*
X99126166Y-103837203D01*
X99140590Y-103806707D01*
X99157932Y-103777773D01*
X99178028Y-103750677D01*
X99200682Y-103725682D01*
X99225677Y-103703028D01*
X99252773Y-103682932D01*
X99281707Y-103665590D01*
X99312203Y-103651166D01*
X99343965Y-103639802D01*
X99376688Y-103631605D01*
X99410057Y-103626655D01*
X99443750Y-103625000D01*
X100556250Y-103625000D01*
X100589943Y-103626655D01*
X100589943Y-103626655D01*
G37*
D12*
X100000000Y-104312500D03*
G04 #@! TD*
D11*
G04 #@! TO.C,R55*
G36*
X100589943Y-131501655D02*
X100623312Y-131506605D01*
X100656035Y-131514802D01*
X100687797Y-131526166D01*
X100718293Y-131540590D01*
X100747227Y-131557932D01*
X100774323Y-131578028D01*
X100799318Y-131600682D01*
X100821972Y-131625677D01*
X100842068Y-131652773D01*
X100859410Y-131681707D01*
X100873834Y-131712203D01*
X100885198Y-131743965D01*
X100893395Y-131776688D01*
X100898345Y-131810057D01*
X100900000Y-131843750D01*
X100900000Y-132531250D01*
X100898345Y-132564943D01*
X100893395Y-132598312D01*
X100885198Y-132631035D01*
X100873834Y-132662797D01*
X100859410Y-132693293D01*
X100842068Y-132722227D01*
X100821972Y-132749323D01*
X100799318Y-132774318D01*
X100774323Y-132796972D01*
X100747227Y-132817068D01*
X100718293Y-132834410D01*
X100687797Y-132848834D01*
X100656035Y-132860198D01*
X100623312Y-132868395D01*
X100589943Y-132873345D01*
X100556250Y-132875000D01*
X99443750Y-132875000D01*
X99410057Y-132873345D01*
X99376688Y-132868395D01*
X99343965Y-132860198D01*
X99312203Y-132848834D01*
X99281707Y-132834410D01*
X99252773Y-132817068D01*
X99225677Y-132796972D01*
X99200682Y-132774318D01*
X99178028Y-132749323D01*
X99157932Y-132722227D01*
X99140590Y-132693293D01*
X99126166Y-132662797D01*
X99114802Y-132631035D01*
X99106605Y-132598312D01*
X99101655Y-132564943D01*
X99100000Y-132531250D01*
X99100000Y-131843750D01*
X99101655Y-131810057D01*
X99106605Y-131776688D01*
X99114802Y-131743965D01*
X99126166Y-131712203D01*
X99140590Y-131681707D01*
X99157932Y-131652773D01*
X99178028Y-131625677D01*
X99200682Y-131600682D01*
X99225677Y-131578028D01*
X99252773Y-131557932D01*
X99281707Y-131540590D01*
X99312203Y-131526166D01*
X99343965Y-131514802D01*
X99376688Y-131506605D01*
X99410057Y-131501655D01*
X99443750Y-131500000D01*
X100556250Y-131500000D01*
X100589943Y-131501655D01*
X100589943Y-131501655D01*
G37*
D12*
X100000000Y-132187500D03*
D11*
G36*
X100589943Y-129626655D02*
X100623312Y-129631605D01*
X100656035Y-129639802D01*
X100687797Y-129651166D01*
X100718293Y-129665590D01*
X100747227Y-129682932D01*
X100774323Y-129703028D01*
X100799318Y-129725682D01*
X100821972Y-129750677D01*
X100842068Y-129777773D01*
X100859410Y-129806707D01*
X100873834Y-129837203D01*
X100885198Y-129868965D01*
X100893395Y-129901688D01*
X100898345Y-129935057D01*
X100900000Y-129968750D01*
X100900000Y-130656250D01*
X100898345Y-130689943D01*
X100893395Y-130723312D01*
X100885198Y-130756035D01*
X100873834Y-130787797D01*
X100859410Y-130818293D01*
X100842068Y-130847227D01*
X100821972Y-130874323D01*
X100799318Y-130899318D01*
X100774323Y-130921972D01*
X100747227Y-130942068D01*
X100718293Y-130959410D01*
X100687797Y-130973834D01*
X100656035Y-130985198D01*
X100623312Y-130993395D01*
X100589943Y-130998345D01*
X100556250Y-131000000D01*
X99443750Y-131000000D01*
X99410057Y-130998345D01*
X99376688Y-130993395D01*
X99343965Y-130985198D01*
X99312203Y-130973834D01*
X99281707Y-130959410D01*
X99252773Y-130942068D01*
X99225677Y-130921972D01*
X99200682Y-130899318D01*
X99178028Y-130874323D01*
X99157932Y-130847227D01*
X99140590Y-130818293D01*
X99126166Y-130787797D01*
X99114802Y-130756035D01*
X99106605Y-130723312D01*
X99101655Y-130689943D01*
X99100000Y-130656250D01*
X99100000Y-129968750D01*
X99101655Y-129935057D01*
X99106605Y-129901688D01*
X99114802Y-129868965D01*
X99126166Y-129837203D01*
X99140590Y-129806707D01*
X99157932Y-129777773D01*
X99178028Y-129750677D01*
X99200682Y-129725682D01*
X99225677Y-129703028D01*
X99252773Y-129682932D01*
X99281707Y-129665590D01*
X99312203Y-129651166D01*
X99343965Y-129639802D01*
X99376688Y-129631605D01*
X99410057Y-129626655D01*
X99443750Y-129625000D01*
X100556250Y-129625000D01*
X100589943Y-129626655D01*
X100589943Y-129626655D01*
G37*
D12*
X100000000Y-130312500D03*
G04 #@! TD*
D14*
G04 #@! TO.C,RV1*
X101750000Y-68080000D03*
X101750000Y-65540000D03*
X101750000Y-63000000D03*
G04 #@! TD*
G04 #@! TO.C,RV2*
X101750000Y-94080000D03*
X101750000Y-91540000D03*
X101750000Y-89000000D03*
G04 #@! TD*
G04 #@! TO.C,RV3*
X101750000Y-115000000D03*
X101750000Y-117540000D03*
X101750000Y-120080000D03*
G04 #@! TD*
G04 #@! TO.C,RV5*
X124250000Y-74250000D03*
X124250000Y-76790000D03*
X124250000Y-79330000D03*
G04 #@! TD*
G04 #@! TO.C,RV6*
X124250000Y-100250000D03*
X124250000Y-102790000D03*
X124250000Y-105330000D03*
G04 #@! TD*
G04 #@! TO.C,RV7*
X124250000Y-126250000D03*
X124250000Y-128790000D03*
X124250000Y-131330000D03*
G04 #@! TD*
G04 #@! TO.C,RV9*
X101750000Y-74250000D03*
X101750000Y-76790000D03*
X101750000Y-79330000D03*
G04 #@! TD*
G04 #@! TO.C,RV10*
X101750000Y-105330000D03*
X101750000Y-102790000D03*
X101750000Y-100250000D03*
G04 #@! TD*
G04 #@! TO.C,RV11*
X101750000Y-131330000D03*
X101750000Y-128790000D03*
X101750000Y-126250000D03*
G04 #@! TD*
D15*
G04 #@! TO.C,U1*
X118750000Y-69750000D03*
X118750000Y-61250000D03*
X118750000Y-58250000D03*
G04 #@! TD*
D11*
G04 #@! TO.C,C18*
G36*
X113589943Y-72439155D02*
X113623312Y-72444105D01*
X113656035Y-72452302D01*
X113687797Y-72463666D01*
X113718293Y-72478090D01*
X113747227Y-72495432D01*
X113774323Y-72515528D01*
X113799318Y-72538182D01*
X113821972Y-72563177D01*
X113842068Y-72590273D01*
X113859410Y-72619207D01*
X113873834Y-72649703D01*
X113885198Y-72681465D01*
X113893395Y-72714188D01*
X113898345Y-72747557D01*
X113900000Y-72781250D01*
X113900000Y-73468750D01*
X113898345Y-73502443D01*
X113893395Y-73535812D01*
X113885198Y-73568535D01*
X113873834Y-73600297D01*
X113859410Y-73630793D01*
X113842068Y-73659727D01*
X113821972Y-73686823D01*
X113799318Y-73711818D01*
X113774323Y-73734472D01*
X113747227Y-73754568D01*
X113718293Y-73771910D01*
X113687797Y-73786334D01*
X113656035Y-73797698D01*
X113623312Y-73805895D01*
X113589943Y-73810845D01*
X113556250Y-73812500D01*
X112443750Y-73812500D01*
X112410057Y-73810845D01*
X112376688Y-73805895D01*
X112343965Y-73797698D01*
X112312203Y-73786334D01*
X112281707Y-73771910D01*
X112252773Y-73754568D01*
X112225677Y-73734472D01*
X112200682Y-73711818D01*
X112178028Y-73686823D01*
X112157932Y-73659727D01*
X112140590Y-73630793D01*
X112126166Y-73600297D01*
X112114802Y-73568535D01*
X112106605Y-73535812D01*
X112101655Y-73502443D01*
X112100000Y-73468750D01*
X112100000Y-72781250D01*
X112101655Y-72747557D01*
X112106605Y-72714188D01*
X112114802Y-72681465D01*
X112126166Y-72649703D01*
X112140590Y-72619207D01*
X112157932Y-72590273D01*
X112178028Y-72563177D01*
X112200682Y-72538182D01*
X112225677Y-72515528D01*
X112252773Y-72495432D01*
X112281707Y-72478090D01*
X112312203Y-72463666D01*
X112343965Y-72452302D01*
X112376688Y-72444105D01*
X112410057Y-72439155D01*
X112443750Y-72437500D01*
X113556250Y-72437500D01*
X113589943Y-72439155D01*
X113589943Y-72439155D01*
G37*
D12*
X113000000Y-73125000D03*
D11*
G36*
X113589943Y-74314155D02*
X113623312Y-74319105D01*
X113656035Y-74327302D01*
X113687797Y-74338666D01*
X113718293Y-74353090D01*
X113747227Y-74370432D01*
X113774323Y-74390528D01*
X113799318Y-74413182D01*
X113821972Y-74438177D01*
X113842068Y-74465273D01*
X113859410Y-74494207D01*
X113873834Y-74524703D01*
X113885198Y-74556465D01*
X113893395Y-74589188D01*
X113898345Y-74622557D01*
X113900000Y-74656250D01*
X113900000Y-75343750D01*
X113898345Y-75377443D01*
X113893395Y-75410812D01*
X113885198Y-75443535D01*
X113873834Y-75475297D01*
X113859410Y-75505793D01*
X113842068Y-75534727D01*
X113821972Y-75561823D01*
X113799318Y-75586818D01*
X113774323Y-75609472D01*
X113747227Y-75629568D01*
X113718293Y-75646910D01*
X113687797Y-75661334D01*
X113656035Y-75672698D01*
X113623312Y-75680895D01*
X113589943Y-75685845D01*
X113556250Y-75687500D01*
X112443750Y-75687500D01*
X112410057Y-75685845D01*
X112376688Y-75680895D01*
X112343965Y-75672698D01*
X112312203Y-75661334D01*
X112281707Y-75646910D01*
X112252773Y-75629568D01*
X112225677Y-75609472D01*
X112200682Y-75586818D01*
X112178028Y-75561823D01*
X112157932Y-75534727D01*
X112140590Y-75505793D01*
X112126166Y-75475297D01*
X112114802Y-75443535D01*
X112106605Y-75410812D01*
X112101655Y-75377443D01*
X112100000Y-75343750D01*
X112100000Y-74656250D01*
X112101655Y-74622557D01*
X112106605Y-74589188D01*
X112114802Y-74556465D01*
X112126166Y-74524703D01*
X112140590Y-74494207D01*
X112157932Y-74465273D01*
X112178028Y-74438177D01*
X112200682Y-74413182D01*
X112225677Y-74390528D01*
X112252773Y-74370432D01*
X112281707Y-74353090D01*
X112312203Y-74338666D01*
X112343965Y-74327302D01*
X112376688Y-74319105D01*
X112410057Y-74314155D01*
X112443750Y-74312500D01*
X113556250Y-74312500D01*
X113589943Y-74314155D01*
X113589943Y-74314155D01*
G37*
D12*
X113000000Y-75000000D03*
G04 #@! TD*
D11*
G04 #@! TO.C,C23*
G36*
X113589943Y-68814155D02*
X113623312Y-68819105D01*
X113656035Y-68827302D01*
X113687797Y-68838666D01*
X113718293Y-68853090D01*
X113747227Y-68870432D01*
X113774323Y-68890528D01*
X113799318Y-68913182D01*
X113821972Y-68938177D01*
X113842068Y-68965273D01*
X113859410Y-68994207D01*
X113873834Y-69024703D01*
X113885198Y-69056465D01*
X113893395Y-69089188D01*
X113898345Y-69122557D01*
X113900000Y-69156250D01*
X113900000Y-69843750D01*
X113898345Y-69877443D01*
X113893395Y-69910812D01*
X113885198Y-69943535D01*
X113873834Y-69975297D01*
X113859410Y-70005793D01*
X113842068Y-70034727D01*
X113821972Y-70061823D01*
X113799318Y-70086818D01*
X113774323Y-70109472D01*
X113747227Y-70129568D01*
X113718293Y-70146910D01*
X113687797Y-70161334D01*
X113656035Y-70172698D01*
X113623312Y-70180895D01*
X113589943Y-70185845D01*
X113556250Y-70187500D01*
X112443750Y-70187500D01*
X112410057Y-70185845D01*
X112376688Y-70180895D01*
X112343965Y-70172698D01*
X112312203Y-70161334D01*
X112281707Y-70146910D01*
X112252773Y-70129568D01*
X112225677Y-70109472D01*
X112200682Y-70086818D01*
X112178028Y-70061823D01*
X112157932Y-70034727D01*
X112140590Y-70005793D01*
X112126166Y-69975297D01*
X112114802Y-69943535D01*
X112106605Y-69910812D01*
X112101655Y-69877443D01*
X112100000Y-69843750D01*
X112100000Y-69156250D01*
X112101655Y-69122557D01*
X112106605Y-69089188D01*
X112114802Y-69056465D01*
X112126166Y-69024703D01*
X112140590Y-68994207D01*
X112157932Y-68965273D01*
X112178028Y-68938177D01*
X112200682Y-68913182D01*
X112225677Y-68890528D01*
X112252773Y-68870432D01*
X112281707Y-68853090D01*
X112312203Y-68838666D01*
X112343965Y-68827302D01*
X112376688Y-68819105D01*
X112410057Y-68814155D01*
X112443750Y-68812500D01*
X113556250Y-68812500D01*
X113589943Y-68814155D01*
X113589943Y-68814155D01*
G37*
D12*
X113000000Y-69500000D03*
D11*
G36*
X113589943Y-66939155D02*
X113623312Y-66944105D01*
X113656035Y-66952302D01*
X113687797Y-66963666D01*
X113718293Y-66978090D01*
X113747227Y-66995432D01*
X113774323Y-67015528D01*
X113799318Y-67038182D01*
X113821972Y-67063177D01*
X113842068Y-67090273D01*
X113859410Y-67119207D01*
X113873834Y-67149703D01*
X113885198Y-67181465D01*
X113893395Y-67214188D01*
X113898345Y-67247557D01*
X113900000Y-67281250D01*
X113900000Y-67968750D01*
X113898345Y-68002443D01*
X113893395Y-68035812D01*
X113885198Y-68068535D01*
X113873834Y-68100297D01*
X113859410Y-68130793D01*
X113842068Y-68159727D01*
X113821972Y-68186823D01*
X113799318Y-68211818D01*
X113774323Y-68234472D01*
X113747227Y-68254568D01*
X113718293Y-68271910D01*
X113687797Y-68286334D01*
X113656035Y-68297698D01*
X113623312Y-68305895D01*
X113589943Y-68310845D01*
X113556250Y-68312500D01*
X112443750Y-68312500D01*
X112410057Y-68310845D01*
X112376688Y-68305895D01*
X112343965Y-68297698D01*
X112312203Y-68286334D01*
X112281707Y-68271910D01*
X112252773Y-68254568D01*
X112225677Y-68234472D01*
X112200682Y-68211818D01*
X112178028Y-68186823D01*
X112157932Y-68159727D01*
X112140590Y-68130793D01*
X112126166Y-68100297D01*
X112114802Y-68068535D01*
X112106605Y-68035812D01*
X112101655Y-68002443D01*
X112100000Y-67968750D01*
X112100000Y-67281250D01*
X112101655Y-67247557D01*
X112106605Y-67214188D01*
X112114802Y-67181465D01*
X112126166Y-67149703D01*
X112140590Y-67119207D01*
X112157932Y-67090273D01*
X112178028Y-67063177D01*
X112200682Y-67038182D01*
X112225677Y-67015528D01*
X112252773Y-66995432D01*
X112281707Y-66978090D01*
X112312203Y-66963666D01*
X112343965Y-66952302D01*
X112376688Y-66944105D01*
X112410057Y-66939155D01*
X112443750Y-66937500D01*
X113556250Y-66937500D01*
X113589943Y-66939155D01*
X113589943Y-66939155D01*
G37*
D12*
X113000000Y-67625000D03*
G04 #@! TD*
D11*
G04 #@! TO.C,C4*
G36*
X126564943Y-145351655D02*
X126598312Y-145356605D01*
X126631035Y-145364802D01*
X126662797Y-145376166D01*
X126693293Y-145390590D01*
X126722227Y-145407932D01*
X126749323Y-145428028D01*
X126774318Y-145450682D01*
X126796972Y-145475677D01*
X126817068Y-145502773D01*
X126834410Y-145531707D01*
X126848834Y-145562203D01*
X126860198Y-145593965D01*
X126868395Y-145626688D01*
X126873345Y-145660057D01*
X126875000Y-145693750D01*
X126875000Y-146806250D01*
X126873345Y-146839943D01*
X126868395Y-146873312D01*
X126860198Y-146906035D01*
X126848834Y-146937797D01*
X126834410Y-146968293D01*
X126817068Y-146997227D01*
X126796972Y-147024323D01*
X126774318Y-147049318D01*
X126749323Y-147071972D01*
X126722227Y-147092068D01*
X126693293Y-147109410D01*
X126662797Y-147123834D01*
X126631035Y-147135198D01*
X126598312Y-147143395D01*
X126564943Y-147148345D01*
X126531250Y-147150000D01*
X125843750Y-147150000D01*
X125810057Y-147148345D01*
X125776688Y-147143395D01*
X125743965Y-147135198D01*
X125712203Y-147123834D01*
X125681707Y-147109410D01*
X125652773Y-147092068D01*
X125625677Y-147071972D01*
X125600682Y-147049318D01*
X125578028Y-147024323D01*
X125557932Y-146997227D01*
X125540590Y-146968293D01*
X125526166Y-146937797D01*
X125514802Y-146906035D01*
X125506605Y-146873312D01*
X125501655Y-146839943D01*
X125500000Y-146806250D01*
X125500000Y-145693750D01*
X125501655Y-145660057D01*
X125506605Y-145626688D01*
X125514802Y-145593965D01*
X125526166Y-145562203D01*
X125540590Y-145531707D01*
X125557932Y-145502773D01*
X125578028Y-145475677D01*
X125600682Y-145450682D01*
X125625677Y-145428028D01*
X125652773Y-145407932D01*
X125681707Y-145390590D01*
X125712203Y-145376166D01*
X125743965Y-145364802D01*
X125776688Y-145356605D01*
X125810057Y-145351655D01*
X125843750Y-145350000D01*
X126531250Y-145350000D01*
X126564943Y-145351655D01*
X126564943Y-145351655D01*
G37*
D12*
X126187500Y-146250000D03*
D11*
G36*
X124689943Y-145351655D02*
X124723312Y-145356605D01*
X124756035Y-145364802D01*
X124787797Y-145376166D01*
X124818293Y-145390590D01*
X124847227Y-145407932D01*
X124874323Y-145428028D01*
X124899318Y-145450682D01*
X124921972Y-145475677D01*
X124942068Y-145502773D01*
X124959410Y-145531707D01*
X124973834Y-145562203D01*
X124985198Y-145593965D01*
X124993395Y-145626688D01*
X124998345Y-145660057D01*
X125000000Y-145693750D01*
X125000000Y-146806250D01*
X124998345Y-146839943D01*
X124993395Y-146873312D01*
X124985198Y-146906035D01*
X124973834Y-146937797D01*
X124959410Y-146968293D01*
X124942068Y-146997227D01*
X124921972Y-147024323D01*
X124899318Y-147049318D01*
X124874323Y-147071972D01*
X124847227Y-147092068D01*
X124818293Y-147109410D01*
X124787797Y-147123834D01*
X124756035Y-147135198D01*
X124723312Y-147143395D01*
X124689943Y-147148345D01*
X124656250Y-147150000D01*
X123968750Y-147150000D01*
X123935057Y-147148345D01*
X123901688Y-147143395D01*
X123868965Y-147135198D01*
X123837203Y-147123834D01*
X123806707Y-147109410D01*
X123777773Y-147092068D01*
X123750677Y-147071972D01*
X123725682Y-147049318D01*
X123703028Y-147024323D01*
X123682932Y-146997227D01*
X123665590Y-146968293D01*
X123651166Y-146937797D01*
X123639802Y-146906035D01*
X123631605Y-146873312D01*
X123626655Y-146839943D01*
X123625000Y-146806250D01*
X123625000Y-145693750D01*
X123626655Y-145660057D01*
X123631605Y-145626688D01*
X123639802Y-145593965D01*
X123651166Y-145562203D01*
X123665590Y-145531707D01*
X123682932Y-145502773D01*
X123703028Y-145475677D01*
X123725682Y-145450682D01*
X123750677Y-145428028D01*
X123777773Y-145407932D01*
X123806707Y-145390590D01*
X123837203Y-145376166D01*
X123868965Y-145364802D01*
X123901688Y-145356605D01*
X123935057Y-145351655D01*
X123968750Y-145350000D01*
X124656250Y-145350000D01*
X124689943Y-145351655D01*
X124689943Y-145351655D01*
G37*
D12*
X124312500Y-146250000D03*
G04 #@! TD*
D11*
G04 #@! TO.C,R4*
G36*
X124689943Y-142851655D02*
X124723312Y-142856605D01*
X124756035Y-142864802D01*
X124787797Y-142876166D01*
X124818293Y-142890590D01*
X124847227Y-142907932D01*
X124874323Y-142928028D01*
X124899318Y-142950682D01*
X124921972Y-142975677D01*
X124942068Y-143002773D01*
X124959410Y-143031707D01*
X124973834Y-143062203D01*
X124985198Y-143093965D01*
X124993395Y-143126688D01*
X124998345Y-143160057D01*
X125000000Y-143193750D01*
X125000000Y-144306250D01*
X124998345Y-144339943D01*
X124993395Y-144373312D01*
X124985198Y-144406035D01*
X124973834Y-144437797D01*
X124959410Y-144468293D01*
X124942068Y-144497227D01*
X124921972Y-144524323D01*
X124899318Y-144549318D01*
X124874323Y-144571972D01*
X124847227Y-144592068D01*
X124818293Y-144609410D01*
X124787797Y-144623834D01*
X124756035Y-144635198D01*
X124723312Y-144643395D01*
X124689943Y-144648345D01*
X124656250Y-144650000D01*
X123968750Y-144650000D01*
X123935057Y-144648345D01*
X123901688Y-144643395D01*
X123868965Y-144635198D01*
X123837203Y-144623834D01*
X123806707Y-144609410D01*
X123777773Y-144592068D01*
X123750677Y-144571972D01*
X123725682Y-144549318D01*
X123703028Y-144524323D01*
X123682932Y-144497227D01*
X123665590Y-144468293D01*
X123651166Y-144437797D01*
X123639802Y-144406035D01*
X123631605Y-144373312D01*
X123626655Y-144339943D01*
X123625000Y-144306250D01*
X123625000Y-143193750D01*
X123626655Y-143160057D01*
X123631605Y-143126688D01*
X123639802Y-143093965D01*
X123651166Y-143062203D01*
X123665590Y-143031707D01*
X123682932Y-143002773D01*
X123703028Y-142975677D01*
X123725682Y-142950682D01*
X123750677Y-142928028D01*
X123777773Y-142907932D01*
X123806707Y-142890590D01*
X123837203Y-142876166D01*
X123868965Y-142864802D01*
X123901688Y-142856605D01*
X123935057Y-142851655D01*
X123968750Y-142850000D01*
X124656250Y-142850000D01*
X124689943Y-142851655D01*
X124689943Y-142851655D01*
G37*
D12*
X124312500Y-143750000D03*
D11*
G36*
X126564943Y-142851655D02*
X126598312Y-142856605D01*
X126631035Y-142864802D01*
X126662797Y-142876166D01*
X126693293Y-142890590D01*
X126722227Y-142907932D01*
X126749323Y-142928028D01*
X126774318Y-142950682D01*
X126796972Y-142975677D01*
X126817068Y-143002773D01*
X126834410Y-143031707D01*
X126848834Y-143062203D01*
X126860198Y-143093965D01*
X126868395Y-143126688D01*
X126873345Y-143160057D01*
X126875000Y-143193750D01*
X126875000Y-144306250D01*
X126873345Y-144339943D01*
X126868395Y-144373312D01*
X126860198Y-144406035D01*
X126848834Y-144437797D01*
X126834410Y-144468293D01*
X126817068Y-144497227D01*
X126796972Y-144524323D01*
X126774318Y-144549318D01*
X126749323Y-144571972D01*
X126722227Y-144592068D01*
X126693293Y-144609410D01*
X126662797Y-144623834D01*
X126631035Y-144635198D01*
X126598312Y-144643395D01*
X126564943Y-144648345D01*
X126531250Y-144650000D01*
X125843750Y-144650000D01*
X125810057Y-144648345D01*
X125776688Y-144643395D01*
X125743965Y-144635198D01*
X125712203Y-144623834D01*
X125681707Y-144609410D01*
X125652773Y-144592068D01*
X125625677Y-144571972D01*
X125600682Y-144549318D01*
X125578028Y-144524323D01*
X125557932Y-144497227D01*
X125540590Y-144468293D01*
X125526166Y-144437797D01*
X125514802Y-144406035D01*
X125506605Y-144373312D01*
X125501655Y-144339943D01*
X125500000Y-144306250D01*
X125500000Y-143193750D01*
X125501655Y-143160057D01*
X125506605Y-143126688D01*
X125514802Y-143093965D01*
X125526166Y-143062203D01*
X125540590Y-143031707D01*
X125557932Y-143002773D01*
X125578028Y-142975677D01*
X125600682Y-142950682D01*
X125625677Y-142928028D01*
X125652773Y-142907932D01*
X125681707Y-142890590D01*
X125712203Y-142876166D01*
X125743965Y-142864802D01*
X125776688Y-142856605D01*
X125810057Y-142851655D01*
X125843750Y-142850000D01*
X126531250Y-142850000D01*
X126564943Y-142851655D01*
X126564943Y-142851655D01*
G37*
D12*
X126187500Y-143750000D03*
G04 #@! TD*
D11*
G04 #@! TO.C,R16*
G36*
X100589943Y-144314155D02*
X100623312Y-144319105D01*
X100656035Y-144327302D01*
X100687797Y-144338666D01*
X100718293Y-144353090D01*
X100747227Y-144370432D01*
X100774323Y-144390528D01*
X100799318Y-144413182D01*
X100821972Y-144438177D01*
X100842068Y-144465273D01*
X100859410Y-144494207D01*
X100873834Y-144524703D01*
X100885198Y-144556465D01*
X100893395Y-144589188D01*
X100898345Y-144622557D01*
X100900000Y-144656250D01*
X100900000Y-145343750D01*
X100898345Y-145377443D01*
X100893395Y-145410812D01*
X100885198Y-145443535D01*
X100873834Y-145475297D01*
X100859410Y-145505793D01*
X100842068Y-145534727D01*
X100821972Y-145561823D01*
X100799318Y-145586818D01*
X100774323Y-145609472D01*
X100747227Y-145629568D01*
X100718293Y-145646910D01*
X100687797Y-145661334D01*
X100656035Y-145672698D01*
X100623312Y-145680895D01*
X100589943Y-145685845D01*
X100556250Y-145687500D01*
X99443750Y-145687500D01*
X99410057Y-145685845D01*
X99376688Y-145680895D01*
X99343965Y-145672698D01*
X99312203Y-145661334D01*
X99281707Y-145646910D01*
X99252773Y-145629568D01*
X99225677Y-145609472D01*
X99200682Y-145586818D01*
X99178028Y-145561823D01*
X99157932Y-145534727D01*
X99140590Y-145505793D01*
X99126166Y-145475297D01*
X99114802Y-145443535D01*
X99106605Y-145410812D01*
X99101655Y-145377443D01*
X99100000Y-145343750D01*
X99100000Y-144656250D01*
X99101655Y-144622557D01*
X99106605Y-144589188D01*
X99114802Y-144556465D01*
X99126166Y-144524703D01*
X99140590Y-144494207D01*
X99157932Y-144465273D01*
X99178028Y-144438177D01*
X99200682Y-144413182D01*
X99225677Y-144390528D01*
X99252773Y-144370432D01*
X99281707Y-144353090D01*
X99312203Y-144338666D01*
X99343965Y-144327302D01*
X99376688Y-144319105D01*
X99410057Y-144314155D01*
X99443750Y-144312500D01*
X100556250Y-144312500D01*
X100589943Y-144314155D01*
X100589943Y-144314155D01*
G37*
D12*
X100000000Y-145000000D03*
D11*
G36*
X100589943Y-146189155D02*
X100623312Y-146194105D01*
X100656035Y-146202302D01*
X100687797Y-146213666D01*
X100718293Y-146228090D01*
X100747227Y-146245432D01*
X100774323Y-146265528D01*
X100799318Y-146288182D01*
X100821972Y-146313177D01*
X100842068Y-146340273D01*
X100859410Y-146369207D01*
X100873834Y-146399703D01*
X100885198Y-146431465D01*
X100893395Y-146464188D01*
X100898345Y-146497557D01*
X100900000Y-146531250D01*
X100900000Y-147218750D01*
X100898345Y-147252443D01*
X100893395Y-147285812D01*
X100885198Y-147318535D01*
X100873834Y-147350297D01*
X100859410Y-147380793D01*
X100842068Y-147409727D01*
X100821972Y-147436823D01*
X100799318Y-147461818D01*
X100774323Y-147484472D01*
X100747227Y-147504568D01*
X100718293Y-147521910D01*
X100687797Y-147536334D01*
X100656035Y-147547698D01*
X100623312Y-147555895D01*
X100589943Y-147560845D01*
X100556250Y-147562500D01*
X99443750Y-147562500D01*
X99410057Y-147560845D01*
X99376688Y-147555895D01*
X99343965Y-147547698D01*
X99312203Y-147536334D01*
X99281707Y-147521910D01*
X99252773Y-147504568D01*
X99225677Y-147484472D01*
X99200682Y-147461818D01*
X99178028Y-147436823D01*
X99157932Y-147409727D01*
X99140590Y-147380793D01*
X99126166Y-147350297D01*
X99114802Y-147318535D01*
X99106605Y-147285812D01*
X99101655Y-147252443D01*
X99100000Y-147218750D01*
X99100000Y-146531250D01*
X99101655Y-146497557D01*
X99106605Y-146464188D01*
X99114802Y-146431465D01*
X99126166Y-146399703D01*
X99140590Y-146369207D01*
X99157932Y-146340273D01*
X99178028Y-146313177D01*
X99200682Y-146288182D01*
X99225677Y-146265528D01*
X99252773Y-146245432D01*
X99281707Y-146228090D01*
X99312203Y-146213666D01*
X99343965Y-146202302D01*
X99376688Y-146194105D01*
X99410057Y-146189155D01*
X99443750Y-146187500D01*
X100556250Y-146187500D01*
X100589943Y-146189155D01*
X100589943Y-146189155D01*
G37*
D12*
X100000000Y-146875000D03*
G04 #@! TD*
D11*
G04 #@! TO.C,R24*
G36*
X100589943Y-139376655D02*
X100623312Y-139381605D01*
X100656035Y-139389802D01*
X100687797Y-139401166D01*
X100718293Y-139415590D01*
X100747227Y-139432932D01*
X100774323Y-139453028D01*
X100799318Y-139475682D01*
X100821972Y-139500677D01*
X100842068Y-139527773D01*
X100859410Y-139556707D01*
X100873834Y-139587203D01*
X100885198Y-139618965D01*
X100893395Y-139651688D01*
X100898345Y-139685057D01*
X100900000Y-139718750D01*
X100900000Y-140406250D01*
X100898345Y-140439943D01*
X100893395Y-140473312D01*
X100885198Y-140506035D01*
X100873834Y-140537797D01*
X100859410Y-140568293D01*
X100842068Y-140597227D01*
X100821972Y-140624323D01*
X100799318Y-140649318D01*
X100774323Y-140671972D01*
X100747227Y-140692068D01*
X100718293Y-140709410D01*
X100687797Y-140723834D01*
X100656035Y-140735198D01*
X100623312Y-140743395D01*
X100589943Y-140748345D01*
X100556250Y-140750000D01*
X99443750Y-140750000D01*
X99410057Y-140748345D01*
X99376688Y-140743395D01*
X99343965Y-140735198D01*
X99312203Y-140723834D01*
X99281707Y-140709410D01*
X99252773Y-140692068D01*
X99225677Y-140671972D01*
X99200682Y-140649318D01*
X99178028Y-140624323D01*
X99157932Y-140597227D01*
X99140590Y-140568293D01*
X99126166Y-140537797D01*
X99114802Y-140506035D01*
X99106605Y-140473312D01*
X99101655Y-140439943D01*
X99100000Y-140406250D01*
X99100000Y-139718750D01*
X99101655Y-139685057D01*
X99106605Y-139651688D01*
X99114802Y-139618965D01*
X99126166Y-139587203D01*
X99140590Y-139556707D01*
X99157932Y-139527773D01*
X99178028Y-139500677D01*
X99200682Y-139475682D01*
X99225677Y-139453028D01*
X99252773Y-139432932D01*
X99281707Y-139415590D01*
X99312203Y-139401166D01*
X99343965Y-139389802D01*
X99376688Y-139381605D01*
X99410057Y-139376655D01*
X99443750Y-139375000D01*
X100556250Y-139375000D01*
X100589943Y-139376655D01*
X100589943Y-139376655D01*
G37*
D12*
X100000000Y-140062500D03*
D11*
G36*
X100589943Y-141251655D02*
X100623312Y-141256605D01*
X100656035Y-141264802D01*
X100687797Y-141276166D01*
X100718293Y-141290590D01*
X100747227Y-141307932D01*
X100774323Y-141328028D01*
X100799318Y-141350682D01*
X100821972Y-141375677D01*
X100842068Y-141402773D01*
X100859410Y-141431707D01*
X100873834Y-141462203D01*
X100885198Y-141493965D01*
X100893395Y-141526688D01*
X100898345Y-141560057D01*
X100900000Y-141593750D01*
X100900000Y-142281250D01*
X100898345Y-142314943D01*
X100893395Y-142348312D01*
X100885198Y-142381035D01*
X100873834Y-142412797D01*
X100859410Y-142443293D01*
X100842068Y-142472227D01*
X100821972Y-142499323D01*
X100799318Y-142524318D01*
X100774323Y-142546972D01*
X100747227Y-142567068D01*
X100718293Y-142584410D01*
X100687797Y-142598834D01*
X100656035Y-142610198D01*
X100623312Y-142618395D01*
X100589943Y-142623345D01*
X100556250Y-142625000D01*
X99443750Y-142625000D01*
X99410057Y-142623345D01*
X99376688Y-142618395D01*
X99343965Y-142610198D01*
X99312203Y-142598834D01*
X99281707Y-142584410D01*
X99252773Y-142567068D01*
X99225677Y-142546972D01*
X99200682Y-142524318D01*
X99178028Y-142499323D01*
X99157932Y-142472227D01*
X99140590Y-142443293D01*
X99126166Y-142412797D01*
X99114802Y-142381035D01*
X99106605Y-142348312D01*
X99101655Y-142314943D01*
X99100000Y-142281250D01*
X99100000Y-141593750D01*
X99101655Y-141560057D01*
X99106605Y-141526688D01*
X99114802Y-141493965D01*
X99126166Y-141462203D01*
X99140590Y-141431707D01*
X99157932Y-141402773D01*
X99178028Y-141375677D01*
X99200682Y-141350682D01*
X99225677Y-141328028D01*
X99252773Y-141307932D01*
X99281707Y-141290590D01*
X99312203Y-141276166D01*
X99343965Y-141264802D01*
X99376688Y-141256605D01*
X99410057Y-141251655D01*
X99443750Y-141250000D01*
X100556250Y-141250000D01*
X100589943Y-141251655D01*
X100589943Y-141251655D01*
G37*
D12*
X100000000Y-141937500D03*
G04 #@! TD*
D11*
G04 #@! TO.C,R48*
G36*
X100589943Y-152501655D02*
X100623312Y-152506605D01*
X100656035Y-152514802D01*
X100687797Y-152526166D01*
X100718293Y-152540590D01*
X100747227Y-152557932D01*
X100774323Y-152578028D01*
X100799318Y-152600682D01*
X100821972Y-152625677D01*
X100842068Y-152652773D01*
X100859410Y-152681707D01*
X100873834Y-152712203D01*
X100885198Y-152743965D01*
X100893395Y-152776688D01*
X100898345Y-152810057D01*
X100900000Y-152843750D01*
X100900000Y-153531250D01*
X100898345Y-153564943D01*
X100893395Y-153598312D01*
X100885198Y-153631035D01*
X100873834Y-153662797D01*
X100859410Y-153693293D01*
X100842068Y-153722227D01*
X100821972Y-153749323D01*
X100799318Y-153774318D01*
X100774323Y-153796972D01*
X100747227Y-153817068D01*
X100718293Y-153834410D01*
X100687797Y-153848834D01*
X100656035Y-153860198D01*
X100623312Y-153868395D01*
X100589943Y-153873345D01*
X100556250Y-153875000D01*
X99443750Y-153875000D01*
X99410057Y-153873345D01*
X99376688Y-153868395D01*
X99343965Y-153860198D01*
X99312203Y-153848834D01*
X99281707Y-153834410D01*
X99252773Y-153817068D01*
X99225677Y-153796972D01*
X99200682Y-153774318D01*
X99178028Y-153749323D01*
X99157932Y-153722227D01*
X99140590Y-153693293D01*
X99126166Y-153662797D01*
X99114802Y-153631035D01*
X99106605Y-153598312D01*
X99101655Y-153564943D01*
X99100000Y-153531250D01*
X99100000Y-152843750D01*
X99101655Y-152810057D01*
X99106605Y-152776688D01*
X99114802Y-152743965D01*
X99126166Y-152712203D01*
X99140590Y-152681707D01*
X99157932Y-152652773D01*
X99178028Y-152625677D01*
X99200682Y-152600682D01*
X99225677Y-152578028D01*
X99252773Y-152557932D01*
X99281707Y-152540590D01*
X99312203Y-152526166D01*
X99343965Y-152514802D01*
X99376688Y-152506605D01*
X99410057Y-152501655D01*
X99443750Y-152500000D01*
X100556250Y-152500000D01*
X100589943Y-152501655D01*
X100589943Y-152501655D01*
G37*
D12*
X100000000Y-153187500D03*
D11*
G36*
X100589943Y-150626655D02*
X100623312Y-150631605D01*
X100656035Y-150639802D01*
X100687797Y-150651166D01*
X100718293Y-150665590D01*
X100747227Y-150682932D01*
X100774323Y-150703028D01*
X100799318Y-150725682D01*
X100821972Y-150750677D01*
X100842068Y-150777773D01*
X100859410Y-150806707D01*
X100873834Y-150837203D01*
X100885198Y-150868965D01*
X100893395Y-150901688D01*
X100898345Y-150935057D01*
X100900000Y-150968750D01*
X100900000Y-151656250D01*
X100898345Y-151689943D01*
X100893395Y-151723312D01*
X100885198Y-151756035D01*
X100873834Y-151787797D01*
X100859410Y-151818293D01*
X100842068Y-151847227D01*
X100821972Y-151874323D01*
X100799318Y-151899318D01*
X100774323Y-151921972D01*
X100747227Y-151942068D01*
X100718293Y-151959410D01*
X100687797Y-151973834D01*
X100656035Y-151985198D01*
X100623312Y-151993395D01*
X100589943Y-151998345D01*
X100556250Y-152000000D01*
X99443750Y-152000000D01*
X99410057Y-151998345D01*
X99376688Y-151993395D01*
X99343965Y-151985198D01*
X99312203Y-151973834D01*
X99281707Y-151959410D01*
X99252773Y-151942068D01*
X99225677Y-151921972D01*
X99200682Y-151899318D01*
X99178028Y-151874323D01*
X99157932Y-151847227D01*
X99140590Y-151818293D01*
X99126166Y-151787797D01*
X99114802Y-151756035D01*
X99106605Y-151723312D01*
X99101655Y-151689943D01*
X99100000Y-151656250D01*
X99100000Y-150968750D01*
X99101655Y-150935057D01*
X99106605Y-150901688D01*
X99114802Y-150868965D01*
X99126166Y-150837203D01*
X99140590Y-150806707D01*
X99157932Y-150777773D01*
X99178028Y-150750677D01*
X99200682Y-150725682D01*
X99225677Y-150703028D01*
X99252773Y-150682932D01*
X99281707Y-150665590D01*
X99312203Y-150651166D01*
X99343965Y-150639802D01*
X99376688Y-150631605D01*
X99410057Y-150626655D01*
X99443750Y-150625000D01*
X100556250Y-150625000D01*
X100589943Y-150626655D01*
X100589943Y-150626655D01*
G37*
D12*
X100000000Y-151312500D03*
G04 #@! TD*
D11*
G04 #@! TO.C,R56*
G36*
X100589943Y-157501655D02*
X100623312Y-157506605D01*
X100656035Y-157514802D01*
X100687797Y-157526166D01*
X100718293Y-157540590D01*
X100747227Y-157557932D01*
X100774323Y-157578028D01*
X100799318Y-157600682D01*
X100821972Y-157625677D01*
X100842068Y-157652773D01*
X100859410Y-157681707D01*
X100873834Y-157712203D01*
X100885198Y-157743965D01*
X100893395Y-157776688D01*
X100898345Y-157810057D01*
X100900000Y-157843750D01*
X100900000Y-158531250D01*
X100898345Y-158564943D01*
X100893395Y-158598312D01*
X100885198Y-158631035D01*
X100873834Y-158662797D01*
X100859410Y-158693293D01*
X100842068Y-158722227D01*
X100821972Y-158749323D01*
X100799318Y-158774318D01*
X100774323Y-158796972D01*
X100747227Y-158817068D01*
X100718293Y-158834410D01*
X100687797Y-158848834D01*
X100656035Y-158860198D01*
X100623312Y-158868395D01*
X100589943Y-158873345D01*
X100556250Y-158875000D01*
X99443750Y-158875000D01*
X99410057Y-158873345D01*
X99376688Y-158868395D01*
X99343965Y-158860198D01*
X99312203Y-158848834D01*
X99281707Y-158834410D01*
X99252773Y-158817068D01*
X99225677Y-158796972D01*
X99200682Y-158774318D01*
X99178028Y-158749323D01*
X99157932Y-158722227D01*
X99140590Y-158693293D01*
X99126166Y-158662797D01*
X99114802Y-158631035D01*
X99106605Y-158598312D01*
X99101655Y-158564943D01*
X99100000Y-158531250D01*
X99100000Y-157843750D01*
X99101655Y-157810057D01*
X99106605Y-157776688D01*
X99114802Y-157743965D01*
X99126166Y-157712203D01*
X99140590Y-157681707D01*
X99157932Y-157652773D01*
X99178028Y-157625677D01*
X99200682Y-157600682D01*
X99225677Y-157578028D01*
X99252773Y-157557932D01*
X99281707Y-157540590D01*
X99312203Y-157526166D01*
X99343965Y-157514802D01*
X99376688Y-157506605D01*
X99410057Y-157501655D01*
X99443750Y-157500000D01*
X100556250Y-157500000D01*
X100589943Y-157501655D01*
X100589943Y-157501655D01*
G37*
D12*
X100000000Y-158187500D03*
D11*
G36*
X100589943Y-155626655D02*
X100623312Y-155631605D01*
X100656035Y-155639802D01*
X100687797Y-155651166D01*
X100718293Y-155665590D01*
X100747227Y-155682932D01*
X100774323Y-155703028D01*
X100799318Y-155725682D01*
X100821972Y-155750677D01*
X100842068Y-155777773D01*
X100859410Y-155806707D01*
X100873834Y-155837203D01*
X100885198Y-155868965D01*
X100893395Y-155901688D01*
X100898345Y-155935057D01*
X100900000Y-155968750D01*
X100900000Y-156656250D01*
X100898345Y-156689943D01*
X100893395Y-156723312D01*
X100885198Y-156756035D01*
X100873834Y-156787797D01*
X100859410Y-156818293D01*
X100842068Y-156847227D01*
X100821972Y-156874323D01*
X100799318Y-156899318D01*
X100774323Y-156921972D01*
X100747227Y-156942068D01*
X100718293Y-156959410D01*
X100687797Y-156973834D01*
X100656035Y-156985198D01*
X100623312Y-156993395D01*
X100589943Y-156998345D01*
X100556250Y-157000000D01*
X99443750Y-157000000D01*
X99410057Y-156998345D01*
X99376688Y-156993395D01*
X99343965Y-156985198D01*
X99312203Y-156973834D01*
X99281707Y-156959410D01*
X99252773Y-156942068D01*
X99225677Y-156921972D01*
X99200682Y-156899318D01*
X99178028Y-156874323D01*
X99157932Y-156847227D01*
X99140590Y-156818293D01*
X99126166Y-156787797D01*
X99114802Y-156756035D01*
X99106605Y-156723312D01*
X99101655Y-156689943D01*
X99100000Y-156656250D01*
X99100000Y-155968750D01*
X99101655Y-155935057D01*
X99106605Y-155901688D01*
X99114802Y-155868965D01*
X99126166Y-155837203D01*
X99140590Y-155806707D01*
X99157932Y-155777773D01*
X99178028Y-155750677D01*
X99200682Y-155725682D01*
X99225677Y-155703028D01*
X99252773Y-155682932D01*
X99281707Y-155665590D01*
X99312203Y-155651166D01*
X99343965Y-155639802D01*
X99376688Y-155631605D01*
X99410057Y-155626655D01*
X99443750Y-155625000D01*
X100556250Y-155625000D01*
X100589943Y-155626655D01*
X100589943Y-155626655D01*
G37*
D12*
X100000000Y-156312500D03*
G04 #@! TD*
D14*
G04 #@! TO.C,RV4*
X101750000Y-146000000D03*
X101750000Y-143460000D03*
X101750000Y-140920000D03*
G04 #@! TD*
D10*
G04 #@! TO.C,JP1*
X124300000Y-138000000D03*
D11*
G36*
X124839018Y-137053843D02*
X124876537Y-137065224D01*
X124911114Y-137083706D01*
X124941421Y-137108579D01*
X124966410Y-137139060D01*
X125466410Y-137889060D01*
X125484856Y-137923657D01*
X125496198Y-137961187D01*
X125500000Y-138000209D01*
X125496116Y-138039223D01*
X125484696Y-138076730D01*
X125466410Y-138110940D01*
X124966410Y-138860940D01*
X124941569Y-138891273D01*
X124911288Y-138916178D01*
X124876730Y-138934696D01*
X124839223Y-138946116D01*
X124800000Y-138950000D01*
X123800000Y-138950000D01*
X123760982Y-138946157D01*
X123723463Y-138934776D01*
X123688886Y-138916294D01*
X123658579Y-138891421D01*
X123633706Y-138861114D01*
X123615224Y-138826537D01*
X123603843Y-138789018D01*
X123600000Y-138750000D01*
X123600000Y-137250000D01*
X123603843Y-137210982D01*
X123615224Y-137173463D01*
X123633706Y-137138886D01*
X123658579Y-137108579D01*
X123688886Y-137083706D01*
X123723463Y-137065224D01*
X123760982Y-137053843D01*
X123800000Y-137050000D01*
X124800000Y-137050000D01*
X124839018Y-137053843D01*
X124839018Y-137053843D01*
G37*
D10*
X125750000Y-138000000D03*
D11*
G36*
X126289018Y-137053843D02*
X126326537Y-137065224D01*
X126361114Y-137083706D01*
X126391421Y-137108579D01*
X126416294Y-137138886D01*
X126434776Y-137173463D01*
X126446157Y-137210982D01*
X126450000Y-137250000D01*
X126450000Y-138750000D01*
X126446157Y-138789018D01*
X126434776Y-138826537D01*
X126416294Y-138861114D01*
X126391421Y-138891421D01*
X126361114Y-138916294D01*
X126326537Y-138934776D01*
X126289018Y-138946157D01*
X126250000Y-138950000D01*
X125100000Y-138950000D01*
X125060982Y-138946157D01*
X125023463Y-138934776D01*
X124988886Y-138916294D01*
X124958579Y-138891421D01*
X124933706Y-138861114D01*
X124915224Y-138826537D01*
X124903843Y-138789018D01*
X124900000Y-138750000D01*
X124903843Y-138710982D01*
X124915224Y-138673463D01*
X124933590Y-138639060D01*
X125359630Y-138000000D01*
X124933590Y-137360940D01*
X124915144Y-137326343D01*
X124903802Y-137288813D01*
X124900000Y-137249791D01*
X124903884Y-137210777D01*
X124915304Y-137173270D01*
X124933822Y-137138712D01*
X124958727Y-137108431D01*
X124989060Y-137083590D01*
X125023657Y-137065144D01*
X125061187Y-137053802D01*
X125100000Y-137050000D01*
X126250000Y-137050000D01*
X126289018Y-137053843D01*
X126289018Y-137053843D01*
G37*
G04 #@! TD*
D10*
G04 #@! TO.C,JP2*
X124525000Y-85500000D03*
D11*
G36*
X125064018Y-84553843D02*
X125101537Y-84565224D01*
X125136114Y-84583706D01*
X125166421Y-84608579D01*
X125191410Y-84639060D01*
X125691410Y-85389060D01*
X125709856Y-85423657D01*
X125721198Y-85461187D01*
X125725000Y-85500209D01*
X125721116Y-85539223D01*
X125709696Y-85576730D01*
X125691410Y-85610940D01*
X125191410Y-86360940D01*
X125166569Y-86391273D01*
X125136288Y-86416178D01*
X125101730Y-86434696D01*
X125064223Y-86446116D01*
X125025000Y-86450000D01*
X124025000Y-86450000D01*
X123985982Y-86446157D01*
X123948463Y-86434776D01*
X123913886Y-86416294D01*
X123883579Y-86391421D01*
X123858706Y-86361114D01*
X123840224Y-86326537D01*
X123828843Y-86289018D01*
X123825000Y-86250000D01*
X123825000Y-84750000D01*
X123828843Y-84710982D01*
X123840224Y-84673463D01*
X123858706Y-84638886D01*
X123883579Y-84608579D01*
X123913886Y-84583706D01*
X123948463Y-84565224D01*
X123985982Y-84553843D01*
X124025000Y-84550000D01*
X125025000Y-84550000D01*
X125064018Y-84553843D01*
X125064018Y-84553843D01*
G37*
D10*
X125975000Y-85500000D03*
D11*
G36*
X126514018Y-84553843D02*
X126551537Y-84565224D01*
X126586114Y-84583706D01*
X126616421Y-84608579D01*
X126641294Y-84638886D01*
X126659776Y-84673463D01*
X126671157Y-84710982D01*
X126675000Y-84750000D01*
X126675000Y-86250000D01*
X126671157Y-86289018D01*
X126659776Y-86326537D01*
X126641294Y-86361114D01*
X126616421Y-86391421D01*
X126586114Y-86416294D01*
X126551537Y-86434776D01*
X126514018Y-86446157D01*
X126475000Y-86450000D01*
X125325000Y-86450000D01*
X125285982Y-86446157D01*
X125248463Y-86434776D01*
X125213886Y-86416294D01*
X125183579Y-86391421D01*
X125158706Y-86361114D01*
X125140224Y-86326537D01*
X125128843Y-86289018D01*
X125125000Y-86250000D01*
X125128843Y-86210982D01*
X125140224Y-86173463D01*
X125158590Y-86139060D01*
X125584630Y-85500000D01*
X125158590Y-84860940D01*
X125140144Y-84826343D01*
X125128802Y-84788813D01*
X125125000Y-84749791D01*
X125128884Y-84710777D01*
X125140304Y-84673270D01*
X125158822Y-84638712D01*
X125183727Y-84608431D01*
X125214060Y-84583590D01*
X125248657Y-84565144D01*
X125286187Y-84553802D01*
X125325000Y-84550000D01*
X126475000Y-84550000D01*
X126514018Y-84553843D01*
X126514018Y-84553843D01*
G37*
G04 #@! TD*
D10*
G04 #@! TO.C,JP3*
X125975000Y-111750000D03*
D11*
G36*
X126514018Y-110803843D02*
X126551537Y-110815224D01*
X126586114Y-110833706D01*
X126616421Y-110858579D01*
X126641294Y-110888886D01*
X126659776Y-110923463D01*
X126671157Y-110960982D01*
X126675000Y-111000000D01*
X126675000Y-112500000D01*
X126671157Y-112539018D01*
X126659776Y-112576537D01*
X126641294Y-112611114D01*
X126616421Y-112641421D01*
X126586114Y-112666294D01*
X126551537Y-112684776D01*
X126514018Y-112696157D01*
X126475000Y-112700000D01*
X125325000Y-112700000D01*
X125285982Y-112696157D01*
X125248463Y-112684776D01*
X125213886Y-112666294D01*
X125183579Y-112641421D01*
X125158706Y-112611114D01*
X125140224Y-112576537D01*
X125128843Y-112539018D01*
X125125000Y-112500000D01*
X125128843Y-112460982D01*
X125140224Y-112423463D01*
X125158590Y-112389060D01*
X125584630Y-111750000D01*
X125158590Y-111110940D01*
X125140144Y-111076343D01*
X125128802Y-111038813D01*
X125125000Y-110999791D01*
X125128884Y-110960777D01*
X125140304Y-110923270D01*
X125158822Y-110888712D01*
X125183727Y-110858431D01*
X125214060Y-110833590D01*
X125248657Y-110815144D01*
X125286187Y-110803802D01*
X125325000Y-110800000D01*
X126475000Y-110800000D01*
X126514018Y-110803843D01*
X126514018Y-110803843D01*
G37*
D10*
X124525000Y-111750000D03*
D11*
G36*
X125064018Y-110803843D02*
X125101537Y-110815224D01*
X125136114Y-110833706D01*
X125166421Y-110858579D01*
X125191410Y-110889060D01*
X125691410Y-111639060D01*
X125709856Y-111673657D01*
X125721198Y-111711187D01*
X125725000Y-111750209D01*
X125721116Y-111789223D01*
X125709696Y-111826730D01*
X125691410Y-111860940D01*
X125191410Y-112610940D01*
X125166569Y-112641273D01*
X125136288Y-112666178D01*
X125101730Y-112684696D01*
X125064223Y-112696116D01*
X125025000Y-112700000D01*
X124025000Y-112700000D01*
X123985982Y-112696157D01*
X123948463Y-112684776D01*
X123913886Y-112666294D01*
X123883579Y-112641421D01*
X123858706Y-112611114D01*
X123840224Y-112576537D01*
X123828843Y-112539018D01*
X123825000Y-112500000D01*
X123825000Y-111000000D01*
X123828843Y-110960982D01*
X123840224Y-110923463D01*
X123858706Y-110888886D01*
X123883579Y-110858579D01*
X123913886Y-110833706D01*
X123948463Y-110815224D01*
X123985982Y-110803843D01*
X124025000Y-110800000D01*
X125025000Y-110800000D01*
X125064018Y-110803843D01*
X125064018Y-110803843D01*
G37*
G04 #@! TD*
D10*
G04 #@! TO.C,JP6*
X100025000Y-112000000D03*
D11*
G36*
X100564018Y-111053843D02*
X100601537Y-111065224D01*
X100636114Y-111083706D01*
X100666421Y-111108579D01*
X100691410Y-111139060D01*
X101191410Y-111889060D01*
X101209856Y-111923657D01*
X101221198Y-111961187D01*
X101225000Y-112000209D01*
X101221116Y-112039223D01*
X101209696Y-112076730D01*
X101191410Y-112110940D01*
X100691410Y-112860940D01*
X100666569Y-112891273D01*
X100636288Y-112916178D01*
X100601730Y-112934696D01*
X100564223Y-112946116D01*
X100525000Y-112950000D01*
X99525000Y-112950000D01*
X99485982Y-112946157D01*
X99448463Y-112934776D01*
X99413886Y-112916294D01*
X99383579Y-112891421D01*
X99358706Y-112861114D01*
X99340224Y-112826537D01*
X99328843Y-112789018D01*
X99325000Y-112750000D01*
X99325000Y-111250000D01*
X99328843Y-111210982D01*
X99340224Y-111173463D01*
X99358706Y-111138886D01*
X99383579Y-111108579D01*
X99413886Y-111083706D01*
X99448463Y-111065224D01*
X99485982Y-111053843D01*
X99525000Y-111050000D01*
X100525000Y-111050000D01*
X100564018Y-111053843D01*
X100564018Y-111053843D01*
G37*
D10*
X101475000Y-112000000D03*
D11*
G36*
X102014018Y-111053843D02*
X102051537Y-111065224D01*
X102086114Y-111083706D01*
X102116421Y-111108579D01*
X102141294Y-111138886D01*
X102159776Y-111173463D01*
X102171157Y-111210982D01*
X102175000Y-111250000D01*
X102175000Y-112750000D01*
X102171157Y-112789018D01*
X102159776Y-112826537D01*
X102141294Y-112861114D01*
X102116421Y-112891421D01*
X102086114Y-112916294D01*
X102051537Y-112934776D01*
X102014018Y-112946157D01*
X101975000Y-112950000D01*
X100825000Y-112950000D01*
X100785982Y-112946157D01*
X100748463Y-112934776D01*
X100713886Y-112916294D01*
X100683579Y-112891421D01*
X100658706Y-112861114D01*
X100640224Y-112826537D01*
X100628843Y-112789018D01*
X100625000Y-112750000D01*
X100628843Y-112710982D01*
X100640224Y-112673463D01*
X100658590Y-112639060D01*
X101084630Y-112000000D01*
X100658590Y-111360940D01*
X100640144Y-111326343D01*
X100628802Y-111288813D01*
X100625000Y-111249791D01*
X100628884Y-111210777D01*
X100640304Y-111173270D01*
X100658822Y-111138712D01*
X100683727Y-111108431D01*
X100714060Y-111083590D01*
X100748657Y-111065144D01*
X100786187Y-111053802D01*
X100825000Y-111050000D01*
X101975000Y-111050000D01*
X102014018Y-111053843D01*
X102014018Y-111053843D01*
G37*
G04 #@! TD*
D10*
G04 #@! TO.C,JP7*
X101475000Y-138000000D03*
D11*
G36*
X102014018Y-137053843D02*
X102051537Y-137065224D01*
X102086114Y-137083706D01*
X102116421Y-137108579D01*
X102141294Y-137138886D01*
X102159776Y-137173463D01*
X102171157Y-137210982D01*
X102175000Y-137250000D01*
X102175000Y-138750000D01*
X102171157Y-138789018D01*
X102159776Y-138826537D01*
X102141294Y-138861114D01*
X102116421Y-138891421D01*
X102086114Y-138916294D01*
X102051537Y-138934776D01*
X102014018Y-138946157D01*
X101975000Y-138950000D01*
X100825000Y-138950000D01*
X100785982Y-138946157D01*
X100748463Y-138934776D01*
X100713886Y-138916294D01*
X100683579Y-138891421D01*
X100658706Y-138861114D01*
X100640224Y-138826537D01*
X100628843Y-138789018D01*
X100625000Y-138750000D01*
X100628843Y-138710982D01*
X100640224Y-138673463D01*
X100658590Y-138639060D01*
X101084630Y-138000000D01*
X100658590Y-137360940D01*
X100640144Y-137326343D01*
X100628802Y-137288813D01*
X100625000Y-137249791D01*
X100628884Y-137210777D01*
X100640304Y-137173270D01*
X100658822Y-137138712D01*
X100683727Y-137108431D01*
X100714060Y-137083590D01*
X100748657Y-137065144D01*
X100786187Y-137053802D01*
X100825000Y-137050000D01*
X101975000Y-137050000D01*
X102014018Y-137053843D01*
X102014018Y-137053843D01*
G37*
D10*
X100025000Y-138000000D03*
D11*
G36*
X100564018Y-137053843D02*
X100601537Y-137065224D01*
X100636114Y-137083706D01*
X100666421Y-137108579D01*
X100691410Y-137139060D01*
X101191410Y-137889060D01*
X101209856Y-137923657D01*
X101221198Y-137961187D01*
X101225000Y-138000209D01*
X101221116Y-138039223D01*
X101209696Y-138076730D01*
X101191410Y-138110940D01*
X100691410Y-138860940D01*
X100666569Y-138891273D01*
X100636288Y-138916178D01*
X100601730Y-138934696D01*
X100564223Y-138946116D01*
X100525000Y-138950000D01*
X99525000Y-138950000D01*
X99485982Y-138946157D01*
X99448463Y-138934776D01*
X99413886Y-138916294D01*
X99383579Y-138891421D01*
X99358706Y-138861114D01*
X99340224Y-138826537D01*
X99328843Y-138789018D01*
X99325000Y-138750000D01*
X99325000Y-137250000D01*
X99328843Y-137210982D01*
X99340224Y-137173463D01*
X99358706Y-137138886D01*
X99383579Y-137108579D01*
X99413886Y-137083706D01*
X99448463Y-137065224D01*
X99485982Y-137053843D01*
X99525000Y-137050000D01*
X100525000Y-137050000D01*
X100564018Y-137053843D01*
X100564018Y-137053843D01*
G37*
G04 #@! TD*
D10*
G04 #@! TO.C,JP8*
X124525000Y-71000000D03*
D11*
G36*
X125064018Y-70053843D02*
X125101537Y-70065224D01*
X125136114Y-70083706D01*
X125166421Y-70108579D01*
X125191410Y-70139060D01*
X125691410Y-70889060D01*
X125709856Y-70923657D01*
X125721198Y-70961187D01*
X125725000Y-71000209D01*
X125721116Y-71039223D01*
X125709696Y-71076730D01*
X125691410Y-71110940D01*
X125191410Y-71860940D01*
X125166569Y-71891273D01*
X125136288Y-71916178D01*
X125101730Y-71934696D01*
X125064223Y-71946116D01*
X125025000Y-71950000D01*
X124025000Y-71950000D01*
X123985982Y-71946157D01*
X123948463Y-71934776D01*
X123913886Y-71916294D01*
X123883579Y-71891421D01*
X123858706Y-71861114D01*
X123840224Y-71826537D01*
X123828843Y-71789018D01*
X123825000Y-71750000D01*
X123825000Y-70250000D01*
X123828843Y-70210982D01*
X123840224Y-70173463D01*
X123858706Y-70138886D01*
X123883579Y-70108579D01*
X123913886Y-70083706D01*
X123948463Y-70065224D01*
X123985982Y-70053843D01*
X124025000Y-70050000D01*
X125025000Y-70050000D01*
X125064018Y-70053843D01*
X125064018Y-70053843D01*
G37*
D10*
X125975000Y-71000000D03*
D11*
G36*
X126514018Y-70053843D02*
X126551537Y-70065224D01*
X126586114Y-70083706D01*
X126616421Y-70108579D01*
X126641294Y-70138886D01*
X126659776Y-70173463D01*
X126671157Y-70210982D01*
X126675000Y-70250000D01*
X126675000Y-71750000D01*
X126671157Y-71789018D01*
X126659776Y-71826537D01*
X126641294Y-71861114D01*
X126616421Y-71891421D01*
X126586114Y-71916294D01*
X126551537Y-71934776D01*
X126514018Y-71946157D01*
X126475000Y-71950000D01*
X125325000Y-71950000D01*
X125285982Y-71946157D01*
X125248463Y-71934776D01*
X125213886Y-71916294D01*
X125183579Y-71891421D01*
X125158706Y-71861114D01*
X125140224Y-71826537D01*
X125128843Y-71789018D01*
X125125000Y-71750000D01*
X125128843Y-71710982D01*
X125140224Y-71673463D01*
X125158590Y-71639060D01*
X125584630Y-71000000D01*
X125158590Y-70360940D01*
X125140144Y-70326343D01*
X125128802Y-70288813D01*
X125125000Y-70249791D01*
X125128884Y-70210777D01*
X125140304Y-70173270D01*
X125158822Y-70138712D01*
X125183727Y-70108431D01*
X125214060Y-70083590D01*
X125248657Y-70065144D01*
X125286187Y-70053802D01*
X125325000Y-70050000D01*
X126475000Y-70050000D01*
X126514018Y-70053843D01*
X126514018Y-70053843D01*
G37*
G04 #@! TD*
D10*
G04 #@! TO.C,JP9*
X124525000Y-97000000D03*
D11*
G36*
X125064018Y-96053843D02*
X125101537Y-96065224D01*
X125136114Y-96083706D01*
X125166421Y-96108579D01*
X125191410Y-96139060D01*
X125691410Y-96889060D01*
X125709856Y-96923657D01*
X125721198Y-96961187D01*
X125725000Y-97000209D01*
X125721116Y-97039223D01*
X125709696Y-97076730D01*
X125691410Y-97110940D01*
X125191410Y-97860940D01*
X125166569Y-97891273D01*
X125136288Y-97916178D01*
X125101730Y-97934696D01*
X125064223Y-97946116D01*
X125025000Y-97950000D01*
X124025000Y-97950000D01*
X123985982Y-97946157D01*
X123948463Y-97934776D01*
X123913886Y-97916294D01*
X123883579Y-97891421D01*
X123858706Y-97861114D01*
X123840224Y-97826537D01*
X123828843Y-97789018D01*
X123825000Y-97750000D01*
X123825000Y-96250000D01*
X123828843Y-96210982D01*
X123840224Y-96173463D01*
X123858706Y-96138886D01*
X123883579Y-96108579D01*
X123913886Y-96083706D01*
X123948463Y-96065224D01*
X123985982Y-96053843D01*
X124025000Y-96050000D01*
X125025000Y-96050000D01*
X125064018Y-96053843D01*
X125064018Y-96053843D01*
G37*
D10*
X125975000Y-97000000D03*
D11*
G36*
X126514018Y-96053843D02*
X126551537Y-96065224D01*
X126586114Y-96083706D01*
X126616421Y-96108579D01*
X126641294Y-96138886D01*
X126659776Y-96173463D01*
X126671157Y-96210982D01*
X126675000Y-96250000D01*
X126675000Y-97750000D01*
X126671157Y-97789018D01*
X126659776Y-97826537D01*
X126641294Y-97861114D01*
X126616421Y-97891421D01*
X126586114Y-97916294D01*
X126551537Y-97934776D01*
X126514018Y-97946157D01*
X126475000Y-97950000D01*
X125325000Y-97950000D01*
X125285982Y-97946157D01*
X125248463Y-97934776D01*
X125213886Y-97916294D01*
X125183579Y-97891421D01*
X125158706Y-97861114D01*
X125140224Y-97826537D01*
X125128843Y-97789018D01*
X125125000Y-97750000D01*
X125128843Y-97710982D01*
X125140224Y-97673463D01*
X125158590Y-97639060D01*
X125584630Y-97000000D01*
X125158590Y-96360940D01*
X125140144Y-96326343D01*
X125128802Y-96288813D01*
X125125000Y-96249791D01*
X125128884Y-96210777D01*
X125140304Y-96173270D01*
X125158822Y-96138712D01*
X125183727Y-96108431D01*
X125214060Y-96083590D01*
X125248657Y-96065144D01*
X125286187Y-96053802D01*
X125325000Y-96050000D01*
X126475000Y-96050000D01*
X126514018Y-96053843D01*
X126514018Y-96053843D01*
G37*
G04 #@! TD*
D10*
G04 #@! TO.C,JP10*
X125975000Y-123250000D03*
D11*
G36*
X126514018Y-122303843D02*
X126551537Y-122315224D01*
X126586114Y-122333706D01*
X126616421Y-122358579D01*
X126641294Y-122388886D01*
X126659776Y-122423463D01*
X126671157Y-122460982D01*
X126675000Y-122500000D01*
X126675000Y-124000000D01*
X126671157Y-124039018D01*
X126659776Y-124076537D01*
X126641294Y-124111114D01*
X126616421Y-124141421D01*
X126586114Y-124166294D01*
X126551537Y-124184776D01*
X126514018Y-124196157D01*
X126475000Y-124200000D01*
X125325000Y-124200000D01*
X125285982Y-124196157D01*
X125248463Y-124184776D01*
X125213886Y-124166294D01*
X125183579Y-124141421D01*
X125158706Y-124111114D01*
X125140224Y-124076537D01*
X125128843Y-124039018D01*
X125125000Y-124000000D01*
X125128843Y-123960982D01*
X125140224Y-123923463D01*
X125158590Y-123889060D01*
X125584630Y-123250000D01*
X125158590Y-122610940D01*
X125140144Y-122576343D01*
X125128802Y-122538813D01*
X125125000Y-122499791D01*
X125128884Y-122460777D01*
X125140304Y-122423270D01*
X125158822Y-122388712D01*
X125183727Y-122358431D01*
X125214060Y-122333590D01*
X125248657Y-122315144D01*
X125286187Y-122303802D01*
X125325000Y-122300000D01*
X126475000Y-122300000D01*
X126514018Y-122303843D01*
X126514018Y-122303843D01*
G37*
D10*
X124525000Y-123250000D03*
D11*
G36*
X125064018Y-122303843D02*
X125101537Y-122315224D01*
X125136114Y-122333706D01*
X125166421Y-122358579D01*
X125191410Y-122389060D01*
X125691410Y-123139060D01*
X125709856Y-123173657D01*
X125721198Y-123211187D01*
X125725000Y-123250209D01*
X125721116Y-123289223D01*
X125709696Y-123326730D01*
X125691410Y-123360940D01*
X125191410Y-124110940D01*
X125166569Y-124141273D01*
X125136288Y-124166178D01*
X125101730Y-124184696D01*
X125064223Y-124196116D01*
X125025000Y-124200000D01*
X124025000Y-124200000D01*
X123985982Y-124196157D01*
X123948463Y-124184776D01*
X123913886Y-124166294D01*
X123883579Y-124141421D01*
X123858706Y-124111114D01*
X123840224Y-124076537D01*
X123828843Y-124039018D01*
X123825000Y-124000000D01*
X123825000Y-122500000D01*
X123828843Y-122460982D01*
X123840224Y-122423463D01*
X123858706Y-122388886D01*
X123883579Y-122358579D01*
X123913886Y-122333706D01*
X123948463Y-122315224D01*
X123985982Y-122303843D01*
X124025000Y-122300000D01*
X125025000Y-122300000D01*
X125064018Y-122303843D01*
X125064018Y-122303843D01*
G37*
G04 #@! TD*
D10*
G04 #@! TO.C,JP12*
X101475000Y-82250000D03*
D11*
G36*
X102014018Y-81303843D02*
X102051537Y-81315224D01*
X102086114Y-81333706D01*
X102116421Y-81358579D01*
X102141294Y-81388886D01*
X102159776Y-81423463D01*
X102171157Y-81460982D01*
X102175000Y-81500000D01*
X102175000Y-83000000D01*
X102171157Y-83039018D01*
X102159776Y-83076537D01*
X102141294Y-83111114D01*
X102116421Y-83141421D01*
X102086114Y-83166294D01*
X102051537Y-83184776D01*
X102014018Y-83196157D01*
X101975000Y-83200000D01*
X100825000Y-83200000D01*
X100785982Y-83196157D01*
X100748463Y-83184776D01*
X100713886Y-83166294D01*
X100683579Y-83141421D01*
X100658706Y-83111114D01*
X100640224Y-83076537D01*
X100628843Y-83039018D01*
X100625000Y-83000000D01*
X100628843Y-82960982D01*
X100640224Y-82923463D01*
X100658590Y-82889060D01*
X101084630Y-82250000D01*
X100658590Y-81610940D01*
X100640144Y-81576343D01*
X100628802Y-81538813D01*
X100625000Y-81499791D01*
X100628884Y-81460777D01*
X100640304Y-81423270D01*
X100658822Y-81388712D01*
X100683727Y-81358431D01*
X100714060Y-81333590D01*
X100748657Y-81315144D01*
X100786187Y-81303802D01*
X100825000Y-81300000D01*
X101975000Y-81300000D01*
X102014018Y-81303843D01*
X102014018Y-81303843D01*
G37*
D10*
X100025000Y-82250000D03*
D11*
G36*
X100564018Y-81303843D02*
X100601537Y-81315224D01*
X100636114Y-81333706D01*
X100666421Y-81358579D01*
X100691410Y-81389060D01*
X101191410Y-82139060D01*
X101209856Y-82173657D01*
X101221198Y-82211187D01*
X101225000Y-82250209D01*
X101221116Y-82289223D01*
X101209696Y-82326730D01*
X101191410Y-82360940D01*
X100691410Y-83110940D01*
X100666569Y-83141273D01*
X100636288Y-83166178D01*
X100601730Y-83184696D01*
X100564223Y-83196116D01*
X100525000Y-83200000D01*
X99525000Y-83200000D01*
X99485982Y-83196157D01*
X99448463Y-83184776D01*
X99413886Y-83166294D01*
X99383579Y-83141421D01*
X99358706Y-83111114D01*
X99340224Y-83076537D01*
X99328843Y-83039018D01*
X99325000Y-83000000D01*
X99325000Y-81500000D01*
X99328843Y-81460982D01*
X99340224Y-81423463D01*
X99358706Y-81388886D01*
X99383579Y-81358579D01*
X99413886Y-81333706D01*
X99448463Y-81315224D01*
X99485982Y-81303843D01*
X99525000Y-81300000D01*
X100525000Y-81300000D01*
X100564018Y-81303843D01*
X100564018Y-81303843D01*
G37*
G04 #@! TD*
D10*
G04 #@! TO.C,JP13*
X101500000Y-97250000D03*
D11*
G36*
X102039018Y-96303843D02*
X102076537Y-96315224D01*
X102111114Y-96333706D01*
X102141421Y-96358579D01*
X102166294Y-96388886D01*
X102184776Y-96423463D01*
X102196157Y-96460982D01*
X102200000Y-96500000D01*
X102200000Y-98000000D01*
X102196157Y-98039018D01*
X102184776Y-98076537D01*
X102166294Y-98111114D01*
X102141421Y-98141421D01*
X102111114Y-98166294D01*
X102076537Y-98184776D01*
X102039018Y-98196157D01*
X102000000Y-98200000D01*
X100850000Y-98200000D01*
X100810982Y-98196157D01*
X100773463Y-98184776D01*
X100738886Y-98166294D01*
X100708579Y-98141421D01*
X100683706Y-98111114D01*
X100665224Y-98076537D01*
X100653843Y-98039018D01*
X100650000Y-98000000D01*
X100653843Y-97960982D01*
X100665224Y-97923463D01*
X100683590Y-97889060D01*
X101109630Y-97250000D01*
X100683590Y-96610940D01*
X100665144Y-96576343D01*
X100653802Y-96538813D01*
X100650000Y-96499791D01*
X100653884Y-96460777D01*
X100665304Y-96423270D01*
X100683822Y-96388712D01*
X100708727Y-96358431D01*
X100739060Y-96333590D01*
X100773657Y-96315144D01*
X100811187Y-96303802D01*
X100850000Y-96300000D01*
X102000000Y-96300000D01*
X102039018Y-96303843D01*
X102039018Y-96303843D01*
G37*
D10*
X100050000Y-97250000D03*
D11*
G36*
X100589018Y-96303843D02*
X100626537Y-96315224D01*
X100661114Y-96333706D01*
X100691421Y-96358579D01*
X100716410Y-96389060D01*
X101216410Y-97139060D01*
X101234856Y-97173657D01*
X101246198Y-97211187D01*
X101250000Y-97250209D01*
X101246116Y-97289223D01*
X101234696Y-97326730D01*
X101216410Y-97360940D01*
X100716410Y-98110940D01*
X100691569Y-98141273D01*
X100661288Y-98166178D01*
X100626730Y-98184696D01*
X100589223Y-98196116D01*
X100550000Y-98200000D01*
X99550000Y-98200000D01*
X99510982Y-98196157D01*
X99473463Y-98184776D01*
X99438886Y-98166294D01*
X99408579Y-98141421D01*
X99383706Y-98111114D01*
X99365224Y-98076537D01*
X99353843Y-98039018D01*
X99350000Y-98000000D01*
X99350000Y-96500000D01*
X99353843Y-96460982D01*
X99365224Y-96423463D01*
X99383706Y-96388886D01*
X99408579Y-96358579D01*
X99438886Y-96333706D01*
X99473463Y-96315224D01*
X99510982Y-96303843D01*
X99550000Y-96300000D01*
X100550000Y-96300000D01*
X100589018Y-96303843D01*
X100589018Y-96303843D01*
G37*
G04 #@! TD*
D10*
G04 #@! TO.C,JP14*
X100025000Y-123250000D03*
D11*
G36*
X100564018Y-122303843D02*
X100601537Y-122315224D01*
X100636114Y-122333706D01*
X100666421Y-122358579D01*
X100691410Y-122389060D01*
X101191410Y-123139060D01*
X101209856Y-123173657D01*
X101221198Y-123211187D01*
X101225000Y-123250209D01*
X101221116Y-123289223D01*
X101209696Y-123326730D01*
X101191410Y-123360940D01*
X100691410Y-124110940D01*
X100666569Y-124141273D01*
X100636288Y-124166178D01*
X100601730Y-124184696D01*
X100564223Y-124196116D01*
X100525000Y-124200000D01*
X99525000Y-124200000D01*
X99485982Y-124196157D01*
X99448463Y-124184776D01*
X99413886Y-124166294D01*
X99383579Y-124141421D01*
X99358706Y-124111114D01*
X99340224Y-124076537D01*
X99328843Y-124039018D01*
X99325000Y-124000000D01*
X99325000Y-122500000D01*
X99328843Y-122460982D01*
X99340224Y-122423463D01*
X99358706Y-122388886D01*
X99383579Y-122358579D01*
X99413886Y-122333706D01*
X99448463Y-122315224D01*
X99485982Y-122303843D01*
X99525000Y-122300000D01*
X100525000Y-122300000D01*
X100564018Y-122303843D01*
X100564018Y-122303843D01*
G37*
D10*
X101475000Y-123250000D03*
D11*
G36*
X102014018Y-122303843D02*
X102051537Y-122315224D01*
X102086114Y-122333706D01*
X102116421Y-122358579D01*
X102141294Y-122388886D01*
X102159776Y-122423463D01*
X102171157Y-122460982D01*
X102175000Y-122500000D01*
X102175000Y-124000000D01*
X102171157Y-124039018D01*
X102159776Y-124076537D01*
X102141294Y-124111114D01*
X102116421Y-124141421D01*
X102086114Y-124166294D01*
X102051537Y-124184776D01*
X102014018Y-124196157D01*
X101975000Y-124200000D01*
X100825000Y-124200000D01*
X100785982Y-124196157D01*
X100748463Y-124184776D01*
X100713886Y-124166294D01*
X100683579Y-124141421D01*
X100658706Y-124111114D01*
X100640224Y-124076537D01*
X100628843Y-124039018D01*
X100625000Y-124000000D01*
X100628843Y-123960982D01*
X100640224Y-123923463D01*
X100658590Y-123889060D01*
X101084630Y-123250000D01*
X100658590Y-122610940D01*
X100640144Y-122576343D01*
X100628802Y-122538813D01*
X100625000Y-122499791D01*
X100628884Y-122460777D01*
X100640304Y-122423270D01*
X100658822Y-122388712D01*
X100683727Y-122358431D01*
X100714060Y-122333590D01*
X100748657Y-122315144D01*
X100786187Y-122303802D01*
X100825000Y-122300000D01*
X101975000Y-122300000D01*
X102014018Y-122303843D01*
X102014018Y-122303843D01*
G37*
G04 #@! TD*
D10*
G04 #@! TO.C,JP15*
X101475000Y-149250000D03*
D11*
G36*
X102014018Y-148303843D02*
X102051537Y-148315224D01*
X102086114Y-148333706D01*
X102116421Y-148358579D01*
X102141294Y-148388886D01*
X102159776Y-148423463D01*
X102171157Y-148460982D01*
X102175000Y-148500000D01*
X102175000Y-150000000D01*
X102171157Y-150039018D01*
X102159776Y-150076537D01*
X102141294Y-150111114D01*
X102116421Y-150141421D01*
X102086114Y-150166294D01*
X102051537Y-150184776D01*
X102014018Y-150196157D01*
X101975000Y-150200000D01*
X100825000Y-150200000D01*
X100785982Y-150196157D01*
X100748463Y-150184776D01*
X100713886Y-150166294D01*
X100683579Y-150141421D01*
X100658706Y-150111114D01*
X100640224Y-150076537D01*
X100628843Y-150039018D01*
X100625000Y-150000000D01*
X100628843Y-149960982D01*
X100640224Y-149923463D01*
X100658590Y-149889060D01*
X101084630Y-149250000D01*
X100658590Y-148610940D01*
X100640144Y-148576343D01*
X100628802Y-148538813D01*
X100625000Y-148499791D01*
X100628884Y-148460777D01*
X100640304Y-148423270D01*
X100658822Y-148388712D01*
X100683727Y-148358431D01*
X100714060Y-148333590D01*
X100748657Y-148315144D01*
X100786187Y-148303802D01*
X100825000Y-148300000D01*
X101975000Y-148300000D01*
X102014018Y-148303843D01*
X102014018Y-148303843D01*
G37*
D10*
X100025000Y-149250000D03*
D11*
G36*
X100564018Y-148303843D02*
X100601537Y-148315224D01*
X100636114Y-148333706D01*
X100666421Y-148358579D01*
X100691410Y-148389060D01*
X101191410Y-149139060D01*
X101209856Y-149173657D01*
X101221198Y-149211187D01*
X101225000Y-149250209D01*
X101221116Y-149289223D01*
X101209696Y-149326730D01*
X101191410Y-149360940D01*
X100691410Y-150110940D01*
X100666569Y-150141273D01*
X100636288Y-150166178D01*
X100601730Y-150184696D01*
X100564223Y-150196116D01*
X100525000Y-150200000D01*
X99525000Y-150200000D01*
X99485982Y-150196157D01*
X99448463Y-150184776D01*
X99413886Y-150166294D01*
X99383579Y-150141421D01*
X99358706Y-150111114D01*
X99340224Y-150076537D01*
X99328843Y-150039018D01*
X99325000Y-150000000D01*
X99325000Y-148500000D01*
X99328843Y-148460982D01*
X99340224Y-148423463D01*
X99358706Y-148388886D01*
X99383579Y-148358579D01*
X99413886Y-148333706D01*
X99448463Y-148315224D01*
X99485982Y-148303843D01*
X99525000Y-148300000D01*
X100525000Y-148300000D01*
X100564018Y-148303843D01*
X100564018Y-148303843D01*
G37*
G04 #@! TD*
D16*
G04 #@! TO.C,J1*
X125750000Y-61500000D03*
G04 #@! TD*
G04 #@! TO.C,J2*
X113000000Y-158250000D03*
G04 #@! TD*
D15*
G04 #@! TO.C,U9*
X107250000Y-69750000D03*
X107250000Y-61250000D03*
X107250000Y-58250000D03*
G04 #@! TD*
G04 #@! TO.C,U13*
X118750000Y-72500000D03*
X118750000Y-81000000D03*
G04 #@! TD*
G04 #@! TO.C,U17*
X107250000Y-81000000D03*
X107250000Y-72500000D03*
G04 #@! TD*
G04 #@! TO.C,U3*
X118750000Y-95750000D03*
X118750000Y-87250000D03*
X118750000Y-84250000D03*
G04 #@! TD*
G04 #@! TO.C,U10*
X107250000Y-84250000D03*
X107250000Y-87250000D03*
X107250000Y-95750000D03*
G04 #@! TD*
G04 #@! TO.C,U14*
X118750000Y-107000000D03*
X118750000Y-98500000D03*
G04 #@! TD*
G04 #@! TO.C,U18*
X107250000Y-98500000D03*
X107250000Y-107000000D03*
G04 #@! TD*
G04 #@! TO.C,U5*
X118750000Y-110250000D03*
X118750000Y-113250000D03*
X118750000Y-121750000D03*
G04 #@! TD*
G04 #@! TO.C,U11*
X107250000Y-121750000D03*
X107250000Y-113250000D03*
X107250000Y-110250000D03*
G04 #@! TD*
G04 #@! TO.C,U15*
X118750000Y-133000000D03*
X118750000Y-124500000D03*
G04 #@! TD*
G04 #@! TO.C,U19*
X107250000Y-124500000D03*
X107250000Y-133000000D03*
G04 #@! TD*
G04 #@! TO.C,U7*
X118750000Y-136250000D03*
X118750000Y-139250000D03*
X118750000Y-147750000D03*
G04 #@! TD*
G04 #@! TO.C,U12*
X107250000Y-136250000D03*
X107250000Y-139250000D03*
X107250000Y-147750000D03*
G04 #@! TD*
G04 #@! TO.C,U16*
X118750000Y-150500000D03*
X118750000Y-159000000D03*
X118750000Y-162000000D03*
G04 #@! TD*
G04 #@! TO.C,U20*
X107250000Y-162000000D03*
X107250000Y-159000000D03*
X107250000Y-150500000D03*
G04 #@! TD*
D11*
G04 #@! TO.C,C21*
G36*
X113589943Y-144189155D02*
X113623312Y-144194105D01*
X113656035Y-144202302D01*
X113687797Y-144213666D01*
X113718293Y-144228090D01*
X113747227Y-144245432D01*
X113774323Y-144265528D01*
X113799318Y-144288182D01*
X113821972Y-144313177D01*
X113842068Y-144340273D01*
X113859410Y-144369207D01*
X113873834Y-144399703D01*
X113885198Y-144431465D01*
X113893395Y-144464188D01*
X113898345Y-144497557D01*
X113900000Y-144531250D01*
X113900000Y-145218750D01*
X113898345Y-145252443D01*
X113893395Y-145285812D01*
X113885198Y-145318535D01*
X113873834Y-145350297D01*
X113859410Y-145380793D01*
X113842068Y-145409727D01*
X113821972Y-145436823D01*
X113799318Y-145461818D01*
X113774323Y-145484472D01*
X113747227Y-145504568D01*
X113718293Y-145521910D01*
X113687797Y-145536334D01*
X113656035Y-145547698D01*
X113623312Y-145555895D01*
X113589943Y-145560845D01*
X113556250Y-145562500D01*
X112443750Y-145562500D01*
X112410057Y-145560845D01*
X112376688Y-145555895D01*
X112343965Y-145547698D01*
X112312203Y-145536334D01*
X112281707Y-145521910D01*
X112252773Y-145504568D01*
X112225677Y-145484472D01*
X112200682Y-145461818D01*
X112178028Y-145436823D01*
X112157932Y-145409727D01*
X112140590Y-145380793D01*
X112126166Y-145350297D01*
X112114802Y-145318535D01*
X112106605Y-145285812D01*
X112101655Y-145252443D01*
X112100000Y-145218750D01*
X112100000Y-144531250D01*
X112101655Y-144497557D01*
X112106605Y-144464188D01*
X112114802Y-144431465D01*
X112126166Y-144399703D01*
X112140590Y-144369207D01*
X112157932Y-144340273D01*
X112178028Y-144313177D01*
X112200682Y-144288182D01*
X112225677Y-144265528D01*
X112252773Y-144245432D01*
X112281707Y-144228090D01*
X112312203Y-144213666D01*
X112343965Y-144202302D01*
X112376688Y-144194105D01*
X112410057Y-144189155D01*
X112443750Y-144187500D01*
X113556250Y-144187500D01*
X113589943Y-144189155D01*
X113589943Y-144189155D01*
G37*
D12*
X113000000Y-144875000D03*
D11*
G36*
X113589943Y-146064155D02*
X113623312Y-146069105D01*
X113656035Y-146077302D01*
X113687797Y-146088666D01*
X113718293Y-146103090D01*
X113747227Y-146120432D01*
X113774323Y-146140528D01*
X113799318Y-146163182D01*
X113821972Y-146188177D01*
X113842068Y-146215273D01*
X113859410Y-146244207D01*
X113873834Y-146274703D01*
X113885198Y-146306465D01*
X113893395Y-146339188D01*
X113898345Y-146372557D01*
X113900000Y-146406250D01*
X113900000Y-147093750D01*
X113898345Y-147127443D01*
X113893395Y-147160812D01*
X113885198Y-147193535D01*
X113873834Y-147225297D01*
X113859410Y-147255793D01*
X113842068Y-147284727D01*
X113821972Y-147311823D01*
X113799318Y-147336818D01*
X113774323Y-147359472D01*
X113747227Y-147379568D01*
X113718293Y-147396910D01*
X113687797Y-147411334D01*
X113656035Y-147422698D01*
X113623312Y-147430895D01*
X113589943Y-147435845D01*
X113556250Y-147437500D01*
X112443750Y-147437500D01*
X112410057Y-147435845D01*
X112376688Y-147430895D01*
X112343965Y-147422698D01*
X112312203Y-147411334D01*
X112281707Y-147396910D01*
X112252773Y-147379568D01*
X112225677Y-147359472D01*
X112200682Y-147336818D01*
X112178028Y-147311823D01*
X112157932Y-147284727D01*
X112140590Y-147255793D01*
X112126166Y-147225297D01*
X112114802Y-147193535D01*
X112106605Y-147160812D01*
X112101655Y-147127443D01*
X112100000Y-147093750D01*
X112100000Y-146406250D01*
X112101655Y-146372557D01*
X112106605Y-146339188D01*
X112114802Y-146306465D01*
X112126166Y-146274703D01*
X112140590Y-146244207D01*
X112157932Y-146215273D01*
X112178028Y-146188177D01*
X112200682Y-146163182D01*
X112225677Y-146140528D01*
X112252773Y-146120432D01*
X112281707Y-146103090D01*
X112312203Y-146088666D01*
X112343965Y-146077302D01*
X112376688Y-146069105D01*
X112410057Y-146064155D01*
X112443750Y-146062500D01*
X113556250Y-146062500D01*
X113589943Y-146064155D01*
X113589943Y-146064155D01*
G37*
D12*
X113000000Y-146750000D03*
G04 #@! TD*
D11*
G04 #@! TO.C,C26*
G36*
X113589943Y-152501655D02*
X113623312Y-152506605D01*
X113656035Y-152514802D01*
X113687797Y-152526166D01*
X113718293Y-152540590D01*
X113747227Y-152557932D01*
X113774323Y-152578028D01*
X113799318Y-152600682D01*
X113821972Y-152625677D01*
X113842068Y-152652773D01*
X113859410Y-152681707D01*
X113873834Y-152712203D01*
X113885198Y-152743965D01*
X113893395Y-152776688D01*
X113898345Y-152810057D01*
X113900000Y-152843750D01*
X113900000Y-153531250D01*
X113898345Y-153564943D01*
X113893395Y-153598312D01*
X113885198Y-153631035D01*
X113873834Y-153662797D01*
X113859410Y-153693293D01*
X113842068Y-153722227D01*
X113821972Y-153749323D01*
X113799318Y-153774318D01*
X113774323Y-153796972D01*
X113747227Y-153817068D01*
X113718293Y-153834410D01*
X113687797Y-153848834D01*
X113656035Y-153860198D01*
X113623312Y-153868395D01*
X113589943Y-153873345D01*
X113556250Y-153875000D01*
X112443750Y-153875000D01*
X112410057Y-153873345D01*
X112376688Y-153868395D01*
X112343965Y-153860198D01*
X112312203Y-153848834D01*
X112281707Y-153834410D01*
X112252773Y-153817068D01*
X112225677Y-153796972D01*
X112200682Y-153774318D01*
X112178028Y-153749323D01*
X112157932Y-153722227D01*
X112140590Y-153693293D01*
X112126166Y-153662797D01*
X112114802Y-153631035D01*
X112106605Y-153598312D01*
X112101655Y-153564943D01*
X112100000Y-153531250D01*
X112100000Y-152843750D01*
X112101655Y-152810057D01*
X112106605Y-152776688D01*
X112114802Y-152743965D01*
X112126166Y-152712203D01*
X112140590Y-152681707D01*
X112157932Y-152652773D01*
X112178028Y-152625677D01*
X112200682Y-152600682D01*
X112225677Y-152578028D01*
X112252773Y-152557932D01*
X112281707Y-152540590D01*
X112312203Y-152526166D01*
X112343965Y-152514802D01*
X112376688Y-152506605D01*
X112410057Y-152501655D01*
X112443750Y-152500000D01*
X113556250Y-152500000D01*
X113589943Y-152501655D01*
X113589943Y-152501655D01*
G37*
D12*
X113000000Y-153187500D03*
D11*
G36*
X113589943Y-150626655D02*
X113623312Y-150631605D01*
X113656035Y-150639802D01*
X113687797Y-150651166D01*
X113718293Y-150665590D01*
X113747227Y-150682932D01*
X113774323Y-150703028D01*
X113799318Y-150725682D01*
X113821972Y-150750677D01*
X113842068Y-150777773D01*
X113859410Y-150806707D01*
X113873834Y-150837203D01*
X113885198Y-150868965D01*
X113893395Y-150901688D01*
X113898345Y-150935057D01*
X113900000Y-150968750D01*
X113900000Y-151656250D01*
X113898345Y-151689943D01*
X113893395Y-151723312D01*
X113885198Y-151756035D01*
X113873834Y-151787797D01*
X113859410Y-151818293D01*
X113842068Y-151847227D01*
X113821972Y-151874323D01*
X113799318Y-151899318D01*
X113774323Y-151921972D01*
X113747227Y-151942068D01*
X113718293Y-151959410D01*
X113687797Y-151973834D01*
X113656035Y-151985198D01*
X113623312Y-151993395D01*
X113589943Y-151998345D01*
X113556250Y-152000000D01*
X112443750Y-152000000D01*
X112410057Y-151998345D01*
X112376688Y-151993395D01*
X112343965Y-151985198D01*
X112312203Y-151973834D01*
X112281707Y-151959410D01*
X112252773Y-151942068D01*
X112225677Y-151921972D01*
X112200682Y-151899318D01*
X112178028Y-151874323D01*
X112157932Y-151847227D01*
X112140590Y-151818293D01*
X112126166Y-151787797D01*
X112114802Y-151756035D01*
X112106605Y-151723312D01*
X112101655Y-151689943D01*
X112100000Y-151656250D01*
X112100000Y-150968750D01*
X112101655Y-150935057D01*
X112106605Y-150901688D01*
X112114802Y-150868965D01*
X112126166Y-150837203D01*
X112140590Y-150806707D01*
X112157932Y-150777773D01*
X112178028Y-150750677D01*
X112200682Y-150725682D01*
X112225677Y-150703028D01*
X112252773Y-150682932D01*
X112281707Y-150665590D01*
X112312203Y-150651166D01*
X112343965Y-150639802D01*
X112376688Y-150631605D01*
X112410057Y-150626655D01*
X112443750Y-150625000D01*
X113556250Y-150625000D01*
X113589943Y-150626655D01*
X113589943Y-150626655D01*
G37*
D12*
X113000000Y-151312500D03*
G04 #@! TD*
D11*
G04 #@! TO.C,C19*
G36*
X113589943Y-94501655D02*
X113623312Y-94506605D01*
X113656035Y-94514802D01*
X113687797Y-94526166D01*
X113718293Y-94540590D01*
X113747227Y-94557932D01*
X113774323Y-94578028D01*
X113799318Y-94600682D01*
X113821972Y-94625677D01*
X113842068Y-94652773D01*
X113859410Y-94681707D01*
X113873834Y-94712203D01*
X113885198Y-94743965D01*
X113893395Y-94776688D01*
X113898345Y-94810057D01*
X113900000Y-94843750D01*
X113900000Y-95531250D01*
X113898345Y-95564943D01*
X113893395Y-95598312D01*
X113885198Y-95631035D01*
X113873834Y-95662797D01*
X113859410Y-95693293D01*
X113842068Y-95722227D01*
X113821972Y-95749323D01*
X113799318Y-95774318D01*
X113774323Y-95796972D01*
X113747227Y-95817068D01*
X113718293Y-95834410D01*
X113687797Y-95848834D01*
X113656035Y-95860198D01*
X113623312Y-95868395D01*
X113589943Y-95873345D01*
X113556250Y-95875000D01*
X112443750Y-95875000D01*
X112410057Y-95873345D01*
X112376688Y-95868395D01*
X112343965Y-95860198D01*
X112312203Y-95848834D01*
X112281707Y-95834410D01*
X112252773Y-95817068D01*
X112225677Y-95796972D01*
X112200682Y-95774318D01*
X112178028Y-95749323D01*
X112157932Y-95722227D01*
X112140590Y-95693293D01*
X112126166Y-95662797D01*
X112114802Y-95631035D01*
X112106605Y-95598312D01*
X112101655Y-95564943D01*
X112100000Y-95531250D01*
X112100000Y-94843750D01*
X112101655Y-94810057D01*
X112106605Y-94776688D01*
X112114802Y-94743965D01*
X112126166Y-94712203D01*
X112140590Y-94681707D01*
X112157932Y-94652773D01*
X112178028Y-94625677D01*
X112200682Y-94600682D01*
X112225677Y-94578028D01*
X112252773Y-94557932D01*
X112281707Y-94540590D01*
X112312203Y-94526166D01*
X112343965Y-94514802D01*
X112376688Y-94506605D01*
X112410057Y-94501655D01*
X112443750Y-94500000D01*
X113556250Y-94500000D01*
X113589943Y-94501655D01*
X113589943Y-94501655D01*
G37*
D12*
X113000000Y-95187500D03*
D11*
G36*
X113589943Y-92626655D02*
X113623312Y-92631605D01*
X113656035Y-92639802D01*
X113687797Y-92651166D01*
X113718293Y-92665590D01*
X113747227Y-92682932D01*
X113774323Y-92703028D01*
X113799318Y-92725682D01*
X113821972Y-92750677D01*
X113842068Y-92777773D01*
X113859410Y-92806707D01*
X113873834Y-92837203D01*
X113885198Y-92868965D01*
X113893395Y-92901688D01*
X113898345Y-92935057D01*
X113900000Y-92968750D01*
X113900000Y-93656250D01*
X113898345Y-93689943D01*
X113893395Y-93723312D01*
X113885198Y-93756035D01*
X113873834Y-93787797D01*
X113859410Y-93818293D01*
X113842068Y-93847227D01*
X113821972Y-93874323D01*
X113799318Y-93899318D01*
X113774323Y-93921972D01*
X113747227Y-93942068D01*
X113718293Y-93959410D01*
X113687797Y-93973834D01*
X113656035Y-93985198D01*
X113623312Y-93993395D01*
X113589943Y-93998345D01*
X113556250Y-94000000D01*
X112443750Y-94000000D01*
X112410057Y-93998345D01*
X112376688Y-93993395D01*
X112343965Y-93985198D01*
X112312203Y-93973834D01*
X112281707Y-93959410D01*
X112252773Y-93942068D01*
X112225677Y-93921972D01*
X112200682Y-93899318D01*
X112178028Y-93874323D01*
X112157932Y-93847227D01*
X112140590Y-93818293D01*
X112126166Y-93787797D01*
X112114802Y-93756035D01*
X112106605Y-93723312D01*
X112101655Y-93689943D01*
X112100000Y-93656250D01*
X112100000Y-92968750D01*
X112101655Y-92935057D01*
X112106605Y-92901688D01*
X112114802Y-92868965D01*
X112126166Y-92837203D01*
X112140590Y-92806707D01*
X112157932Y-92777773D01*
X112178028Y-92750677D01*
X112200682Y-92725682D01*
X112225677Y-92703028D01*
X112252773Y-92682932D01*
X112281707Y-92665590D01*
X112312203Y-92651166D01*
X112343965Y-92639802D01*
X112376688Y-92631605D01*
X112410057Y-92626655D01*
X112443750Y-92625000D01*
X113556250Y-92625000D01*
X113589943Y-92626655D01*
X113589943Y-92626655D01*
G37*
D12*
X113000000Y-93312500D03*
G04 #@! TD*
D11*
G04 #@! TO.C,C20*
G36*
X113589943Y-120501655D02*
X113623312Y-120506605D01*
X113656035Y-120514802D01*
X113687797Y-120526166D01*
X113718293Y-120540590D01*
X113747227Y-120557932D01*
X113774323Y-120578028D01*
X113799318Y-120600682D01*
X113821972Y-120625677D01*
X113842068Y-120652773D01*
X113859410Y-120681707D01*
X113873834Y-120712203D01*
X113885198Y-120743965D01*
X113893395Y-120776688D01*
X113898345Y-120810057D01*
X113900000Y-120843750D01*
X113900000Y-121531250D01*
X113898345Y-121564943D01*
X113893395Y-121598312D01*
X113885198Y-121631035D01*
X113873834Y-121662797D01*
X113859410Y-121693293D01*
X113842068Y-121722227D01*
X113821972Y-121749323D01*
X113799318Y-121774318D01*
X113774323Y-121796972D01*
X113747227Y-121817068D01*
X113718293Y-121834410D01*
X113687797Y-121848834D01*
X113656035Y-121860198D01*
X113623312Y-121868395D01*
X113589943Y-121873345D01*
X113556250Y-121875000D01*
X112443750Y-121875000D01*
X112410057Y-121873345D01*
X112376688Y-121868395D01*
X112343965Y-121860198D01*
X112312203Y-121848834D01*
X112281707Y-121834410D01*
X112252773Y-121817068D01*
X112225677Y-121796972D01*
X112200682Y-121774318D01*
X112178028Y-121749323D01*
X112157932Y-121722227D01*
X112140590Y-121693293D01*
X112126166Y-121662797D01*
X112114802Y-121631035D01*
X112106605Y-121598312D01*
X112101655Y-121564943D01*
X112100000Y-121531250D01*
X112100000Y-120843750D01*
X112101655Y-120810057D01*
X112106605Y-120776688D01*
X112114802Y-120743965D01*
X112126166Y-120712203D01*
X112140590Y-120681707D01*
X112157932Y-120652773D01*
X112178028Y-120625677D01*
X112200682Y-120600682D01*
X112225677Y-120578028D01*
X112252773Y-120557932D01*
X112281707Y-120540590D01*
X112312203Y-120526166D01*
X112343965Y-120514802D01*
X112376688Y-120506605D01*
X112410057Y-120501655D01*
X112443750Y-120500000D01*
X113556250Y-120500000D01*
X113589943Y-120501655D01*
X113589943Y-120501655D01*
G37*
D12*
X113000000Y-121187500D03*
D11*
G36*
X113589943Y-118626655D02*
X113623312Y-118631605D01*
X113656035Y-118639802D01*
X113687797Y-118651166D01*
X113718293Y-118665590D01*
X113747227Y-118682932D01*
X113774323Y-118703028D01*
X113799318Y-118725682D01*
X113821972Y-118750677D01*
X113842068Y-118777773D01*
X113859410Y-118806707D01*
X113873834Y-118837203D01*
X113885198Y-118868965D01*
X113893395Y-118901688D01*
X113898345Y-118935057D01*
X113900000Y-118968750D01*
X113900000Y-119656250D01*
X113898345Y-119689943D01*
X113893395Y-119723312D01*
X113885198Y-119756035D01*
X113873834Y-119787797D01*
X113859410Y-119818293D01*
X113842068Y-119847227D01*
X113821972Y-119874323D01*
X113799318Y-119899318D01*
X113774323Y-119921972D01*
X113747227Y-119942068D01*
X113718293Y-119959410D01*
X113687797Y-119973834D01*
X113656035Y-119985198D01*
X113623312Y-119993395D01*
X113589943Y-119998345D01*
X113556250Y-120000000D01*
X112443750Y-120000000D01*
X112410057Y-119998345D01*
X112376688Y-119993395D01*
X112343965Y-119985198D01*
X112312203Y-119973834D01*
X112281707Y-119959410D01*
X112252773Y-119942068D01*
X112225677Y-119921972D01*
X112200682Y-119899318D01*
X112178028Y-119874323D01*
X112157932Y-119847227D01*
X112140590Y-119818293D01*
X112126166Y-119787797D01*
X112114802Y-119756035D01*
X112106605Y-119723312D01*
X112101655Y-119689943D01*
X112100000Y-119656250D01*
X112100000Y-118968750D01*
X112101655Y-118935057D01*
X112106605Y-118901688D01*
X112114802Y-118868965D01*
X112126166Y-118837203D01*
X112140590Y-118806707D01*
X112157932Y-118777773D01*
X112178028Y-118750677D01*
X112200682Y-118725682D01*
X112225677Y-118703028D01*
X112252773Y-118682932D01*
X112281707Y-118665590D01*
X112312203Y-118651166D01*
X112343965Y-118639802D01*
X112376688Y-118631605D01*
X112410057Y-118626655D01*
X112443750Y-118625000D01*
X113556250Y-118625000D01*
X113589943Y-118626655D01*
X113589943Y-118626655D01*
G37*
D12*
X113000000Y-119312500D03*
G04 #@! TD*
D11*
G04 #@! TO.C,C24*
G36*
X113589943Y-98126655D02*
X113623312Y-98131605D01*
X113656035Y-98139802D01*
X113687797Y-98151166D01*
X113718293Y-98165590D01*
X113747227Y-98182932D01*
X113774323Y-98203028D01*
X113799318Y-98225682D01*
X113821972Y-98250677D01*
X113842068Y-98277773D01*
X113859410Y-98306707D01*
X113873834Y-98337203D01*
X113885198Y-98368965D01*
X113893395Y-98401688D01*
X113898345Y-98435057D01*
X113900000Y-98468750D01*
X113900000Y-99156250D01*
X113898345Y-99189943D01*
X113893395Y-99223312D01*
X113885198Y-99256035D01*
X113873834Y-99287797D01*
X113859410Y-99318293D01*
X113842068Y-99347227D01*
X113821972Y-99374323D01*
X113799318Y-99399318D01*
X113774323Y-99421972D01*
X113747227Y-99442068D01*
X113718293Y-99459410D01*
X113687797Y-99473834D01*
X113656035Y-99485198D01*
X113623312Y-99493395D01*
X113589943Y-99498345D01*
X113556250Y-99500000D01*
X112443750Y-99500000D01*
X112410057Y-99498345D01*
X112376688Y-99493395D01*
X112343965Y-99485198D01*
X112312203Y-99473834D01*
X112281707Y-99459410D01*
X112252773Y-99442068D01*
X112225677Y-99421972D01*
X112200682Y-99399318D01*
X112178028Y-99374323D01*
X112157932Y-99347227D01*
X112140590Y-99318293D01*
X112126166Y-99287797D01*
X112114802Y-99256035D01*
X112106605Y-99223312D01*
X112101655Y-99189943D01*
X112100000Y-99156250D01*
X112100000Y-98468750D01*
X112101655Y-98435057D01*
X112106605Y-98401688D01*
X112114802Y-98368965D01*
X112126166Y-98337203D01*
X112140590Y-98306707D01*
X112157932Y-98277773D01*
X112178028Y-98250677D01*
X112200682Y-98225682D01*
X112225677Y-98203028D01*
X112252773Y-98182932D01*
X112281707Y-98165590D01*
X112312203Y-98151166D01*
X112343965Y-98139802D01*
X112376688Y-98131605D01*
X112410057Y-98126655D01*
X112443750Y-98125000D01*
X113556250Y-98125000D01*
X113589943Y-98126655D01*
X113589943Y-98126655D01*
G37*
D12*
X113000000Y-98812500D03*
D11*
G36*
X113589943Y-100001655D02*
X113623312Y-100006605D01*
X113656035Y-100014802D01*
X113687797Y-100026166D01*
X113718293Y-100040590D01*
X113747227Y-100057932D01*
X113774323Y-100078028D01*
X113799318Y-100100682D01*
X113821972Y-100125677D01*
X113842068Y-100152773D01*
X113859410Y-100181707D01*
X113873834Y-100212203D01*
X113885198Y-100243965D01*
X113893395Y-100276688D01*
X113898345Y-100310057D01*
X113900000Y-100343750D01*
X113900000Y-101031250D01*
X113898345Y-101064943D01*
X113893395Y-101098312D01*
X113885198Y-101131035D01*
X113873834Y-101162797D01*
X113859410Y-101193293D01*
X113842068Y-101222227D01*
X113821972Y-101249323D01*
X113799318Y-101274318D01*
X113774323Y-101296972D01*
X113747227Y-101317068D01*
X113718293Y-101334410D01*
X113687797Y-101348834D01*
X113656035Y-101360198D01*
X113623312Y-101368395D01*
X113589943Y-101373345D01*
X113556250Y-101375000D01*
X112443750Y-101375000D01*
X112410057Y-101373345D01*
X112376688Y-101368395D01*
X112343965Y-101360198D01*
X112312203Y-101348834D01*
X112281707Y-101334410D01*
X112252773Y-101317068D01*
X112225677Y-101296972D01*
X112200682Y-101274318D01*
X112178028Y-101249323D01*
X112157932Y-101222227D01*
X112140590Y-101193293D01*
X112126166Y-101162797D01*
X112114802Y-101131035D01*
X112106605Y-101098312D01*
X112101655Y-101064943D01*
X112100000Y-101031250D01*
X112100000Y-100343750D01*
X112101655Y-100310057D01*
X112106605Y-100276688D01*
X112114802Y-100243965D01*
X112126166Y-100212203D01*
X112140590Y-100181707D01*
X112157932Y-100152773D01*
X112178028Y-100125677D01*
X112200682Y-100100682D01*
X112225677Y-100078028D01*
X112252773Y-100057932D01*
X112281707Y-100040590D01*
X112312203Y-100026166D01*
X112343965Y-100014802D01*
X112376688Y-100006605D01*
X112410057Y-100001655D01*
X112443750Y-100000000D01*
X113556250Y-100000000D01*
X113589943Y-100001655D01*
X113589943Y-100001655D01*
G37*
D12*
X113000000Y-100687500D03*
G04 #@! TD*
D11*
G04 #@! TO.C,C25*
G36*
X113589943Y-123876655D02*
X113623312Y-123881605D01*
X113656035Y-123889802D01*
X113687797Y-123901166D01*
X113718293Y-123915590D01*
X113747227Y-123932932D01*
X113774323Y-123953028D01*
X113799318Y-123975682D01*
X113821972Y-124000677D01*
X113842068Y-124027773D01*
X113859410Y-124056707D01*
X113873834Y-124087203D01*
X113885198Y-124118965D01*
X113893395Y-124151688D01*
X113898345Y-124185057D01*
X113900000Y-124218750D01*
X113900000Y-124906250D01*
X113898345Y-124939943D01*
X113893395Y-124973312D01*
X113885198Y-125006035D01*
X113873834Y-125037797D01*
X113859410Y-125068293D01*
X113842068Y-125097227D01*
X113821972Y-125124323D01*
X113799318Y-125149318D01*
X113774323Y-125171972D01*
X113747227Y-125192068D01*
X113718293Y-125209410D01*
X113687797Y-125223834D01*
X113656035Y-125235198D01*
X113623312Y-125243395D01*
X113589943Y-125248345D01*
X113556250Y-125250000D01*
X112443750Y-125250000D01*
X112410057Y-125248345D01*
X112376688Y-125243395D01*
X112343965Y-125235198D01*
X112312203Y-125223834D01*
X112281707Y-125209410D01*
X112252773Y-125192068D01*
X112225677Y-125171972D01*
X112200682Y-125149318D01*
X112178028Y-125124323D01*
X112157932Y-125097227D01*
X112140590Y-125068293D01*
X112126166Y-125037797D01*
X112114802Y-125006035D01*
X112106605Y-124973312D01*
X112101655Y-124939943D01*
X112100000Y-124906250D01*
X112100000Y-124218750D01*
X112101655Y-124185057D01*
X112106605Y-124151688D01*
X112114802Y-124118965D01*
X112126166Y-124087203D01*
X112140590Y-124056707D01*
X112157932Y-124027773D01*
X112178028Y-124000677D01*
X112200682Y-123975682D01*
X112225677Y-123953028D01*
X112252773Y-123932932D01*
X112281707Y-123915590D01*
X112312203Y-123901166D01*
X112343965Y-123889802D01*
X112376688Y-123881605D01*
X112410057Y-123876655D01*
X112443750Y-123875000D01*
X113556250Y-123875000D01*
X113589943Y-123876655D01*
X113589943Y-123876655D01*
G37*
D12*
X113000000Y-124562500D03*
D11*
G36*
X113589943Y-125751655D02*
X113623312Y-125756605D01*
X113656035Y-125764802D01*
X113687797Y-125776166D01*
X113718293Y-125790590D01*
X113747227Y-125807932D01*
X113774323Y-125828028D01*
X113799318Y-125850682D01*
X113821972Y-125875677D01*
X113842068Y-125902773D01*
X113859410Y-125931707D01*
X113873834Y-125962203D01*
X113885198Y-125993965D01*
X113893395Y-126026688D01*
X113898345Y-126060057D01*
X113900000Y-126093750D01*
X113900000Y-126781250D01*
X113898345Y-126814943D01*
X113893395Y-126848312D01*
X113885198Y-126881035D01*
X113873834Y-126912797D01*
X113859410Y-126943293D01*
X113842068Y-126972227D01*
X113821972Y-126999323D01*
X113799318Y-127024318D01*
X113774323Y-127046972D01*
X113747227Y-127067068D01*
X113718293Y-127084410D01*
X113687797Y-127098834D01*
X113656035Y-127110198D01*
X113623312Y-127118395D01*
X113589943Y-127123345D01*
X113556250Y-127125000D01*
X112443750Y-127125000D01*
X112410057Y-127123345D01*
X112376688Y-127118395D01*
X112343965Y-127110198D01*
X112312203Y-127098834D01*
X112281707Y-127084410D01*
X112252773Y-127067068D01*
X112225677Y-127046972D01*
X112200682Y-127024318D01*
X112178028Y-126999323D01*
X112157932Y-126972227D01*
X112140590Y-126943293D01*
X112126166Y-126912797D01*
X112114802Y-126881035D01*
X112106605Y-126848312D01*
X112101655Y-126814943D01*
X112100000Y-126781250D01*
X112100000Y-126093750D01*
X112101655Y-126060057D01*
X112106605Y-126026688D01*
X112114802Y-125993965D01*
X112126166Y-125962203D01*
X112140590Y-125931707D01*
X112157932Y-125902773D01*
X112178028Y-125875677D01*
X112200682Y-125850682D01*
X112225677Y-125828028D01*
X112252773Y-125807932D01*
X112281707Y-125790590D01*
X112312203Y-125776166D01*
X112343965Y-125764802D01*
X112376688Y-125756605D01*
X112410057Y-125751655D01*
X112443750Y-125750000D01*
X113556250Y-125750000D01*
X113589943Y-125751655D01*
X113589943Y-125751655D01*
G37*
D12*
X113000000Y-126437500D03*
G04 #@! TD*
D10*
G04 #@! TO.C,JP5*
X101475000Y-85750000D03*
D11*
G36*
X102014018Y-84803843D02*
X102051537Y-84815224D01*
X102086114Y-84833706D01*
X102116421Y-84858579D01*
X102141294Y-84888886D01*
X102159776Y-84923463D01*
X102171157Y-84960982D01*
X102175000Y-85000000D01*
X102175000Y-86500000D01*
X102171157Y-86539018D01*
X102159776Y-86576537D01*
X102141294Y-86611114D01*
X102116421Y-86641421D01*
X102086114Y-86666294D01*
X102051537Y-86684776D01*
X102014018Y-86696157D01*
X101975000Y-86700000D01*
X100825000Y-86700000D01*
X100785982Y-86696157D01*
X100748463Y-86684776D01*
X100713886Y-86666294D01*
X100683579Y-86641421D01*
X100658706Y-86611114D01*
X100640224Y-86576537D01*
X100628843Y-86539018D01*
X100625000Y-86500000D01*
X100628843Y-86460982D01*
X100640224Y-86423463D01*
X100658590Y-86389060D01*
X101084630Y-85750000D01*
X100658590Y-85110940D01*
X100640144Y-85076343D01*
X100628802Y-85038813D01*
X100625000Y-84999791D01*
X100628884Y-84960777D01*
X100640304Y-84923270D01*
X100658822Y-84888712D01*
X100683727Y-84858431D01*
X100714060Y-84833590D01*
X100748657Y-84815144D01*
X100786187Y-84803802D01*
X100825000Y-84800000D01*
X101975000Y-84800000D01*
X102014018Y-84803843D01*
X102014018Y-84803843D01*
G37*
D10*
X100025000Y-85750000D03*
D11*
G36*
X100564018Y-84803843D02*
X100601537Y-84815224D01*
X100636114Y-84833706D01*
X100666421Y-84858579D01*
X100691410Y-84889060D01*
X101191410Y-85639060D01*
X101209856Y-85673657D01*
X101221198Y-85711187D01*
X101225000Y-85750209D01*
X101221116Y-85789223D01*
X101209696Y-85826730D01*
X101191410Y-85860940D01*
X100691410Y-86610940D01*
X100666569Y-86641273D01*
X100636288Y-86666178D01*
X100601730Y-86684696D01*
X100564223Y-86696116D01*
X100525000Y-86700000D01*
X99525000Y-86700000D01*
X99485982Y-86696157D01*
X99448463Y-86684776D01*
X99413886Y-86666294D01*
X99383579Y-86641421D01*
X99358706Y-86611114D01*
X99340224Y-86576537D01*
X99328843Y-86539018D01*
X99325000Y-86500000D01*
X99325000Y-85000000D01*
X99328843Y-84960982D01*
X99340224Y-84923463D01*
X99358706Y-84888886D01*
X99383579Y-84858579D01*
X99413886Y-84833706D01*
X99448463Y-84815224D01*
X99485982Y-84803843D01*
X99525000Y-84800000D01*
X100525000Y-84800000D01*
X100564018Y-84803843D01*
X100564018Y-84803843D01*
G37*
G04 #@! TD*
M02*
